<svg width="30.000000" height="29.000000" viewBox="0 0 30 29" fill="none" xmlns="http://www.w3.org/2000/svg" xmlns:xlink="http://www.w3.org/1999/xlink">
	<desc>
			Created with Pixso.
	</desc>
	<defs/>
	<path id="2" d="M11.1178 21.385L11.1268 19.711L16.7698 14.653C17.2258 14.251 17.5348 13.867 17.6968 13.501C17.8648 13.135 17.9488 12.769 17.9488 12.403C17.9488 11.941 17.8468 11.527 17.6428 11.161C17.4388 10.789 17.1568 10.495 16.7968 10.279C16.4368 10.063 16.0228 9.955 15.5548 9.955C15.0748 9.955 14.6458 10.069 14.2678 10.297C13.8958 10.519 13.6048 10.816 13.3948 11.188C13.1848 11.56 13.0828 11.962 13.0888 12.394L11.1628 12.394C11.1628 11.554 11.3518 10.819 11.7298 10.189C12.1138 9.553 12.6388 9.058 13.3048 8.704C13.9708 8.344 14.7328 8.164 15.5908 8.164C16.4068 8.164 17.1388 8.35 17.7868 8.722C18.4348 9.088 18.9448 9.592 19.3168 10.234C19.6948 10.876 19.8838 11.608 19.8838 12.43C19.8838 13.024 19.8058 13.528 19.6498 13.942C19.4938 14.356 19.2598 14.74 18.9478 15.094C18.6358 15.448 18.2458 15.832 17.7778 16.246L13.4218 20.134L13.2148 19.594L19.8838 19.594L19.8838 21.385L11.1178 21.385Z" fill="#86B3EE" fill-opacity="1.000000" fill-rule="evenodd"/>
	<path id="Vector" d="M2.00781 12.8291C2.54492 13.5474 2.73633 13.9023 2.75 14.1938C2.75977 14.3726 2.72852 14.5132 2.63086 14.731C2.57812 14.8472 2.55078 14.9385 2.54492 15.0103C2.54102 15.0679 2.54297 15.1152 2.54688 15.1157C2.55273 15.1162 2.58008 15.0386 2.60938 14.9448C2.70312 14.6406 2.84961 14.2651 3.02344 13.8867C3.2793 13.333 3.31445 13.2002 3.28516 12.9321C3.25781 12.6802 3.27148 12.5483 3.33789 12.4082C3.39648 12.2891 3.56055 12.0444 3.68555 11.894C3.77734 11.7822 3.92969 11.5474 3.97461 11.4468C3.99609 11.3984 4.02148 11.2803 4.03125 11.1826C4.04297 11.0835 4.05469 11.0024 4.05664 11C4.06641 10.9927 4.0918 11.397 4.10742 11.7617C4.12891 12.2041 4.08984 12.5576 4.00195 12.7451C3.91211 12.9419 3.83008 13.0347 3.60547 13.2021C3.42188 13.3379 3.40625 13.3521 3.33984 13.4595C3.24414 13.6094 3.0918 13.9209 2.98242 14.1904C2.87695 14.4473 2.86914 14.4775 2.93359 14.4062C3.02734 14.2969 3.05273 14.2476 3.11523 14.0562C3.20117 13.7959 3.24805 13.7031 3.375 13.5469C3.45508 13.4492 3.50586 13.4004 3.58594 13.3472C3.7793 13.2163 4.07617 13.0664 4.36523 12.958C4.77734 12.8013 5.26758 12.6328 5.2793 12.646C5.2832 12.6514 5.26562 12.6631 5.23828 12.6719C5.15625 12.6978 4.9707 12.8032 4.88672 12.8726C4.7793 12.959 4.60938 13.165 4.44727 13.4048C4.04102 14 3.9082 14.1074 3.45898 14.2041C3.24023 14.25 3.23047 14.2539 3.10547 14.3442C3.03516 14.3979 2.94141 14.48 2.89648 14.5327C2.81836 14.6196 2.80664 14.6499 2.72461 14.9131C2.625 15.2402 2.53906 15.5996 2.48242 15.9263C2.42773 16.25 2.36523 16.7949 2.38477 16.7871C2.43164 16.7695 2.49609 16.583 2.52148 16.3887C2.55664 16.1255 2.59766 15.9922 2.69922 15.812L2.7793 15.6699L3.09375 15.4141C3.38477 15.1787 3.43359 15.1455 3.71289 14.9829C4.1875 14.7085 4.39844 14.5952 4.40625 14.6069C4.41211 14.6138 4.40234 14.6245 4.38281 14.6309C4.33203 14.6509 4.10156 14.8442 4.03906 14.9194C3.95898 15.0151 3.82617 15.2603 3.69141 15.562C3.625 15.7051 3.53516 15.8896 3.49023 15.9731C3.4082 16.125 3.4043 16.1279 3.23633 16.2632C3.08008 16.3896 3.05078 16.4072 2.89844 16.4644C2.70898 16.5376 2.56445 16.6416 2.46289 16.7803C2.37695 16.9014 2.37109 16.9258 2.36523 17.1479C2.35352 17.541 2.38477 18.0146 2.44531 18.4482C2.48047 18.7046 2.62305 19.3809 2.64258 19.3828C2.65039 19.3838 2.66211 19.3159 2.67188 19.2324C2.68555 19.1045 2.67969 19.0557 2.64062 18.9316C2.5293 18.5771 2.50781 18.4033 2.55469 18.1685C2.60352 17.8999 2.82031 17.585 3.24219 17.1709C3.54102 16.877 3.92969 16.5342 3.82617 16.6533C3.74414 16.7495 3.6543 16.8955 3.61719 16.9917C3.57617 17.1021 3.54102 17.4116 3.53516 17.7119C3.53125 18.0317 3.48828 18.3755 3.44141 18.4746C3.42188 18.5195 3.36328 18.6035 3.31445 18.6646C3.23242 18.7598 3.19922 18.7886 3.0625 18.875C2.92383 18.9639 2.89648 18.9854 2.84961 19.0547C2.7793 19.1558 2.73633 19.2842 2.71484 19.4575C2.70117 19.5767 2.70508 19.6147 2.75586 19.77C2.91602 20.269 3.17578 20.8384 3.44531 21.2886C3.60156 21.5503 3.82812 21.8848 3.95117 22.0386L4.06445 22.1777L4.0625 22.1235C4.0625 21.9839 4.01953 21.8804 3.87305 21.6455C3.79492 21.5205 3.71289 21.376 3.69336 21.3257C3.62891 21.1699 3.5918 20.9492 3.60352 20.7886C3.60938 20.7095 3.73828 20.3135 3.8125 20.1431C3.85938 20.0391 4.23438 19.3926 4.36719 19.1895C4.41406 19.1196 4.4668 19.0337 4.49023 19C4.55664 18.8979 4.55273 18.9424 4.48242 19.0898C4.35547 19.3574 4.36133 19.6519 4.50391 20.1743C4.59961 20.5283 4.6582 20.8633 4.64453 20.9966C4.63867 21.0684 4.61133 21.1606 4.56836 21.25C4.50391 21.3857 4.46875 21.4365 4.29688 21.6255C4.17188 21.7676 4.11719 21.9771 4.14258 22.2095C4.15234 22.2793 4.16602 22.3052 4.24219 22.3994C4.41992 22.6196 4.83594 23.0308 5.12109 23.271C5.46484 23.562 5.91602 23.874 6.28906 24.0815C6.53125 24.2158 6.87109 24.3877 6.87891 24.3794C6.89844 24.3662 6.79688 24.1968 6.71484 24.0947C6.64453 24.0098 6.59375 23.9678 6.42188 23.8511C6.14453 23.6655 6.03516 23.5737 5.91406 23.4253C5.68555 23.1377 5.65039 23.0469 5.5918 22.5771C5.56445 22.3706 5.55859 22.2104 5.57031 22.0015C5.58984 21.6216 5.68359 20.6646 5.70117 20.6665C5.70898 20.6685 5.71484 20.7295 5.71484 20.8047C5.7168 20.9521 5.74805 21.1431 5.79492 21.2681C5.85156 21.4131 6.08203 21.7568 6.27344 21.9736C6.47266 22.1997 6.76172 22.5981 6.82812 22.7432C6.92188 22.9473 6.92969 23.2212 6.84375 23.501C6.80859 23.6094 6.78125 23.7324 6.78125 23.7744C6.78125 23.9668 6.86719 24.1963 7.00391 24.377C7.08203 24.4775 7.08203 24.4775 7.28125 24.5537C7.92188 24.8022 8.56641 24.9609 9.22656 25.0376C9.57031 25.0767 10 25.1035 10 25.0854C10.0039 25.0674 9.78906 24.9194 9.71094 24.8843C9.67188 24.8652 9.49219 24.8169 9.31641 24.7778C8.98438 24.7012 8.75781 24.6245 8.60938 24.5352C8.44141 24.4385 8.26172 24.2905 8.17578 24.1855C8.07812 24.0635 7.80078 23.5396 7.73828 23.355C7.66406 23.145 7.41797 22.2437 7.34766 21.9263C7.28125 21.6265 7.27344 21.5083 7.33594 21.7061C7.41797 21.9814 7.59766 22.2212 7.86328 22.4219C8.07812 22.5859 8.16016 22.6372 8.46484 22.8042C8.88281 23.0312 9.33984 23.3428 9.44531 23.4702C9.51953 23.563 9.61719 23.7793 9.66016 23.9414C9.67969 24.0146 9.69531 24.1494 9.69531 24.2412C9.69531 24.4604 9.72656 24.5698 9.82422 24.73C9.89062 24.8374 9.92578 24.8789 10.0273 24.9712C10.1094 25.0439 10.168 25.0845 10.1992 25.0913C10.3164 25.1089 10.9531 25.0645 11.3359 25.0098C11.6797 24.9614 12.3164 24.8154 12.5664 24.7295C12.5938 24.7202 12.6094 24.7339 12.6641 24.7993L12.7266 24.8789L12.6328 24.9072C11.8359 25.1582 10.9414 25.2896 10.0703 25.2832C9.89453 25.2827 9.83203 25.2905 9.73047 25.3301C9.53906 25.4019 9.40234 25.4829 9.27344 25.604C9.12891 25.7378 9.08594 25.8081 9.01172 26.0322C8.94141 26.2363 8.88672 26.3379 8.75391 26.5044C8.63672 26.6475 8.53125 26.7373 8.40625 26.7983C8.24219 26.875 7.75 27.0396 7.40234 27.1284C7.08594 27.2109 6.77734 27.3159 6.55078 27.4204C6.42188 27.481 6.13672 27.7256 6.04688 27.8555C5.87891 28.0962 5.89453 28.0327 6.08594 27.6909C6.3125 27.2866 6.82422 26.4722 6.94531 26.3262C7.12109 26.1133 7.45703 25.7739 7.55078 25.7085C7.66016 25.6392 7.875 25.5469 8.05469 25.4951C8.23438 25.4409 8.44141 25.4238 8.80078 25.4321C9.14844 25.4375 9.23828 25.4292 9.39062 25.3687C9.63672 25.27 9.63672 25.2729 9.28125 25.2358C8.55469 25.1587 7.84766 24.9839 7.17188 24.7144C7.02344 24.6572 6.89062 24.6074 6.86719 24.6025C6.79297 24.5898 6.56641 24.6313 6.4375 24.6812C6.28906 24.7397 6.23438 24.7798 6.10156 24.9365C6.01562 25.0386 5.98438 25.0654 5.86523 25.1382C5.70117 25.2407 5.54688 25.2954 5.4043 25.3062C5.23828 25.3179 4.875 25.3057 4.52734 25.2773C4.0957 25.2407 3.72852 25.2534 3.54492 25.3096C3.39648 25.356 3.22852 25.4346 3.1582 25.4917C3.13672 25.5098 3.11133 25.5195 3.10547 25.5112C3.08984 25.4941 3.32227 25.3174 3.87109 24.9268C4.26562 24.6465 4.39062 24.5708 4.71484 24.4272C5.00391 24.2983 5.08398 24.2769 5.30469 24.2695C5.55078 24.2607 5.7793 24.3027 6.10547 24.4175C6.26172 24.4722 6.4375 24.5225 6.48828 24.5298C6.57812 24.5405 6.72656 24.54 6.71875 24.5293C6.71484 24.5269 6.62109 24.4775 6.50781 24.4189C5.68359 23.9946 4.96875 23.4639 4.35938 22.8184L4.18164 22.6309L4.05859 22.6138C3.87305 22.5874 3.82227 22.6001 3.67188 22.7031C3.50977 22.8159 3.3457 22.8618 3.18164 22.8428C3.05859 22.8276 2.73047 22.7031 2.39648 22.5459C1.96094 22.3403 1.69922 22.2817 1.46484 22.3394C1.40039 22.355 1.35156 22.3628 1.35156 22.3584C1.35547 22.3223 2.27148 21.9868 2.45117 21.9546C2.67188 21.917 2.93555 21.9038 3.01953 21.9277C3.28516 21.999 3.44531 22.0869 3.74805 22.3291C3.91016 22.46 4.07031 22.5571 4.08984 22.54C4.0957 22.5356 3.99414 22.4023 3.86719 22.2422C3.61133 21.9199 3.4707 21.7134 3.25781 21.3501C3.0332 20.9629 2.81445 20.4971 2.67969 20.1147L2.63086 19.9766L2.54297 19.9175C2.43164 19.8423 2.27539 19.7861 2.17578 19.7861C2.11719 19.7856 2.05859 19.8047 1.96484 19.8525C1.78125 19.9458 1.58789 19.9619 1.44727 19.8994C1.35938 19.8608 1.0625 19.6562 0.908203 19.5293C0.771484 19.4165 0.546875 19.2686 0.4375 19.2178C0.351562 19.1792 0.140625 19.1572 0.0664062 19.1802C0.0351562 19.188 0.0078125 19.1909 0.00195312 19.1841C-0.0273438 19.147 0.927734 18.9438 1.13867 18.9429C1.43945 18.9409 1.54297 18.9609 1.68359 19.0415C1.81445 19.1177 2.02344 19.3037 2.05469 19.3726C2.06445 19.3931 2.12305 19.4731 2.18555 19.5527C2.29492 19.6929 2.30273 19.6987 2.42578 19.7559C2.49609 19.7891 2.55859 19.8115 2.5625 19.8071C2.56836 19.8027 2.55273 19.7344 2.5293 19.6533C2.38086 19.1704 2.25781 18.4395 2.22656 17.874C2.2168 17.6626 2.17969 17.5664 2.03906 17.3901L1.93164 17.2563L1.76758 17.1934C1.58984 17.1245 1.41992 17.0112 1.33984 16.9131C1.28125 16.8389 1.1543 16.5347 1.07617 16.2734C0.982422 15.9629 0.896484 15.7891 0.773438 15.6523C0.716797 15.5889 0.640625 15.5205 0.603516 15.498C0.568359 15.4761 0.542969 15.4551 0.548828 15.4507C0.552734 15.4468 0.587891 15.46 0.625 15.481C1.36914 15.9126 1.54492 16.0332 1.82422 16.3022C1.91797 16.3911 1.9375 16.4175 1.98828 16.5317C2.06836 16.7065 2.09961 16.8501 2.09766 17.0581C2.09766 17.1548 2.10156 17.2651 2.10938 17.3022C2.125 17.3779 2.18555 17.5186 2.20312 17.5205C2.21094 17.5215 2.21875 17.394 2.22266 17.2373C2.23633 16.7021 2.31055 16.1274 2.44727 15.5269C2.5332 15.1543 2.50391 14.9517 2.33984 14.7642C2.13672 14.5312 2.05273 14.4155 2.01953 14.3262C1.97656 14.2114 1.97461 13.9854 2.01172 13.6201C2.04883 13.2422 2.04102 13.0664 1.97852 12.9019C1.95312 12.8315 1.91797 12.7563 1.90234 12.7339C1.88672 12.7144 1.86914 12.6797 1.86328 12.6597C1.85742 12.6372 1.91016 12.6987 2.00781 12.8291Z" fill="#86B3EE" fill-opacity="1.000000" fill-rule="nonzero"/>
	<path id="Vector" d="M27.9922 12.8291C27.457 13.5474 27.2617 13.9023 27.25 14.1938C27.2383 14.3726 27.2734 14.5132 27.3711 14.731C27.4219 14.8472 27.4492 14.9385 27.4531 15.0103C27.457 15.0679 27.457 15.1152 27.4531 15.1157C27.4492 15.1162 27.418 15.0386 27.3906 14.9448C27.2969 14.6406 27.1523 14.2651 26.9766 13.8867C26.7227 13.333 26.6836 13.2002 26.7148 12.9321C26.7422 12.6802 26.7305 12.5483 26.6602 12.4082C26.6055 12.2891 26.4414 12.0444 26.3125 11.894C26.2227 11.7822 26.0703 11.5474 26.0273 11.4468C26.0039 11.3984 25.9766 11.2803 25.9688 11.1826C25.957 11.0835 25.9453 11.0024 25.9453 11C25.9336 10.9927 25.9062 11.397 25.8906 11.7617C25.8711 12.2041 25.9102 12.5576 25.9961 12.7451C26.0898 12.9419 26.1719 13.0347 26.3945 13.2021C26.5781 13.3379 26.5938 13.3521 26.6602 13.4595C26.7578 13.6094 26.9062 13.9209 27.0195 14.1904C27.125 14.4473 27.1328 14.4775 27.0664 14.4062C26.9727 14.2969 26.9492 14.2476 26.8867 14.0562C26.8008 13.7959 26.7539 13.7031 26.625 13.5469C26.5469 13.4492 26.4922 13.4004 26.4141 13.3472C26.2227 13.2163 25.9219 13.0664 25.6367 12.958C25.2227 12.8013 24.7305 12.6328 24.7227 12.646C24.7188 12.6514 24.7344 12.6631 24.7617 12.6719C24.8438 12.6978 25.0273 12.8032 25.1133 12.8726C25.2188 12.959 25.3906 13.165 25.5547 13.4048C25.957 14 26.0898 14.1074 26.5391 14.2041C26.7578 14.25 26.7695 14.2539 26.8945 14.3442C26.9648 14.3979 27.0586 14.48 27.1055 14.5327C27.1797 14.6196 27.1953 14.6499 27.2734 14.9131C27.375 15.2402 27.4609 15.5996 27.5156 15.9263C27.5742 16.25 27.6367 16.7949 27.6172 16.7871C27.5703 16.7695 27.5039 16.583 27.4805 16.3887C27.4453 16.1255 27.4023 15.9922 27.3008 15.812L27.2188 15.6699L26.9062 15.4141C26.6172 15.1787 26.5664 15.1455 26.2891 14.9829C25.8125 14.7085 25.6016 14.5952 25.5938 14.6069C25.5859 14.6138 25.5977 14.6245 25.6172 14.6309C25.668 14.6509 25.8984 14.8442 25.9609 14.9194C26.0391 15.0151 26.1719 15.2603 26.3086 15.562C26.375 15.7051 26.4648 15.8896 26.5117 15.9731C26.5898 16.125 26.5938 16.1279 26.7656 16.2632C26.9219 16.3896 26.9492 16.4072 27.1016 16.4644C27.293 16.5376 27.4375 16.6416 27.5352 16.7803C27.625 16.9014 27.6289 16.9258 27.6367 17.1479C27.6445 17.541 27.6172 18.0146 27.5547 18.4482C27.5195 18.7046 27.375 19.3809 27.3594 19.3828C27.3516 19.3838 27.3359 19.3159 27.3281 19.2324C27.3164 19.1045 27.3203 19.0557 27.3594 18.9316C27.4727 18.5771 27.4922 18.4033 27.4453 18.1685C27.3945 17.8999 27.1797 17.585 26.7578 17.1709C26.457 16.877 26.0703 16.5342 26.1758 16.6533C26.2539 16.7495 26.3477 16.8955 26.3828 16.9917C26.4258 17.1021 26.4609 17.4116 26.4648 17.7119C26.4688 18.0317 26.5117 18.3755 26.5586 18.4746C26.5781 18.5195 26.6367 18.6035 26.6875 18.6646C26.7695 18.7598 26.8008 18.7886 26.9375 18.875C27.0781 18.9639 27.1016 18.9854 27.1523 19.0547C27.2227 19.1558 27.2617 19.2842 27.2852 19.4575C27.3008 19.5767 27.293 19.6147 27.2461 19.77C27.082 20.269 26.8242 20.8384 26.5547 21.2886C26.3984 21.5503 26.1719 21.8848 26.0469 22.0386L25.9375 22.1777L25.9375 22.1235C25.9375 21.9839 25.9805 21.8804 26.125 21.6455C26.207 21.5205 26.2891 21.376 26.3047 21.3257C26.3711 21.1699 26.4062 20.9492 26.3945 20.7886C26.3906 20.7095 26.2617 20.3135 26.1875 20.1431C26.1406 20.0391 25.7656 19.3926 25.6328 19.1895C25.5859 19.1196 25.5312 19.0337 25.5078 19C25.4453 18.8979 25.4453 18.9424 25.5156 19.0898C25.6445 19.3574 25.6406 19.6519 25.4961 20.1743C25.3984 20.5283 25.3438 20.8633 25.3555 20.9966C25.3633 21.0684 25.3906 21.1606 25.4336 21.25C25.4961 21.3857 25.5312 21.4365 25.7031 21.6255C25.8281 21.7676 25.8828 21.9771 25.8555 22.2095C25.8477 22.2793 25.832 22.3052 25.7578 22.3994C25.582 22.6196 25.1641 23.0308 24.8789 23.271C24.5352 23.562 24.082 23.874 23.7109 24.0815C23.4688 24.2158 23.1289 24.3877 23.1211 24.3794C23.1016 24.3662 23.2031 24.1968 23.2852 24.0947C23.3555 24.0098 23.4062 23.9678 23.5781 23.8511C23.8555 23.6655 23.9648 23.5737 24.0859 23.4253C24.3164 23.1377 24.3477 23.0469 24.4102 22.5771C24.4375 22.3706 24.4414 22.2104 24.4297 22.0015C24.4102 21.6216 24.3164 20.6646 24.3008 20.6665C24.2891 20.6685 24.2852 20.7295 24.2852 20.8047C24.2852 20.9521 24.25 21.1431 24.2031 21.2681C24.1484 21.4131 23.918 21.7568 23.7266 21.9736C23.5273 22.1997 23.2383 22.5981 23.1719 22.7432C23.0781 22.9473 23.0703 23.2212 23.1562 23.501C23.1914 23.6094 23.2188 23.7324 23.2188 23.7744C23.2188 23.9668 23.1328 24.1963 22.9961 24.377C22.918 24.4775 22.918 24.4775 22.7188 24.5537C22.0781 24.8022 21.4336 24.9609 20.7734 25.0376C20.4297 25.0767 20 25.1035 20 25.0854C19.9961 25.0674 20.2109 24.9194 20.2891 24.8843C20.3281 24.8652 20.5078 24.8169 20.6836 24.7778C21.0156 24.7012 21.2422 24.6245 21.3906 24.5352C21.5586 24.4385 21.7383 24.2905 21.8242 24.1855C21.9219 24.0635 22.1992 23.5396 22.2617 23.355C22.3359 23.145 22.582 22.2437 22.6523 21.9263C22.7188 21.6265 22.7266 21.5083 22.6641 21.7061C22.582 21.9814 22.4023 22.2212 22.1367 22.4219C21.9219 22.5859 21.8398 22.6372 21.5352 22.8042C21.1172 23.0312 20.6602 23.3428 20.5547 23.4702C20.4805 23.563 20.3828 23.7793 20.3398 23.9414C20.3203 24.0146 20.3047 24.1494 20.3047 24.2412C20.3047 24.4604 20.2734 24.5698 20.1758 24.73C20.1094 24.8374 20.0742 24.8789 19.9727 24.9712C19.8906 25.0439 19.832 25.0845 19.8008 25.0913C19.6836 25.1089 19.0469 25.0645 18.6641 25.0098C18.3203 24.9614 17.6836 24.8154 17.4336 24.7295C17.4062 24.7202 17.3906 24.7339 17.3359 24.7993L17.2734 24.8789L17.3672 24.9072C18.1641 25.1582 19.0586 25.2896 19.9297 25.2832C20.1055 25.2827 20.168 25.2905 20.2695 25.3301C20.4609 25.4019 20.5977 25.4829 20.7266 25.604C20.8711 25.7378 20.9141 25.8081 20.9883 26.0322C21.0586 26.2363 21.1133 26.3379 21.2461 26.5044C21.3633 26.6475 21.4688 26.7373 21.5938 26.7983C21.7578 26.875 22.25 27.0396 22.5977 27.1284C22.9141 27.2109 23.2227 27.3159 23.4492 27.4204C23.5781 27.481 23.8633 27.7256 23.9531 27.8555C24.1211 28.0962 24.1055 28.0327 23.9141 27.6909C23.6875 27.2866 23.1758 26.4722 23.0547 26.3262C22.8789 26.1133 22.543 25.7739 22.4492 25.7085C22.3398 25.6392 22.125 25.5469 21.9453 25.4951C21.7656 25.4409 21.5586 25.4238 21.1992 25.4321C20.8516 25.4375 20.7617 25.4292 20.6094 25.3687C20.3633 25.27 20.3633 25.2729 20.7188 25.2358C21.4453 25.1587 22.1523 24.9839 22.8281 24.7144C22.9766 24.6572 23.1094 24.6074 23.1328 24.6025C23.207 24.5898 23.4336 24.6313 23.5625 24.6812C23.7109 24.7397 23.7656 24.7798 23.8984 24.9365C23.9844 25.0386 24.0156 25.0654 24.1367 25.1382C24.3008 25.2407 24.4531 25.2954 24.5977 25.3062C24.7617 25.3179 25.125 25.3057 25.4727 25.2773C25.9062 25.2407 26.2734 25.2534 26.4531 25.3096C26.6055 25.356 26.7695 25.4346 26.8398 25.4917C26.8633 25.5098 26.8906 25.5195 26.8945 25.5112C26.9102 25.4941 26.6797 25.3174 26.1289 24.9268C25.7344 24.6465 25.6094 24.5708 25.2852 24.4272C24.9961 24.2983 24.9141 24.2769 24.6953 24.2695C24.4492 24.2607 24.2188 24.3027 23.8945 24.4175C23.7383 24.4722 23.5625 24.5225 23.5117 24.5298C23.4219 24.5405 23.2734 24.54 23.2812 24.5293C23.2852 24.5269 23.3789 24.4775 23.4922 24.4189C24.3164 23.9946 25.0312 23.4639 25.6406 22.8184L25.8203 22.6309L25.9414 22.6138C26.1289 22.5874 26.1797 22.6001 26.3281 22.7031C26.4883 22.8159 26.6562 22.8618 26.8164 22.8428C26.9414 22.8276 27.2695 22.7031 27.6016 22.5459C28.0391 22.3403 28.3008 22.2817 28.5352 22.3394C28.5977 22.355 28.6484 22.3628 28.6484 22.3584C28.6445 22.3223 27.7266 21.9868 27.5469 21.9546C27.3281 21.917 27.0625 21.9038 26.9805 21.9277C26.7148 21.999 26.5547 22.0869 26.2539 22.3291C26.0898 22.46 25.9297 22.5571 25.9102 22.54C25.9023 22.5356 26.0039 22.4023 26.1328 22.2422C26.3906 21.9199 26.5312 21.7134 26.7422 21.3501C26.9688 20.9629 27.1875 20.4971 27.3203 20.1147L27.3711 19.9766L27.457 19.9175C27.5703 19.8423 27.7227 19.7861 27.8242 19.7861C27.8828 19.7856 27.9414 19.8047 28.0352 19.8525C28.2188 19.9458 28.4102 19.9619 28.5547 19.8994C28.6406 19.8608 28.9375 19.6562 29.0938 19.5293C29.2305 19.4165 29.4531 19.2686 29.5625 19.2178C29.6484 19.1792 29.8594 19.1572 29.9336 19.1802C29.9648 19.188 29.9922 19.1909 29.9961 19.1841C30.0273 19.147 29.0703 18.9438 28.8633 18.9429C28.5586 18.9409 28.457 18.9609 28.3164 19.0415C28.1836 19.1177 27.9766 19.3037 27.9453 19.3726C27.9336 19.3931 27.875 19.4731 27.8164 19.5527C27.7031 19.6929 27.6992 19.6987 27.5742 19.7559C27.5039 19.7891 27.4414 19.8115 27.4375 19.8071C27.4297 19.8027 27.4492 19.7344 27.4727 19.6533C27.6211 19.1704 27.7422 18.4395 27.7734 17.874C27.7812 17.6626 27.8203 17.5664 27.9609 17.3901L28.0703 17.2563L28.2305 17.1934C28.4102 17.1245 28.582 17.0112 28.6602 16.9131C28.7188 16.8389 28.8438 16.5347 28.9219 16.2734C29.0156 15.9629 29.1016 15.7891 29.2266 15.6523C29.2852 15.5889 29.3594 15.5205 29.3945 15.498C29.4297 15.4761 29.457 15.4551 29.4531 15.4507C29.4453 15.4468 29.4102 15.46 29.375 15.481C28.6289 15.9126 28.457 16.0332 28.1758 16.3022C28.082 16.3911 28.0625 16.4175 28.0117 16.5317C27.9336 16.7065 27.9023 16.8501 27.9023 17.0581C27.9023 17.1548 27.8984 17.2651 27.8906 17.3022C27.875 17.3779 27.8125 17.5186 27.7969 17.5205C27.7891 17.5215 27.7812 17.394 27.7773 17.2373C27.7656 16.7021 27.6914 16.1274 27.5547 15.5269C27.4688 15.1543 27.4961 14.9517 27.6602 14.7642C27.8633 14.5312 27.9453 14.4155 27.9805 14.3262C28.0234 14.2114 28.0234 13.9854 27.9883 13.6201C27.9492 13.2422 27.957 13.0664 28.0195 12.9019C28.0469 12.8315 28.082 12.7563 28.0977 12.7339C28.1133 12.7144 28.1289 12.6797 28.1367 12.6597C28.1445 12.6372 28.0898 12.6987 27.9922 12.8291Z" fill="#86B3EE" fill-opacity="1.000000" fill-rule="nonzero"/>
</svg>
