<svg width="28.000000" height="24.000000" viewBox="0 0 28 24" fill="none" xmlns="http://www.w3.org/2000/svg" xmlns:xlink="http://www.w3.org/1999/xlink">
	<desc>
			Created with Pixso.
	</desc>
	<defs>
		<radialGradient id="paint_radial_11_7141_0" cx="0.000000" cy="0.000000" r="1.000000" gradientUnits="userSpaceOnUse" gradientTransform="translate(14 0) rotate(90) scale(24 35.8411)">
			<stop offset="0.026042" stop-color="#FFC342"/>
			<stop offset="0.572917" stop-color="#9F6E03"/>
			<stop offset="0.609375" stop-color="#9F6E03"/>
			<stop offset="1.000000" stop-color="#FF8717"/>
		</radialGradient>
	</defs>
	<path id="Vector" d="M28 2L28 18C28 18.5304 27.7891 19.0392 27.4141 19.4142C27.0391 19.7893 26.5312 20 26 20L18 20C17.2031 20 16.4414 20.316 15.8789 20.8787C15.3164 21.4413 15 22.2043 15 23C15 23.2653 14.8945 23.5195 14.707 23.7072C14.5195 23.8947 14.2656 24 14 24C13.7344 24 13.4805 23.8947 13.293 23.7072C13.1055 23.5195 13 23.2653 13 23C13 22.2043 12.6836 21.4413 12.1211 20.8787C11.5586 20.316 10.7969 20 10 20L2 20C1.46875 20 0.960938 19.7893 0.585938 19.4142C0.210938 19.0392 0 18.5304 0 18L0 2C0 1.4696 0.210938 0.960815 0.585938 0.585815C0.960938 0.210693 1.46875 0 2 0L9 0C10.0625 0 11.0781 0.421387 11.8281 1.17163C12.5781 1.92175 13 2.93909 13 4L13 15C13 15.2653 13.1055 15.5195 13.293 15.7072C13.4805 15.8947 13.7344 16 14 16C14.2656 16 14.5195 15.8947 14.707 15.7072C14.8945 15.5195 15 15.2653 15 15L15 4C15 2.93909 15.4219 1.92175 16.1719 1.17163C16.9219 0.421387 17.9375 0 19 0L26 0C26.5312 0 27.0391 0.210693 27.4141 0.585815C27.7891 0.960815 28 1.4696 28 2Z" fill="url(#paint_radial_11_7141_0)" fill-opacity="1.000000" fill-rule="nonzero"/>
</svg>
