<svg width="32.000000" height="32.000000" viewBox="0 0 32 32" fill="none" xmlns="http://www.w3.org/2000/svg" xmlns:xlink="http://www.w3.org/1999/xlink">
	<desc>
			Created with Pixso.
	</desc>
	<defs>
		<clipPath id="clip3515_17464">
			<rect id="Component 1" width="32.000000" height="32.000000" fill="white" fill-opacity="0"/>
		</clipPath>
		<radialGradient id="paint_radial_11_7258_0" cx="0.000000" cy="0.000000" r="1.000000" gradientUnits="userSpaceOnUse" gradientTransform="translate(16 5) rotate(90) scale(22 33.281)">
			<stop offset="0.026042" stop-color="#FFC342"/>
			<stop offset="0.572917" stop-color="#9F6E03"/>
			<stop offset="0.609375" stop-color="#9F6E03"/>
			<stop offset="1.000000" stop-color="#FF8717"/>
		</radialGradient>
	</defs>
	<rect id="Component 1" width="32.000000" height="32.000000" fill="#FFFFFF" fill-opacity="0"/>
	<g clip-path="url(#clip3515_17464)">
		<path id="Vector" d="M27 5L5 5C4.46875 5 3.96094 5.21069 3.58594 5.58582C3.21094 5.96082 3 6.4696 3 7L3 25C3 25.5304 3.21094 26.0392 3.58594 26.4142C3.96094 26.7893 4.46875 27 5 27L27 27C27.5312 27 28.0391 26.7893 28.4141 26.4142C28.7891 26.0392 29 25.5304 29 25L29 7C29 6.4696 28.7891 5.96082 28.4141 5.58582C28.0391 5.21069 27.5312 5 27 5ZM5 7L27 7L27 12L5 12L5 7ZM27 25L14 25L14 14L27 14L27 25Z" fill="url(#paint_radial_11_7258_0)" fill-opacity="1.000000" fill-rule="nonzero"/>
	</g>
</svg>
