<svg width="32.000000" height="32.000000" viewBox="0 0 32 32" fill="none" xmlns="http://www.w3.org/2000/svg" xmlns:xlink="http://www.w3.org/1999/xlink">
	<desc>
			Created with Pixso.
	</desc>
	<defs>
		<clipPath id="clip3515_17461">
			<rect id="Component 1" width="32.000000" height="32.000000" fill="white" fill-opacity="0"/>
		</clipPath>
		<radialGradient id="paint_radial_11_7129_0" cx="0.000000" cy="0.000000" r="1.000000" gradientUnits="userSpaceOnUse" gradientTransform="translate(16.4986 1) rotate(90) scale(28.9963 37.1276)">
			<stop offset="0.026042" stop-color="#FFC342"/>
			<stop offset="0.572917" stop-color="#9F6E03"/>
			<stop offset="0.609375" stop-color="#9F6E03"/>
			<stop offset="1.000000" stop-color="#FF8717"/>
		</radialGradient>
	</defs>
	<rect id="Component 1" width="32.000000" height="32.000000" fill="#FFFFFF" fill-opacity="0"/>
	<g clip-path="url(#clip3515_17461)">
		<path id="Vector" d="M26 18C26.0039 18.4077 25.8789 18.8063 25.6484 19.1406C25.4141 19.4751 25.082 19.729 24.6992 19.8676L18.2422 22.2426L15.8672 28.6937C15.7266 29.0758 15.4727 29.4056 15.1367 29.6385C14.8047 29.8715 14.4062 29.9963 14 29.9963C13.5938 29.9963 13.1953 29.8715 12.8633 29.6385C12.5273 29.4056 12.2734 29.0758 12.1328 28.6937L9.75 22.25L3.29688 19.875C2.91797 19.7344 2.58594 19.4799 2.35547 19.146C2.12109 18.812 1.99609 18.4147 1.99609 18.0074C1.99609 17.6003 2.12109 17.203 2.35547 16.869C2.58594 16.5352 2.91797 16.2806 3.29688 16.14L9.75391 13.765L12.1289 7.31372C12.2695 6.93164 12.5234 6.60193 12.8594 6.36902C13.1914 6.13611 13.5898 6.01111 13.9961 6.01111C14.4062 6.01111 14.8008 6.13611 15.1367 6.36902C15.4688 6.60193 15.7227 6.93164 15.8633 7.31372L18.2383 13.77L24.6914 16.145C25.0742 16.2815 25.4062 16.5331 25.6406 16.8651C25.875 17.1971 26 17.5935 26 18ZM19 6L21 6L21 8C21 8.26526 21.1055 8.51953 21.293 8.70715C21.4805 8.89465 21.7344 9 22 9C22.2656 9 22.5195 8.89465 22.707 8.70715C22.8945 8.51953 23 8.26526 23 8L23 6L25 6C25.2656 6 25.5195 5.89465 25.707 5.70715C25.8945 5.51953 26 5.26526 26 5C26 4.73474 25.8945 4.48047 25.707 4.29285C25.5195 4.10535 25.2656 4 25 4L23 4L23 2C23 1.73474 22.8945 1.48047 22.707 1.29285C22.5195 1.10535 22.2656 1 22 1C21.7344 1 21.4805 1.10535 21.293 1.29285C21.1055 1.48047 21 1.73474 21 2L21 4L19 4C18.7344 4 18.4805 4.10535 18.293 4.29285C18.1055 4.48047 18 4.73474 18 5C18 5.26526 18.1055 5.51953 18.293 5.70715C18.4805 5.89465 18.7344 6 19 6ZM30 10L29 10L29 9C29 8.73474 28.8945 8.48047 28.707 8.29285C28.5195 8.10535 28.2656 8 28 8C27.7344 8 27.4805 8.10535 27.293 8.29285C27.1055 8.48047 27 8.73474 27 9L27 10L26 10C25.7344 10 25.4805 10.1053 25.293 10.2928C25.1055 10.4805 25 10.7347 25 11C25 11.2653 25.1055 11.5195 25.293 11.7072C25.4805 11.8947 25.7344 12 26 12L27 12L27 13C27 13.2653 27.1055 13.5195 27.293 13.7072C27.4805 13.8947 27.7344 14 28 14C28.2656 14 28.5195 13.8947 28.707 13.7072C28.8945 13.5195 29 13.2653 29 13L29 12L30 12C30.2656 12 30.5195 11.8947 30.707 11.7072C30.8945 11.5195 31 11.2653 31 11C31 10.7347 30.8945 10.4805 30.707 10.2928C30.5195 10.1053 30.2656 10 30 10Z" fill="url(#paint_radial_11_7129_0)" fill-opacity="1.000000" fill-rule="nonzero"/>
	</g>
</svg>
