<svg width="25.003906" height="25.001587" viewBox="0 0 25.0039 25.0016" fill="none" xmlns="http://www.w3.org/2000/svg" xmlns:xlink="http://www.w3.org/1999/xlink">
	<desc>
			Created with Pixso.
	</desc>
	<defs>
		<radialGradient id="paint_radial_11_7244_0" cx="0.000000" cy="0.000000" r="1.000000" gradientUnits="userSpaceOnUse" gradientTransform="translate(12.5011 0) rotate(90) scale(25.0016 32.0038)">
			<stop offset="0.026042" stop-color="#FFC342"/>
			<stop offset="0.572917" stop-color="#9F6E03"/>
			<stop offset="0.609375" stop-color="#9F6E03"/>
			<stop offset="1.000000" stop-color="#FF8717"/>
		</radialGradient>
	</defs>
	<path id="Vector" d="M24.0039 0L16.0039 0C15.8477 0 15.6992 0.0351562 15.5625 0.102783C15.4219 0.17041 15.3047 0.268677 15.2109 0.390015L7.21094 10.7913L6.00391 9.5863C5.81641 9.40027 5.59766 9.25281 5.35156 9.1521C5.10938 9.05151 4.85156 8.99963 4.58594 8.99963C4.32422 8.99963 4.0625 9.05151 3.82031 9.1521C3.57812 9.25281 3.35938 9.40027 3.17188 9.5863L1.58594 11.1737C1.39844 11.3595 1.25391 11.58 1.15234 11.8226C1.05078 12.0653 1 12.3254 1 12.5881C1 12.8508 1.05078 13.111 1.15234 13.3536C1.25391 13.5963 1.39844 13.8168 1.58594 14.0024L4.08594 16.5024L0.585938 20.0024C0.398438 20.1882 0.253906 20.4087 0.152344 20.6514C0.0507812 20.894 0 21.1542 0 21.4169C0 21.6796 0.0507812 21.9397 0.152344 22.1824C0.253906 22.425 0.398438 22.6455 0.585938 22.8313L2.17188 24.4163C2.54688 24.791 3.05469 25.0016 3.58594 25.0016C4.11719 25.0016 4.625 24.791 5 24.4163L8.5 20.9163L11 23.4163C11.1836 23.6022 11.4062 23.7498 11.6484 23.8503C11.8906 23.951 12.1523 24.0028 12.4141 24.0028C12.6758 24.0028 12.9375 23.951 13.1797 23.8503C13.4219 23.7498 13.6445 23.6022 13.8281 23.4163L15.4141 21.8287C15.6016 21.6431 15.75 21.4225 15.8516 21.1798C15.9492 20.9371 16 20.677 16 20.4144C16 20.1517 15.9492 19.8916 15.8516 19.6489C15.75 19.4062 15.6016 19.1857 15.4141 19L14.2109 17.795L24.6133 9.79504C24.7344 9.70129 24.832 9.58093 24.8984 9.44299C24.9688 9.30518 25.0039 9.15356 25.0039 9L25.0039 1C25.0039 0.734741 24.8984 0.480469 24.7109 0.292847C24.5234 0.105347 24.2656 0 24.0039 0ZM23.0039 8.50745L12.7852 16.3676L11.418 15L17.7109 8.70752C17.8984 8.5199 18.0039 8.26538 18.0039 8.00024C18.0039 7.73499 17.8984 7.48059 17.7109 7.29309C17.5195 7.10559 17.2656 7.00037 17 7.00049C16.7383 7.00061 16.4805 7.10608 16.293 7.2937L10.0039 13.585L8.63672 12.2175L16.4961 2L23.0039 2L23.0039 8.50745Z" fill="url(#paint_radial_11_7244_0)" fill-opacity="1.000000" fill-rule="nonzero"/>
</svg>
