<svg width="40" height="40" viewBox="0 0 40 40" fill="none" xmlns="http://www.w3.org/2000/svg">
<g clip-path="url(#clip0_725_8887)">
<path d="M34.707 4.23288L35.3939 4.24661C35.2168 4.26715 34.7239 4.40756 34.707 4.23288Z" fill="#438CEC"/>
<path d="M27.6351 11.8215C27.038 11.2244 26.0701 11.2244 25.473 11.8215C24.876 12.4185 24.876 13.3865 25.473 13.9835C26.0701 14.5806 27.038 14.5806 27.6351 13.9835C28.2321 13.3865 28.2321 12.4185 27.6351 11.8215Z" fill="#438CEC"/>
<path fill-rule="evenodd" clip-rule="evenodd" d="M34.707 4.23288L35.3939 4.24661C35.4176 4.59745 35.4482 4.94814 35.4518 5.29992C35.4588 5.97845 35.4125 7.54193 34.9441 9.52817C34.3198 12.1754 32.9402 15.586 29.9201 18.6062L27.6603 20.8659L24.844 36.5272L3.14746 14.8307L18.8088 12.0144L21.0685 9.75462C23.9226 6.90058 27.3352 5.52483 30.0102 4.86037C31.3503 4.5275 32.5147 4.3707 33.3471 4.29703C33.7953 4.25736 34.2468 4.22773 34.6971 4.23272L34.7034 4.23281L34.7055 4.23285L34.707 4.23288ZM19.4822 29.0441L25.8021 22.7241L23.8756 33.4375L19.4822 29.0441ZM28.8594 17.5455L18.4215 27.9834L11.6913 21.2532L22.1292 10.8153C24.73 8.21442 27.864 6.93907 30.3718 6.31613C31.6231 6.00531 32.7092 5.85935 33.4794 5.79119C33.6521 5.7759 33.8087 5.76455 33.9475 5.75612C33.944 5.88027 33.9384 6.01886 33.9297 6.17072C33.8874 6.9096 33.7731 7.95884 33.4842 9.18385C32.9062 11.6343 31.6347 14.7703 28.8594 17.5455ZM16.9506 13.8726L10.6306 20.1925L6.23722 15.7991L16.9506 13.8726Z" fill="#438CEC"/>
<path d="M8.90399 23.6334L3.32192 29.2155L4.38258 30.2761L9.96465 24.694L8.90399 23.6334Z" fill="#438CEC"/>
<path d="M14.6863 29.4157L9.10424 34.9978L10.1649 36.0584L15.747 30.4764L14.6863 29.4157Z" fill="#438CEC"/>
<path d="M11.0817 27.313L4.6681 33.7267L5.72876 34.7873L12.1424 28.3737L11.0817 27.313Z" fill="#438CEC"/>
</g>
<defs>
<clipPath id="clip0_725_8887">
<rect width="40" height="40" fill="white"/>
</clipPath>
</defs>
</svg>
