<svg width="40" height="40" viewBox="0 0 40 40" fill="none" xmlns="http://www.w3.org/2000/svg">
<path fill-rule="evenodd" clip-rule="evenodd" d="M18.7019 2.08105L19.6696 3.0912C21.2797 4.77202 22.2795 6.19547 22.8585 7.80986C23.4337 9.41347 23.5691 11.1398 23.5691 13.3683C23.5691 14.4393 23.8236 15.1123 24.1064 15.4849C24.3807 15.8462 24.6792 15.935 24.9091 15.9114C25.3349 15.8675 26.25 15.2107 25.999 13.1678L25.8109 11.637L27.1311 12.4343C31.6004 15.1335 33.2983 19.9351 33.2983 23.8422C33.2983 31.1866 27.3444 37.1405 20 37.1405C12.6555 37.1405 6.70166 31.1866 6.70166 23.8422C6.70166 21.2971 7.54729 18.7337 8.46417 17.383L9.45374 15.9253L9.81845 17.649C10.4283 20.5316 11.6119 21.9595 12.6878 22.5677C13.7767 23.1833 14.8225 23.0136 15.3831 22.6044C16.3331 21.9109 16.7242 20.7495 16.3122 19.316C15.8927 17.8564 14.6263 16.1302 12.2545 14.5865L11.3963 14.0279L12.1877 13.3782C13.1982 12.5487 14.5369 11.0495 15.7384 9.24149C16.9396 7.43385 17.9635 5.37744 18.3961 3.44609L18.7019 2.08105ZM19.4834 5.11675C18.905 6.84877 17.9887 8.56535 16.9877 10.0717C15.9831 11.5835 14.8676 12.9217 13.8711 13.8826C15.9707 15.4329 17.2649 17.2004 17.7539 18.9016C18.3095 20.835 17.8093 22.6905 16.2675 23.8159C15.1872 24.6045 13.5015 24.7509 11.9496 23.8735C10.7364 23.1876 9.64254 21.907 8.90109 19.8956C8.50023 21.0174 8.20166 22.4262 8.20166 23.8422C8.20166 30.3582 13.4839 35.6405 20 35.6405C26.516 35.6405 31.7983 30.3582 31.7983 23.8422C31.7983 20.676 30.562 16.9442 27.4911 14.5065C27.2797 16.1292 26.3592 17.2701 25.0627 17.4035C24.2433 17.4878 23.4584 17.112 22.9117 16.3918C22.3734 15.6829 22.0691 14.6573 22.0691 13.3683C22.0691 11.1787 21.931 9.6668 21.4466 8.31629C21.0694 7.26457 20.467 6.27024 19.4834 5.11675Z" fill="#438CEC"/>
</svg>
