<svg width="40" height="40" viewBox="0 0 40 40" fill="none" xmlns="http://www.w3.org/2000/svg">
<path d="M23.437 2.62793L24.1692 2.79011L22.825 2.19434L23.437 2.62793ZM10.5546 20.8102L9.9426 20.3766L10.5546 21.5602V20.8102ZM20.7001 20.8102L21.4371 20.9494L21.6051 20.0602H20.7001V20.8102ZM17.6922 36.7304L16.9552 36.5912L18.3237 37.1349L17.6922 36.7304ZM30.9154 16.0874L31.547 16.492L30.9154 15.3374V16.0874ZM20.456 16.0874L19.7237 15.9253L19.5217 16.8374H20.456V16.0874ZM22.825 2.19434L9.9426 20.3766L11.1665 21.2438L24.0489 3.06152L22.825 2.19434ZM10.5546 21.5602H20.7001V20.0602H10.5546V21.5602ZM19.9632 20.6709L16.9552 36.5912L18.4292 36.8696L21.4371 20.9494L19.9632 20.6709ZM18.3237 37.1349L31.547 16.492L30.2839 15.6829L17.0607 36.3259L18.3237 37.1349ZM30.9154 15.3374H20.456V16.8374H30.9154V15.3374ZM21.1882 16.2496L24.1692 2.79011L22.7047 2.46575L19.7237 15.9253L21.1882 16.2496Z" fill="#438CEC"/>
<path d="M24.582 37.3721L30.9155 30.4956" stroke="#438CEC" stroke-width="1.5" stroke-linejoin="bevel"/>
<path d="M13.9087 37.3721L7.5752 30.4956" stroke="#438CEC" stroke-width="1.5" stroke-linejoin="bevel"/>
</svg>
