<svg width="40" height="40" viewBox="0 0 40 40" fill="none" xmlns="http://www.w3.org/2000/svg">
<g clip-path="url(#clip0_725_8898)">
<path fill-rule="evenodd" clip-rule="evenodd" d="M2.41649 39.1867L0.822754 37.5929L4.16766 33.8827L4.59573 34.3138L17.0402 21.9164L13.5111 18.3913L16.9857 14.9193C17.0139 14.9133 17.0417 14.9073 17.0693 14.9011C17.4472 14.8633 18.0058 14.7057 18.4829 14.3504C18.9628 13.993 19.38 13.4246 19.4495 12.4893L19.4554 12.4514L31.1001 0.813354L39.1773 8.89052L27.5264 20.5339C27.4982 20.5399 27.4703 20.5459 27.4428 20.5521C27.0648 20.5899 26.5063 20.7475 26.0292 21.1028C25.5493 21.4602 25.132 22.0286 25.0626 22.9639L25.0567 23.0018L21.5896 26.4658L18.0902 22.9664L5.64201 35.3675L6.12157 35.8505L2.41649 39.1867ZM37.0768 8.89006L31.0996 2.91288L20.8619 13.1438C20.6477 14.243 20.0591 15.028 19.3698 15.5413C18.827 15.9456 18.2282 16.1782 17.7069 16.2959L15.6124 18.3886L21.5896 24.3658L23.655 22.3022C23.8692 21.203 24.453 20.4252 25.1423 19.9119C25.6851 19.5076 26.2835 19.273 26.8048 19.1553L37.0768 8.89006Z" fill="#438CEC"/>
<path d="M21.2249 19.862L33.0894 8.00551L32.0399 6.95505L20.1753 18.8115L21.2249 19.862Z" fill="#438CEC"/>
</g>
<defs>
<clipPath id="clip0_725_8898">
<rect width="40" height="40" fill="white"/>
</clipPath>
</defs>
</svg>
