<svg width="32" height="32" viewBox="0 0 32 32" fill="none" xmlns="http://www.w3.org/2000/svg">
<mask id="path-1-inside-1_725_8914" fill="white">
<path d="M23.9297 9.45409C25.736 9.05676 28.0888 7.28075 28.4469 6.40608C28.6568 5.89407 27.6097 5.09407 27.3297 4.7714C26.689 4.0354 26.9474 3.67273 27.1951 2.79539C27.4777 1.79806 26.8074 0.696717 25.8572 0.264715C24.9069 -0.167287 23.7709 -0.0312859 22.8152 0.390049C21.8596 0.811385 21.0439 1.48872 20.2444 2.15539C19.6602 1.79006 18.7288 0.176715 17.2213 1.22472C16.1795 1.94739 16.0852 3.52073 16.2198 4.77674C16.5348 7.67542 17.2563 9.17942 18.6157 9.58476C20.3332 10.0968 22.2337 9.82743 23.9297 9.45409Z"/>
</mask>
<path d="M23.9297 9.45409C25.736 9.05676 28.0888 7.28075 28.4469 6.40608C28.6568 5.89407 27.6097 5.09407 27.3297 4.7714C26.689 4.0354 26.9474 3.67273 27.1951 2.79539C27.4777 1.79806 26.8074 0.696717 25.8572 0.264715C24.9069 -0.167287 23.7709 -0.0312859 22.8152 0.390049C21.8596 0.811385 21.0439 1.48872 20.2444 2.15539C19.6602 1.79006 18.7288 0.176715 17.2213 1.22472C16.1795 1.94739 16.0852 3.52073 16.2198 4.77674C16.5348 7.67542 17.2563 9.17942 18.6157 9.58476C20.3332 10.0968 22.2337 9.82743 23.9297 9.45409Z" fill="url(#paint0_radial_725_8914)"/>
<path d="M23.9297 9.45409L23.5 7.50079L23.4997 7.50086L23.9297 9.45409ZM28.4469 6.40608L26.5964 5.6472L26.5959 5.64842L28.4469 6.40608ZM27.3297 4.7714L28.8403 3.46068L28.8382 3.45824L27.3297 4.7714ZM27.1951 2.79539L25.2709 2.25005L25.2703 2.25205L27.1951 2.79539ZM20.2444 2.15539L19.1839 3.85108L20.4124 4.61937L21.5252 3.69145L20.2444 2.15539ZM17.2213 1.22472L18.3612 2.86805L18.3629 2.86689L17.2213 1.22472ZM16.2198 4.77674L14.2312 4.98985L14.2315 4.99278L16.2198 4.77674ZM18.6157 9.58476L18.0442 11.5014L18.0443 11.5014L18.6157 9.58476ZM24.3594 11.4074C25.6219 11.1297 26.91 10.4275 27.8807 9.74586C28.3831 9.39308 28.857 9.00638 29.25 8.61782C29.5955 8.27638 30.0501 7.7689 30.2978 7.16373L26.5959 5.64842C26.6646 5.48059 26.6909 5.52312 26.438 5.77309C26.2328 5.97595 25.9384 6.22209 25.5821 6.47231C24.8352 6.99671 24.0438 7.38118 23.5 7.50079L24.3594 11.4074ZM30.2973 7.16495C30.6603 6.27986 30.3854 5.4937 30.2031 5.11419C30.0108 4.7137 29.7476 4.39237 29.5668 4.18894C29.3727 3.97061 29.1702 3.77556 29.034 3.64539C28.8492 3.46866 28.831 3.45 28.8403 3.46068L25.8191 6.08212C25.9107 6.1878 26.0068 6.28308 26.069 6.34381C26.1343 6.40764 26.2129 6.48215 26.2697 6.5365C26.4021 6.66308 26.5008 6.76054 26.5772 6.84654C26.667 6.94745 26.6437 6.94228 26.5974 6.84588C26.5612 6.77045 26.3384 6.27629 26.5964 5.6472L30.2973 7.16495ZM28.8382 3.45824C28.7691 3.37891 28.8074 3.40316 28.854 3.51677C28.8787 3.57702 28.9009 3.65058 28.9144 3.73357C28.9278 3.81606 28.9293 3.8879 28.9265 3.94215C28.9237 3.99343 28.9174 4.0222 28.9182 4.01821C28.9195 4.0123 28.925 3.98755 28.9422 3.92856C28.9604 3.86591 28.981 3.80008 29.014 3.69363C29.0445 3.59516 29.0818 3.47374 29.1199 3.33874L25.2703 2.25205C25.2465 2.33639 25.2215 2.41822 25.193 2.51038C25.1669 2.59456 25.1317 2.70676 25.1009 2.81298C25.0409 3.01946 24.9523 3.34865 24.932 3.73065C24.881 4.69465 25.276 5.45835 25.8212 6.08457L28.8382 3.45824ZM29.1193 3.34074C29.7369 1.16165 28.2984 -0.82246 26.6849 -1.55597L25.0295 2.08541C25.0581 2.09841 25.0983 2.12316 25.1409 2.16299C25.1835 2.20286 25.2166 2.24673 25.2382 2.28582C25.2864 2.37295 25.2413 2.35446 25.2709 2.25005L29.1193 3.34074ZM26.6849 -1.55597C25.0485 -2.29986 23.2893 -2.00473 22.0084 -1.43998L23.622 2.22008C24.2524 1.94216 24.7653 1.96529 25.0295 2.08541L26.6849 -1.55597ZM22.0084 -1.43998C20.7526 -0.886333 19.7267 -0.0170605 18.9635 0.619328L21.5252 3.69145C22.361 2.9945 22.9665 2.5091 23.622 2.22008L22.0084 -1.43998ZM21.3048 0.459699C21.3874 0.51134 21.4223 0.554861 21.1263 0.269232C20.9295 0.0793307 20.5887 -0.246889 20.1611 -0.521954C19.719 -0.806404 19.092 -1.09809 18.3096 -1.1224C17.5028 -1.14747 16.7476 -0.881803 16.0796 -0.417449L18.3629 2.86689C18.4487 2.80724 18.3753 2.88157 18.1853 2.87567C18.0198 2.87053 17.9449 2.80851 17.997 2.84206C18.0637 2.885 18.1596 2.96511 18.3488 3.14771C18.4224 3.21867 18.5485 3.34259 18.6596 3.44411C18.7685 3.54357 18.9539 3.70728 19.1839 3.85108L21.3048 0.459699ZM16.0813 -0.418613C14.9938 0.335796 14.5217 1.45579 14.3236 2.38264C14.1254 3.30981 14.152 4.25035 14.2312 4.98985L18.2084 4.56363C18.1531 4.04712 18.1595 3.57299 18.2352 3.21882C18.311 2.86433 18.4069 2.83631 18.3612 2.86805L16.0813 -0.418613ZM14.2315 4.99278C14.3984 6.52841 14.6897 7.90166 15.2329 9.00138C15.809 10.1679 16.7147 11.105 18.0442 11.5014L19.1872 7.66814C19.1572 7.65921 19.0226 7.64164 18.8193 7.23013C18.5831 6.75184 18.3562 5.92374 18.2081 4.56069L14.2315 4.99278ZM18.0443 11.5014C20.2863 12.1698 22.623 11.7896 24.3597 11.4073L23.4997 7.50086C21.8445 7.86523 20.3801 8.02376 19.1871 7.66811L18.0443 11.5014Z" fill="url(#paint1_radial_725_8914)" mask="url(#path-1-inside-1_725_8914)"/>
<path d="M23.6258 8.50052C23.3441 8.58964 23.0876 8.64869 22.8703 8.68776C23.6214 8.1502 24.4636 7.47353 25.2367 6.66202C25.6401 6.23849 26.0321 5.7706 26.385 5.25906C26.7007 5.67757 27.1045 5.91201 27.3081 6.03027C27.3445 6.05139 27.3745 6.0688 27.3965 6.0829C27.431 6.10507 27.4565 6.12277 27.475 6.13626C27.4737 6.14915 27.4717 6.16456 27.4688 6.18275C27.4617 6.18928 27.4101 6.28767 27.2149 6.47744C26.9828 6.70301 26.646 6.96347 26.2352 7.23078C25.4107 7.76735 24.4077 8.25455 23.6274 8.50002L23.6258 8.50052ZM27.4762 6.082C27.4763 6.08193 27.4766 6.08352 27.4769 6.087C27.4763 6.08382 27.4761 6.08208 27.4762 6.082Z" fill="url(#paint2_radial_725_8914)" stroke="url(#paint3_radial_725_8914)" stroke-width="2"/>
<path d="M15.5561 10.1045L15.5566 10.1044L15.5571 10.1044L15.5575 10.1043L15.6475 10.0947L15.7325 10.0693C15.7324 10.0693 15.7331 10.0691 15.7333 10.0691C15.7334 10.069 15.7341 10.0688 15.7344 10.0688C15.7347 10.0687 15.7345 10.0687 15.735 10.0686L15.7568 10.0626C15.7787 10.0567 15.815 10.0472 15.8645 10.0354C15.9637 10.0119 16.1151 9.97912 16.3093 9.94682C16.6992 9.88201 17.2537 9.82033 17.9 9.83526C19.1957 9.8652 20.8067 10.2001 22.2275 11.3786L22.2278 11.3788C23.8774 12.7461 24.6833 14.4925 25.0757 15.9305C25.2714 16.6475 25.3609 17.2762 25.4012 17.7218C25.4214 17.944 25.4292 18.119 25.432 18.2347C25.4334 18.2925 25.4336 18.3354 25.4335 18.3617L25.4333 18.3886L25.4333 18.3902L25.4332 18.3908L25.4332 18.3917L25.4332 18.3919L25.4332 18.3924L25.4164 18.949L25.8826 19.2546L25.883 19.2549L25.8836 19.2553L25.8841 19.2556L25.8846 19.2559L25.8857 19.2566L25.9062 19.2706C25.9261 19.2843 25.9581 19.3067 26.0005 19.3375C26.0856 19.3993 26.2121 19.4945 26.3672 19.6216C26.6785 19.8764 27.0993 20.2544 27.5299 20.7406C28.4009 21.724 29.2525 23.0812 29.4138 24.7101L29.4138 24.7105C29.5221 25.7997 29.2896 26.8494 28.4845 27.7794C27.6568 28.7356 26.1344 29.6682 23.4583 30.2968C20.7862 30.9244 17.3439 31.1118 14.1333 30.9391C10.895 30.7648 8.05408 30.2326 6.52939 29.5192C5.02225 28.814 3.5858 27.5061 2.93255 25.6116C2.28562 23.7355 2.35241 21.1241 4.15111 17.6947C5.90584 14.3492 8.73696 12.4484 11.1792 11.3781C12.3978 10.8441 13.5052 10.5237 14.3052 10.3374C14.7045 10.2444 15.0252 10.1853 15.2424 10.1499C15.3509 10.1321 15.4334 10.1204 15.4868 10.1132C15.5134 10.1097 15.5328 10.1073 15.5445 10.1059L15.5559 10.1045L15.5561 10.1045Z" fill="url(#paint4_radial_725_8914)" stroke="url(#paint5_radial_725_8914)" stroke-width="2"/>
<path d="M20.7548 7.4566C23.0269 8.18994 23.5303 10.2246 23.3661 10.7793C23.1696 11.43 20.6525 8.89661 16.9107 9.04861C15.6024 9.10194 15.9819 8.30727 16.5876 7.8486C17.3872 7.24326 18.7305 6.80593 20.7548 7.4566Z" fill="#6D4C41"/>
<path d="M20.7548 7.4566C23.0269 8.18994 23.5303 10.2246 23.3661 10.7793C23.1696 11.43 20.6525 8.89661 16.9107 9.04861C15.6024 9.10194 15.9819 8.30727 16.5876 7.8486C17.3872 7.24326 18.7305 6.80593 20.7548 7.4566Z" fill="url(#paint6_radial_725_8914)"/>
<defs>
<radialGradient id="paint0_radial_725_8914" cx="0" cy="0" r="1" gradientUnits="userSpaceOnUse" gradientTransform="translate(22.3232) rotate(90) scale(9.8675 15.7478)">
<stop offset="0.0260417" stop-color="#FFC342"/>
<stop offset="0.572917" stop-color="#9F6E03"/>
<stop offset="0.609375" stop-color="#9F6E03"/>
<stop offset="1" stop-color="#FF8717"/>
</radialGradient>
<radialGradient id="paint1_radial_725_8914" cx="0" cy="0" r="1" gradientUnits="userSpaceOnUse" gradientTransform="translate(22.3232 3.03073) rotate(-90) scale(4.51086 13.1392)">
<stop offset="0.313257" stop-color="#FFE8BD"/>
<stop offset="1" stop-color="#543600" stop-opacity="0.6"/>
</radialGradient>
<radialGradient id="paint2_radial_725_8914" cx="0" cy="0" r="1" gradientUnits="userSpaceOnUse" gradientTransform="translate(23.4729 1.11523) rotate(90) scale(8.64817 12.811)">
<stop offset="0.0260417" stop-color="#FFC342"/>
<stop offset="0.572917" stop-color="#9F6E03"/>
<stop offset="0.609375" stop-color="#9F6E03"/>
<stop offset="1" stop-color="#FF8717"/>
</radialGradient>
<radialGradient id="paint3_radial_725_8914" cx="0" cy="0" r="1" gradientUnits="userSpaceOnUse" gradientTransform="translate(23.4729 3.77146) rotate(-90) scale(3.95345 10.6889)">
<stop offset="0.313257" stop-color="#FFE8BD"/>
<stop offset="1" stop-color="#543600" stop-opacity="0.6"/>
</radialGradient>
<radialGradient id="paint4_radial_725_8914" cx="0" cy="0" r="1" gradientUnits="userSpaceOnUse" gradientTransform="translate(15.9986 8.83301) rotate(90) scale(23.1671 36.9675)">
<stop offset="0.0260417" stop-color="#FFC342"/>
<stop offset="0.572917" stop-color="#9F6E03"/>
<stop offset="0.609375" stop-color="#9F6E03"/>
<stop offset="1" stop-color="#FF8717"/>
</radialGradient>
<radialGradient id="paint5_radial_725_8914" cx="0" cy="0" r="1" gradientUnits="userSpaceOnUse" gradientTransform="translate(15.9986 15.9486) rotate(-90) scale(10.5907 30.844)">
<stop offset="0.313257" stop-color="#FFE8BD"/>
<stop offset="1" stop-color="#543600" stop-opacity="0.6"/>
</radialGradient>
<radialGradient id="paint6_radial_725_8914" cx="0" cy="0" r="1" gradientUnits="userSpaceOnUse" gradientTransform="translate(19.7129 8.28602) rotate(-90) scale(1.71495 7.86413)">
<stop offset="0.313257" stop-color="#FFE8BD"/>
<stop offset="1" stop-color="#543600" stop-opacity="0.6"/>
</radialGradient>
</defs>
</svg>
