<svg width="62" height="64" viewBox="0 0 62 64" fill="none" xmlns="http://www.w3.org/2000/svg">
<g filter="url(#filter0_d_725_8914)">
<path d="M38.9297 25.4541C40.736 25.0568 43.0888 23.2807 43.4469 22.4061C43.6568 21.8941 42.6097 21.0941 42.3297 20.7714C41.689 20.0354 41.9474 19.6727 42.1951 18.7954C42.4777 17.7981 41.8074 16.6967 40.8572 16.2647C39.9069 15.8327 38.7709 15.9687 37.8152 16.39C36.8596 16.8114 36.0439 17.4887 35.2444 18.1554C34.6602 17.7901 33.7288 16.1767 32.2213 17.2247C31.1795 17.9474 31.0852 19.5207 31.2198 20.7767C31.5348 23.6754 32.2563 25.1794 33.6157 25.5848C35.3332 26.0968 37.2337 25.8274 38.9297 25.4541Z" fill="url(#paint0_radial_725_8914)"/>
<path d="M41.5749 21.4274C41.6702 21.5372 41.8093 21.6695 41.9155 21.7706C41.9314 21.7857 41.9466 21.8002 41.9608 21.8137C42.0941 21.9412 42.2188 22.0631 42.3246 22.1821C42.3418 22.2014 42.3574 22.2195 42.3717 22.2365C42.3106 22.3093 42.234 22.3924 42.141 22.4843C41.8888 22.7336 41.5496 23.0148 41.1567 23.2907C40.3539 23.8544 39.4383 24.3183 38.7149 24.4774L38.7147 24.4775C37.0391 24.8463 35.3566 25.0603 33.9014 24.6264C33.5466 24.5206 33.2191 24.2732 32.9227 23.6729C32.6098 23.0394 32.3669 22.0752 32.2141 20.6694C32.1528 20.0974 32.151 19.507 32.2573 19.0098C32.3637 18.5122 32.5537 18.2112 32.7912 18.0464L32.7921 18.0458C33.0234 17.885 33.1571 17.8743 33.2164 17.8762C33.2879 17.8784 33.3884 17.9048 33.538 18.0011C33.695 18.102 33.8521 18.2437 34.0432 18.4281C34.0605 18.4448 34.0797 18.4636 34.1005 18.4839C34.2504 18.6304 34.4856 18.8603 34.7141 19.0032L35.3284 19.3874L35.8848 18.9234C36.7025 18.2416 37.413 17.6602 38.2186 17.3051C39.0116 16.9554 39.8361 16.899 40.4433 17.1751C41.062 17.4563 41.3482 18.1163 41.233 18.5227L41.2327 18.5237C41.1924 18.6663 41.1688 18.741 41.1436 18.8207C41.1215 18.8908 41.0982 18.9647 41.0612 19.0919C41.0067 19.2796 40.9446 19.5194 40.9306 19.7835C40.8974 20.4114 41.1425 20.9304 41.5749 21.4274ZM41.5749 21.4274C41.5751 21.4276 41.5753 21.4278 41.5754 21.428L42.3297 20.7714L41.5744 21.4268C41.5745 21.427 41.5747 21.4272 41.5749 21.4274ZM42.5012 22.4182C42.5011 22.4182 42.5005 22.4169 42.4995 22.4145C42.5007 22.417 42.5012 22.4183 42.5012 22.4182Z" stroke="url(#paint1_radial_725_8914)" stroke-width="2"/>
</g>
<g filter="url(#filter1_d_725_8914)">
<path d="M41.8644 17.1152C41.6356 21.0219 37.7887 23.6139 35.9636 24.7553L37.1481 25.7633C37.1481 25.7633 37.8991 25.7793 38.9275 25.4539C40.6907 24.8993 43.2669 23.3313 43.4446 22.4059C43.7057 21.0593 42.3113 21.3526 41.9963 20.2886C41.8321 19.7259 42.7959 18.6619 41.8644 17.1152ZM35.2475 18.1579C35.2475 18.1579 34.561 17.4619 34.0523 17.1446C33.7992 17.6166 33.6188 18.1286 33.53 18.6566C33.3712 19.5846 33.53 20.9019 33.9042 21.8833C33.9634 22.0353 34.1842 22.0113 34.2084 21.8513C34.5314 19.7419 35.2475 18.1579 35.2475 18.1579Z" fill="url(#paint2_radial_725_8914)"/>
<path d="M38.6258 24.5005C38.3441 24.5896 38.0876 24.6487 37.8703 24.6878C38.6214 24.1502 39.4636 23.4735 40.2367 22.662C40.6401 22.2385 41.0321 21.7706 41.385 21.2591C41.7007 21.6776 42.1045 21.912 42.3081 22.0303C42.3445 22.0514 42.3745 22.0688 42.3965 22.0829C42.431 22.1051 42.4565 22.1228 42.475 22.1363C42.4737 22.1491 42.4717 22.1646 42.4688 22.1827C42.4617 22.1893 42.4101 22.2877 42.2149 22.4774C41.9828 22.703 41.646 22.9635 41.2352 23.2308C40.4107 23.7674 39.4077 24.2546 38.6274 24.5L38.6258 24.5005ZM42.4762 22.082C42.4763 22.0819 42.4766 22.0835 42.4769 22.087C42.4763 22.0838 42.4761 22.0821 42.4762 22.082Z" stroke="url(#paint3_radial_725_8914)" stroke-width="2"/>
</g>
<g filter="url(#filter2_d_725_8914)">
<path d="M30.4495 25.1102C30.4495 25.1102 22.0532 26.0089 18.2655 33.2302C14.4779 40.4516 17.6975 44.8303 21.1056 46.425C24.5136 48.0196 33.1011 48.5823 38.687 47.2703C44.2729 45.9583 45.67 43.2383 45.4089 40.6116C45.0293 36.7769 41.4328 34.4196 41.4328 34.4196C41.4328 34.4196 41.5755 29.6836 37.8659 26.6089C34.5736 23.8782 30.4495 25.1102 30.4495 25.1102Z" fill="url(#paint4_radial_725_8914)"/>
<path d="M30.5561 26.1045L30.5566 26.1044L30.5571 26.1044L30.5575 26.1043L30.6475 26.0947L30.7325 26.0693C30.7324 26.0693 30.7331 26.0691 30.7333 26.0691C30.7334 26.069 30.7341 26.0688 30.7344 26.0688C30.7347 26.0687 30.7345 26.0687 30.735 26.0686L30.7568 26.0626C30.7787 26.0567 30.815 26.0472 30.8645 26.0354C30.9637 26.0119 31.1151 25.9791 31.3093 25.9468C31.6992 25.882 32.2537 25.8203 32.9 25.8353C34.1957 25.8652 35.8067 26.2001 37.2275 27.3786L37.2278 27.3788C38.8774 28.7461 39.6833 30.4925 40.0757 31.9305C40.2714 32.6475 40.3609 33.2762 40.4012 33.7218C40.4214 33.944 40.4292 34.119 40.432 34.2347C40.4334 34.2925 40.4336 34.3354 40.4335 34.3617L40.4333 34.3886L40.4332 34.3902L40.4332 34.3908L40.4332 34.3917L40.4332 34.3919L40.4332 34.3924L40.4164 34.949L40.8826 35.2546L40.883 35.2549L40.8836 35.2553L40.8841 35.2556L40.8846 35.2559L40.8857 35.2566L40.9062 35.2706C40.9261 35.2843 40.9581 35.3067 41.0005 35.3375C41.0856 35.3993 41.2121 35.4945 41.3672 35.6216C41.6785 35.8764 42.0993 36.2544 42.5299 36.7406C43.4009 37.724 44.2525 39.0812 44.4138 40.7101L44.4138 40.7105C44.5221 41.7997 44.2896 42.8494 43.4845 43.7794C42.6568 44.7356 41.1344 45.6682 38.4583 46.2968C35.7862 46.9244 32.3439 47.1118 29.1333 46.9391C25.895 46.7648 23.0541 46.2326 21.5294 45.5192C20.0223 44.814 18.5858 43.5061 17.9325 41.6116C17.2856 39.7355 17.3524 37.1241 19.1511 33.6947C20.9058 30.3492 23.737 28.4484 26.1792 27.3781C27.3978 26.8441 28.5052 26.5237 29.3052 26.3374C29.7045 26.2444 30.0252 26.1853 30.2424 26.1499C30.3509 26.1321 30.4334 26.1204 30.4868 26.1132C30.5134 26.1097 30.5328 26.1073 30.5445 26.1059L30.5559 26.1045L30.5561 26.1045Z" stroke="url(#paint5_radial_725_8914)" stroke-width="2"/>
</g>
<path d="M35.7548 23.4566C38.0269 24.1899 38.5303 26.2246 38.3661 26.7793C38.1696 27.43 35.6525 24.8966 31.9107 25.0486C30.6024 25.1019 30.9819 24.3073 31.5876 23.8486C32.3872 23.2433 33.7305 22.8059 35.7548 23.4566Z" fill="#6D4C41"/>
<g filter="url(#filter3_d_725_8914)">
<path d="M35.7548 23.4566C38.0269 24.1899 38.5303 26.2246 38.3661 26.7793C38.1696 27.43 35.6525 24.8966 31.9107 25.0486C30.6024 25.1019 30.9819 24.3073 31.5876 23.8486C32.3872 23.2433 33.7305 22.8059 35.7548 23.4566Z" fill="url(#paint6_radial_725_8914)" shape-rendering="crispEdges"/>
</g>
<defs>
<filter id="filter0_d_725_8914" x="15.1719" y="0" width="44.3026" height="41.8675" filterUnits="userSpaceOnUse" color-interpolation-filters="sRGB">
<feFlood flood-opacity="0" result="BackgroundImageFix"/>
<feColorMatrix in="SourceAlpha" type="matrix" values="0 0 0 0 0 0 0 0 0 0 0 0 0 0 0 0 0 0 127 0" result="hardAlpha"/>
<feOffset/>
<feGaussianBlur stdDeviation="8"/>
<feComposite in2="hardAlpha" operator="out"/>
<feColorMatrix type="matrix" values="0 0 0 0 1 0 0 0 0 0.752941 0 0 0 0 0.223529 0 0 0 0.24 0"/>
<feBlend mode="normal" in2="BackgroundImageFix" result="effect1_dropShadow_725_8914"/>
<feBlend mode="normal" in="SourceGraphic" in2="effect1_dropShadow_725_8914" result="shape"/>
</filter>
<filter id="filter1_d_725_8914" x="17.4688" y="1.11523" width="42.0082" height="40.6482" filterUnits="userSpaceOnUse" color-interpolation-filters="sRGB">
<feFlood flood-opacity="0" result="BackgroundImageFix"/>
<feColorMatrix in="SourceAlpha" type="matrix" values="0 0 0 0 0 0 0 0 0 0 0 0 0 0 0 0 0 0 127 0" result="hardAlpha"/>
<feOffset/>
<feGaussianBlur stdDeviation="8"/>
<feComposite in2="hardAlpha" operator="out"/>
<feColorMatrix type="matrix" values="0 0 0 0 1 0 0 0 0 0.752941 0 0 0 0 0.223529 0 0 0 0.24 0"/>
<feBlend mode="normal" in2="BackgroundImageFix" result="effect1_dropShadow_725_8914"/>
<feBlend mode="normal" in="SourceGraphic" in2="effect1_dropShadow_725_8914" result="shape"/>
</filter>
<filter id="filter2_d_725_8914" x="0.558594" y="8.83301" width="60.88" height="55.1672" filterUnits="userSpaceOnUse" color-interpolation-filters="sRGB">
<feFlood flood-opacity="0" result="BackgroundImageFix"/>
<feColorMatrix in="SourceAlpha" type="matrix" values="0 0 0 0 0 0 0 0 0 0 0 0 0 0 0 0 0 0 127 0" result="hardAlpha"/>
<feOffset/>
<feGaussianBlur stdDeviation="8"/>
<feComposite in2="hardAlpha" operator="out"/>
<feColorMatrix type="matrix" values="0 0 0 0 1 0 0 0 0 0.752941 0 0 0 0 0.223529 0 0 0 0.24 0"/>
<feBlend mode="normal" in2="BackgroundImageFix" result="effect1_dropShadow_725_8914"/>
<feBlend mode="normal" in="SourceGraphic" in2="effect1_dropShadow_725_8914" result="shape"/>
</filter>
<filter id="filter3_d_725_8914" x="15.0312" y="7.13379" width="39.3633" height="35.7526" filterUnits="userSpaceOnUse" color-interpolation-filters="sRGB">
<feFlood flood-opacity="0" result="BackgroundImageFix"/>
<feColorMatrix in="SourceAlpha" type="matrix" values="0 0 0 0 0 0 0 0 0 0 0 0 0 0 0 0 0 0 127 0" result="hardAlpha"/>
<feOffset/>
<feGaussianBlur stdDeviation="8"/>
<feComposite in2="hardAlpha" operator="out"/>
<feColorMatrix type="matrix" values="0 0 0 0 1 0 0 0 0 0.752941 0 0 0 0 0.223529 0 0 0 0.24 0"/>
<feBlend mode="normal" in2="BackgroundImageFix" result="effect1_dropShadow_725_8914"/>
<feBlend mode="normal" in="SourceGraphic" in2="effect1_dropShadow_725_8914" result="shape"/>
</filter>
<radialGradient id="paint0_radial_725_8914" cx="0" cy="0" r="1" gradientUnits="userSpaceOnUse" gradientTransform="translate(37.3232 16) rotate(90) scale(9.8675 15.7478)">
<stop offset="0.0260417" stop-color="#FFC342"/>
<stop offset="0.572917" stop-color="#9F6E03"/>
<stop offset="0.609375" stop-color="#9F6E03"/>
<stop offset="1" stop-color="#FF8717"/>
</radialGradient>
<radialGradient id="paint1_radial_725_8914" cx="0" cy="0" r="1" gradientUnits="userSpaceOnUse" gradientTransform="translate(37.3232 19.0307) rotate(-90) scale(4.51086 13.1392)">
<stop offset="0.313257" stop-color="#FFE8BD"/>
<stop offset="1" stop-color="#543600" stop-opacity="0.6"/>
</radialGradient>
<radialGradient id="paint2_radial_725_8914" cx="0" cy="0" r="1" gradientUnits="userSpaceOnUse" gradientTransform="translate(38.4729 17.1152) rotate(90) scale(8.64817 12.811)">
<stop offset="0.0260417" stop-color="#FFC342"/>
<stop offset="0.572917" stop-color="#9F6E03"/>
<stop offset="0.609375" stop-color="#9F6E03"/>
<stop offset="1" stop-color="#FF8717"/>
</radialGradient>
<radialGradient id="paint3_radial_725_8914" cx="0" cy="0" r="1" gradientUnits="userSpaceOnUse" gradientTransform="translate(38.4729 19.7715) rotate(-90) scale(3.95345 10.6889)">
<stop offset="0.313257" stop-color="#FFE8BD"/>
<stop offset="1" stop-color="#543600" stop-opacity="0.6"/>
</radialGradient>
<radialGradient id="paint4_radial_725_8914" cx="0" cy="0" r="1" gradientUnits="userSpaceOnUse" gradientTransform="translate(30.9986 24.833) rotate(90) scale(23.1671 36.9675)">
<stop offset="0.0260417" stop-color="#FFC342"/>
<stop offset="0.572917" stop-color="#9F6E03"/>
<stop offset="0.609375" stop-color="#9F6E03"/>
<stop offset="1" stop-color="#FF8717"/>
</radialGradient>
<radialGradient id="paint5_radial_725_8914" cx="0" cy="0" r="1" gradientUnits="userSpaceOnUse" gradientTransform="translate(30.9986 31.9486) rotate(-90) scale(10.5907 30.844)">
<stop offset="0.313257" stop-color="#FFE8BD"/>
<stop offset="1" stop-color="#543600" stop-opacity="0.6"/>
</radialGradient>
<radialGradient id="paint6_radial_725_8914" cx="0" cy="0" r="1" gradientUnits="userSpaceOnUse" gradientTransform="translate(34.7129 24.286) rotate(-90) scale(1.71495 7.86413)">
<stop offset="0.313257" stop-color="#FFE8BD"/>
<stop offset="1" stop-color="#543600" stop-opacity="0.6"/>
</radialGradient>
</defs>
</svg>
