<svg width="22" height="12" viewBox="0 0 22 12" fill="none" xmlns="http://www.w3.org/2000/svg">
<path d="M11.6629 11.6634L11.6629 11.6634C11.5758 11.7506 11.4724 11.8197 11.3586 11.8669C11.2448 11.9141 11.1228 11.9384 10.9996 11.9384C10.8764 11.9384 10.7544 11.9141 10.6406 11.8669C10.5268 11.8197 10.4234 11.7506 10.3363 11.6634L10.3363 11.6634L0.336274 1.66337C0.160354 1.48745 0.0615234 1.24886 0.0615234 1.00007C0.0615234 0.75128 0.160354 0.512681 0.336274 0.336761C0.512193 0.160842 0.750791 0.0620117 0.999579 0.0620117C1.24837 0.0620117 1.48696 0.160841 1.66288 0.336758C1.66288 0.336759 1.66288 0.33676 1.66289 0.336761L10.9554 9.63051L10.9996 9.67471L11.0438 9.63051L20.3363 0.336758C20.4234 0.249655 20.5268 0.180558 20.6406 0.133417C20.7544 0.0862748 20.8764 0.0620117 20.9996 0.0620117C21.1228 0.0620117 21.2447 0.0862748 21.3586 0.133417C21.4724 0.180558 21.5758 0.249655 21.6629 0.336762C21.75 0.423868 21.8191 0.527278 21.8662 0.641089C21.9134 0.7549 21.9376 0.876881 21.9376 1.00007C21.9376 1.12325 21.9134 1.24524 21.8662 1.35905C21.8191 1.47286 21.75 1.57627 21.6629 1.66337L11.6629 11.6634Z" fill="url(#paint0_linear_1401_2896)" stroke="url(#paint1_linear_1401_2896)" stroke-width="0.125"/>
<defs>
<linearGradient id="paint0_linear_1401_2896" x1="-3.80019" y1="-7.7999" x2="28.1998" y2="14.6001" gradientUnits="userSpaceOnUse">
<stop offset="0.276042" stop-color="#D7E8FF"/>
<stop offset="0.447917" stop-color="#6C809C" stop-opacity="0.6"/>
<stop offset="0.645833" stop-color="#D7E8FF" stop-opacity="0.6"/>
</linearGradient>
<linearGradient id="paint1_linear_1401_2896" x1="10.9996" y1="9.17197" x2="10.9996" y2="-1.80069" gradientUnits="userSpaceOnUse">
<stop offset="0.276042" stop-color="#D7E8FF"/>
<stop offset="0.447917" stop-color="#6C809C" stop-opacity="0.6"/>
<stop offset="0.645833" stop-color="#D7E8FF" stop-opacity="0.6"/>
</linearGradient>
</defs>
</svg>
