<svg width="32" height="32" viewBox="0 0 32 32" fill="none" xmlns="http://www.w3.org/2000/svg">
<path d="M11.7076 6.29243L21.7076 16.2924C21.8005 16.3853 21.8743 16.4956 21.9246 16.617C21.975 16.7384 22.0009 16.8685 22.0009 16.9999C22.0009 17.1313 21.975 17.2615 21.9246 17.3829C21.8743 17.5043 21.8005 17.6146 21.7076 17.7074L11.7076 27.7074C11.5199 27.8951 11.2654 28.0005 11.0001 28.0005C10.7347 28.0005 10.4802 27.8951 10.2926 27.7074C10.1049 27.5198 9.99951 27.2653 9.99951 26.9999C9.99951 26.7346 10.1049 26.4801 10.2926 26.2924L19.5863 16.9999L10.2926 7.70743C10.1997 7.61452 10.126 7.50422 10.0757 7.38283C10.0254 7.26143 9.99951 7.13133 9.99951 6.99993C9.99951 6.86854 10.0254 6.73843 10.0757 6.61703C10.126 6.49564 10.1997 6.38534 10.2926 6.29243C10.3855 6.19952 10.4958 6.12582 10.6172 6.07554C10.7386 6.02526 10.8687 5.99937 11.0001 5.99937C11.1315 5.99937 11.2616 6.02526 11.383 6.07554C11.5044 6.12582 11.6147 6.19952 11.7076 6.29243Z" fill="white"/>
</svg>
