<svg width="30" height="28" viewBox="0 0 30 28" fill="none" xmlns="http://www.w3.org/2000/svg">
<path d="M11.1178 17.991L11.1268 16.317L16.7698 11.259C17.2258 10.857 17.5348 10.473 17.6968 10.107C17.8648 9.741 17.9488 9.375 17.9488 9.009C17.9488 8.547 17.8468 8.133 17.6428 7.767C17.4388 7.395 17.1568 7.101 16.7968 6.885C16.4368 6.669 16.0228 6.561 15.5548 6.561C15.0748 6.561 14.6458 6.675 14.2678 6.903C13.8958 7.125 13.6048 7.422 13.3948 7.794C13.1848 8.166 13.0828 8.568 13.0888 9H11.1628C11.1628 8.16 11.3518 7.425 11.7298 6.795C12.1138 6.159 12.6388 5.664 13.3048 5.31C13.9708 4.95 14.7328 4.77 15.5908 4.77C16.4068 4.77 17.1388 4.956 17.7868 5.328C18.4348 5.694 18.9448 6.198 19.3168 6.84C19.6948 7.482 19.8838 8.214 19.8838 9.036C19.8838 9.63 19.8058 10.134 19.6498 10.548C19.4938 10.962 19.2598 11.346 18.9478 11.7C18.6358 12.054 18.2458 12.438 17.7778 12.852L13.4218 16.74L13.2148 16.2H19.8838V17.991H11.1178Z" fill="#86B3EE"/>
<path d="M2.00689 9.82898C2.54433 10.5472 2.73704 10.9021 2.7508 11.1939C2.76036 11.3727 2.72808 11.513 2.63018 11.7308C2.57866 11.8472 2.55016 11.9384 2.54527 12.0104C2.54183 12.0681 2.54306 12.1154 2.54782 12.1159C2.55258 12.1165 2.58093 12.0386 2.60968 11.945C2.70309 11.6409 2.84949 11.2652 3.02387 10.8865C3.27857 10.3329 3.31488 10.2003 3.28548 9.93223C3.25808 9.68011 3.27141 9.54856 3.33857 9.40843C3.39641 9.28903 3.5596 9.04459 3.68559 8.894C3.77758 8.78199 3.92897 8.54714 3.97403 8.44689C3.99579 8.3985 4.02219 8.28048 4.03213 8.18242C4.04338 8.08329 4.05401 8.00223 4.05663 8.0001C4.06581 7.99265 4.09223 8.39702 4.10824 8.76155C4.1284 9.20394 4.09014 9.55766 4.00253 9.74512C3.91158 9.94189 3.82998 10.0345 3.60478 10.202C3.42131 10.3378 3.40664 10.3519 3.33918 10.4593C3.24331 10.6096 3.09262 10.9207 2.98225 11.1903C2.87678 11.4472 2.86887 11.4777 2.93269 11.4061C3.02682 11.2968 3.05227 11.2476 3.115 11.0562C3.20035 10.7959 3.24707 10.7031 3.37486 10.5467C3.45457 10.449 3.50644 10.4003 3.58523 10.3473C3.77905 10.2163 4.07708 10.0665 4.36491 9.95793C4.77677 9.80132 5.26806 9.6329 5.27875 9.64616C5.28303 9.65147 5.26622 9.66292 5.23882 9.672C5.15556 9.6979 4.97154 9.80341 4.88629 9.87263C4.78006 9.95888 4.60992 10.1651 4.44721 10.4047C4.04147 10.9998 3.90901 11.1073 3.45988 11.2042C3.24097 11.2502 3.23096 11.254 3.10627 11.3442C3.03462 11.398 2.94208 11.4797 2.89579 11.5327C2.81837 11.6197 2.8057 11.6497 2.72486 11.9129C2.62427 12.2404 2.53849 12.5998 2.48255 12.9262C2.42684 13.2502 2.36443 13.7947 2.38444 13.7873C2.43079 13.7694 2.49541 13.583 2.52112 13.3887C2.55624 13.1254 2.59863 12.9922 2.69872 12.8121L2.77934 12.6699L3.0941 12.4143C3.38395 12.1789 3.43306 12.1457 3.71195 11.9829C4.18747 11.7087 4.39757 11.5952 4.40719 11.6071C4.41254 11.6138 4.4018 11.6247 4.3831 11.6311C4.33175 11.6508 4.10151 11.8444 4.03851 11.9197C3.95905 12.0149 3.82705 12.2604 3.69055 12.5622C3.62552 12.7049 3.53578 12.8898 3.49003 12.973C3.40844 13.1248 3.40451 13.128 3.23556 13.263C3.07949 13.3897 3.05005 13.4071 2.89863 13.4641C2.70825 13.5375 2.56412 13.6414 2.46339 13.7802C2.3765 13.9013 2.37039 13.926 2.36475 14.1479C2.3538 14.5409 2.38402 15.0146 2.4448 15.4481C2.48017 15.7048 2.62349 16.3808 2.64254 16.3829C2.64968 16.3837 2.66254 16.3161 2.67102 16.2324C2.68518 16.1046 2.68051 16.0557 2.64132 15.9317C2.52921 15.5771 2.50834 15.4031 2.55376 15.1687C2.60389 14.8997 2.82114 14.585 3.24227 14.1707C3.54162 13.8771 3.92905 13.534 3.8255 13.6532C3.74472 13.7495 3.6541 13.8956 3.61666 13.9918C3.57539 14.1021 3.54043 14.4115 3.53524 14.712C3.5305 15.0319 3.48845 15.3756 3.44232 15.4745C3.42212 15.5194 3.36422 15.6037 3.31351 15.6647C3.23167 15.7597 3.19864 15.7887 3.06229 15.8752C2.92331 15.9639 2.89708 15.9852 2.84909 16.0549C2.77867 16.156 2.73677 16.2844 2.71562 16.4574C2.70112 16.5767 2.70569 16.6147 2.75494 16.7701C2.9162 17.2691 3.17507 17.8382 3.44476 18.2886C3.6012 18.5501 3.82729 18.8846 3.9513 19.0385L4.06356 19.1778L4.06306 19.1234C4.06153 18.9841 4.01909 18.8803 3.8732 18.6454C3.79437 18.5206 3.71272 18.3762 3.69376 18.3257C3.62891 18.1699 3.59228 17.9494 3.60376 17.7886C3.60938 17.7094 3.73737 17.3136 3.81244 17.1429C3.85906 17.0392 4.23394 16.3924 4.36764 16.1894C4.41325 16.1195 4.46769 16.0336 4.49037 15.9998C4.55604 15.8982 4.55274 15.9426 4.48247 16.0896C4.35544 16.3574 4.3605 16.6518 4.50374 17.1742C4.60025 17.5283 4.65775 17.8635 4.64549 17.9964C4.63821 18.0681 4.61078 18.1606 4.568 18.2502C4.50371 18.3859 4.46849 18.4364 4.29767 18.6256C4.17133 18.7677 4.11643 18.9769 4.14339 19.2096C4.15196 19.2795 4.1662 19.3052 4.2421 19.3994C4.41958 19.6197 4.8353 20.0306 5.12024 20.2712C5.4651 20.5619 5.91612 20.8739 6.28743 21.0817C6.53019 21.216 6.87026 21.3877 6.88075 21.3792C6.89649 21.3664 6.79691 21.197 6.71458 21.0948C6.64616 21.0099 6.59504 20.968 6.42036 20.8508C6.14305 20.6655 6.0344 20.5738 5.91466 20.4251C5.68504 20.1375 5.65092 20.0466 5.5914 19.577C5.56415 19.3708 5.55872 19.2106 5.57029 19.0015C5.58955 18.6215 5.68413 17.6645 5.70079 17.6663C5.70901 17.6684 5.71485 17.7295 5.71448 17.8045C5.71635 17.9522 5.74875 18.1432 5.79508 18.268C5.85137 18.4133 6.08255 18.7567 6.27479 18.9738C6.47214 19.1999 6.76037 19.598 6.8275 19.7432C6.92237 19.9472 6.92831 20.2211 6.8434 20.5008C6.80951 20.6095 6.78262 20.7323 6.78195 20.7745C6.78053 20.9667 6.8656 21.1961 7.00493 21.3771C7.08142 21.4774 7.08142 21.4774 7.27951 21.5536C7.92232 21.8022 8.56458 21.9611 9.22485 22.0374C9.57111 22.0768 10.0005 22.1035 10.0011 22.0854C10.0041 22.0676 9.78926 21.9194 9.71099 21.8842C9.67197 21.8654 9.49395 21.8167 9.31734 21.778C8.98448 21.7014 8.75758 21.6244 8.60773 21.5354C8.44301 21.4387 8.26065 21.2904 8.17619 21.1856C8.07783 21.0635 7.80113 20.5397 7.73682 20.3548C7.66302 20.1448 7.41855 19.2436 7.34721 18.9262C7.28132 18.6263 7.27522 18.5083 7.33463 18.7059C7.41986 18.9813 7.59777 19.221 7.86386 19.422C8.07834 19.5859 8.16099 19.6373 8.46667 19.804C8.88414 20.0313 9.34123 20.3428 9.44387 20.4702C9.51871 20.5631 9.61713 20.7795 9.65851 20.9412C9.67874 21.0148 9.69397 21.1495 9.69429 21.2414C9.69496 21.4604 9.72477 21.5701 9.82532 21.7299C9.89025 21.8374 9.92578 21.8788 10.0284 21.9711C10.1088 22.044 10.1697 22.0846 10.1991 22.0915C10.3153 22.1091 10.9541 22.0645 11.3352 22.0097C11.6782 21.9616 12.3153 21.8153 12.5672 21.7294C12.5922 21.72 12.61 21.7341 12.6624 21.7991L12.7266 21.8787L12.6346 21.9073C11.8365 22.158 10.9421 22.2893 10.0714 22.283C9.89326 22.2827 9.83229 22.2905 9.72959 22.33C9.53814 22.402 9.40358 22.4828 9.27336 22.6039C9.12739 22.7377 9.08417 22.8079 9.0109 23.0321C8.94327 23.2362 8.88844 23.3378 8.75361 23.5044C8.63679 23.6475 8.53139 23.7375 8.40484 23.7985C8.24302 23.875 7.74853 24.0395 7.40132 24.1282C7.08603 24.2108 6.77808 24.316 6.55205 24.4205C6.42074 24.481 6.13599 24.7254 6.04575 24.8557C5.87936 25.0962 5.89543 25.0326 6.08653 24.6909C6.31168 24.2864 6.82508 23.4723 6.94583 23.3259C7.12146 23.1131 7.45554 22.7738 7.55245 22.7083C7.65937 22.639 7.87574 22.5468 8.05311 22.4949C8.2331 22.441 8.44065 22.4239 8.80089 22.4321C9.14817 22.4377 9.23688 22.4293 9.38986 22.3688C9.63577 22.2701 9.6379 22.2727 9.28057 22.2358C8.55661 22.1586 7.84735 21.9838 7.17052 21.7146C7.02466 21.6574 6.88891 21.6074 6.86535 21.6024C6.79441 21.5897 6.56754 21.6313 6.43851 21.6812C6.29054 21.7398 6.23594 21.7798 6.10208 21.9368C6.01712 22.0387 5.98434 22.0653 5.86503 22.138C5.70055 22.2408 5.54699 22.2953 5.40386 22.3061C5.23776 22.3181 4.87431 22.3059 4.52814 22.2774C4.09496 22.2407 3.72777 22.2534 3.54516 22.3095C3.39602 22.356 3.2292 22.4344 3.15838 22.4919C3.13608 22.51 3.11106 22.5193 3.10465 22.5113C3.09075 22.4941 3.32168 22.3176 3.87039 21.9269C4.26473 21.6463 4.39035 21.5706 4.7154 21.4274C5.0041 21.2984 5.0845 21.277 5.30429 21.2697C5.55075 21.2606 5.77998 21.3027 6.10658 21.4173C6.26352 21.472 6.43653 21.5225 6.48998 21.5296C6.57675 21.5404 6.72605 21.5399 6.71749 21.5293C6.71535 21.5266 6.62163 21.4776 6.5072 21.4191C5.68362 20.9947 4.96953 20.4638 4.3585 19.8185L4.18133 19.631L4.05909 19.6139C3.87281 19.5873 3.82219 19.5999 3.67092 19.703C3.51023 19.8159 3.3455 19.8618 3.18254 19.8427C3.05768 19.8277 2.72967 19.7033 2.3966 19.5458C1.96003 19.3405 1.7 19.2817 1.46428 19.3391C1.40127 19.3552 1.35114 19.363 1.35162 19.3582C1.35526 19.3223 2.27152 18.9866 2.45171 18.9545C2.67096 18.9169 2.93588 18.9038 3.02013 18.9275C3.28609 18.9991 3.44571 19.0868 3.74732 19.3292C3.91102 19.4597 4.06967 19.557 4.09065 19.54C4.0959 19.5357 3.99506 19.4025 3.86808 19.2422C3.61066 18.92 3.47031 18.7135 3.25797 18.3503C3.03246 17.9627 2.81364 17.4973 2.67908 17.1148L2.63052 16.9765L2.54383 16.9174C2.4311 16.8421 2.27548 16.7863 2.17559 16.7861C2.11666 16.7857 2.05816 16.8047 1.96426 16.8524C1.78146 16.9459 1.58844 16.9622 1.44676 16.8994C1.35921 16.8607 1.06217 16.6563 0.907748 16.5293C0.771156 16.4163 0.547835 16.2684 0.437443 16.2175C0.352268 16.1791 0.14146 16.1572 0.0668898 16.1804C0.0360413 16.1879 0.00805569 16.1908 0.00271034 16.1842C-0.0272245 16.1471 0.928564 15.9439 1.1381 15.9428C1.44039 15.941 1.5431 15.9608 1.68415 16.0416C1.81486 16.1176 2.02347 16.3038 2.05501 16.3726C2.06498 16.3931 2.12305 16.4732 2.18482 16.5526C2.29576 16.693 2.30242 16.6985 2.42661 16.7557C2.49668 16.7888 2.55819 16.8113 2.56343 16.8071C2.56868 16.8028 2.55273 16.7345 2.52847 16.6533C2.38004 16.1702 2.25789 15.4396 2.22736 14.874C2.2175 14.6625 2.1791 14.5664 2.03929 14.3902L1.93131 14.2561L1.76796 14.1934C1.59081 14.1243 1.41933 14.0111 1.34022 13.913C1.28035 13.8386 1.1547 13.5346 1.07647 13.2733C0.982735 12.963 0.896851 12.7891 0.773517 12.6522C0.716126 12.5891 0.641245 12.5204 0.603783 12.4981C0.568701 12.4761 0.543141 12.4552 0.548388 12.4509C0.553634 12.4466 0.588374 12.4601 0.624767 12.4811C1.3694 12.9125 1.54491 13.0334 1.82456 13.3024C1.91786 13.3913 1.93686 13.4175 1.98785 13.532C2.06766 13.7064 2.09884 13.8501 2.09703 14.0579C2.09686 14.1546 2.1013 14.2652 2.10957 14.3024C2.12479 14.3778 2.18633 14.5188 2.203 14.5206C2.21014 14.5214 2.21822 14.3941 2.22208 14.2374C2.23542 13.7019 2.31051 13.1273 2.44719 12.5269C2.5331 12.1542 2.5043 11.9515 2.34034 11.7642C2.13765 11.5315 2.05309 11.4157 2.02003 11.3263C1.9775 11.2115 1.97517 10.9851 2.01094 10.6203C2.04924 10.2424 2.04182 10.0662 1.97902 9.90209C1.95248 9.83145 1.91797 9.75631 1.90217 9.73402C1.88614 9.71411 1.86917 9.6796 1.86397 9.65968C1.85663 9.6371 1.91057 9.69866 2.00689 9.82898Z" fill="#86B3EE"/>
<path d="M27.9931 9.82898C27.4557 10.5472 27.263 10.9021 27.2492 11.1939C27.2396 11.3727 27.2719 11.513 27.3698 11.7308C27.4213 11.8472 27.4498 11.9384 27.4547 12.0104C27.4582 12.0681 27.4569 12.1154 27.4522 12.1159C27.4474 12.1165 27.4191 12.0386 27.3903 11.945C27.2969 11.6409 27.1505 11.2652 26.9761 10.8865C26.7214 10.3329 26.6851 10.2003 26.7145 9.93223C26.7419 9.68011 26.7286 9.54856 26.6614 9.40843C26.6036 9.28903 26.4404 9.04459 26.3144 8.894C26.2224 8.78199 26.071 8.54714 26.026 8.44689C26.0042 8.3985 25.9778 8.28048 25.9679 8.18242C25.9566 8.08329 25.946 8.00223 25.9434 8.0001C25.9342 7.99265 25.9078 8.39702 25.8918 8.76155C25.8716 9.20394 25.9099 9.55766 25.9975 9.74512C26.0884 9.94189 26.17 10.0345 26.3952 10.202C26.5787 10.3378 26.5934 10.3519 26.6608 10.4593C26.7567 10.6096 26.9074 10.9207 27.0178 11.1903C27.1232 11.4472 27.1311 11.4777 27.0673 11.4061C26.9732 11.2968 26.9477 11.2476 26.885 11.0562C26.7996 10.7959 26.7529 10.7031 26.6251 10.5467C26.5454 10.449 26.4936 10.4003 26.4148 10.3473C26.2209 10.2163 25.9229 10.0665 25.6351 9.95793C25.2232 9.80132 24.7319 9.6329 24.7212 9.64616C24.717 9.65147 24.7338 9.66292 24.7612 9.672C24.8444 9.6979 25.0285 9.80341 25.1137 9.87263C25.2199 9.95888 25.3901 10.1651 25.5528 10.4047C25.9585 10.9998 26.091 11.1073 26.5401 11.2042C26.759 11.2502 26.769 11.254 26.8937 11.3442C26.9654 11.398 27.0579 11.4797 27.1042 11.5327C27.1816 11.6197 27.1943 11.6497 27.2751 11.9129C27.3757 12.2404 27.4615 12.5998 27.5175 12.9262C27.5732 13.2502 27.6356 13.7947 27.6156 13.7873C27.5692 13.7694 27.5046 13.583 27.4789 13.3887C27.4438 13.1254 27.4014 12.9922 27.3013 12.8121L27.2207 12.6699L26.9059 12.4143C26.616 12.1789 26.5669 12.1457 26.2881 11.9829C25.8125 11.7087 25.6024 11.5952 25.5928 11.6071C25.5875 11.6138 25.5982 11.6247 25.6169 11.6311C25.6682 11.6508 25.8985 11.8444 25.9615 11.9197C26.041 12.0149 26.173 12.2604 26.3095 12.5622C26.3745 12.7049 26.4642 12.8898 26.51 12.973C26.5916 13.1248 26.5955 13.128 26.7644 13.263C26.9205 13.3897 26.9499 13.4071 27.1014 13.4641C27.2918 13.5375 27.4359 13.6414 27.5366 13.7802C27.6235 13.9013 27.6296 13.926 27.6353 14.1479C27.6462 14.5409 27.616 15.0146 27.5552 15.4481C27.5198 15.7048 27.3765 16.3808 27.3575 16.3829C27.3503 16.3837 27.3375 16.3161 27.329 16.2324C27.3148 16.1046 27.3195 16.0557 27.3587 15.9317C27.4708 15.5771 27.4917 15.4031 27.4462 15.1687C27.3961 14.8997 27.1789 14.585 26.7577 14.1707C26.4584 13.8771 26.0709 13.534 26.1745 13.6532C26.2553 13.7495 26.3459 13.8956 26.3833 13.9918C26.4246 14.1021 26.4596 14.4115 26.4648 14.712C26.4695 15.0319 26.5115 15.3756 26.5577 15.4745C26.5779 15.5194 26.6358 15.6037 26.6865 15.6647C26.7683 15.7597 26.8014 15.7887 26.9377 15.8752C27.0767 15.9639 27.1029 15.9852 27.1509 16.0549C27.2213 16.156 27.2632 16.2844 27.2844 16.4574C27.2989 16.5767 27.2943 16.6147 27.2451 16.7701C27.0838 17.2691 26.8249 17.8382 26.5552 18.2886C26.3988 18.5501 26.1727 18.8846 26.0487 19.0385L25.9364 19.1778L25.9369 19.1234C25.9385 18.9841 25.9809 18.8803 26.1268 18.6454C26.2056 18.5206 26.2873 18.3762 26.3062 18.3257C26.3711 18.1699 26.4077 17.9494 26.3962 17.7886C26.3906 17.7094 26.2626 17.3136 26.1876 17.1429C26.1409 17.0392 25.7661 16.3924 25.6324 16.1894C25.5868 16.1195 25.5323 16.0336 25.5096 15.9998C25.444 15.8982 25.4473 15.9426 25.5175 16.0896C25.6446 16.3574 25.6395 16.6518 25.4963 17.1742C25.3997 17.5283 25.3422 17.8635 25.3545 17.9964C25.3618 18.0681 25.3892 18.1606 25.432 18.2502C25.4963 18.3859 25.5315 18.4364 25.7023 18.6256C25.8287 18.7677 25.8836 18.9769 25.8566 19.2096C25.848 19.2795 25.8338 19.3052 25.7579 19.3994C25.5804 19.6197 25.1647 20.0306 24.8798 20.2712C24.5349 20.5619 24.0839 20.8739 23.7126 21.0817C23.4698 21.216 23.1297 21.3877 23.1192 21.3792C23.1035 21.3664 23.2031 21.197 23.2854 21.0948C23.3538 21.0099 23.405 20.968 23.5796 20.8508C23.8569 20.6655 23.9656 20.5738 24.0853 20.4251C24.315 20.1375 24.3491 20.0466 24.4086 19.577C24.4358 19.3708 24.4413 19.2106 24.4297 19.0015C24.4105 18.6215 24.3159 17.6645 24.2992 17.6663C24.291 17.6684 24.2852 17.7295 24.2855 17.8045C24.2836 17.9522 24.2512 18.1432 24.2049 18.268C24.1486 18.4133 23.9174 18.7567 23.7252 18.9738C23.5279 19.1999 23.2396 19.598 23.1725 19.7432C23.0776 19.9472 23.0717 20.2211 23.1566 20.5008C23.1905 20.6095 23.2174 20.7323 23.2181 20.7745C23.2195 20.9667 23.1344 21.1961 22.9951 21.3771C22.9186 21.4774 22.9186 21.4774 22.7205 21.5536C22.0777 21.8022 21.4354 21.9611 20.7752 22.0374C20.4289 22.0768 19.9995 22.1035 19.9989 22.0854C19.9959 22.0676 20.2107 21.9194 20.289 21.8842C20.328 21.8654 20.506 21.8167 20.6827 21.778C21.0155 21.7014 21.2424 21.6244 21.3923 21.5354C21.557 21.4387 21.7394 21.2904 21.8238 21.1856C21.9222 21.0635 22.1989 20.5397 22.2632 20.3548C22.337 20.1448 22.5814 19.2436 22.6528 18.9262C22.7187 18.6263 22.7248 18.5083 22.6654 18.7059C22.5801 18.9813 22.4022 19.221 22.1361 19.422C21.9217 19.5859 21.839 19.6373 21.5333 19.804C21.1159 20.0313 20.6588 20.3428 20.5561 20.4702C20.4813 20.5631 20.3829 20.7795 20.3415 20.9412C20.3213 21.0148 20.306 21.1495 20.3057 21.2414C20.305 21.4604 20.2752 21.5701 20.1747 21.7299C20.1097 21.8374 20.0742 21.8788 19.9716 21.9711C19.8912 22.044 19.8303 22.0846 19.8009 22.0915C19.6847 22.1091 19.0459 22.0645 18.6648 22.0097C18.3218 21.9616 17.6847 21.8153 17.4328 21.7294C17.4078 21.72 17.39 21.7341 17.3376 21.7991L17.2734 21.8787L17.3654 21.9073C18.1635 22.158 19.0579 22.2893 19.9286 22.283C20.1067 22.2827 20.1677 22.2905 20.2704 22.33C20.4619 22.402 20.5964 22.4828 20.7266 22.6039C20.8726 22.7377 20.9158 22.8079 20.9891 23.0321C21.0567 23.2362 21.1116 23.3378 21.2464 23.5044C21.3632 23.6475 21.4686 23.7375 21.5952 23.7985C21.757 23.875 22.2515 24.0395 22.5987 24.1282C22.914 24.2108 23.2219 24.316 23.448 24.4205C23.5793 24.481 23.864 24.7254 23.9542 24.8557C24.1206 25.0962 24.1046 25.0326 23.9135 24.6909C23.6883 24.2864 23.1749 23.4723 23.0542 23.3259C22.8785 23.1131 22.5445 22.7738 22.4475 22.7083C22.3406 22.639 22.1243 22.5468 21.9469 22.4949C21.7669 22.441 21.5594 22.4239 21.1991 22.4321C20.8518 22.4377 20.7631 22.4293 20.6101 22.3688C20.3642 22.2701 20.3621 22.2727 20.7194 22.2358C21.4434 22.1586 22.1527 21.9838 22.8295 21.7146C22.9753 21.6574 23.1111 21.6074 23.1347 21.6024C23.2056 21.5897 23.4325 21.6313 23.5615 21.6812C23.7095 21.7398 23.7641 21.7798 23.8979 21.9368C23.9829 22.0387 24.0157 22.0653 24.135 22.138C24.2995 22.2408 24.453 22.2953 24.5961 22.3061C24.7622 22.3181 25.1257 22.3059 25.4719 22.2774C25.905 22.2407 26.2722 22.2534 26.4548 22.3095C26.604 22.356 26.7708 22.4344 26.8416 22.4919C26.8639 22.51 26.8889 22.5193 26.8954 22.5113C26.9093 22.4941 26.6783 22.3176 26.1296 21.9269C25.7353 21.6463 25.6096 21.5706 25.2846 21.4274C24.9959 21.2984 24.9155 21.277 24.6957 21.2697C24.4492 21.2606 24.22 21.3027 23.8934 21.4173C23.7365 21.472 23.5635 21.5225 23.51 21.5296C23.4233 21.5404 23.274 21.5399 23.2825 21.5293C23.2846 21.5266 23.3784 21.4776 23.4928 21.4191C24.3164 20.9947 25.0305 20.4638 25.6415 19.8185L25.8187 19.631L25.9409 19.6139C26.1272 19.5873 26.1778 19.5999 26.3291 19.703C26.4898 19.8159 26.6545 19.8618 26.8175 19.8427C26.9423 19.8277 27.2703 19.7033 27.6034 19.5458C28.04 19.3405 28.3 19.2817 28.5357 19.3391C28.5987 19.3552 28.6489 19.363 28.6484 19.3582C28.6447 19.3223 27.7285 18.9866 27.5483 18.9545C27.329 18.9169 27.0641 18.9038 26.9799 18.9275C26.7139 18.9991 26.5543 19.0868 26.2527 19.3292C26.089 19.4597 25.9303 19.557 25.9093 19.54C25.9041 19.5357 26.0049 19.4025 26.1319 19.2422C26.3893 18.92 26.5297 18.7135 26.742 18.3503C26.9675 17.9627 27.1864 17.4973 27.3209 17.1148L27.3695 16.9765L27.4562 16.9174C27.5689 16.8421 27.7245 16.7863 27.8244 16.7861C27.8833 16.7857 27.9418 16.8047 28.0357 16.8524C28.2185 16.9459 28.4116 16.9622 28.5532 16.8994C28.6408 16.8607 28.9378 16.6563 29.0923 16.5293C29.2288 16.4163 29.4522 16.2684 29.5626 16.2175C29.6477 16.1791 29.8585 16.1572 29.9331 16.1804C29.964 16.1879 29.9919 16.1908 29.9973 16.1842C30.0272 16.1471 29.0714 15.9439 28.8619 15.9428C28.5596 15.941 28.4569 15.9608 28.3158 16.0416C28.1851 16.1176 27.9765 16.3038 27.945 16.3726C27.935 16.3931 27.8769 16.4732 27.8152 16.5526C27.7042 16.693 27.6976 16.6985 27.5734 16.7557C27.5033 16.7888 27.4418 16.8113 27.4366 16.8071C27.4313 16.8028 27.4473 16.7345 27.4715 16.6533C27.62 16.1702 27.7421 15.4396 27.7726 14.874C27.7825 14.6625 27.8209 14.5664 27.9607 14.3902L28.0687 14.2561L28.232 14.1934C28.4092 14.1243 28.5807 14.0111 28.6598 13.913C28.7197 13.8386 28.8453 13.5346 28.9235 13.2733C29.0173 12.963 29.1031 12.7891 29.2265 12.6522C29.2839 12.5891 29.3588 12.5204 29.3962 12.4981C29.4313 12.4761 29.4569 12.4552 29.4516 12.4509C29.4464 12.4466 29.4116 12.4601 29.3752 12.4811C28.6306 12.9125 28.4551 13.0334 28.1754 13.3024C28.0821 13.3913 28.0631 13.4175 28.0121 13.532C27.9323 13.7064 27.9012 13.8501 27.903 14.0579C27.9031 14.1546 27.8987 14.2652 27.8904 14.3024C27.8752 14.3778 27.8137 14.5188 27.797 14.5206C27.7899 14.5214 27.7818 14.3941 27.7779 14.2374C27.7646 13.7019 27.6895 13.1273 27.5528 12.5269C27.4669 12.1542 27.4957 11.9515 27.6597 11.7642C27.8624 11.5315 27.9469 11.4157 27.98 11.3263C28.0225 11.2115 28.0248 10.9851 27.9891 10.6203C27.9508 10.2424 27.9582 10.0662 28.021 9.90209C28.0475 9.83145 28.082 9.75631 28.0978 9.73402C28.1139 9.71411 28.1308 9.6796 28.136 9.65968C28.1434 9.6371 28.0894 9.69866 27.9931 9.82898Z" fill="#86B3EE"/>
</svg>
