<svg width="30" height="28" viewBox="0 0 30 28" fill="none" xmlns="http://www.w3.org/2000/svg">
<path d="M14.7221 17V6.11L12.2831 7.595V5.498L14.7221 4.04H16.6391V17H14.7221Z" fill="#FFC039"/>
<path d="M2.00487 9.82898C2.5423 10.5472 2.73501 10.9021 2.74878 11.1939C2.75834 11.3727 2.72606 11.513 2.62816 11.7308C2.57664 11.8472 2.54814 11.9384 2.54325 12.0104C2.53981 12.0681 2.54103 12.1154 2.54579 12.1159C2.55056 12.1165 2.57891 12.0386 2.60765 11.945C2.70106 11.6409 2.84746 11.2652 3.02185 10.8865C3.27655 10.3329 3.31286 10.2003 3.28346 9.93223C3.25605 9.68011 3.26939 9.54856 3.33655 9.40843C3.39439 9.28903 3.55757 9.04459 3.68357 8.894C3.77556 8.78199 3.92695 8.54714 3.97201 8.44689C3.99377 8.3985 4.02017 8.28048 4.03011 8.18242C4.04136 8.08329 4.05198 8.00223 4.05461 8.0001C4.06379 7.99265 4.0902 8.39702 4.10622 8.76155C4.12637 9.20394 4.08812 9.55766 4.00051 9.74512C3.90956 9.94189 3.82796 10.0345 3.60276 10.202C3.41929 10.3378 3.40462 10.3519 3.33716 10.4593C3.24129 10.6096 3.0906 10.9207 2.98023 11.1903C2.87476 11.4472 2.86684 11.4777 2.93067 11.4061C3.0248 11.2968 3.05025 11.2476 3.11298 11.0562C3.19833 10.7959 3.24505 10.7031 3.37284 10.5467C3.45254 10.449 3.50442 10.4003 3.58321 10.3473C3.77703 10.2163 4.07506 10.0665 4.36289 9.95793C4.77475 9.80132 5.26604 9.6329 5.27673 9.64616C5.28101 9.65147 5.2642 9.66292 5.2368 9.672C5.15353 9.6979 4.96952 9.80341 4.88427 9.87263C4.77804 9.95888 4.60789 10.1651 4.44519 10.4047C4.03945 10.9998 3.90699 11.1073 3.45785 11.2042C3.23895 11.2502 3.22894 11.254 3.10424 11.3442C3.03259 11.398 2.94006 11.4797 2.89377 11.5327C2.81635 11.6197 2.80367 11.6497 2.72284 11.9129C2.62224 12.2404 2.53647 12.5998 2.48052 12.9262C2.42482 13.2502 2.36241 13.7947 2.38242 13.7873C2.42877 13.7694 2.49339 13.583 2.5191 13.3887C2.55422 13.1254 2.5966 12.9922 2.6967 12.8121L2.77731 12.6699L3.09208 12.4143C3.38193 12.1789 3.43104 12.1457 3.70992 11.9829C4.18545 11.7087 4.39555 11.5952 4.40517 11.6071C4.41051 11.6138 4.39978 11.6247 4.38108 11.6311C4.32973 11.6508 4.09948 11.8444 4.03649 11.9197C3.95702 12.0149 3.82503 12.2604 3.68852 12.5622C3.6235 12.7049 3.53376 12.8898 3.48801 12.973C3.40642 13.1248 3.40249 13.128 3.23354 13.263C3.07747 13.3897 3.04803 13.4071 2.89661 13.4641C2.70623 13.5375 2.5621 13.6414 2.46137 13.7802C2.37448 13.9013 2.36836 13.926 2.36273 14.1479C2.35178 14.5409 2.382 15.0146 2.44277 15.4481C2.47815 15.7048 2.62147 16.3808 2.64051 16.3829C2.64765 16.3837 2.66051 16.3161 2.669 16.2324C2.68316 16.1046 2.67848 16.0557 2.6393 15.9317C2.52719 15.5771 2.50631 15.4031 2.55174 15.1687C2.60187 14.8997 2.81911 14.585 3.24024 14.1707C3.5396 13.8771 3.92703 13.534 3.82348 13.6532C3.7427 13.7495 3.65208 13.8956 3.61464 13.9918C3.57337 14.1021 3.5384 14.4115 3.53322 14.712C3.52848 15.0319 3.48643 15.3756 3.4403 15.4745C3.42009 15.5194 3.3622 15.6037 3.31149 15.6647C3.22965 15.7597 3.19662 15.7887 3.06026 15.8752C2.92128 15.9639 2.89505 15.9852 2.84707 16.0549C2.77664 16.156 2.73474 16.2844 2.7136 16.4574C2.6991 16.5767 2.70367 16.6147 2.75292 16.7701C2.91418 17.2691 3.17305 17.8382 3.44274 18.2886C3.59918 18.5501 3.82526 18.8846 3.94928 19.0385L4.06154 19.1778L4.06104 19.1234C4.05951 18.9841 4.01707 18.8803 3.87117 18.6454C3.79234 18.5206 3.71069 18.3762 3.69174 18.3257C3.62689 18.1699 3.59026 17.9494 3.60174 17.7886C3.60736 17.7094 3.73534 17.3136 3.81042 17.1429C3.85704 17.0392 4.23191 16.3924 4.36562 16.1894C4.41123 16.1195 4.46567 16.0336 4.48835 15.9998C4.55402 15.8982 4.55072 15.9426 4.48045 16.0896C4.35341 16.3574 4.35848 16.6518 4.50172 17.1742C4.59823 17.5283 4.65573 17.8635 4.64346 17.9964C4.63619 18.0681 4.60876 18.1606 4.56598 18.2502C4.50168 18.3859 4.46647 18.4364 4.29564 18.6256C4.16931 18.7677 4.1144 18.9769 4.14137 19.2096C4.14993 19.2795 4.16417 19.3052 4.24008 19.3994C4.41755 19.6197 4.83327 20.0306 5.11822 20.2712C5.46308 20.5619 5.91409 20.8739 6.28541 21.0817C6.52816 21.216 6.86824 21.3877 6.87873 21.3792C6.89447 21.3664 6.79488 21.197 6.71256 21.0948C6.64414 21.0099 6.59302 20.968 6.41834 20.8508C6.14103 20.6655 6.03238 20.5738 5.91264 20.4251C5.68302 20.1375 5.6489 20.0466 5.58938 19.577C5.56213 19.3708 5.5567 19.2106 5.56827 19.0015C5.58752 18.6215 5.68211 17.6645 5.69877 17.6663C5.70698 17.6684 5.71283 17.7295 5.71245 17.8045C5.71433 17.9522 5.74673 18.1432 5.79305 18.268C5.84935 18.4133 6.08053 18.7567 6.27277 18.9738C6.47012 19.1999 6.75835 19.598 6.82547 19.7432C6.92035 19.9472 6.92629 20.2211 6.84138 20.5008C6.80749 20.6095 6.7806 20.7323 6.77993 20.7745C6.77851 20.9667 6.86358 21.1961 7.00291 21.3771C7.0794 21.4774 7.0794 21.4774 7.27749 21.5536C7.9203 21.8022 8.56256 21.9611 9.22282 22.0374C9.56909 22.0768 9.99847 22.1035 9.9991 22.0854C10.0021 22.0676 9.78724 21.9194 9.70897 21.8842C9.66995 21.8654 9.49193 21.8167 9.31532 21.778C8.98246 21.7014 8.75556 21.6244 8.60571 21.5354C8.44099 21.4387 8.25862 21.2904 8.17416 21.1856C8.07581 21.0635 7.79911 20.5397 7.73479 20.3548C7.661 20.1448 7.41653 19.2436 7.34519 18.9262C7.2793 18.6263 7.2732 18.5083 7.33261 18.7059C7.41784 18.9813 7.59575 19.221 7.86184 19.422C8.07632 19.5859 8.15897 19.6373 8.46464 19.804C8.88212 20.0313 9.33921 20.3428 9.44185 20.4702C9.51669 20.5631 9.61511 20.7795 9.65649 20.9412C9.67672 21.0148 9.69195 21.1495 9.69226 21.2414C9.69294 21.4604 9.72275 21.5701 9.8233 21.7299C9.88823 21.8374 9.92375 21.8788 10.0263 21.9711C10.1068 22.044 10.1677 22.0846 10.1971 22.0915C10.3132 22.1091 10.9521 22.0645 11.3331 22.0097C11.6762 21.9616 12.3133 21.8153 12.5652 21.7294C12.5902 21.72 12.608 21.7341 12.6604 21.7991L12.7245 21.8787L12.6326 21.9073C11.8345 22.158 10.9401 22.2893 10.0693 22.283C9.89124 22.2827 9.83027 22.2905 9.72757 22.33C9.53612 22.402 9.40156 22.4828 9.27133 22.6039C9.12537 22.7377 9.08214 22.8079 9.00888 23.0321C8.94125 23.2362 8.88642 23.3378 8.75158 23.5044C8.63477 23.6475 8.52936 23.7375 8.40282 23.7985C8.241 23.875 7.74651 24.0395 7.3993 24.1282C7.08401 24.2108 6.77606 24.316 6.55002 24.4205C6.41872 24.481 6.13397 24.7254 6.04373 24.8557C5.87733 25.0962 5.8934 25.0326 6.08451 24.6909C6.30965 24.2864 6.82306 23.4723 6.9438 23.3259C7.11944 23.1131 7.45352 22.7738 7.55043 22.7083C7.65735 22.639 7.87372 22.5468 8.05109 22.4949C8.23108 22.441 8.43862 22.4239 8.79887 22.4321C9.14615 22.4377 9.23486 22.4293 9.38784 22.3688C9.63374 22.2701 9.63588 22.2727 9.27854 22.2358C8.55458 22.1586 7.84533 21.9838 7.1685 21.7146C7.02264 21.6574 6.88689 21.6074 6.86333 21.6024C6.79239 21.5897 6.56552 21.6313 6.43649 21.6812C6.28852 21.7398 6.23392 21.7798 6.10005 21.9368C6.0151 22.0387 5.98231 22.0653 5.86301 22.138C5.69853 22.2408 5.54497 22.2953 5.40184 22.3061C5.23574 22.3181 4.87228 22.3059 4.52612 22.2774C4.09294 22.2407 3.72575 22.2534 3.54314 22.3095C3.394 22.356 3.22718 22.4344 3.15635 22.4919C3.13406 22.51 3.10904 22.5193 3.10262 22.5113C3.08873 22.4941 3.31965 22.3176 3.86837 21.9269C4.26271 21.6463 4.38833 21.5706 4.71337 21.4274C5.00208 21.2984 5.08248 21.277 5.30227 21.2697C5.54873 21.2606 5.77796 21.3027 6.10456 21.4173C6.26149 21.472 6.43451 21.5225 6.48795 21.5296C6.57473 21.5404 6.72402 21.5399 6.71547 21.5293C6.71333 21.5266 6.6196 21.4776 6.50518 21.4191C5.6816 20.9947 4.9675 20.4638 4.35648 19.8185L4.1793 19.631L4.05706 19.6139C3.87079 19.5873 3.82017 19.5999 3.6689 19.703C3.50821 19.8159 3.34347 19.8618 3.18052 19.8427C3.05566 19.8277 2.72765 19.7033 2.39457 19.5458C1.95801 19.3405 1.69798 19.2817 1.46226 19.3391C1.39925 19.3552 1.34912 19.363 1.3496 19.3582C1.35324 19.3223 2.2695 18.9866 2.44969 18.9545C2.66894 18.9169 2.93386 18.9038 3.01811 18.9275C3.28407 18.9991 3.44368 19.0868 3.74529 19.3292C3.909 19.4597 4.06764 19.557 4.08863 19.54C4.09387 19.5357 3.99303 19.4025 3.86605 19.2422C3.60864 18.92 3.46828 18.7135 3.25595 18.3503C3.03044 17.9627 2.81162 17.4973 2.67706 17.1148L2.62849 16.9765L2.54181 16.9174C2.42908 16.8421 2.27345 16.7863 2.17356 16.7861C2.11463 16.7857 2.05614 16.8047 1.96224 16.8524C1.77944 16.9459 1.58642 16.9622 1.44474 16.8994C1.35718 16.8607 1.06015 16.6563 0.905725 16.5293C0.769134 16.4163 0.545813 16.2684 0.43542 16.2175C0.350245 16.1791 0.139438 16.1572 0.064867 16.1804C0.0340176 16.1879 0.0060339 16.1908 0.000687599 16.1842C-0.0292473 16.1471 0.926541 15.9439 1.13608 15.9428C1.43837 15.941 1.54108 15.9608 1.68213 16.0416C1.81284 16.1176 2.02145 16.3038 2.05299 16.3726C2.06295 16.3931 2.12103 16.4732 2.1828 16.5526C2.29374 16.693 2.3004 16.6985 2.42459 16.7557C2.49465 16.7888 2.55617 16.8113 2.56141 16.8071C2.56666 16.8028 2.55071 16.7345 2.52645 16.6533C2.37802 16.1702 2.25587 15.4396 2.22534 14.874C2.21548 14.6625 2.17708 14.5664 2.03727 14.3902L1.92929 14.2561L1.76594 14.1934C1.58879 14.1243 1.41731 14.0111 1.3382 13.913C1.27833 13.8386 1.15267 13.5346 1.07445 13.2733C0.980712 12.963 0.894828 12.7891 0.771494 12.6522C0.714104 12.5891 0.639222 12.5204 0.60176 12.4981C0.566678 12.4761 0.541119 12.4552 0.546365 12.4509C0.551611 12.4466 0.58635 12.4601 0.622745 12.4811C1.36738 12.9125 1.54289 13.0334 1.82254 13.3024C1.91584 13.3913 1.93484 13.4175 1.98583 13.532C2.06564 13.7064 2.09681 13.8501 2.09501 14.0579C2.09484 14.1546 2.09928 14.2652 2.10755 14.3024C2.12277 14.3778 2.18431 14.5188 2.20097 14.5206C2.20811 14.5214 2.2162 14.3941 2.22005 14.2374C2.2334 13.7019 2.30848 13.1273 2.44517 12.5269C2.53108 12.1542 2.50228 11.9515 2.33832 11.7642C2.13563 11.5315 2.05107 11.4157 2.01801 11.3263C1.97548 11.2115 1.97314 10.9851 2.00892 10.6203C2.04722 10.2424 2.0398 10.0662 1.977 9.90209C1.95045 9.83146 1.91594 9.75631 1.90015 9.73402C1.88411 9.71411 1.86715 9.6796 1.86195 9.65968C1.85461 9.6371 1.90855 9.69866 2.00487 9.82898Z" fill="#FFC039"/>
<path d="M12.612 17.9807L13.024 18.8712L14 18.9343L13.2837 19.6028L13.5255 20.5541L12.6708 20.0768L11.8442 20.6017L12.0323 19.6382L11.2796 19.0112L12.2506 18.893L12.612 17.9807Z" fill="#FFC039"/>
<path d="M10.6633 15.4283L10.922 15.9874L11.5347 16.027L11.085 16.4467L11.2368 17.044L10.7002 16.7443L10.1813 17.0738L10.2994 16.4689L9.82682 16.0753L10.4364 16.0011L10.6633 15.4283Z" fill="#FFC039"/>
<path d="M7.45546 15.6811L7.71411 16.2402L8.32688 16.2798L7.87715 16.6995L8.02896 17.2968L7.49237 16.9971L6.97342 17.3266L7.09152 16.7217L6.61898 16.3281L7.22856 16.2539L7.45546 15.6811Z" fill="#FFC039"/>
<path d="M8.37132 13.1276L8.54218 13.497L8.94697 13.5231L8.64988 13.8004L8.75017 14.1949L8.3957 13.997L8.05289 14.2146L8.13091 13.815L7.81875 13.555L8.22143 13.506L8.37132 13.1276Z" fill="#FFC039"/>
<path d="M27.9951 9.82898C27.4577 10.5472 27.265 10.9021 27.2512 11.1939C27.2417 11.3727 27.2739 11.513 27.3718 11.7308C27.4234 11.8472 27.4519 11.9384 27.4568 12.0104C27.4602 12.0681 27.459 12.1154 27.4542 12.1159C27.4494 12.1165 27.4211 12.0386 27.3923 11.945C27.2989 11.6409 27.1525 11.2652 26.9782 10.8865C26.7235 10.3329 26.6871 10.2003 26.7165 9.93223C26.7439 9.68011 26.7306 9.54856 26.6635 9.40843C26.6056 9.28903 26.4424 9.04459 26.3164 8.894C26.2244 8.78199 26.0731 8.54714 26.028 8.44689C26.0062 8.3985 25.9798 8.28048 25.9699 8.18242C25.9586 8.08329 25.948 8.00223 25.9454 8.0001C25.9362 7.99265 25.9098 8.39702 25.8938 8.76155C25.8736 9.20394 25.9119 9.55766 25.9995 9.74512C26.0904 9.94189 26.172 10.0345 26.3972 10.202C26.5807 10.3378 26.5954 10.3519 26.6628 10.4593C26.7587 10.6096 26.9094 10.9207 27.0198 11.1903C27.1252 11.4472 27.1332 11.4777 27.0693 11.4061C26.9752 11.2968 26.9498 11.2476 26.887 11.0562C26.8017 10.7959 26.755 10.7031 26.6272 10.5467C26.5475 10.449 26.4956 10.4003 26.4168 10.3473C26.223 10.2163 25.9249 10.0665 25.6371 9.95793C25.2253 9.80132 24.734 9.6329 24.7233 9.64616C24.719 9.65147 24.7358 9.66292 24.7632 9.672C24.8465 9.6979 25.0305 9.80341 25.1157 9.87263C25.222 9.95888 25.3921 10.1651 25.5548 10.4047C25.9606 10.9998 26.093 11.1073 26.5421 11.2042C26.7611 11.2502 26.7711 11.254 26.8958 11.3442C26.9674 11.398 27.0599 11.4797 27.1062 11.5327C27.1837 11.6197 27.1963 11.6497 27.2772 11.9129C27.3778 12.2404 27.4635 12.5998 27.5195 12.9262C27.5752 13.2502 27.6376 13.7947 27.6176 13.7873C27.5712 13.7694 27.5066 13.583 27.4809 13.3887C27.4458 13.1254 27.4034 12.9922 27.3033 12.8121L27.2227 12.6699L26.9079 12.4143C26.6181 12.1789 26.569 12.1457 26.2901 11.9829C25.8146 11.7087 25.6045 11.5952 25.5948 11.6071C25.5895 11.6138 25.6002 11.6247 25.6189 11.6311C25.6703 11.6508 25.9005 11.8444 25.9635 11.9197C26.043 12.0149 26.175 12.2604 26.3115 12.5622C26.3765 12.7049 26.4662 12.8898 26.512 12.973C26.5936 13.1248 26.5975 13.128 26.7665 13.263C26.9225 13.3897 26.952 13.4071 27.1034 13.4641C27.2938 13.5375 27.4379 13.6414 27.5386 13.7802C27.6255 13.9013 27.6316 13.926 27.6373 14.1479C27.6482 14.5409 27.618 15.0146 27.5572 15.4481C27.5219 15.7048 27.3785 16.3808 27.3595 16.3829C27.3523 16.3837 27.3395 16.3161 27.331 16.2324C27.3168 16.1046 27.3215 16.0557 27.3607 15.9317C27.4728 15.5771 27.4937 15.4031 27.4483 15.1687C27.3981 14.8997 27.1809 14.585 26.7598 14.1707C26.4604 13.8771 26.073 13.534 26.1765 13.6532C26.2573 13.7495 26.3479 13.8956 26.3854 13.9918C26.4266 14.1021 26.4616 14.4115 26.4668 14.712C26.4715 15.0319 26.5136 15.3756 26.5597 15.4745C26.5799 15.5194 26.6378 15.6037 26.6885 15.6647C26.7704 15.7597 26.8034 15.7887 26.9397 15.8752C27.0787 15.9639 27.1049 15.9852 27.1529 16.0549C27.2234 16.156 27.2653 16.2844 27.2864 16.4574C27.3009 16.5767 27.2963 16.6147 27.2471 16.7701C27.0858 17.2691 26.8269 17.8382 26.5573 18.2886C26.4008 18.5501 26.1747 18.8846 26.0507 19.0385L25.9385 19.1778L25.939 19.1234C25.9405 18.9841 25.9829 18.8803 26.1288 18.6454C26.2077 18.5206 26.2893 18.3762 26.3083 18.3257C26.3731 18.1699 26.4097 17.9494 26.3983 17.7886C26.3926 17.7094 26.2647 17.3136 26.1896 17.1429C26.143 17.0392 25.7681 16.3924 25.6344 16.1894C25.5888 16.1195 25.5343 16.0336 25.5116 15.9998C25.446 15.8982 25.4493 15.9426 25.5195 16.0896C25.6466 16.3574 25.6415 16.6518 25.4983 17.1742C25.4018 17.5283 25.3443 17.8635 25.3565 17.9964C25.3638 18.0681 25.3912 18.1606 25.434 18.2502C25.4983 18.3859 25.5335 18.4364 25.7044 18.6256C25.8307 18.7677 25.8856 18.9769 25.8586 19.2096C25.8501 19.2795 25.8358 19.3052 25.7599 19.3994C25.5824 19.6197 25.1667 20.0306 24.8818 20.2712C24.5369 20.5619 24.0859 20.8739 23.7146 21.0817C23.4718 21.216 23.1318 21.3877 23.1213 21.3792C23.1055 21.3664 23.2051 21.197 23.2874 21.0948C23.3559 21.0099 23.407 20.968 23.5817 20.8508C23.859 20.6655 23.9676 20.5738 24.0874 20.4251C24.317 20.1375 24.3511 20.0466 24.4106 19.577C24.4379 19.3708 24.4433 19.2106 24.4317 19.0015C24.4125 18.6215 24.3179 17.6645 24.3012 17.6663C24.293 17.6684 24.2872 17.7295 24.2875 17.8045C24.2857 17.9522 24.2533 18.1432 24.2069 18.268C24.1507 18.4133 23.9195 18.7567 23.7272 18.9738C23.5299 19.1999 23.2417 19.598 23.1745 19.7432C23.0796 19.9472 23.0737 20.2211 23.1586 20.5008C23.1925 20.6095 23.2194 20.7323 23.2201 20.7745C23.2215 20.9667 23.1364 21.1961 22.9971 21.3771C22.9206 21.4774 22.9206 21.4774 22.7225 21.5536C22.0797 21.8022 21.4374 21.9611 20.7772 22.0374C20.4309 22.0768 20.0015 22.1035 20.0009 22.0854C19.9979 22.0676 20.2128 21.9194 20.291 21.8842C20.33 21.8654 20.5081 21.8167 20.6847 21.778C21.0175 21.7014 21.2444 21.6244 21.3943 21.5354C21.559 21.4387 21.7414 21.2904 21.8258 21.1856C21.9242 21.0635 22.2009 20.5397 22.2652 20.3548C22.339 20.1448 22.5835 19.2436 22.6548 18.9262C22.7207 18.6263 22.7268 18.5083 22.6674 18.7059C22.5822 18.9813 22.4042 19.221 22.1382 19.422C21.9237 19.5859 21.841 19.6373 21.5354 19.804C21.1179 20.0313 20.6608 20.3428 20.5582 20.4702C20.4833 20.5631 20.3849 20.7795 20.3435 20.9412C20.3233 21.0148 20.308 21.1495 20.3077 21.2414C20.3071 21.4604 20.2773 21.5701 20.1767 21.7299C20.1118 21.8374 20.0762 21.8788 19.9737 21.9711C19.8932 22.044 19.8323 22.0846 19.8029 22.0915C19.6868 22.1091 19.0479 22.0645 18.6669 22.0097C18.3238 21.9616 17.6867 21.8153 17.4348 21.7294C17.4098 21.72 17.392 21.7341 17.3396 21.7991L17.2755 21.8787L17.3674 21.9073C18.1655 22.158 19.0599 22.2893 19.9307 22.283C20.1088 22.2827 20.1697 22.2905 20.2724 22.33C20.4639 22.402 20.5984 22.4828 20.7287 22.6039C20.8746 22.7377 20.9179 22.8079 20.9911 23.0321C21.0588 23.2362 21.1136 23.3378 21.2484 23.5044C21.3652 23.6475 21.4706 23.7375 21.5972 23.7985C21.759 23.875 22.2535 24.0395 22.6007 24.1282C22.916 24.2108 23.2239 24.316 23.45 24.4205C23.5813 24.481 23.866 24.7254 23.9563 24.8557C24.1227 25.0962 24.1066 25.0326 23.9155 24.6909C23.6903 24.2864 23.1769 23.4723 23.0562 23.3259C22.8806 23.1131 22.5465 22.7738 22.4496 22.7083C22.3426 22.639 22.1263 22.5468 21.9489 22.4949C21.7689 22.441 21.5614 22.4239 21.2011 22.4321C20.8539 22.4377 20.7651 22.4293 20.6122 22.3688C20.3663 22.2701 20.3641 22.2727 20.7215 22.2358C21.4454 22.1586 22.1547 21.9838 22.8315 21.7146C22.9774 21.6574 23.1131 21.6074 23.1367 21.6024C23.2076 21.5897 23.4345 21.6313 23.5635 21.6812C23.7115 21.7398 23.7661 21.7798 23.8999 21.9368C23.9849 22.0387 24.0177 22.0653 24.137 22.138C24.3015 22.2408 24.455 22.2953 24.5982 22.3061C24.7643 22.3181 25.1277 22.3059 25.4739 22.2774C25.9071 22.2407 26.2743 22.2534 26.4569 22.3095C26.606 22.356 26.7728 22.4344 26.8436 22.4919C26.8659 22.51 26.891 22.5193 26.8974 22.5113C26.9113 22.4941 26.6803 22.3176 26.1316 21.9269C25.7373 21.6463 25.6117 21.5706 25.2866 21.4274C24.9979 21.2984 24.9175 21.277 24.6977 21.2697C24.4513 21.2606 24.222 21.3027 23.8954 21.4173C23.7385 21.472 23.5655 21.5225 23.512 21.5296C23.4253 21.5404 23.276 21.5399 23.2845 21.5293C23.2867 21.5266 23.3804 21.4776 23.4948 21.4191C24.3184 20.9947 25.0325 20.4638 25.6435 19.8185L25.8207 19.631L25.9429 19.6139C26.1292 19.5873 26.1798 19.5999 26.3311 19.703C26.4918 19.8159 26.6565 19.8618 26.8195 19.8427C26.9443 19.8277 27.2724 19.7033 27.6054 19.5458C28.042 19.3405 28.302 19.2817 28.5377 19.3391C28.6007 19.3552 28.6509 19.363 28.6504 19.3582C28.6468 19.3223 27.7305 18.9866 27.5503 18.9545C27.3311 18.9169 27.0661 18.9038 26.9819 18.9275C26.7159 18.9991 26.5563 19.0868 26.2547 19.3292C26.091 19.4597 25.9324 19.557 25.9114 19.54C25.9061 19.5357 26.007 19.4025 26.1339 19.2422C26.3914 18.92 26.5317 18.7135 26.7441 18.3503C26.9696 17.9627 27.1884 17.4973 27.3229 17.1148L27.3715 16.9765L27.4582 16.9174C27.5709 16.8421 27.7265 16.7863 27.8264 16.7861C27.8854 16.7857 27.9439 16.8047 28.0378 16.8524C28.2206 16.9459 28.4136 16.9622 28.5553 16.8994C28.6428 16.8607 28.9398 16.6563 29.0943 16.5293C29.2309 16.4163 29.4542 16.2684 29.5646 16.2175C29.6498 16.1791 29.8606 16.1572 29.9351 16.1804C29.966 16.1879 29.994 16.1908 29.9993 16.1842C30.0292 16.1471 29.0735 15.9439 28.8639 15.9428C28.5616 15.941 28.4589 15.9608 28.3179 16.0416C28.1872 16.1176 27.9786 16.3038 27.947 16.3726C27.937 16.3931 27.879 16.4732 27.8172 16.5526C27.7063 16.693 27.6996 16.6985 27.5754 16.7557C27.5053 16.7888 27.4438 16.8113 27.4386 16.8071C27.4333 16.8028 27.4493 16.7345 27.4736 16.6533C27.622 16.1702 27.7441 15.4396 27.7747 14.874C27.7845 14.6625 27.8229 14.5664 27.9627 14.3902L28.0707 14.2561L28.2341 14.1934C28.4112 14.1243 28.5827 14.0111 28.6618 13.913C28.7217 13.8386 28.8473 13.5346 28.9256 13.2733C29.0193 12.963 29.1052 12.7891 29.2285 12.6522C29.2859 12.5891 29.3608 12.5204 29.3982 12.4981C29.4333 12.4761 29.4589 12.4552 29.4536 12.4509C29.4484 12.4466 29.4136 12.4601 29.3773 12.4811C28.6326 12.9125 28.4571 13.0334 28.1775 13.3024C28.0842 13.3913 28.0652 13.4175 28.0142 13.532C27.9344 13.7064 27.9032 13.8501 27.905 14.0579C27.9052 14.1546 27.9007 14.2652 27.8925 14.3024C27.8772 14.3778 27.8157 14.5188 27.799 14.5206C27.7919 14.5214 27.7838 14.3941 27.7799 14.2374C27.7666 13.7019 27.6915 13.1273 27.5548 12.5269C27.4689 12.1542 27.4977 11.9515 27.6617 11.7642C27.8644 11.5315 27.9489 11.4157 27.982 11.3263C28.0245 11.2115 28.0269 10.9851 27.9911 10.6203C27.9528 10.2424 27.9602 10.0662 28.023 9.90209C28.0495 9.83146 28.0841 9.75631 28.0998 9.73402C28.1159 9.71411 28.1328 9.6796 28.1381 9.65968C28.1454 9.6371 28.0915 9.69866 27.9951 9.82898Z" fill="#FFC039"/>
<path d="M17.388 17.9807L16.976 18.8712L16 18.9343L16.7163 19.6028L16.4745 20.5541L17.3292 20.0768L18.1558 20.6017L17.9677 19.6382L18.7204 19.0112L17.7494 18.893L17.388 17.9807Z" fill="#FFC039"/>
<path d="M19.3367 15.4283L19.078 15.9874L18.4653 16.027L18.915 16.4467L18.7632 17.044L19.2998 16.7443L19.8187 17.0738L19.7006 16.4689L20.1732 16.0753L19.5636 16.0011L19.3367 15.4283Z" fill="#FFC039"/>
<path d="M22.5445 15.6811L22.2859 16.2402L21.6731 16.2798L22.1228 16.6995L21.971 17.2968L22.5076 16.9971L23.0266 17.3266L22.9085 16.7217L23.381 16.3281L22.7714 16.2539L22.5445 15.6811Z" fill="#FFC039"/>
<path d="M21.6287 13.1276L21.4578 13.497L21.053 13.5231L21.3501 13.8004L21.2498 14.1949L21.6043 13.997L21.9471 14.2146L21.8691 13.815L22.1812 13.555L21.7786 13.506L21.6287 13.1276Z" fill="#FFC039"/>
</svg>
