<svg width="30" height="28" viewBox="0 0 30 28" fill="none" xmlns="http://www.w3.org/2000/svg">
<path d="M14.9612 19.243C14.3192 19.243 13.7162 19.123 13.1522 18.883C12.5882 18.637 12.0992 18.289 11.6852 17.839C11.2772 17.389 10.9802 16.858 10.7942 16.246L12.6122 15.742C12.7862 16.3 13.0892 16.729 13.5212 17.029C13.9532 17.323 14.4332 17.467 14.9612 17.461C15.4352 17.455 15.8522 17.344 16.2122 17.128C16.5722 16.912 16.8542 16.621 17.0582 16.255C17.2622 15.883 17.3642 15.457 17.3642 14.977C17.3642 14.257 17.1392 13.663 16.6892 13.195C16.2452 12.727 15.6632 12.493 14.9432 12.493C14.7392 12.493 14.5292 12.523 14.3132 12.583C14.1032 12.643 13.9052 12.721 13.7192 12.817L12.8372 11.332L17.4092 7.291L17.6072 7.831H11.3072V6.04H19.1012V7.831L15.3032 11.485L15.2852 10.873C16.1012 10.873 16.8092 11.056 17.4092 11.422C18.0092 11.782 18.4712 12.274 18.7952 12.898C19.1252 13.516 19.2902 14.209 19.2902 14.977C19.2902 15.805 19.0952 16.54 18.7052 17.182C18.3212 17.824 17.8022 18.328 17.1482 18.694C16.5002 19.06 15.7712 19.243 14.9612 19.243Z" fill="#A96425"/>
<path d="M2.74885 12.1939C2.73508 11.9021 2.54237 11.5472 2.00494 10.829C1.90862 10.6987 1.85468 10.6371 1.86202 10.6597C1.86722 10.6796 1.88418 10.7141 1.90022 10.734C1.91601 10.7563 1.95052 10.8315 1.97707 10.9021C2.03987 11.0662 2.04729 11.2424 2.00899 11.6203C1.97321 11.9851 1.97554 12.2115 2.01808 12.3263C2.05114 12.4157 2.1357 12.5315 2.33839 12.7642C2.50235 12.9515 2.53115 13.1542 2.44524 13.5269C2.30855 14.1273 2.23347 14.7019 2.22012 15.2374C2.21627 15.3941 2.20818 15.5214 2.20104 15.5206L2.22541 15.874C2.25594 16.4396 2.37809 17.1702 2.52652 17.6533C2.55078 17.7345 2.56673 17.8028 2.56148 17.8071C2.55624 17.8113 2.49472 17.7888 2.42466 17.7557C2.30047 17.6985 2.29381 17.693 2.18287 17.5526C2.1211 17.4732 2.06302 17.3931 2.05306 17.3726C2.02151 17.3038 1.81291 17.1176 1.6822 17.0416C1.54115 16.9608 1.43844 16.941 1.13615 16.9428C0.926611 16.9439 -0.0291777 17.1471 0.000757217 17.1842C0.00610256 17.1908 0.0340881 17.1879 0.0649366 17.1804C0.139507 17.1572 0.350315 17.1791 0.43549 17.2175C0.545882 17.2684 0.769203 17.4163 0.905795 17.5293C1.06022 17.6563 1.35725 17.8607 1.44481 17.8994C1.58649 17.9622 1.77951 17.9459 1.96231 17.8524C2.05621 17.8047 2.1147 17.7857 2.17363 17.7861C2.27352 17.7863 2.42915 17.8421 2.54188 17.9174L2.62856 17.9765L2.67713 18.1148C2.81169 18.4973 3.03051 18.9627 3.25602 19.3503C3.46836 19.7135 3.60871 19.92 3.86612 20.2422C3.9931 20.4025 4.09394 20.5357 4.0887 20.54L4.17937 20.631L4.35655 20.8185C4.96757 21.4638 5.68167 21.9947 6.50525 22.4191C6.61967 22.4776 6.7134 22.5266 6.71554 22.5293C6.72409 22.5399 6.5748 22.5404 6.48802 22.5296C6.43458 22.5225 6.26156 22.472 6.10463 22.4173C5.77803 22.3027 5.5488 22.2606 5.30234 22.2697C5.08255 22.277 5.00215 22.2984 4.71344 22.4274C4.3884 22.5706 4.26278 22.6463 3.86844 22.9269C3.31972 23.3176 3.0888 23.4941 3.10269 23.5113C3.10911 23.5193 3.13413 23.51 3.15642 23.4919C3.22725 23.4344 3.39406 23.356 3.54321 23.3095C3.72582 23.2534 4.09301 23.2407 4.52619 23.2774C4.87235 23.3059 5.23581 23.3181 5.40191 23.3061C5.54503 23.2953 5.6986 23.2408 5.86308 23.138C5.98238 23.0653 6.01517 23.0387 6.10012 22.9368C6.23398 22.7798 6.28858 22.7398 6.43656 22.6812C6.56558 22.6313 6.79246 22.5897 6.86339 22.6024C6.88696 22.6074 7.02271 22.6574 7.16857 22.7146C7.8454 22.9838 8.55465 23.1586 9.27861 23.2358L10.0694 23.283C10.9402 23.2893 11.8345 23.158 12.6326 22.9073L12.7246 22.8787L12.6605 22.7991C12.6081 22.7341 12.5902 22.72 12.5652 22.7294C12.3134 22.8153 11.6763 22.9616 11.3332 23.0097C10.9521 23.0645 10.3133 23.1091 10.1971 23.0915L9.99917 23.0854C9.99854 23.1035 9.56916 23.0768 9.22289 23.0374C8.56263 22.9611 7.92037 22.8022 7.27756 22.5536L7.09103 22.472C7.05895 22.4505 7.03985 22.4255 7.00298 22.3771C6.86365 22.1961 6.77858 21.9667 6.78 21.7745C6.78067 21.7323 6.80756 21.6095 6.84144 21.5008C6.92636 21.2211 6.92042 20.9472 6.82554 20.7432C6.75842 20.598 6.47019 20.1999 6.27284 19.9738C6.0806 19.7567 5.84941 19.4133 5.79312 19.268C5.7468 19.1432 5.7144 18.9522 5.71252 18.8045C5.7129 18.7295 5.70705 18.6684 5.69884 18.6663C5.68218 18.6645 5.58759 19.6215 5.56834 20.0015C5.55677 20.2106 5.5622 20.3708 5.58945 20.577C5.64896 21.0466 5.68309 21.1375 5.91271 21.4251C6.03245 21.5738 6.1411 21.6655 6.41841 21.8508C6.59309 21.968 6.64421 22.0099 6.71263 22.0948C6.79495 22.197 6.89454 22.3664 6.8788 22.3792C6.8683 22.3877 6.52823 22.216 6.28548 22.0817C5.91416 21.8739 5.46314 21.5619 5.11829 21.2712C4.83334 21.0306 4.41762 20.6197 4.24015 20.3994L4.06161 20.1778L3.94935 20.0385C3.82533 19.8846 3.59925 19.5501 3.44281 19.2886C3.17312 18.8382 2.91425 18.2691 2.75299 17.7701C2.70374 17.6147 2.69917 17.5767 2.71367 17.4574C2.73481 17.2844 2.77671 17.156 2.84714 17.0549C2.89512 16.9852 2.92135 16.9639 3.06033 16.8752C3.19669 16.7887 3.22972 16.7597 3.31156 16.6647C3.36227 16.6037 3.42016 16.5194 3.44036 16.4745C3.4865 16.3756 3.52855 16.0319 3.53329 15.712C3.53847 15.4115 3.57344 15.1021 3.61471 14.9918C3.65215 14.8956 3.74277 14.7495 3.82355 14.6532C3.9271 14.534 3.53967 14.8771 3.24031 15.1707C2.81918 15.585 2.60194 15.8997 2.55181 16.1687C2.50638 16.4031 2.52726 16.5771 2.63937 16.9317C2.67855 17.0557 2.68323 17.1046 2.66907 17.2324C2.66058 17.3161 2.64772 17.3837 2.64058 17.3829C2.62154 17.3808 2.47822 16.7048 2.44284 16.4481C2.38207 16.0146 2.35185 15.5409 2.36279 15.1479L2.38249 14.7873C2.36248 14.7947 2.42489 14.2502 2.48059 13.9262C2.53654 13.5998 2.62231 13.2404 2.72291 12.9129L2.89625 12.4061C2.90755 12.3696 2.93488 12.3009 2.9803 12.1903C3.09067 11.9207 3.24136 11.6096 3.33723 11.4593C3.40469 11.3519 3.41936 11.3378 3.60283 11.202C3.82803 11.0345 3.90963 10.9419 4.00058 10.7451C4.08819 10.5577 4.12644 10.2039 4.10629 9.76155C4.09027 9.39702 4.06386 8.99265 4.05468 9.0001C4.05205 9.00223 4.04143 9.08329 4.03018 9.18242C4.02024 9.28048 3.99384 9.3985 3.97208 9.44689C3.92702 9.54714 3.77563 9.78199 3.68364 9.894C3.55764 10.0446 3.39445 10.289 3.33662 10.4084C3.26946 10.5486 3.25612 10.6801 3.28353 10.9322C3.31293 11.2003 3.27662 11.3329 3.02192 11.8865C2.84753 12.2652 2.70113 12.6409 2.60772 12.945C2.57898 13.0386 2.55063 13.1165 2.54586 13.1159C2.5411 13.1154 2.53988 13.0681 2.54332 13.0104C2.54821 12.9384 2.57671 12.8472 2.62823 12.7308C2.72613 12.513 2.75841 12.3727 2.74885 12.1939Z" fill="#A96425"/>
<path d="M26.9758 12.1939C26.9895 11.9021 27.1822 11.5472 27.7197 10.829C27.816 10.6987 27.8699 10.6371 27.8626 10.6597C27.8574 10.6796 27.8404 10.7141 27.8244 10.734C27.8086 10.7563 27.7741 10.8315 27.7475 10.9021C27.6847 11.0662 27.6773 11.2424 27.7156 11.6203C27.7514 11.9851 27.7491 12.2115 27.7065 12.3263C27.6735 12.4157 27.5889 12.5315 27.3862 12.7642C27.2223 12.9515 27.1935 13.1542 27.2794 13.5269C27.4161 14.1273 27.4911 14.7019 27.5045 15.2374C27.5083 15.3941 27.5164 15.5214 27.5236 15.5206L27.4992 15.874C27.4687 16.4396 27.3465 17.1702 27.1981 17.6533C27.1738 17.7345 27.1579 17.8028 27.1631 17.8071C27.1684 17.8113 27.2299 17.7888 27.3 17.7557C27.4241 17.6985 27.4308 17.693 27.5417 17.5526C27.6035 17.4732 27.6616 17.3931 27.6715 17.3726C27.7031 17.3038 27.9117 17.1176 28.0424 17.0416C28.1835 16.9608 28.2862 16.941 28.5885 16.9428C28.798 16.9439 29.7538 17.1471 29.7239 17.1842C29.7185 17.1908 29.6905 17.1879 29.6597 17.1804C29.5851 17.1572 29.3743 17.1791 29.2891 17.2175C29.1787 17.2684 28.9554 17.4163 28.8188 17.5293C28.6644 17.6563 28.3674 17.8607 28.2798 17.8994C28.1381 17.9622 27.9451 17.9459 27.7623 17.8524C27.6684 17.8047 27.6099 17.7857 27.551 17.7861C27.4511 17.7863 27.2955 17.8421 27.1827 17.9174L27.096 17.9765L27.0475 18.1148C26.9129 18.4973 26.6941 18.9627 26.4686 19.3503C26.2563 19.7135 26.1159 19.92 25.8585 20.2422C25.7315 20.4025 25.6307 20.5357 25.6359 20.54L25.5452 20.631L25.3681 20.8185C24.757 21.4638 24.0429 21.9947 23.2194 22.4191C23.1049 22.4776 23.0112 22.5266 23.0091 22.5293C23.0005 22.5399 23.1498 22.5404 23.2366 22.5296C23.29 22.5225 23.463 22.472 23.62 22.4173C23.9466 22.3027 24.1758 22.2606 24.4223 22.2697C24.6421 22.277 24.7225 22.2984 25.0112 22.4274C25.3362 22.5706 25.4618 22.6463 25.8562 22.9269C26.4049 23.3176 26.6358 23.4941 26.6219 23.5113C26.6155 23.5193 26.5905 23.51 26.5682 23.4919C26.4974 23.4344 26.3305 23.356 26.1814 23.3095C25.9988 23.2534 25.6316 23.2407 25.1984 23.2774C24.8523 23.3059 24.4888 23.3181 24.3227 23.3061C24.1796 23.2953 24.026 23.2408 23.8615 23.138C23.7422 23.0653 23.7094 23.0387 23.6245 22.9368C23.4906 22.7798 23.436 22.7398 23.2881 22.6812C23.159 22.6313 22.9321 22.5897 22.8612 22.6024C22.8377 22.6074 22.7019 22.6574 22.556 22.7146C21.8792 22.9838 21.17 23.1586 20.446 23.2358L19.6552 23.283C18.7844 23.2893 17.8901 23.158 17.092 22.9073L17 22.8787L17.0641 22.7991C17.1165 22.7341 17.1344 22.72 17.1594 22.7294C17.4112 22.8153 18.0483 22.9616 18.3914 23.0097C18.7725 23.0645 19.4113 23.1091 19.5275 23.0915L19.7254 23.0854C19.7261 23.1035 20.1555 23.0768 20.5017 23.0374C21.162 22.9611 21.8042 22.8022 22.4471 22.5536L22.6336 22.472C22.6657 22.4505 22.6848 22.4255 22.7216 22.3771C22.861 22.1961 22.946 21.9667 22.9446 21.7745C22.9439 21.7323 22.9171 21.6095 22.8832 21.5008C22.7983 21.2211 22.8042 20.9472 22.8991 20.7432C22.9662 20.598 23.2544 20.1999 23.4518 19.9738C23.644 19.7567 23.8752 19.4133 23.9315 19.268C23.9778 19.1432 24.0102 18.9522 24.0121 18.8045C24.0117 18.7295 24.0176 18.6684 24.0258 18.6663C24.0424 18.6645 24.137 19.6215 24.1563 20.0015C24.1678 20.2106 24.1624 20.3708 24.1352 20.577C24.0756 21.0466 24.0415 21.1375 23.8119 21.4251C23.6922 21.5738 23.5835 21.6655 23.3062 21.8508C23.1315 21.968 23.0804 22.0099 23.012 22.0948C22.9297 22.197 22.8301 22.3664 22.8458 22.3792C22.8563 22.3877 23.1964 22.216 23.4391 22.0817C23.8104 21.8739 24.2615 21.5619 24.6063 21.2712C24.8913 21.0306 25.307 20.6197 25.4845 20.3994L25.663 20.1778L25.7753 20.0385C25.8993 19.8846 26.1254 19.5501 26.2818 19.2886C26.5515 18.8382 26.8104 18.2691 26.9716 17.7701C27.0209 17.6147 27.0254 17.5767 27.0109 17.4574C26.9898 17.2844 26.9479 17.156 26.8775 17.0549C26.8295 16.9852 26.8033 16.9639 26.6643 16.8752C26.5279 16.7887 26.4949 16.7597 26.413 16.6647C26.3623 16.6037 26.3044 16.5194 26.2842 16.4745C26.2381 16.3756 26.1961 16.0319 26.1913 15.712C26.1861 15.4115 26.1512 15.1021 26.1099 14.9918C26.0725 14.8956 25.9818 14.7495 25.9011 14.6532C25.7975 14.534 26.1849 14.8771 26.4843 15.1707C26.9054 15.585 27.1227 15.8997 27.1728 16.1687C27.2182 16.4031 27.1973 16.5771 27.0852 16.9317C27.0461 17.0557 27.0414 17.1046 27.0555 17.2324C27.064 17.3161 27.0769 17.3837 27.084 17.3829C27.1031 17.3808 27.2464 16.7048 27.2818 16.4481C27.3425 16.0146 27.3728 15.5409 27.3618 15.1479L27.3421 14.7873C27.3621 14.7947 27.2997 14.2502 27.244 13.9262C27.1881 13.5998 27.1023 13.2404 27.0017 12.9129L26.8284 12.4061C26.8171 12.3696 26.7897 12.3009 26.7443 12.1903C26.6339 11.9207 26.4833 11.6096 26.3874 11.4593C26.3199 11.3519 26.3053 11.3378 26.1218 11.202C25.8966 11.0345 25.815 10.9419 25.724 10.7451C25.6364 10.5577 25.5982 10.2039 25.6183 9.76155C25.6343 9.39702 25.6608 8.99265 25.6699 9.0001C25.6726 9.00223 25.6832 9.08329 25.6944 9.18242C25.7044 9.28048 25.7308 9.3985 25.7525 9.44689C25.7976 9.54714 25.949 9.78199 26.041 9.894C26.167 10.0446 26.3302 10.289 26.388 10.4084C26.4552 10.5486 26.4685 10.6801 26.4411 10.9322C26.4117 11.2003 26.448 11.3329 26.7027 11.8865C26.8771 12.2652 27.0235 12.6409 27.1169 12.945C27.1456 13.0386 27.174 13.1165 27.1787 13.1159C27.1835 13.1154 27.1847 13.0681 27.1813 13.0104C27.1764 12.9384 27.1479 12.8472 27.0964 12.7308C26.9985 12.513 26.9662 12.3727 26.9758 12.1939Z" fill="#A96425"/>
</svg>
