<svg width="30" height="28" viewBox="0 0 30 28" fill="none" xmlns="http://www.w3.org/2000/svg">
<path d="M11.1178 17.991L11.1268 16.317L16.7698 11.259C17.2258 10.857 17.5348 10.473 17.6968 10.107C17.8648 9.741 17.9488 9.375 17.9488 9.009C17.9488 8.547 17.8468 8.133 17.6428 7.767C17.4388 7.395 17.1568 7.101 16.7968 6.885C16.4368 6.669 16.0228 6.561 15.5548 6.561C15.0748 6.561 14.6458 6.675 14.2678 6.903C13.8958 7.125 13.6048 7.422 13.3948 7.794C13.1848 8.166 13.0828 8.568 13.0888 9H11.1628C11.1628 8.16 11.3518 7.425 11.7298 6.795C12.1138 6.159 12.6388 5.664 13.3048 5.31C13.9708 4.95 14.7328 4.77 15.5908 4.77C16.4068 4.77 17.1388 4.956 17.7868 5.328C18.4348 5.694 18.9448 6.198 19.3168 6.84C19.6948 7.482 19.8838 8.214 19.8838 9.036C19.8838 9.63 19.8058 10.134 19.6498 10.548C19.4938 10.962 19.2598 11.346 18.9478 11.7C18.6358 12.054 18.2458 12.438 17.7778 12.852L13.4218 16.74L13.2148 16.2H19.8838V17.991H11.1178Z" fill="#E2F4FF"/>
<path d="M2.00494 9.82898C2.54237 10.5472 2.73508 10.9021 2.74885 11.1939C2.75841 11.3727 2.72613 11.513 2.62823 11.7308C2.57671 11.8472 2.54821 11.9384 2.54332 12.0104C2.53988 12.0681 2.5411 12.1154 2.54586 12.1159C2.55063 12.1165 2.57898 12.0386 2.60772 11.945C2.70113 11.6409 2.84753 11.2652 3.02192 10.8865C3.27662 10.3329 3.31293 10.2003 3.28353 9.93223C3.25612 9.68011 3.26946 9.54856 3.33662 9.40843C3.39445 9.28903 3.55764 9.04459 3.68364 8.894C3.77563 8.78199 3.92702 8.54714 3.97208 8.44689C3.99384 8.3985 4.02024 8.28048 4.03018 8.18242C4.04143 8.08329 4.05205 8.00223 4.05468 8.0001C4.06386 7.99265 4.09027 8.39702 4.10629 8.76155C4.12644 9.20394 4.08819 9.55766 4.00058 9.74512C3.90963 9.94189 3.82803 10.0345 3.60283 10.202C3.41936 10.3378 3.40469 10.3519 3.33723 10.4593C3.24136 10.6096 3.09067 10.9207 2.9803 11.1903C2.87483 11.4472 2.86691 11.4777 2.93074 11.4061C3.02487 11.2968 3.05032 11.2476 3.11305 11.0562C3.1984 10.7959 3.24512 10.7031 3.37291 10.5467C3.45261 10.449 3.50449 10.4003 3.58328 10.3473C3.7771 10.2163 4.07513 10.0665 4.36296 9.95793C4.77482 9.80132 5.26611 9.6329 5.2768 9.64616C5.28108 9.65147 5.26427 9.66292 5.23687 9.672C5.1536 9.6979 4.96959 9.80341 4.88434 9.87263C4.77811 9.95888 4.60796 10.1651 4.44526 10.4047C4.03952 10.9998 3.90706 11.1073 3.45792 11.2042C3.23901 11.2502 3.22901 11.254 3.10431 11.3442C3.03266 11.398 2.94013 11.4797 2.89384 11.5327C2.81642 11.6197 2.80374 11.6497 2.72291 11.9129C2.62231 12.2404 2.53654 12.5998 2.48059 12.9262C2.42489 13.2502 2.36248 13.7947 2.38249 13.7873C2.42884 13.7694 2.49346 13.583 2.51917 13.3887C2.55429 13.1254 2.59667 12.9922 2.69677 12.8121L2.77738 12.6699L3.09215 12.4143C3.382 12.1789 3.43111 12.1457 3.70999 11.9829C4.18552 11.7087 4.39562 11.5952 4.40524 11.6071C4.41058 11.6138 4.39985 11.6247 4.38115 11.6311C4.3298 11.6508 4.09955 11.8444 4.03656 11.9197C3.95709 12.0149 3.8251 12.2604 3.68859 12.5622C3.62357 12.7049 3.53383 12.8898 3.48808 12.973C3.40649 13.1248 3.40256 13.128 3.23361 13.263C3.07754 13.3897 3.0481 13.4071 2.89668 13.4641C2.7063 13.5375 2.56217 13.6414 2.46144 13.7802C2.37455 13.9013 2.36843 13.926 2.36279 14.1479C2.35185 14.5409 2.38207 15.0146 2.44284 15.4481C2.47822 15.7048 2.62154 16.3808 2.64058 16.3829C2.64772 16.3837 2.66058 16.3161 2.66907 16.2324C2.68323 16.1046 2.67855 16.0557 2.63937 15.9317C2.52726 15.5771 2.50638 15.4031 2.55181 15.1687C2.60194 14.8997 2.81918 14.585 3.24031 14.1707C3.53967 13.8771 3.9271 13.534 3.82355 13.6532C3.74277 13.7495 3.65215 13.8956 3.61471 13.9918C3.57344 14.1021 3.53847 14.4115 3.53329 14.712C3.52855 15.0319 3.4865 15.3756 3.44036 15.4745C3.42016 15.5194 3.36227 15.6037 3.31156 15.6647C3.22972 15.7597 3.19669 15.7887 3.06033 15.8752C2.92135 15.9639 2.89512 15.9852 2.84714 16.0549C2.77671 16.156 2.73481 16.2844 2.71367 16.4574C2.69917 16.5767 2.70374 16.6147 2.75299 16.7701C2.91425 17.2691 3.17312 17.8382 3.44281 18.2886C3.59925 18.5501 3.82533 18.8846 3.94935 19.0385L4.06161 19.1778L4.06111 19.1234C4.05958 18.9841 4.01714 18.8803 3.87124 18.6454C3.79241 18.5206 3.71076 18.3762 3.6918 18.3257C3.62696 18.1699 3.59033 17.9494 3.60181 17.7886C3.60743 17.7094 3.73541 17.3136 3.81049 17.1429C3.85711 17.0392 4.23198 16.3924 4.36569 16.1894C4.4113 16.1195 4.46574 16.0336 4.48842 15.9998C4.55408 15.8982 4.55079 15.9426 4.48052 16.0896C4.35348 16.3574 4.35855 16.6518 4.50179 17.1742C4.5983 17.5283 4.6558 17.8635 4.64353 17.9964C4.63626 18.0681 4.60883 18.1606 4.56605 18.2502C4.50175 18.3859 4.46654 18.4364 4.29571 18.6256C4.16938 18.7677 4.11447 18.9769 4.14144 19.2096C4.15 19.2795 4.16424 19.3052 4.24015 19.3994C4.41762 19.6197 4.83334 20.0306 5.11829 20.2712C5.46314 20.5619 5.91416 20.8739 6.28548 21.0817C6.52823 21.216 6.8683 21.3877 6.8788 21.3792C6.89454 21.3664 6.79495 21.197 6.71263 21.0948C6.64421 21.0099 6.59309 20.968 6.41841 20.8508C6.1411 20.6655 6.03245 20.5738 5.91271 20.4251C5.68309 20.1375 5.64896 20.0466 5.58945 19.577C5.5622 19.3708 5.55677 19.2106 5.56834 19.0015C5.58759 18.6215 5.68218 17.6645 5.69884 17.6663C5.70705 17.6684 5.7129 17.7295 5.71252 17.8045C5.7144 17.9522 5.7468 18.1432 5.79312 18.268C5.84941 18.4133 6.0806 18.7567 6.27284 18.9738C6.47019 19.1999 6.75842 19.598 6.82554 19.7432C6.92042 19.9472 6.92636 20.2211 6.84144 20.5008C6.80756 20.6095 6.78067 20.7323 6.78 20.7745C6.77858 20.9667 6.86365 21.1961 7.00298 21.3771C7.07947 21.4774 7.07947 21.4774 7.27756 21.5536C7.92037 21.8022 8.56263 21.9611 9.22289 22.0374C9.56916 22.0768 9.99854 22.1035 9.99917 22.0854C10.0022 22.0676 9.78731 21.9194 9.70904 21.8842C9.67002 21.8654 9.492 21.8167 9.31539 21.778C8.98253 21.7014 8.75563 21.6244 8.60578 21.5354C8.44106 21.4387 8.25869 21.2904 8.17423 21.1856C8.07587 21.0635 7.79918 20.5397 7.73486 20.3548C7.66107 20.1448 7.4166 19.2436 7.34526 18.9262C7.27937 18.6263 7.27327 18.5083 7.33268 18.7059C7.41791 18.9813 7.59582 19.221 7.86191 19.422C8.07639 19.5859 8.15904 19.6373 8.46471 19.804C8.88219 20.0313 9.33928 20.3428 9.44192 20.4702C9.51675 20.5631 9.61518 20.7795 9.65656 20.9412C9.67679 21.0148 9.69202 21.1495 9.69233 21.2414C9.69301 21.4604 9.72282 21.5701 9.82337 21.7299C9.8883 21.8374 9.92382 21.8788 10.0264 21.9711C10.1069 22.044 10.1678 22.0846 10.1971 22.0915C10.3133 22.1091 10.9521 22.0645 11.3332 22.0097C11.6763 21.9616 12.3134 21.8153 12.5652 21.7294C12.5902 21.72 12.6081 21.7341 12.6605 21.7991L12.7246 21.8787L12.6326 21.9073C11.8345 22.158 10.9402 22.2893 10.0694 22.283C9.89131 22.2827 9.83034 22.2905 9.72764 22.33C9.53619 22.402 9.40163 22.4828 9.2714 22.6039C9.12544 22.7377 9.08221 22.8079 9.00895 23.0321C8.94131 23.2362 8.88649 23.3378 8.75165 23.5044C8.63484 23.6475 8.52943 23.7375 8.40289 23.7985C8.24107 23.875 7.74657 24.0395 7.39937 24.1282C7.08408 24.2108 6.77613 24.316 6.55009 24.4205C6.41879 24.481 6.13404 24.7254 6.0438 24.8557C5.8774 25.0962 5.89347 25.0326 6.08458 24.6909C6.30972 24.2864 6.82313 23.4723 6.94387 23.3259C7.11951 23.1131 7.45359 22.7738 7.5505 22.7083C7.65742 22.639 7.87379 22.5468 8.05116 22.4949C8.23115 22.441 8.43869 22.4239 8.79894 22.4321C9.14622 22.4377 9.23493 22.4293 9.3879 22.3688C9.63381 22.2701 9.63595 22.2727 9.27861 22.2358C8.55465 22.1586 7.8454 21.9838 7.16857 21.7146C7.02271 21.6574 6.88696 21.6074 6.86339 21.6024C6.79246 21.5897 6.56558 21.6313 6.43656 21.6812C6.28858 21.7398 6.23398 21.7798 6.10012 21.9368C6.01517 22.0387 5.98238 22.0653 5.86308 22.138C5.6986 22.2408 5.54503 22.2953 5.40191 22.3061C5.23581 22.3181 4.87235 22.3059 4.52619 22.2774C4.09301 22.2407 3.72582 22.2534 3.54321 22.3095C3.39406 22.356 3.22725 22.4344 3.15642 22.4919C3.13413 22.51 3.10911 22.5193 3.10269 22.5113C3.0888 22.4941 3.31972 22.3176 3.86844 21.9269C4.26278 21.6463 4.3884 21.5706 4.71344 21.4274C5.00215 21.2984 5.08255 21.277 5.30234 21.2697C5.5488 21.2606 5.77803 21.3027 6.10463 21.4173C6.26156 21.472 6.43458 21.5225 6.48802 21.5296C6.5748 21.5404 6.72409 21.5399 6.71554 21.5293C6.7134 21.5266 6.61967 21.4776 6.50525 21.4191C5.68167 20.9947 4.96757 20.4638 4.35655 19.8185L4.17937 19.631L4.05713 19.6139C3.87086 19.5873 3.82024 19.5999 3.66897 19.703C3.50828 19.8159 3.34354 19.8618 3.18059 19.8427C3.05573 19.8277 2.72772 19.7033 2.39464 19.5458C1.95808 19.3405 1.69805 19.2817 1.46233 19.3391C1.39932 19.3552 1.34918 19.363 1.34967 19.3582C1.35331 19.3223 2.26957 18.9866 2.44976 18.9545C2.669 18.9169 2.93393 18.9038 3.01818 18.9275C3.28414 18.9991 3.44375 19.0868 3.74536 19.3292C3.90907 19.4597 4.06771 19.557 4.0887 19.54C4.09394 19.5357 3.9931 19.4025 3.86612 19.2422C3.60871 18.92 3.46836 18.7135 3.25602 18.3503C3.03051 17.9627 2.81169 17.4973 2.67713 17.1148L2.62856 16.9765L2.54188 16.9174C2.42915 16.8421 2.27352 16.7863 2.17363 16.7861C2.1147 16.7857 2.05621 16.8047 1.96231 16.8524C1.77951 16.9459 1.58649 16.9622 1.44481 16.8994C1.35725 16.8607 1.06022 16.6563 0.905795 16.5293C0.769203 16.4163 0.545882 16.2684 0.43549 16.2175C0.350315 16.1791 0.139507 16.1572 0.0649366 16.1804C0.0340881 16.1879 0.00610256 16.1908 0.000757217 16.1842C-0.0291777 16.1471 0.926611 15.9439 1.13615 15.9428C1.43844 15.941 1.54115 15.9608 1.6822 16.0416C1.81291 16.1176 2.02151 16.3038 2.05306 16.3726C2.06302 16.3931 2.1211 16.4732 2.18287 16.5526C2.29381 16.693 2.30047 16.6985 2.42466 16.7557C2.49472 16.7888 2.55624 16.8113 2.56148 16.8071C2.56673 16.8028 2.55078 16.7345 2.52652 16.6533C2.37809 16.1702 2.25594 15.4396 2.22541 14.874C2.21555 14.6625 2.17715 14.5664 2.03734 14.3902L1.92936 14.2561L1.76601 14.1934C1.58886 14.1243 1.41738 14.0111 1.33827 13.913C1.27839 13.8386 1.15274 13.5346 1.07452 13.2733C0.980782 12.963 0.894897 12.7891 0.771564 12.6522C0.714173 12.5891 0.639292 12.5204 0.60183 12.4981C0.566748 12.4761 0.541188 12.4552 0.546434 12.4509C0.551681 12.4466 0.586421 12.4601 0.622814 12.4811C1.36745 12.9125 1.54296 13.0334 1.82261 13.3024C1.91591 13.3913 1.93491 13.4175 1.9859 13.532C2.06571 13.7064 2.09688 13.8501 2.09508 14.0579C2.09491 14.1546 2.09935 14.2652 2.10762 14.3024C2.12284 14.3778 2.18438 14.5188 2.20104 14.5206C2.20818 14.5214 2.21627 14.3941 2.22012 14.2374C2.23347 13.7019 2.30855 13.1273 2.44524 12.5269C2.53115 12.1542 2.50235 11.9515 2.33839 11.7642C2.1357 11.5315 2.05114 11.4157 2.01808 11.3263C1.97554 11.2115 1.97321 10.9851 2.00899 10.6203C2.04729 10.2424 2.03987 10.0662 1.97707 9.90209C1.95052 9.83145 1.91601 9.75631 1.90022 9.73402C1.88418 9.71411 1.86722 9.6796 1.86202 9.65968C1.85468 9.6371 1.90862 9.69866 2.00494 9.82898Z" fill="#E2F4FF"/>
<path d="M27.9951 9.82898C27.4576 10.5472 27.2649 10.9021 27.2512 11.1939C27.2416 11.3727 27.2739 11.513 27.3718 11.7308C27.4233 11.8472 27.4518 11.9384 27.4567 12.0104C27.4601 12.0681 27.4589 12.1154 27.4541 12.1159C27.4494 12.1165 27.421 12.0386 27.3923 11.945C27.2989 11.6409 27.1525 11.2652 26.9781 10.8865C26.7234 10.3329 26.6871 10.2003 26.7165 9.93223C26.7439 9.68011 26.7305 9.54856 26.6634 9.40843C26.6055 9.28903 26.4424 9.04459 26.3164 8.894C26.2244 8.78199 26.073 8.54714 26.0279 8.44689C26.0062 8.3985 25.9798 8.28048 25.9698 8.18242C25.9586 8.08329 25.9479 8.00223 25.9453 8.0001C25.9361 7.99265 25.9097 8.39702 25.8937 8.76155C25.8736 9.20394 25.9118 9.55766 25.9994 9.74512C26.0904 9.94189 26.172 10.0345 26.3972 10.202C26.5806 10.3378 26.5953 10.3519 26.6628 10.4593C26.7586 10.6096 26.9093 10.9207 27.0197 11.1903C27.1252 11.4472 27.1331 11.4777 27.0693 11.4061C26.9751 11.2968 26.9497 11.2476 26.887 11.0562C26.8016 10.7959 26.7549 10.7031 26.6271 10.5467C26.5474 10.449 26.4955 10.4003 26.4167 10.3473C26.2229 10.2163 25.9249 10.0665 25.637 9.95793C25.2252 9.80132 24.7339 9.6329 24.7232 9.64616C24.7189 9.65147 24.7357 9.66292 24.7631 9.672C24.8464 9.6979 25.0304 9.80341 25.1157 9.87263C25.2219 9.95888 25.392 10.1651 25.5547 10.4047C25.9605 10.9998 26.0929 11.1073 26.5421 11.2042C26.761 11.2502 26.771 11.254 26.8957 11.3442C26.9673 11.398 27.0599 11.4797 27.1062 11.5327C27.1836 11.6197 27.1963 11.6497 27.2771 11.9129C27.3777 12.2404 27.4635 12.5998 27.5194 12.9262C27.5751 13.2502 27.6375 13.7947 27.6175 13.7873C27.5712 13.7694 27.5065 13.583 27.4808 13.3887C27.4457 13.1254 27.4033 12.9922 27.3032 12.8121L27.2226 12.6699L26.9078 12.4143C26.618 12.1789 26.5689 12.1457 26.29 11.9829C25.8145 11.7087 25.6044 11.5952 25.5948 11.6071C25.5894 11.6138 25.6002 11.6247 25.6189 11.6311C25.6702 11.6508 25.9004 11.8444 25.9634 11.9197C26.0429 12.0149 26.1749 12.2604 26.3114 12.5622C26.3764 12.7049 26.4662 12.8898 26.5119 12.973C26.5935 13.1248 26.5974 13.128 26.7664 13.263C26.9225 13.3897 26.9519 13.4071 27.1033 13.4641C27.2937 13.5375 27.4378 13.6414 27.5386 13.7802C27.6255 13.9013 27.6316 13.926 27.6372 14.1479C27.6482 14.5409 27.6179 15.0146 27.5572 15.4481C27.5218 15.7048 27.3785 16.3808 27.3594 16.3829C27.3523 16.3837 27.3394 16.3161 27.3309 16.2324C27.3168 16.1046 27.3214 16.0557 27.3606 15.9317C27.4727 15.5771 27.4936 15.4031 27.4482 15.1687C27.3981 14.8997 27.1808 14.585 26.7597 14.1707C26.4603 13.8771 26.0729 13.534 26.1765 13.6532C26.2572 13.7495 26.3479 13.8956 26.3853 13.9918C26.4266 14.1021 26.4615 14.4115 26.4667 14.712C26.4715 15.0319 26.5135 15.3756 26.5596 15.4745C26.5798 15.5194 26.6377 15.6037 26.6884 15.6647C26.7703 15.7597 26.8033 15.7887 26.9397 15.8752C27.0786 15.9639 27.1049 15.9852 27.1529 16.0549C27.2233 16.156 27.2652 16.2844 27.2863 16.4574C27.3008 16.5767 27.2963 16.6147 27.247 16.7701C27.0858 17.2691 26.8269 17.8382 26.5572 18.2886C26.4007 18.5501 26.1747 18.8846 26.0506 19.0385L25.9384 19.1778L25.9389 19.1234C25.9404 18.9841 25.9829 18.8803 26.1288 18.6454C26.2076 18.5206 26.2892 18.3762 26.3082 18.3257C26.373 18.1699 26.4097 17.9494 26.3982 17.7886C26.3926 17.7094 26.2646 17.3136 26.1895 17.1429C26.1429 17.0392 25.768 16.3924 25.6343 16.1894C25.5887 16.1195 25.5343 16.0336 25.5116 15.9998C25.4459 15.8982 25.4492 15.9426 25.5195 16.0896C25.6465 16.3574 25.6414 16.6518 25.4982 17.1742C25.4017 17.5283 25.3442 17.8635 25.3565 17.9964C25.3637 18.0681 25.3912 18.1606 25.434 18.2502C25.4982 18.3859 25.5335 18.4364 25.7043 18.6256C25.8306 18.7677 25.8855 18.9769 25.8586 19.2096C25.85 19.2795 25.8358 19.3052 25.7598 19.3994C25.5824 19.6197 25.1667 20.0306 24.8817 20.2712C24.5369 20.5619 24.0858 20.8739 23.7145 21.0817C23.4718 21.216 23.1317 21.3877 23.1212 21.3792C23.1055 21.3664 23.205 21.197 23.2874 21.0948C23.3558 21.0099 23.4069 20.968 23.5816 20.8508C23.8589 20.6655 23.9676 20.5738 24.0873 20.4251C24.3169 20.1375 24.351 20.0466 24.4106 19.577C24.4378 19.3708 24.4432 19.2106 24.4317 19.0015C24.4124 18.6215 24.3178 17.6645 24.3012 17.6663C24.2929 17.6684 24.2871 17.7295 24.2875 17.8045C24.2856 17.9522 24.2532 18.1432 24.2069 18.268C24.1506 18.4133 23.9194 18.7567 23.7272 18.9738C23.5298 19.1999 23.2416 19.598 23.1745 19.7432C23.0796 19.9472 23.0736 20.2211 23.1586 20.5008C23.1924 20.6095 23.2193 20.7323 23.22 20.7745C23.2214 20.9667 23.1364 21.1961 22.997 21.3771C22.9205 21.4774 22.9205 21.4774 22.7224 21.5536C22.0796 21.8022 21.4374 21.9611 20.7771 22.0374C20.4308 22.0768 20.0015 22.1035 20.0008 22.0854C19.9978 22.0676 20.2127 21.9194 20.291 21.8842C20.33 21.8654 20.508 21.8167 20.6846 21.778C21.0175 21.7014 21.2444 21.6244 21.3942 21.5354C21.5589 21.4387 21.7413 21.2904 21.8258 21.1856C21.9241 21.0635 22.2008 20.5397 22.2651 20.3548C22.3389 20.1448 22.5834 19.2436 22.6547 18.9262C22.7206 18.6263 22.7267 18.5083 22.6673 18.7059C22.5821 18.9813 22.4042 19.221 22.1381 19.422C21.9236 19.5859 21.841 19.6373 21.5353 19.804C21.1178 20.0313 20.6607 20.3428 20.5581 20.4702C20.4832 20.5631 20.3848 20.7795 20.3434 20.9412C20.3232 21.0148 20.308 21.1495 20.3077 21.2414C20.307 21.4604 20.2772 21.5701 20.1766 21.7299C20.1117 21.8374 20.0762 21.8788 19.9736 21.9711C19.8931 22.044 19.8322 22.0846 19.8029 22.0915C19.6867 22.1091 19.0479 22.0645 18.6668 22.0097C18.3237 21.9616 17.6866 21.8153 17.4348 21.7294C17.4098 21.72 17.3919 21.7341 17.3395 21.7991L17.2754 21.8787L17.3674 21.9073C18.1655 22.158 19.0598 22.2893 19.9306 22.283C20.1087 22.2827 20.1697 22.2905 20.2724 22.33C20.4638 22.402 20.5984 22.4828 20.7286 22.6039C20.8746 22.7377 20.9178 22.8079 20.9911 23.0321C21.0587 23.2362 21.1135 23.3378 21.2483 23.5044C21.3652 23.6475 21.4706 23.7375 21.5971 23.7985C21.7589 23.875 22.2534 24.0395 22.6006 24.1282C22.9159 24.2108 23.2239 24.316 23.4499 24.4205C23.5812 24.481 23.866 24.7254 23.9562 24.8557C24.1226 25.0962 24.1065 25.0326 23.9154 24.6909C23.6903 24.2864 23.1769 23.4723 23.0561 23.3259C22.8805 23.1131 22.5464 22.7738 22.4495 22.7083C22.3426 22.639 22.1262 22.5468 21.9488 22.4949C21.7689 22.441 21.5613 22.4239 21.2011 22.4321C20.8538 22.4377 20.7651 22.4293 20.6121 22.3688C20.3662 22.2701 20.364 22.2727 20.7214 22.2358C21.4453 22.1586 22.1546 21.9838 22.8314 21.7146C22.9773 21.6574 23.113 21.6074 23.1366 21.6024C23.2075 21.5897 23.4344 21.6313 23.5634 21.6812C23.7114 21.7398 23.766 21.7798 23.8999 21.9368C23.9848 22.0387 24.0176 22.0653 24.1369 22.138C24.3014 22.2408 24.455 22.2953 24.5981 22.3061C24.7642 22.3181 25.1276 22.3059 25.4738 22.2774C25.907 22.2407 26.2742 22.2534 26.4568 22.3095C26.6059 22.356 26.7728 22.4344 26.8436 22.4919C26.8659 22.51 26.8909 22.5193 26.8973 22.5113C26.9112 22.4941 26.6803 22.3176 26.1316 21.9269C25.7372 21.6463 25.6116 21.5706 25.2866 21.4274C24.9979 21.2984 24.9175 21.277 24.6977 21.2697C24.4512 21.2606 24.222 21.3027 23.8954 21.4173C23.7384 21.472 23.5654 21.5225 23.512 21.5296C23.4252 21.5404 23.2759 21.5399 23.2845 21.5293C23.2866 21.5266 23.3803 21.4776 23.4948 21.4191C24.3183 20.9947 25.0324 20.4638 25.6435 19.8185L25.8206 19.631L25.9429 19.6139C26.1291 19.5873 26.1798 19.5999 26.331 19.703C26.4917 19.8159 26.6565 19.8618 26.8194 19.8427C26.9443 19.8277 27.2723 19.7033 27.6054 19.5458C28.0419 19.3405 28.302 19.2817 28.5377 19.3391C28.6007 19.3552 28.6508 19.363 28.6503 19.3582C28.6467 19.3223 27.7304 18.9866 27.5502 18.9545C27.331 18.9169 27.0661 18.9038 26.9818 18.9275C26.7159 18.9991 26.5562 19.0868 26.2546 19.3292C26.0909 19.4597 25.9323 19.557 25.9113 19.54C25.9061 19.5357 26.0069 19.4025 26.1339 19.2422C26.3913 18.92 26.5316 18.7135 26.744 18.3503C26.9695 17.9627 27.1883 17.4973 27.3229 17.1148L27.3714 16.9765L27.4581 16.9174C27.5709 16.8421 27.7265 16.7863 27.8264 16.7861C27.8853 16.7857 27.9438 16.8047 28.0377 16.8524C28.2205 16.9459 28.4135 16.9622 28.5552 16.8994C28.6427 16.8607 28.9398 16.6563 29.0942 16.5293C29.2308 16.4163 29.4541 16.2684 29.5645 16.2175C29.6497 16.1791 29.8605 16.1572 29.9351 16.1804C29.9659 16.1879 29.9939 16.1908 29.9992 16.1842C30.0292 16.1471 29.0734 15.9439 28.8638 15.9428C28.5616 15.941 28.4589 15.9608 28.3178 16.0416C28.1871 16.1176 27.9785 16.3038 27.9469 16.3726C27.937 16.3931 27.8789 16.4732 27.8171 16.5526C27.7062 16.693 27.6995 16.6985 27.5753 16.7557C27.5053 16.7888 27.4438 16.8113 27.4385 16.8071C27.4333 16.8028 27.4492 16.7345 27.4735 16.6533C27.6219 16.1702 27.7441 15.4396 27.7746 14.874C27.7845 14.6625 27.8229 14.5664 27.9627 14.3902L28.0706 14.2561L28.234 14.1934C28.4111 14.1243 28.5826 14.0111 28.6617 13.913C28.7216 13.8386 28.8473 13.5346 28.9255 13.2733C29.0192 12.963 29.1051 12.7891 29.2284 12.6522C29.2858 12.5891 29.3607 12.5204 29.3982 12.4981C29.4333 12.4761 29.4588 12.4552 29.4536 12.4509C29.4483 12.4466 29.4136 12.4601 29.3772 12.4811C28.6326 12.9125 28.457 13.0334 28.1774 13.3024C28.0841 13.3913 28.0651 13.4175 28.0141 13.532C27.9343 13.7064 27.9031 13.8501 27.9049 14.0579C27.9051 14.1546 27.9006 14.2652 27.8924 14.3024C27.8772 14.3778 27.8156 14.5188 27.799 14.5206C27.7918 14.5214 27.7837 14.3941 27.7799 14.2374C27.7665 13.7019 27.6914 13.1273 27.5548 12.5269C27.4688 12.1542 27.4977 11.9515 27.6616 11.7642C27.8643 11.5315 27.9489 11.4157 27.9819 11.3263C28.0245 11.2115 28.0268 10.9851 27.991 10.6203C27.9527 10.2424 27.9601 10.0662 28.0229 9.90209C28.0495 9.83145 28.084 9.75631 28.0998 9.73402C28.1158 9.71411 28.1328 9.6796 28.138 9.65968C28.1453 9.6371 28.0914 9.69866 27.9951 9.82898Z" fill="#E2F4FF"/>
</svg>
