<svg width="55" height="67" viewBox="0 0 55 67" fill="none" xmlns="http://www.w3.org/2000/svg">
<g clip-path="url(#clip0_1340_2394)">
<path d="M97.1101 6.42264L97.0971 6.45411C98.0183 7.86914 98.8502 9.27987 99.5963 10.6831C98.1383 8.78118 96.7223 8.26774 94.896 7.60555C94.329 7.39997 93.7224 7.18004 93.0628 6.89977C93.6551 9.38264 95.9189 12.238 100.111 11.6769C100.717 12.8778 101.26 14.0726 101.742 15.2593C100.602 13.7532 99.1692 13.2778 97.613 12.7615C96.7263 12.4673 95.7996 12.1599 94.8644 11.641C95.1911 14.152 98.024 16.5727 102.219 16.4793C102.821 18.0901 103.312 19.6845 103.698 21.2574C102.613 19.349 101.056 18.6597 99.3604 17.9088C98.4298 17.4966 97.4572 17.066 96.4975 16.405C96.5881 19.1626 99.4066 22.0856 103.966 22.4243C104.305 24.0076 104.537 25.5675 104.667 27.0987C103.926 25.2387 102.478 24.374 100.918 23.4424C99.9692 22.8757 98.9789 22.2844 98.0812 21.4292C97.7211 24.2916 100.14 27.7711 104.775 28.889C104.844 30.8672 104.743 32.7924 104.485 34.6524C104.028 32.5337 102.577 31.4183 101.018 30.2193C100.27 29.644 99.4962 29.0494 98.7955 28.3155C97.838 31.2226 99.8116 35.2401 103.985 37.381C103.7 38.6258 103.342 39.8362 102.916 41.0082C102.771 39.538 101.957 38.4992 101.093 37.3955C100.415 36.5297 99.7056 35.624 99.263 34.4388C98.0882 37.2906 98.345 40.8633 101.728 43.8235C101.125 45.0705 100.44 46.2644 99.6797 47.3996C99.3853 47.8389 99.0795 48.2701 98.7626 48.693C99.5084 46.8854 98.9944 45.4468 98.3833 43.7362C98.0443 42.7873 97.6754 41.7547 97.475 40.5291C95.3128 42.8446 95.115 47.2121 97.3153 50.4795C96.4135 51.511 95.4409 52.4849 94.4039 53.3974C95.2852 51.8299 95.0326 50.3686 94.7288 48.6113C94.6297 48.0378 94.5251 47.4328 94.4527 46.7823C91.8841 48.5308 90.628 51.8246 91.9223 55.3757C90.6043 56.3268 89.2057 57.1907 87.7364 57.9614C89.7253 55.9388 89.8635 53.5769 90.0167 50.9571C90.0254 50.8074 90.0343 50.6568 90.0435 50.5054C89.7259 50.8472 89.3925 51.1908 89.0549 51.5387C86.9352 53.7232 84.6508 56.0776 85.0802 59.2201C84.3938 59.5123 83.6947 59.7855 82.9837 60.0392C83.9874 58.9143 84.078 57.6357 84.1863 56.1076C84.2291 55.5029 84.2747 54.8592 84.3808 54.1704C82.2892 55.3274 80.0805 57.6114 80.1588 60.9268C79.0899 61.2188 77.9987 61.4686 76.8878 61.6747C78.2987 60.7153 78.624 59.2732 79.0934 56.8764C76.6176 57.7357 75.2147 60.0481 74.8819 61.9962C73.7715 62.1466 72.6438 62.2541 71.5013 62.3173C72.7967 61.7208 73.4346 60.4475 74.324 58.4127C71.633 58.561 69.6096 60.4991 68.7952 62.3261L68.7443 62.3241C68.7442 62.3438 68.7443 62.3634 68.7445 62.383C68.0267 62.3778 67.3042 62.3553 66.5773 62.3152C67.6596 61.662 68.2616 60.4397 69.0728 58.5839C66.5547 58.7227 64.6212 60.4286 63.7158 62.1442C61.984 62.1696 60.2143 62.612 58.7705 63.5493L58.768 63.551L58.7671 63.5516C58.7671 63.5516 58.7664 63.5521 59.0422 63.9691C59.3181 64.3861 59.3178 64.3863 59.3178 64.3863L59.3202 64.3847C60.543 63.6082 62.0683 63.21 63.5459 63.1527C63.9394 65.4671 66.4727 66.7547 69.3152 67.1059C69.0041 66.6244 68.7418 66.1736 68.4993 65.757C67.89 64.7102 67.4061 63.8789 66.5913 63.3162C67.3618 63.3566 68.1276 63.377 68.888 63.3777C69.4886 65.4436 71.8905 66.6041 74.5665 66.9347C74.2554 66.4532 73.9931 66.0024 73.7506 65.5858C73.1848 64.6137 72.7272 63.8275 72.0123 63.2696C73.0539 63.1961 74.0832 63.0854 75.0984 62.9388C76.0365 65.2107 78.9058 65.7957 81.8169 65.3377C81.3852 64.9604 81.0089 64.5993 80.661 64.2656C79.7503 63.3919 79.035 62.7056 78.0353 62.4067C78.8179 62.2355 79.5906 62.0425 80.3523 61.8281C82.3174 64.6915 84.4123 64.4312 86.974 64.1129C87.5222 64.0448 88.0917 63.974 88.686 63.9306C88.2452 63.6081 87.8415 63.2702 87.4501 62.9427C86.1432 61.8492 84.9751 60.8717 83.0339 60.9701C83.8669 60.6704 84.6844 60.3443 85.4852 59.9926C88.2865 63.0926 91.8759 61.6059 95.1712 60.241L95.387 60.1517C94.972 59.9807 94.5753 59.8067 94.19 59.6376C92.3338 58.8233 90.7409 58.1245 88.6235 58.4369C89.9531 57.6981 91.225 56.8835 92.4319 55.9982C95.8198 58.7168 99.533 57.6028 102.141 53.3731C100.737 53.6303 99.6183 53.6174 98.5952 53.6057C97.296 53.5907 96.1511 53.5775 94.7721 54.1214C95.9536 53.0862 97.0569 51.9756 98.0733 50.7952C102.595 52.1063 105.539 49.2683 106.86 46.0609C105.637 46.5548 104.58 46.7802 103.598 46.9897C102.373 47.2508 101.265 47.4871 100.097 48.1875C100.208 48.0283 100.317 47.8681 100.426 47.7069C101.182 46.5772 101.859 45.3976 102.452 44.1724C107.485 43.972 110.123 39.4385 110.182 36.5277C109.254 37.203 108.374 37.7067 107.55 38.1785C106.065 39.0285 104.761 39.7748 103.682 41.2339C104.101 40.0572 104.447 38.8457 104.719 37.6025C109.715 35.5873 111.414 30.0443 110.611 26.2006C109.88 27.2641 109.121 28.137 108.396 28.9706C107.18 30.3688 106.061 31.6565 105.329 33.548C105.462 31.961 105.481 30.3323 105.38 28.668C109.38 26.1705 110.472 21.808 109.272 19.2049C108.625 20.4196 107.885 21.3132 107.2 22.1409C106.274 23.2586 105.448 24.256 105.085 25.7614C104.925 24.6351 104.711 23.4946 104.443 22.3417C107.708 19.072 107.71 14.6752 105.956 12.5237C105.687 13.5713 105.299 14.5038 104.925 15.4039C104.324 16.85 103.757 18.2127 103.776 19.8355C103.439 18.7052 103.048 17.5645 102.604 16.4149C105.347 13.1292 104.965 9.07845 103.162 7.25828C103.009 8.23907 102.737 9.12524 102.475 9.9807C102 11.531 101.555 12.9804 101.908 14.7093C101.456 13.6591 100.96 12.6022 100.417 11.5397C102.743 8.01462 101.161 4.73581 99.1865 3.12132C99.1511 3.83715 99.0845 4.4789 99.0223 5.07881C98.8689 6.55795 98.7419 7.78273 99.1733 9.23633C98.607 8.24192 98.0002 7.24338 97.3522 6.24164C97.5836 2.79815 95.1251 0.596047 92.9201 0C92.9781 0.243885 93.0333 0.482356 93.0871 0.715266C93.7281 3.48726 94.187 5.47157 97.1101 6.42264Z" fill="#FFC039" fill-opacity="0.6"/>
<path d="M13.691 6.42264L13.7039 6.45411C12.7828 7.86914 11.9509 9.27987 11.2048 10.6831C12.6627 8.78118 14.0788 8.26774 15.9051 7.60555C16.4721 7.39997 17.0786 7.18004 17.7383 6.89977C17.146 9.38264 14.8821 12.238 10.69 11.6769C10.0844 12.8778 9.54134 14.0726 9.05865 15.2593C10.1988 13.7532 11.6319 13.2778 13.188 12.7615C14.0747 12.4673 15.0014 12.1599 15.9366 11.641C15.6099 14.152 12.777 16.5727 8.5825 16.4793C7.98032 18.0901 7.48902 19.6845 7.10302 21.2574C8.18826 19.349 9.74479 18.6597 11.4406 17.9088C12.3713 17.4966 13.3439 17.066 14.3036 16.405C14.213 19.1626 11.3944 22.0856 6.83503 22.4243C6.49637 24.0076 6.2645 25.5675 6.13361 27.0987C6.8751 25.2387 8.32316 24.374 9.883 23.4424C10.8319 22.8757 11.8221 22.2844 12.7199 21.4292C13.08 24.2916 10.6611 27.7711 6.02578 28.889C5.95693 30.8672 6.05797 32.7924 6.31578 34.6524C6.77293 32.5337 8.22369 31.4183 9.78322 30.2193C10.5315 29.644 11.3049 29.0494 12.0055 28.3155C12.963 31.2226 10.9894 35.2401 6.81591 37.381C7.10115 38.6258 7.45887 39.8362 7.88467 41.0082C8.03033 39.538 8.84385 38.4992 9.70815 37.3955C10.3862 36.5297 11.0954 35.624 11.5381 34.4388C12.7128 37.2906 12.456 40.8633 9.07268 43.8235C9.67576 45.0705 10.3608 46.2644 11.1214 47.3996C11.4157 47.8389 11.7215 48.2701 12.0385 48.693C11.2927 46.8854 11.8066 45.4468 12.4177 43.7362C12.7567 42.7873 13.1256 41.7547 13.326 40.5291C15.4882 42.8446 15.686 47.2121 13.4857 50.4795C14.3875 51.511 15.3601 52.4849 16.3971 53.3974C15.5159 51.8299 15.7685 50.3686 16.0722 48.6113C16.1713 48.0378 16.2759 47.4328 16.3483 46.7823C18.9169 48.5308 20.173 51.8246 18.8787 55.3757C20.1967 56.3268 21.5954 57.1907 23.0646 57.9614C21.0757 55.9388 20.9376 53.5769 20.7843 50.9571C20.7756 50.8074 20.7668 50.6568 20.7576 50.5054C21.0752 50.8472 21.4086 51.1908 21.7461 51.5387C23.8658 53.7232 26.1502 56.0776 25.7208 59.2201C26.4073 59.5123 27.1064 59.7855 27.8173 60.0392C26.8136 58.9143 26.723 57.6357 26.6148 56.1076C26.5719 55.5029 26.5263 54.8592 26.4203 54.1704C28.5119 55.3274 30.7205 57.6114 30.6422 60.9268C31.7112 61.2188 32.8024 61.4686 33.9132 61.6747C32.5023 60.7153 32.177 59.2732 31.7076 56.8764C34.1835 57.7357 35.5863 60.0481 35.9191 61.9962C37.0295 62.1466 38.1573 62.2541 39.2998 62.3173C38.0043 61.7208 37.3665 60.4475 36.477 58.4127C39.168 58.561 41.1914 60.4991 42.0058 62.3261L42.0568 62.3241C42.0568 62.3438 42.0568 62.3634 42.0566 62.383C42.7743 62.3778 43.4969 62.3553 44.2237 62.3152C43.1414 61.662 42.5395 60.4397 41.7283 58.5839C44.2463 58.7227 46.1798 60.4286 47.0852 62.1442C48.817 62.1696 50.5867 62.612 52.0305 63.5493L52.033 63.551L52.034 63.5516C52.034 63.5516 52.0347 63.5521 51.7588 63.9691C51.4829 64.3861 51.4832 64.3863 51.4832 64.3863L51.4808 64.3847C50.2581 63.6082 48.7327 63.21 47.2552 63.1527C46.8616 65.4671 44.3284 66.7547 41.4859 67.1059C41.7969 66.6244 42.0593 66.1736 42.3018 65.757C42.9111 64.7102 43.3949 63.8789 44.2097 63.3162C43.4392 63.3566 42.6734 63.377 41.913 63.3777C41.3124 65.4436 38.9105 66.6041 36.2346 66.9347C36.5456 66.4532 36.808 66.0024 37.0504 65.5858C37.6163 64.6137 38.0739 63.8275 38.7888 63.2696C37.7472 63.1961 36.7179 63.0854 35.7027 62.9388C34.7646 65.2107 31.8952 65.7957 28.9842 65.3377C29.4158 64.9604 29.7922 64.5993 30.14 64.2656C31.0507 63.3919 31.766 62.7056 32.7658 62.4067C31.9831 62.2355 31.2105 62.0425 30.4487 61.8281C28.4837 64.6915 26.3887 64.4312 23.8271 64.1129C23.2789 64.0448 22.7093 63.974 22.1151 63.9306C22.5558 63.6081 22.9596 63.2702 23.3509 62.9427C24.6578 61.8492 25.8259 60.8717 27.7671 60.9701C26.9342 60.6704 26.1166 60.3443 25.3159 59.9926C22.5145 63.0926 18.9251 61.6059 15.6298 60.241L15.414 60.1517C15.8291 59.9807 16.2257 59.8067 16.611 59.6376C18.4673 58.8233 20.0601 58.1245 22.1775 58.4369C20.8479 57.6981 19.576 56.8835 18.3692 55.9982C14.9812 58.7168 11.268 57.6028 8.65954 53.3731C10.0638 53.6303 11.1827 53.6174 12.2058 53.6057C13.505 53.5907 14.6499 53.5775 16.029 54.1214C14.8475 53.0862 13.7442 51.9756 12.7277 50.7952C8.20651 52.1063 5.26195 49.2683 3.94068 46.0609C5.16357 46.5548 6.22097 46.7802 7.20352 46.9897C8.42813 47.2508 9.53647 47.4871 10.704 48.1875C10.5931 48.0283 10.4836 47.8681 10.3755 47.7069C9.6186 46.5772 8.94165 45.3976 8.34857 44.1724C3.31599 43.972 0.678068 39.4385 0.618552 36.5277C1.54685 37.203 2.42697 37.7067 3.25131 38.1785C4.73634 39.0285 6.04039 39.7748 7.11912 41.2339C6.7004 40.0572 6.35357 38.8457 6.08157 37.6025C1.08619 35.5873 -0.612931 30.0443 0.190149 26.2006C0.921486 27.2641 1.68034 28.137 2.40505 28.9706C3.6206 30.3688 4.74007 31.6565 5.47246 33.548C5.33866 31.961 5.31982 30.3323 5.42119 28.668C1.42145 26.1705 0.329169 21.808 1.52868 19.2049C2.17606 20.4196 2.91605 21.3132 3.6014 22.1409C4.52696 23.2586 5.35287 24.256 5.71646 25.7614C5.87607 24.6351 6.08956 23.4946 6.35844 22.3417C3.09255 19.072 3.09096 14.6752 4.84543 12.5237C5.11376 13.5713 5.50159 14.5038 5.87599 15.4039C6.47748 16.85 7.04428 18.2127 7.02506 19.8355C7.36253 18.7052 7.75271 17.5645 8.19697 16.4149C5.45432 13.1292 5.83633 9.07845 7.63928 7.25828C7.79172 8.23907 8.06354 9.12524 8.32593 9.9807C8.80145 11.531 9.24603 12.9804 8.89317 14.7093C9.34466 13.6591 9.84117 12.6022 10.3837 11.5397C8.0581 8.01462 9.6398 4.73581 11.6145 3.12132C11.6499 3.83715 11.7165 4.4789 11.7787 5.07881C11.9321 6.55795 12.0591 7.78273 11.6277 9.23633C12.1941 8.24192 12.8008 7.24338 13.4488 6.24164C13.2175 2.79815 15.6759 0.596047 17.8809 0C17.8229 0.243885 17.7678 0.482356 17.7139 0.715266C17.0729 3.48726 16.6141 5.47157 13.691 6.42264Z" fill="#FFC039" fill-opacity="0.6"/>
</g>
<defs>
<clipPath id="clip0_1340_2394">
<rect width="55" height="67" fill="white"/>
</clipPath>
</defs>
</svg>
