<svg width="67" height="84" viewBox="0 0 67 84" fill="none" xmlns="http://www.w3.org/2000/svg">
<path d="M6.26467 10.7041C9.39261 13.9241 10.5757 15.5618 10.8283 16.9994C10.9887 17.8798 10.9167 18.596 10.5669 19.7377C10.384 20.3477 10.2997 20.8178 10.3208 21.1779C10.3401 21.466 10.3761 21.6997 10.4001 21.6992C10.4241 21.6988 10.5161 21.2947 10.6 20.8125C10.873 19.2457 11.3645 17.2904 11.9933 15.3028C12.9115 12.3968 13.0085 11.7162 12.693 10.4059C12.3975 9.17336 12.3808 8.51275 12.6266 7.77547C12.8391 7.14691 13.497 5.83167 14.029 5.00529C14.4161 4.39171 15.0213 3.13147 15.1823 2.60595C15.26 2.35225 15.3169 1.75044 15.3045 1.25798C15.2979 0.759412 15.2996 0.350825 15.3113 0.338604C15.3523 0.295833 15.739 2.28382 16.0488 4.0809C16.4283 6.26128 16.4612 8.03914 16.1435 9.02401C15.815 10.0571 15.4674 10.5679 14.4523 11.5409C13.6249 12.3303 13.5608 12.4096 13.2929 12.985C12.9107 13.7908 12.3571 15.4286 11.9779 16.8351C11.6151 18.1753 11.5951 18.3318 11.8675 17.9366C12.267 17.3348 12.3626 17.0748 12.5539 16.0861C12.8145 14.7417 12.9884 14.252 13.5256 13.3955C13.8607 12.861 14.0881 12.5866 14.4468 12.274C15.3287 11.5016 16.7173 10.5701 18.0813 9.84944C20.0321 8.81209 22.3708 7.66584 22.4324 7.72485C22.457 7.74846 22.3806 7.81588 22.25 7.87824C21.8519 8.0594 21.0028 8.69905 20.6222 9.09621C20.1479 9.59114 19.4313 10.7211 18.7728 12.0124C17.1291 15.2193 16.5378 15.8365 14.3637 16.6013C13.3033 16.9683 13.2559 16.9931 12.6923 17.5197C12.3696 17.8317 11.9607 18.2954 11.7638 18.5873C11.4334 19.0677 11.3892 19.2247 11.1531 20.5806C10.8591 22.268 10.6591 24.104 10.5866 25.7575C10.5139 27.3991 10.547 30.1382 10.6419 30.0885C10.8612 29.9705 11.0652 29.0057 11.0706 28.0262C11.0791 26.6983 11.206 26.0111 11.5905 25.0551C11.7963 24.5552 12.0939 24.0983 12.4679 23.708L13.3071 22.8322C14.6011 21.4819 14.8245 21.2857 16.1096 20.302C18.3032 18.6416 19.2771 17.9457 19.3325 17.9988C19.3633 18.0283 19.3168 18.0892 19.2278 18.1328C18.9847 18.2632 17.961 19.3685 17.695 19.7817C17.3596 20.3043 16.8576 21.6048 16.3687 23.1875C16.1353 23.9366 15.8053 24.9096 15.6301 25.3513C15.3199 26.1558 15.3024 26.1741 14.5468 26.9503C13.85 27.6774 13.7145 27.7819 12.9969 28.1609C12.0957 28.6452 11.444 29.2514 11.0303 30.0036C10.6743 30.6587 10.6594 30.7852 10.7714 31.8887C10.965 33.844 11.4144 36.1734 11.9905 38.2843C12.3285 39.5341 13.4684 42.7947 13.5645 42.7931C13.6005 42.7924 13.6219 42.4496 13.6113 42.0292C13.6011 41.3865 13.547 41.1471 13.2737 40.5571C12.492 38.8703 12.2783 38.0209 12.3564 36.8299C12.4361 35.4647 13.3187 33.767 15.153 31.4459C16.4575 29.801 18.1691 27.8545 17.729 28.5111C17.3878 29.0397 17.0289 29.8211 16.9034 30.3219C16.7676 30.8951 16.7888 32.4508 16.9527 33.944C17.131 35.5331 17.1386 37.2633 16.9715 37.7829C16.8993 38.0185 16.6644 38.4732 16.4505 38.8074C16.1031 39.3302 15.9571 39.4949 15.3331 40.0105C14.6974 40.5383 14.5803 40.6605 14.3855 41.0364C14.0988 41.5821 13.9713 42.2452 13.9753 43.1163C13.9784 43.7171 14.0252 43.9026 14.3683 44.6416C15.4858 47.0134 17.1333 49.6704 18.7597 51.7329C19.7034 52.9301 21.0396 54.445 21.7539 55.1295L22.204 55.5607C22.2689 55.6229 22.3758 55.5684 22.3637 55.4794C22.2682 54.7901 21.9914 54.3022 21.1171 53.23C20.646 52.6614 20.1485 51.9971 20.0223 51.759C19.6013 51.0273 19.2798 49.9574 19.2355 49.1531C19.2134 48.757 19.6005 46.7134 19.8664 45.8196C20.033 45.2759 21.4904 41.8319 22.0278 40.741C22.2106 40.3654 22.4273 39.905 22.5189 39.7231C22.7815 39.1778 22.7931 39.3999 22.5362 40.1734C22.073 41.5814 22.284 43.0377 23.3266 45.537C24.0304 47.2311 24.5281 48.8567 24.5509 49.5232C24.56 49.8835 24.4819 50.3595 24.3255 50.8309C24.0912 51.5439 23.9478 51.8168 23.2171 52.8629C22.678 53.6474 22.5368 54.7193 22.8179 55.856C22.9046 56.1969 22.9917 56.3156 23.4289 56.7346C24.4512 57.7141 26.7795 59.488 28.3494 60.5001C30.2491 61.7228 32.6906 62.984 34.6697 63.7787C35.9626 64.2909 37.7634 64.9264 37.8102 64.8776C37.8805 64.8042 37.278 64.0277 36.8038 63.5733C36.4097 63.1956 36.1288 63.0203 35.1855 62.55C33.6885 61.8071 33.0899 61.4209 32.4001 60.76C31.0758 59.4793 30.8487 59.0507 30.2561 56.7598C29.9903 55.7551 29.8622 54.9642 29.7878 53.9201C29.6776 52.4695 29.5737 49.3165 29.5686 47.9146C29.567 47.4478 29.6933 47.4313 29.7499 47.8945C29.8525 48.6257 30.1342 49.5521 30.4436 50.1415C30.8154 50.826 32.1827 52.3824 33.2764 53.3366C34.4012 54.3324 36.087 56.1236 36.5127 56.8011C37.1136 57.7519 37.316 59.1063 37.0699 60.5465C36.9699 61.107 36.9136 61.7329 36.9369 61.9427C37.0511 62.8961 37.6193 63.9797 38.4269 64.7887C38.8709 65.2376 38.8709 65.2376 39.9049 65.49C43.2608 66.3147 46.5574 66.6959 49.8916 66.6559C51.6396 66.6314 53.7934 66.4918 53.7851 66.4018C53.7889 66.3116 52.626 65.713 52.2142 65.588C52.0082 65.5195 51.0915 65.3913 50.1881 65.3109C48.4833 65.1423 47.3055 64.9045 46.5035 64.5579C45.6227 64.1827 44.6215 63.5633 44.135 63.0971C43.5685 62.5542 41.8609 60.1326 41.4241 59.257C40.9243 58.2624 39.1389 53.9495 38.5835 52.4211C38.0663 50.9761 37.9615 50.3951 38.3819 51.3371C38.9798 52.6485 40.0165 53.7239 41.4676 54.5518C42.6385 55.2284 43.0822 55.431 44.7087 56.0635C46.9298 56.9261 49.4012 58.1808 49.9924 58.7473C50.4235 59.1604 51.0499 60.1709 51.3579 60.9466C51.505 61.2985 51.6659 61.9566 51.7254 62.4122C51.867 63.4972 52.0845 64.0221 52.6858 64.7507C53.0768 65.2425 53.2797 65.4253 53.8485 65.8179C54.295 66.1286 54.6236 66.2911 54.7742 66.3065C55.3635 66.3202 58.5146 65.6946 60.3765 65.1815C62.0536 64.7257 65.1318 63.5966 66.3309 63.011C66.4495 62.9488 66.5472 63.0072 66.8489 63.2963L66.8697 63.3163C67.0368 63.4764 66.9894 63.7545 66.7788 63.8503C62.965 65.599 58.597 66.8167 54.2594 67.3368C53.3729 67.4484 53.0744 67.5257 52.5882 67.7865C51.6808 68.265 51.0621 68.7504 50.4905 69.4333C49.8485 70.1895 49.6777 70.5649 49.4546 71.7224C49.2468 72.7775 49.0381 73.3158 48.4722 74.2269C47.9812 75.0105 47.5134 75.5234 46.9221 75.9062C46.1651 76.388 43.8079 77.5165 42.136 78.1765C40.619 78.7857 39.1528 79.5022 38.0938 80.1635C37.4785 80.5468 36.2157 81.9386 35.8488 82.642C35.1725 83.9395 35.2124 83.6144 35.9478 81.7991C36.813 79.6511 38.8542 75.2896 39.3628 74.4877C40.1025 73.3212 41.551 71.4275 41.9919 71.0413C42.4803 70.6302 43.4989 70.0357 44.3489 69.6664C45.2106 69.2849 46.2327 69.0688 48.0308 68.8813C49.7626 68.6889 50.1988 68.5912 50.9219 68.1941C52.0834 67.549 52.0957 67.5608 50.2941 67.6042C46.6424 67.6798 43.0023 67.2625 39.464 66.3568C38.702 66.1658 37.9949 66.0039 37.8744 65.994C37.5134 65.9762 36.4106 66.3259 35.7999 66.655C35.1005 67.0396 34.854 67.2723 34.2869 68.1353C33.9284 68.6943 33.7821 68.8471 33.2342 69.2832C32.4805 69.8971 31.7507 70.2643 31.0452 70.4088C30.2261 70.5733 28.4096 70.7431 26.6689 70.8215C24.4899 70.9135 22.6705 71.2095 21.7971 71.6033C21.0842 71.9281 20.3035 72.4224 19.9873 72.7523C19.8878 72.8562 19.7691 72.9183 19.7322 72.8829C19.6521 72.8062 20.69 71.7848 23.1742 69.5004C24.9596 67.8591 25.5371 67.4045 27.0643 66.4887C28.4197 65.666 28.8063 65.509 29.8956 65.3338C31.1164 65.1323 32.2838 65.1961 33.9815 65.5571C34.797 65.7291 35.69 65.8698 35.9604 65.8711C36.399 65.8695 37.1417 65.7724 37.0925 65.7252C37.0801 65.7134 36.5828 65.5298 35.9763 65.3121C31.6098 63.7298 27.7209 61.5505 24.2727 58.7386L23.7519 58.3128C23.4416 58.0591 23.0543 57.9183 22.6535 57.9137C21.7097 57.9001 21.4657 57.9944 20.7779 58.6012C20.0495 59.2628 19.2586 59.595 18.4356 59.6033C17.8047 59.6083 16.0938 59.1995 14.3367 58.6293C12.0345 57.8883 10.7033 57.7613 9.56649 58.1957C9.26303 58.3151 9.01843 58.3854 9.01783 58.3614C9.01328 58.1813 13.3614 55.9366 14.2378 55.6629C15.3053 55.3379 16.6154 55.1048 17.0497 55.1694C18.4185 55.3558 19.2682 55.6895 20.9222 56.7001C21.8193 57.2432 22.6702 57.625 22.7639 57.5272C22.7873 57.5028 22.2014 56.9061 21.4683 56.1919C19.9838 54.7578 19.155 53.8229 17.8691 52.157C16.5021 50.3783 15.1194 48.2094 14.2083 46.3988L14.1153 46.2135C13.962 45.9083 13.7151 45.6601 13.4106 45.5054C12.8021 45.2036 11.9923 45.0255 11.4952 45.0882C11.2016 45.1233 10.9225 45.2544 10.4852 45.5504C9.63455 46.13 8.6842 46.3328 7.93948 46.1114C7.47934 45.9752 5.87208 45.1501 5.02338 44.6181C4.27229 44.1445 3.06753 43.5527 2.48605 43.3705C2.03792 43.2341 0.974907 43.2587 0.618454 43.4211C0.469655 43.4777 0.33226 43.5102 0.30147 43.4807C0.129042 43.3154 4.7575 41.7027 5.79962 41.5644C7.30287 41.364 7.82651 41.3969 8.57951 41.7083C9.27799 42.0025 10.4337 42.7935 10.6341 43.1145C10.6966 43.2095 11.0362 43.5701 11.3937 43.9244C12.0344 44.5501 12.0711 44.5735 12.7252 44.7784C13.0948 44.8981 13.4151 44.9706 13.4386 44.9462C13.462 44.9217 13.3395 44.5934 13.1675 44.2059C12.1239 41.9049 11.0549 38.3606 10.546 35.5757C10.3634 34.5334 10.1117 34.0812 9.30464 33.2962C8.89723 32.9058 8.39393 32.6299 7.84566 32.4965L7.83013 32.4927C6.90491 32.2625 5.98009 31.8099 5.52438 31.3733C5.17953 31.0428 4.3623 29.6151 3.80805 28.369C3.14577 26.8905 2.60859 26.0827 1.90838 25.4821C1.58291 25.2054 1.16689 24.9122 0.966396 24.8256C0.77792 24.7387 0.637491 24.6511 0.660912 24.6266C0.684331 24.6022 0.865744 24.6471 1.06008 24.7278C5.03819 26.3949 5.98795 26.8831 7.54948 28.0395C8.06989 28.421 8.18105 28.5392 8.50703 29.0742C9.01433 29.8885 9.26016 30.5812 9.38233 31.6125C9.44251 32.0921 9.53439 32.6373 9.599 32.8164C9.72237 33.1807 10.1176 33.8408 10.2017 33.8393C10.2377 33.8387 10.1976 33.2025 10.1179 32.4228C9.84636 29.7599 9.85739 26.8637 10.1587 23.8003C10.351 21.8984 10.0797 20.9117 9.14553 20.0869C7.98992 19.0615 7.49606 18.5414 7.27507 18.1187C6.99097 17.5769 6.83649 16.456 6.78426 14.6244C6.73636 12.7267 6.58825 11.8581 6.17211 11.0843C5.99544 10.7509 5.77626 10.4002 5.68359 10.2997C5.59122 10.2112 5.48501 10.0508 5.44655 9.95533C5.39576 9.84806 5.70307 10.1191 6.26467 10.7041Z" fill="#FFC039" fill-opacity="0.6"/>
</svg>
