<svg width="84" height="84" viewBox="0 0 84 84" fill="none" xmlns="http://www.w3.org/2000/svg">
<g filter="url(#filter0_d_1054_5137)">
<mask id="path-1-inside-1_1054_5137" fill="white">
<path fill-rule="evenodd" clip-rule="evenodd" d="M27.1508 23.8511C26.7132 23.4136 26.1197 23.1677 25.5009 23.1677C24.882 23.1677 24.2885 23.4136 23.851 23.8511C13.8275 33.8746 13.8275 50.1259 23.851 60.1493C33.8745 70.1728 50.1256 70.1728 60.1491 60.1493C61.0603 59.2381 61.0603 57.7607 60.1491 56.8495L56.1229 52.8233L61.5266 30.2812C64.9869 29.8573 67.6667 26.9083 67.6667 23.3335C67.6667 19.4675 64.5326 16.3335 60.6667 16.3335C57.092 16.3335 54.143 19.0132 53.719 22.4734L31.1769 27.8772L27.1508 23.8511ZM60.6667 21.0002C59.3781 21.0002 58.3334 22.0448 58.3334 23.3335C58.3334 24.5898 59.3996 25.6668 60.6667 25.6668C61.9553 25.6668 63 24.6221 63 23.3335C63 22.0448 61.9553 21.0002 60.6667 21.0002ZM48.7758 45.4762L47.0378 43.7382L46.1688 42.8692L54.636 33.664L50.5139 47.2143L48.7758 45.4762ZM36.7858 33.4862L38.5239 35.2243L40.2619 36.9623L41.1309 37.8313L50.3363 29.3641L36.7858 33.4862Z"/>
</mask>
<path fill-rule="evenodd" clip-rule="evenodd" d="M27.1508 23.8511C26.7132 23.4136 26.1197 23.1677 25.5009 23.1677C24.882 23.1677 24.2885 23.4136 23.851 23.8511C13.8275 33.8746 13.8275 50.1259 23.851 60.1493C33.8745 70.1728 50.1256 70.1728 60.1491 60.1493C61.0603 59.2381 61.0603 57.7607 60.1491 56.8495L56.1229 52.8233L61.5266 30.2812C64.9869 29.8573 67.6667 26.9083 67.6667 23.3335C67.6667 19.4675 64.5326 16.3335 60.6667 16.3335C57.092 16.3335 54.143 19.0132 53.719 22.4734L31.1769 27.8772L27.1508 23.8511ZM60.6667 21.0002C59.3781 21.0002 58.3334 22.0448 58.3334 23.3335C58.3334 24.5898 59.3996 25.6668 60.6667 25.6668C61.9553 25.6668 63 24.6221 63 23.3335C63 22.0448 61.9553 21.0002 60.6667 21.0002ZM48.7758 45.4762L47.0378 43.7382L46.1688 42.8692L54.636 33.664L50.5139 47.2143L48.7758 45.4762ZM36.7858 33.4862L38.5239 35.2243L40.2619 36.9623L41.1309 37.8313L50.3363 29.3641L36.7858 33.4862Z" fill="url(#paint0_radial_1054_5137)"/>
<path d="M27.1508 23.8511L25.7366 25.2654L27.1508 23.8511ZM25.5009 23.1677V21.1677V23.1677ZM60.1491 56.8495L61.5633 55.4353L60.1491 56.8495ZM60.1491 60.1493L61.5633 61.5635L60.1491 60.1493ZM23.851 60.1493L22.4367 61.5635L22.4368 61.5635L23.851 60.1493ZM23.851 23.8511L22.4367 22.4369H22.4367L23.851 23.8511ZM31.1769 27.8772L29.7627 29.2914L30.5543 30.0831L31.6431 29.8221L31.1769 27.8772ZM56.1229 52.8233L54.178 52.357L53.917 53.4458L54.7086 54.2375L56.1229 52.8233ZM53.719 22.4734L54.1852 24.4183L55.5353 24.0947L55.7042 22.7166L53.719 22.4734ZM61.5266 30.2812L61.2834 28.296L59.9054 28.4649L59.5817 29.815L61.5266 30.2812ZM54.636 33.664L56.5494 34.2461L53.164 32.3101L54.636 33.664ZM50.3363 29.3641L51.6903 30.836L49.7542 27.4506L50.3363 29.3641ZM36.7858 33.4862L36.2038 31.5728L33.0143 32.5431L35.3716 34.9004L36.7858 33.4862ZM50.5139 47.2143L49.0997 48.6285L51.457 50.9859L52.4273 47.7964L50.5139 47.2143ZM46.1688 42.8692L44.6968 41.5152L43.3982 42.927L44.7546 44.2834L46.1688 42.8692ZM41.1309 37.8313L39.7167 39.2455L41.0731 40.6019L42.4849 39.3033L41.1309 37.8313ZM28.565 22.4369C27.7523 21.6243 26.6501 21.1677 25.5009 21.1677V25.1677C25.5893 25.1677 25.6741 25.2028 25.7366 25.2654L28.565 22.4369ZM61.5633 61.5635C63.2556 59.8713 63.2556 57.1275 61.5633 55.4353L58.7349 58.2637C58.865 58.3939 58.865 58.6049 58.7349 58.7351L61.5633 61.5635ZM22.4368 61.5635C33.2413 72.368 50.7588 72.368 61.5633 61.5635L58.7349 58.7351C49.4924 67.9775 34.5076 67.9775 25.2652 58.7351L22.4368 61.5635ZM22.4367 22.4369C11.6322 33.2414 11.6323 50.759 22.4367 61.5635L25.2652 58.7351C16.0228 49.4927 16.0228 34.5078 25.2652 25.2654L22.4367 22.4369ZM25.5009 21.1677C24.3516 21.1677 23.2494 21.6243 22.4367 22.4369L25.2652 25.2654C25.3277 25.2028 25.4125 25.1677 25.5009 25.1677V21.1677ZM60.3334 23.3335C60.3334 23.1494 60.4826 23.0002 60.6667 23.0002V19.0002C58.2735 19.0002 56.3334 20.9403 56.3334 23.3335H60.3334ZM61 23.3335C61 23.5175 60.8508 23.6668 60.6667 23.6668V27.6668C63.0599 27.6668 65 25.7267 65 23.3335H61ZM60.6667 23.0002C60.8508 23.0002 61 23.1494 61 23.3335H65C65 20.9403 63.0599 19.0002 60.6667 19.0002V23.0002ZM69.6667 23.3335C69.6667 18.3629 65.6372 14.3335 60.6667 14.3335V18.3335C63.4281 18.3335 65.6667 20.5721 65.6667 23.3335H69.6667ZM32.5911 26.463L28.565 22.4369L25.7366 25.2654L29.7627 29.2914L32.5911 26.463ZM61.5633 55.4353L57.5371 51.4091L54.7086 54.2375L58.7349 58.2637L61.5633 55.4353ZM53.2528 20.5285L30.7106 25.9323L31.6431 29.8221L54.1852 24.4183L53.2528 20.5285ZM60.6667 14.3335C56.0691 14.3335 52.2792 17.7792 51.7339 22.2302L55.7042 22.7166C56.0067 20.2471 58.1148 18.3335 60.6667 18.3335V14.3335ZM58.0678 53.2895L63.4715 30.7474L59.5817 29.815L54.178 52.357L58.0678 53.2895ZM61.7698 32.2664C66.2208 31.7211 69.6667 27.9312 69.6667 23.3335H65.6667C65.6667 25.8854 63.753 27.9935 61.2834 28.296L61.7698 32.2664ZM60.6667 23.6668C60.609 23.6668 60.5235 23.6417 60.4413 23.5593C60.3583 23.476 60.3334 23.3889 60.3334 23.3335H56.3334C56.3334 25.6883 58.289 27.6668 60.6667 27.6668V23.6668ZM39.9381 33.81L38.2001 32.072L35.3716 34.9004L37.1097 36.6385L39.9381 33.81ZM41.6761 35.5481L39.9381 33.81L37.1097 36.6385L38.8477 38.3765L41.6761 35.5481ZM50.1901 44.062L48.452 42.324L45.6236 45.1524L47.3616 46.8905L50.1901 44.062ZM51.9281 45.8001L50.1901 44.062L47.3616 46.8905L49.0997 48.6285L51.9281 45.8001ZM52.4273 47.7964L56.5494 34.2461L52.7226 33.082L48.6005 46.6322L52.4273 47.7964ZM48.452 42.324L47.583 41.455L44.7546 44.2834L45.6236 45.1524L48.452 42.324ZM42.5451 36.4171L41.6761 35.5481L38.8477 38.3765L39.7167 39.2455L42.5451 36.4171ZM42.4849 39.3033L51.6903 30.836L48.9823 27.8921L39.777 36.3593L42.4849 39.3033ZM47.6408 44.2232L56.108 35.018L53.164 32.3101L44.6968 41.5152L47.6408 44.2232ZM37.3679 35.3996L50.9184 31.2775L49.7542 27.4506L36.2038 31.5728L37.3679 35.3996Z" fill="url(#paint1_radial_1054_5137)" mask="url(#path-1-inside-1_1054_5137)"/>
</g>
<defs>
<filter id="filter0_d_1054_5137" x="0.333374" y="0.333496" width="83.3334" height="83.3335" filterUnits="userSpaceOnUse" color-interpolation-filters="sRGB">
<feFlood flood-opacity="0" result="BackgroundImageFix"/>
<feColorMatrix in="SourceAlpha" type="matrix" values="0 0 0 0 0 0 0 0 0 0 0 0 0 0 0 0 0 0 127 0" result="hardAlpha"/>
<feOffset/>
<feGaussianBlur stdDeviation="8"/>
<feComposite in2="hardAlpha" operator="out"/>
<feColorMatrix type="matrix" values="0 0 0 0 1 0 0 0 0 0.752941 0 0 0 0 0.223529 0 0 0 0.24 0"/>
<feBlend mode="normal" in2="BackgroundImageFix" result="effect1_dropShadow_1054_5137"/>
<feBlend mode="normal" in="SourceGraphic" in2="effect1_dropShadow_1054_5137" result="shape"/>
</filter>
<radialGradient id="paint0_radial_1054_5137" cx="0" cy="0" r="1" gradientUnits="userSpaceOnUse" gradientTransform="translate(42 16.3335) rotate(90) scale(51.3334 65.7087)">
<stop offset="0.0260417" stop-color="#FFC342"/>
<stop offset="0.572917" stop-color="#9F6E03"/>
<stop offset="0.609375" stop-color="#9F6E03"/>
<stop offset="1" stop-color="#FF8717"/>
</radialGradient>
<radialGradient id="paint1_radial_1054_5137" cx="0" cy="0" r="1" gradientUnits="userSpaceOnUse" gradientTransform="translate(42 32.1002) rotate(-90) scale(23.4667 54.8242)">
<stop offset="0.313257" stop-color="#FFE8BD"/>
<stop offset="1" stop-color="#543600" stop-opacity="0.6"/>
</radialGradient>
</defs>
</svg>
