<svg width="56" height="56" viewBox="0 0 56 56" fill="none" xmlns="http://www.w3.org/2000/svg">
<path fill-rule="evenodd" clip-rule="evenodd" d="M22.7469 4.88672C18.105 4.88672 14.342 8.64973 14.342 13.2916H6.98773C5.82726 13.2916 4.8865 14.2324 4.8865 15.3929V24.8475H6.9877C11.2493 19.296 21.8238 12.1858 30.5723 10.2185C29.3453 7.09665 26.3042 4.88672 22.7469 4.88672Z" fill="url(#paint0_radial_1304_2195)"/>
<path d="M4.88647 41.6574L4.8865 49.0125C4.8865 50.173 5.82726 51.1138 6.98773 51.1138H38.5062C39.6666 51.1138 40.6074 50.173 40.6074 49.0125V41.6579H42.7086C47.3505 41.6579 51.1135 37.8949 51.1135 33.253C51.1135 28.6111 47.3505 24.8481 42.7086 24.8481H40.6074V15.3929C40.6074 14.2324 39.6666 13.2916 38.5062 13.2916H31.1519C31.1519 12.207 30.9464 11.1704 30.5723 10.2185C21.8238 12.1858 11.2493 19.296 6.9877 24.8475C11.6296 24.8475 15.3926 28.6105 15.3926 33.2525C15.3926 37.8944 11.6296 41.6574 6.9877 41.6574H4.88647Z" fill="url(#paint1_radial_1304_2195)"/>
<path fill-rule="evenodd" clip-rule="evenodd" d="M6.98773 24.8474C7.21597 24.8474 7.44208 24.8565 7.66573 24.8744C11.9906 25.2196 15.3926 28.8387 15.3926 33.2524C15.3926 37.8943 11.6296 41.6573 6.98773 41.6573H4.8865L4.88653 49.0124C4.88653 50.1729 5.82728 51.1137 6.98776 51.1137H38.5062C39.6667 51.1137 40.6074 50.1729 40.6074 49.0124V41.6578H42.7087C47.3506 41.6578 51.1136 37.8948 51.1136 33.2529C51.1136 28.611 47.3506 24.848 42.7087 24.848H40.6074V15.3928C40.6074 14.2323 39.6667 13.2915 38.5062 13.2915H31.1519C31.1519 12.2069 30.9464 11.1703 30.5723 10.2184C30.5039 10.0443 30.4298 9.87301 30.3503 9.7048C29.0045 6.85692 26.1059 4.88662 22.747 4.88662C18.1051 4.88662 14.3421 8.64963 14.3421 13.2915H6.98776C5.82728 13.2915 4.88653 14.2323 4.88653 15.3928V24.8474H6.98773ZM13.305 12.1915H6.98776C5.21977 12.1915 3.78653 13.6248 3.78653 15.3928V25.9474H6.98773C11.0221 25.9474 14.2926 29.218 14.2926 33.2524C14.2926 37.2868 11.0221 40.5573 6.98773 40.5573H3.7865L3.78653 49.0124C3.78653 50.7804 5.21977 52.2136 6.98776 52.2136H38.5062C40.2742 52.2136 41.7074 50.7804 41.7074 49.0124V42.7578H42.7087C47.9581 42.7578 52.2136 38.5023 52.2136 33.2529C52.2136 28.0035 47.9581 23.748 42.7087 23.748H41.7074V15.3928C41.7074 13.6248 40.2742 12.1915 38.5062 12.1915H32.1888C32.0933 11.3634 31.8911 10.5667 31.5961 9.81604C30.2093 6.28752 26.7715 3.78662 22.747 3.78662C17.8696 3.78662 13.8503 7.46029 13.305 12.1915Z" fill="url(#paint2_radial_1304_2195)"/>
<defs>
<radialGradient id="paint0_radial_1304_2195" cx="0" cy="0" r="1" gradientUnits="userSpaceOnUse" gradientTransform="translate(19.4511 4.05347) rotate(67.7438) scale(50.8485 67.5145)">
<stop offset="0.0260417" stop-color="#FFC342"/>
<stop offset="0.572917" stop-color="#B07900"/>
<stop offset="0.609375" stop-color="#B37A00"/>
<stop offset="1" stop-color="#FF8717"/>
</radialGradient>
<radialGradient id="paint1_radial_1304_2195" cx="0" cy="0" r="1" gradientUnits="userSpaceOnUse" gradientTransform="translate(19.4675 8.14654) rotate(72.0913) scale(49.259 65.404)">
<stop offset="0.0260417" stop-color="#FFC342"/>
<stop offset="0.572917" stop-color="#B07900"/>
<stop offset="0.609375" stop-color="#B37A00"/>
<stop offset="1" stop-color="#FF8717"/>
</radialGradient>
<radialGradient id="paint2_radial_1304_2195" cx="0" cy="0" r="1" gradientUnits="userSpaceOnUse" gradientTransform="translate(34.6646 18.1551) rotate(-102.544) scale(25.9142 60.6542)">
<stop offset="0.253624" stop-color="#FFE8BD"/>
<stop offset="1" stop-color="#71531E"/>
</radialGradient>
</defs>
</svg>
