<svg width="84" height="84" viewBox="0 0 84 84" fill="none" xmlns="http://www.w3.org/2000/svg">
<g filter="url(#filter0_d_1054_5132)">
<mask id="path-1-inside-1_1054_5132" fill="white">
<path fill-rule="evenodd" clip-rule="evenodd" d="M18.6667 16.3335C17.378 16.3335 16.3334 17.3782 16.3334 18.6668V37.3335C16.3334 38.6222 17.378 39.6668 18.6667 39.6668H65.3334C66.622 39.6668 67.6667 38.6222 67.6667 37.3335V18.6668C67.6667 17.3782 66.622 16.3335 65.3334 16.3335H18.6667ZM38.5 25.6668H36.1667C35.5224 25.6668 35 26.1891 35 26.8335V29.1668C35 29.8112 35.5224 30.3335 36.1667 30.3335H38.5C39.1444 30.3335 39.6667 29.8112 39.6667 29.1668V26.8335C39.6667 26.1891 39.1444 25.6668 38.5 25.6668ZM26.8334 25.6668H29.1667C29.8111 25.6668 30.3334 26.1891 30.3334 26.8335V29.1668C30.3334 29.8112 29.8111 30.3335 29.1667 30.3335H26.8334C26.189 30.3335 25.6667 29.8112 25.6667 29.1668V26.8335C25.6667 26.1891 26.189 25.6668 26.8334 25.6668Z"/>
<path fill-rule="evenodd" clip-rule="evenodd" d="M18.6667 44.3335C17.378 44.3335 16.3334 45.3782 16.3334 46.6668V65.3335C16.3334 66.6222 17.378 67.6668 18.6667 67.6668H65.3334C66.622 67.6668 67.6667 66.6222 67.6667 65.3335V46.6668C67.6667 45.3782 66.622 44.3335 65.3334 44.3335H18.6667ZM38.5 53.6668H36.1667C35.5224 53.6668 35 54.1891 35 54.8335V57.1668C35 57.8112 35.5224 58.3335 36.1667 58.3335H38.5C39.1444 58.3335 39.6667 57.8112 39.6667 57.1668V54.8335C39.6667 54.1891 39.1444 53.6668 38.5 53.6668ZM26.8334 53.6668H29.1667C29.8111 53.6668 30.3334 54.1891 30.3334 54.8335V57.1668C30.3334 57.8112 29.8111 58.3335 29.1667 58.3335H26.8334C26.189 58.3335 25.6667 57.8112 25.6667 57.1668V54.8335C25.6667 54.1891 26.189 53.6668 26.8334 53.6668Z"/>
</mask>
<path fill-rule="evenodd" clip-rule="evenodd" d="M18.6667 16.3335C17.378 16.3335 16.3334 17.3782 16.3334 18.6668V37.3335C16.3334 38.6222 17.378 39.6668 18.6667 39.6668H65.3334C66.622 39.6668 67.6667 38.6222 67.6667 37.3335V18.6668C67.6667 17.3782 66.622 16.3335 65.3334 16.3335H18.6667ZM38.5 25.6668H36.1667C35.5224 25.6668 35 26.1891 35 26.8335V29.1668C35 29.8112 35.5224 30.3335 36.1667 30.3335H38.5C39.1444 30.3335 39.6667 29.8112 39.6667 29.1668V26.8335C39.6667 26.1891 39.1444 25.6668 38.5 25.6668ZM26.8334 25.6668H29.1667C29.8111 25.6668 30.3334 26.1891 30.3334 26.8335V29.1668C30.3334 29.8112 29.8111 30.3335 29.1667 30.3335H26.8334C26.189 30.3335 25.6667 29.8112 25.6667 29.1668V26.8335C25.6667 26.1891 26.189 25.6668 26.8334 25.6668Z" fill="url(#paint0_radial_1054_5132)"/>
<path fill-rule="evenodd" clip-rule="evenodd" d="M18.6667 44.3335C17.378 44.3335 16.3334 45.3782 16.3334 46.6668V65.3335C16.3334 66.6222 17.378 67.6668 18.6667 67.6668H65.3334C66.622 67.6668 67.6667 66.6222 67.6667 65.3335V46.6668C67.6667 45.3782 66.622 44.3335 65.3334 44.3335H18.6667ZM38.5 53.6668H36.1667C35.5224 53.6668 35 54.1891 35 54.8335V57.1668C35 57.8112 35.5224 58.3335 36.1667 58.3335H38.5C39.1444 58.3335 39.6667 57.8112 39.6667 57.1668V54.8335C39.6667 54.1891 39.1444 53.6668 38.5 53.6668ZM26.8334 53.6668H29.1667C29.8111 53.6668 30.3334 54.1891 30.3334 54.8335V57.1668C30.3334 57.8112 29.8111 58.3335 29.1667 58.3335H26.8334C26.189 58.3335 25.6667 57.8112 25.6667 57.1668V54.8335C25.6667 54.1891 26.189 53.6668 26.8334 53.6668Z" fill="url(#paint1_radial_1054_5132)"/>
<path d="M18.3334 18.6668C18.3334 18.4827 18.4826 18.3335 18.6667 18.3335V14.3335C16.2735 14.3335 14.3334 16.2736 14.3334 18.6668H18.3334ZM18.3334 37.3335V18.6668H14.3334V37.3335H18.3334ZM18.6667 37.6668C18.4826 37.6668 18.3334 37.5176 18.3334 37.3335H14.3334C14.3334 39.7267 16.2735 41.6668 18.6667 41.6668V37.6668ZM65.3334 37.6668H18.6667V41.6668H65.3334V37.6668ZM65.6667 37.3335C65.6667 37.5176 65.5175 37.6668 65.3334 37.6668V41.6668C67.7266 41.6668 69.6667 39.7267 69.6667 37.3335H65.6667ZM65.6667 18.6668V37.3335H69.6667V18.6668H65.6667ZM65.3334 18.3335C65.5175 18.3335 65.6667 18.4827 65.6667 18.6668H69.6667C69.6667 16.2736 67.7266 14.3335 65.3334 14.3335V18.3335ZM18.6667 18.3335H65.3334V14.3335H18.6667V18.3335ZM29.1667 23.6668H26.8334V27.6668H29.1667V23.6668ZM26.8334 23.6668C25.0845 23.6668 23.6667 25.0846 23.6667 26.8335H27.6667C27.6667 27.2937 27.2936 27.6668 26.8334 27.6668V23.6668ZM23.6667 26.8335V29.1668H27.6667V26.8335H23.6667ZM23.6667 29.1668C23.6667 30.9157 25.0845 32.3335 26.8334 32.3335V28.3335C27.2936 28.3335 27.6667 28.7066 27.6667 29.1668H23.6667ZM26.8334 32.3335H29.1667V28.3335H26.8334V32.3335ZM29.1667 32.3335C30.9156 32.3335 32.3334 30.9157 32.3334 29.1668H28.3334C28.3334 28.7066 28.7065 28.3335 29.1667 28.3335V32.3335ZM32.3334 29.1668V26.8335H28.3334V29.1668H32.3334ZM32.3334 26.8335C32.3334 25.0846 30.9156 23.6668 29.1667 23.6668V27.6668C28.7065 27.6668 28.3334 27.2937 28.3334 26.8335H32.3334ZM38.5 23.6668H36.1667V27.6668H38.5V23.6668ZM36.1667 23.6668C34.4178 23.6668 33 25.0846 33 26.8335H37C37 27.2937 36.6269 27.6668 36.1667 27.6668V23.6668ZM33 26.8335V29.1668H37V26.8335H33ZM33 29.1668C33 30.9157 34.4178 32.3335 36.1667 32.3335V28.3335C36.6269 28.3335 37 28.7066 37 29.1668H33ZM36.1667 32.3335H38.5V28.3335H36.1667V32.3335ZM38.5 32.3335C40.249 32.3335 41.6667 30.9157 41.6667 29.1668H37.6667C37.6667 28.7066 38.0398 28.3335 38.5 28.3335V32.3335ZM41.6667 29.1668V26.8335H37.6667V29.1668H41.6667ZM41.6667 26.8335C41.6667 25.0846 40.249 23.6668 38.5 23.6668V27.6668C38.0398 27.6668 37.6667 27.2937 37.6667 26.8335H41.6667ZM18.3334 46.6668C18.3334 46.4827 18.4826 46.3335 18.6667 46.3335V42.3335C16.2735 42.3335 14.3334 44.2736 14.3334 46.6668H18.3334ZM18.3334 65.3335V46.6668H14.3334V65.3335H18.3334ZM18.6667 65.6668C18.4826 65.6668 18.3334 65.5176 18.3334 65.3335H14.3334C14.3334 67.7267 16.2735 69.6668 18.6667 69.6668V65.6668ZM65.3334 65.6668H18.6667V69.6668H65.3334V65.6668ZM65.6667 65.3335C65.6667 65.5176 65.5175 65.6668 65.3334 65.6668V69.6668C67.7266 69.6668 69.6667 67.7267 69.6667 65.3335H65.6667ZM65.6667 46.6668V65.3335H69.6667V46.6668H65.6667ZM65.3334 46.3335C65.5175 46.3335 65.6667 46.4827 65.6667 46.6668H69.6667C69.6667 44.2736 67.7266 42.3335 65.3334 42.3335V46.3335ZM18.6667 46.3335H65.3334V42.3335H18.6667V46.3335ZM29.1667 51.6668H26.8334V55.6668H29.1667V51.6668ZM26.8334 51.6668C25.0845 51.6668 23.6667 53.0846 23.6667 54.8335H27.6667C27.6667 55.2937 27.2936 55.6668 26.8334 55.6668V51.6668ZM23.6667 54.8335V57.1668H27.6667V54.8335H23.6667ZM23.6667 57.1668C23.6667 58.9157 25.0845 60.3335 26.8334 60.3335V56.3335C27.2936 56.3335 27.6667 56.7066 27.6667 57.1668H23.6667ZM26.8334 60.3335H29.1667V56.3335H26.8334V60.3335ZM29.1667 60.3335C30.9156 60.3335 32.3334 58.9157 32.3334 57.1668H28.3334C28.3334 56.7066 28.7065 56.3335 29.1667 56.3335V60.3335ZM32.3334 57.1668V54.8335H28.3334V57.1668H32.3334ZM32.3334 54.8335C32.3334 53.0846 30.9156 51.6668 29.1667 51.6668V55.6668C28.7065 55.6668 28.3334 55.2937 28.3334 54.8335H32.3334ZM38.5 51.6668H36.1667V55.6668H38.5V51.6668ZM36.1667 51.6668C34.4178 51.6668 33 53.0846 33 54.8335H37C37 55.2937 36.6269 55.6668 36.1667 55.6668V51.6668ZM33 54.8335V57.1668H37V54.8335H33ZM33 57.1668C33 58.9157 34.4178 60.3335 36.1667 60.3335V56.3335C36.6269 56.3335 37 56.7066 37 57.1668H33ZM36.1667 60.3335H38.5V56.3335H36.1667V60.3335ZM38.5 60.3335C40.249 60.3335 41.6667 58.9157 41.6667 57.1668H37.6667C37.6667 56.7066 38.0398 56.3335 38.5 56.3335V60.3335ZM41.6667 57.1668V54.8335H37.6667V57.1668H41.6667ZM41.6667 54.8335C41.6667 53.0846 40.249 51.6668 38.5 51.6668V55.6668C38.0398 55.6668 37.6667 55.2937 37.6667 54.8335H41.6667Z" fill="url(#paint2_radial_1054_5132)" mask="url(#path-1-inside-1_1054_5132)"/>
</g>
<defs>
<filter id="filter0_d_1054_5132" x="0.333374" y="0.333496" width="83.3334" height="83.3335" filterUnits="userSpaceOnUse" color-interpolation-filters="sRGB">
<feFlood flood-opacity="0" result="BackgroundImageFix"/>
<feColorMatrix in="SourceAlpha" type="matrix" values="0 0 0 0 0 0 0 0 0 0 0 0 0 0 0 0 0 0 127 0" result="hardAlpha"/>
<feOffset/>
<feGaussianBlur stdDeviation="8"/>
<feComposite in2="hardAlpha" operator="out"/>
<feColorMatrix type="matrix" values="0 0 0 0 1 0 0 0 0 0.752941 0 0 0 0 0.223529 0 0 0 0.24 0"/>
<feBlend mode="normal" in2="BackgroundImageFix" result="effect1_dropShadow_1054_5132"/>
<feBlend mode="normal" in="SourceGraphic" in2="effect1_dropShadow_1054_5132" result="shape"/>
</filter>
<radialGradient id="paint0_radial_1054_5132" cx="0" cy="0" r="1" gradientUnits="userSpaceOnUse" gradientTransform="translate(42 16.3335) rotate(90) scale(51.3333 65.7087)">
<stop offset="0.0260417" stop-color="#FFC342"/>
<stop offset="0.572917" stop-color="#9F6E03"/>
<stop offset="0.609375" stop-color="#9F6E03"/>
<stop offset="1" stop-color="#FF8717"/>
</radialGradient>
<radialGradient id="paint1_radial_1054_5132" cx="0" cy="0" r="1" gradientUnits="userSpaceOnUse" gradientTransform="translate(42 16.3335) rotate(90) scale(51.3333 65.7087)">
<stop offset="0.0260417" stop-color="#FFC342"/>
<stop offset="0.572917" stop-color="#9F6E03"/>
<stop offset="0.609375" stop-color="#9F6E03"/>
<stop offset="1" stop-color="#FF8717"/>
</radialGradient>
<radialGradient id="paint2_radial_1054_5132" cx="0" cy="0" r="1" gradientUnits="userSpaceOnUse" gradientTransform="translate(42 32.1002) rotate(-90) scale(23.4667 54.8242)">
<stop offset="0.313257" stop-color="#FFE8BD"/>
<stop offset="1" stop-color="#543600" stop-opacity="0.6"/>
</radialGradient>
</defs>
</svg>
