<svg width="56" height="56" viewBox="0 0 56 56" fill="none" xmlns="http://www.w3.org/2000/svg">
<g clip-path="url(#clip0_1304_312)">
<path fill-rule="evenodd" clip-rule="evenodd" d="M49.1541 11.7076L23.5861 20.2263L11.121 20.0496C6.68877 19.9868 3.0448 23.529 2.98198 27.9612C2.91917 32.3935 6.4613 36.0375 10.8936 36.1003L14.6502 36.1535L7.61681 50.4001L16.3252 50.5236L23.3586 36.2769L35.5132 40.713C38.4552 39.4965 47.0427 35.136 50.7316 26.3523L49.1541 11.7076Z" fill="url(#paint0_radial_1304_312)"/>
<path d="M48.675 45.5167L50.7316 26.3523C47.0427 35.136 38.4552 39.4965 35.5132 40.713L48.675 45.5167Z" fill="url(#paint1_radial_1304_312)"/>
<path fill-rule="evenodd" clip-rule="evenodd" d="M49.5855 10.9841L49.6958 11.6125C52.1544 25.625 51.881 33.0477 49.213 45.6307L49.0816 46.2505L23.6334 36.9626L16.6646 51.0784L6.73796 50.9377L13.7714 36.691L10.8857 36.6501C6.14972 36.583 2.36485 32.6893 2.43197 27.9534C2.49909 23.2174 6.39278 19.4325 11.1288 19.4996L23.5006 19.675L49.5855 10.9841ZM23.0283 20.7684L11.1132 20.5995C6.98464 20.541 3.59037 23.8404 3.53186 27.9689C3.47335 32.0975 6.77276 35.4917 10.9013 35.5503L22.8164 35.7191L23.0283 20.7684ZM23.914 35.8941L48.2673 44.7824C50.7453 32.8978 50.9983 25.6696 48.7216 12.4314L24.1304 20.6246L23.914 35.8941ZM22.4798 36.8145L14.9896 36.7083L8.49553 49.8625L15.9857 49.9686L22.4798 36.8145Z" fill="url(#paint2_radial_1304_312)"/>
</g>
<defs>
<radialGradient id="paint0_radial_1304_312" cx="0" cy="0" r="1" gradientUnits="userSpaceOnUse" gradientTransform="translate(17.7035 10.5538) rotate(65.2348) scale(44.3293 65.388)">
<stop offset="0.0260417" stop-color="#FFC342"/>
<stop offset="0.572917" stop-color="#B07900"/>
<stop offset="0.609375" stop-color="#B37A00"/>
<stop offset="1" stop-color="#FF8717"/>
</radialGradient>
<radialGradient id="paint1_radial_1304_312" cx="0" cy="0" r="1" gradientUnits="userSpaceOnUse" gradientTransform="translate(26.8212 -4.27792) rotate(78.9532) scale(56.143 85.7647)">
<stop offset="0.0260417" stop-color="#FFC342"/>
<stop offset="0.572917" stop-color="#B07900"/>
<stop offset="0.609375" stop-color="#D69302"/>
<stop offset="1" stop-color="#FF8717"/>
</radialGradient>
<radialGradient id="paint2_radial_1304_312" cx="0" cy="0" r="1" gradientUnits="userSpaceOnUse" gradientTransform="translate(32.6501 22.7484) rotate(-103.775) scale(22.2085 59.7576)">
<stop offset="0.253624" stop-color="#FFE8BD"/>
<stop offset="1" stop-color="#71531E"/>
</radialGradient>
<clipPath id="clip0_1304_312">
<rect width="56" height="56" fill="white"/>
</clipPath>
</defs>
</svg>
