<svg width="84" height="84" viewBox="0 0 84 84" fill="none" xmlns="http://www.w3.org/2000/svg">
<g filter="url(#filter0_d_1054_5164)">
<path d="M36.1667 16.3335C31.012 16.3335 26.8334 20.5122 26.8334 25.6668H18.6667C17.378 25.6668 16.3334 26.7115 16.3334 28.0002V42.0002C16.3334 43.2888 17.378 44.3335 18.6667 44.3335H23.3334C25.9107 44.3335 28 46.4228 28 49.0002C28 51.5775 25.9107 53.6668 23.3334 53.6668H18.6667C17.378 53.6668 16.3334 54.7115 16.3334 56.0002V65.3335C16.3334 66.6222 17.378 67.6668 18.6667 67.6668H53.6667C54.9554 67.6668 56 66.6222 56 65.3335V58.3335H58.3334C63.488 58.3335 67.6667 54.1548 67.6667 49.0002C67.6667 43.8455 63.488 39.6668 58.3334 39.6668H56V28.0002C56 26.7115 54.9554 25.6668 53.6667 25.6668H45.5C45.5 20.5122 41.3214 16.3335 36.1667 16.3335Z" fill="url(#paint0_radial_1054_5164)"/>
<path d="M26.8334 26.6668H27.8334V25.6668C27.8334 21.0645 31.5643 17.3335 36.1667 17.3335C40.7691 17.3335 44.5 21.0645 44.5 25.6668V26.6668H45.5H53.6667C54.4031 26.6668 55 27.2638 55 28.0002V39.6668V40.6668H56H58.3334C62.9357 40.6668 66.6667 44.3978 66.6667 49.0002C66.6667 53.6025 62.9357 57.3335 58.3334 57.3335H56H55V58.3335V65.3335C55 66.0699 54.4031 66.6668 53.6667 66.6668H18.6667C17.9303 66.6668 17.3334 66.0699 17.3334 65.3335V56.0002C17.3334 55.2638 17.9303 54.6668 18.6667 54.6668H23.3334C26.463 54.6668 29 52.1298 29 49.0002C29 45.8705 26.463 43.3335 23.3334 43.3335H18.6667C17.9303 43.3335 17.3334 42.7365 17.3334 42.0002V28.0002C17.3334 27.2638 17.9303 26.6668 18.6667 26.6668H26.8334Z" stroke="url(#paint1_radial_1054_5164)" stroke-width="2"/>
</g>
<defs>
<filter id="filter0_d_1054_5164" x="0.333374" y="0.333496" width="83.3334" height="83.3335" filterUnits="userSpaceOnUse" color-interpolation-filters="sRGB">
<feFlood flood-opacity="0" result="BackgroundImageFix"/>
<feColorMatrix in="SourceAlpha" type="matrix" values="0 0 0 0 0 0 0 0 0 0 0 0 0 0 0 0 0 0 127 0" result="hardAlpha"/>
<feOffset/>
<feGaussianBlur stdDeviation="8"/>
<feComposite in2="hardAlpha" operator="out"/>
<feColorMatrix type="matrix" values="0 0 0 0 1 0 0 0 0 0.752941 0 0 0 0 0.223529 0 0 0 0.24 0"/>
<feBlend mode="normal" in2="BackgroundImageFix" result="effect1_dropShadow_1054_5164"/>
<feBlend mode="normal" in="SourceGraphic" in2="effect1_dropShadow_1054_5164" result="shape"/>
</filter>
<radialGradient id="paint0_radial_1054_5164" cx="0" cy="0" r="1" gradientUnits="userSpaceOnUse" gradientTransform="translate(42 16.3335) rotate(90) scale(51.3333 65.7087)">
<stop offset="0.0260417" stop-color="#FFC342"/>
<stop offset="0.572917" stop-color="#9F6E03"/>
<stop offset="0.609375" stop-color="#9F6E03"/>
<stop offset="1" stop-color="#FF8717"/>
</radialGradient>
<radialGradient id="paint1_radial_1054_5164" cx="0" cy="0" r="1" gradientUnits="userSpaceOnUse" gradientTransform="translate(42 32.1002) rotate(-90) scale(23.4667 54.8242)">
<stop offset="0.313257" stop-color="#FFE8BD"/>
<stop offset="1" stop-color="#543600" stop-opacity="0.6"/>
</radialGradient>
</defs>
</svg>
