<svg width="56" height="56" viewBox="0 0 56 56" fill="none" xmlns="http://www.w3.org/2000/svg">
<path d="M13.0427 27.1041L1.23242 15.3059L14.3722 1.90186L26.6063 13.5764H27.3786C29.6288 13.5764 31.8449 14.0539 33.8834 14.968C35.1893 15.5535 36.4661 16.2142 37.8194 16.6796L49.6741 20.7565C51.3707 21.3399 52.2749 23.1865 51.6954 24.8844C51.115 26.5851 49.2658 27.4933 47.5651 26.9129L38.3743 23.7765L52.4881 37.7225C53.722 38.9417 53.6678 40.9502 52.37 42.1011L52.1647 42.2831C51.1027 43.2249 49.5484 43.2815 48.4286 42.4788L50.6358 44.6561C51.8045 45.809 51.8295 47.6872 50.6919 48.8707L50.3683 49.2074C49.1932 50.43 47.239 50.4364 46.056 49.2214L33.6613 36.4919L44.3519 47.4904C45.5058 48.6775 45.4799 50.5749 44.2942 51.7301L44.0134 52.0037C42.8263 53.1603 40.9263 53.1351 39.7702 51.9475L29.2499 41.14L35.7472 47.8937C36.831 49.0201 36.8037 50.8097 35.6861 51.9027C34.5662 52.9979 32.7718 52.9825 31.6708 51.8683L17.2952 37.3204C15.5312 35.5352 14.3216 33.2776 13.8125 30.82L13.0427 27.1041Z" fill="url(#paint0_radial_1304_1649)"/>
<path fill-rule="evenodd" clip-rule="evenodd" d="M14.3593 1.12939L26.8266 13.0265H27.3786C30.4313 13.0265 33.4234 13.876 36.0202 15.4793L49.853 20.2364C51.8363 20.9185 52.8933 23.0772 52.2159 25.0621C51.5374 27.0503 49.3756 28.112 47.3874 27.4335L40.4681 25.0722L52.8747 37.3314C54.3347 38.7741 54.2706 41.1507 52.7349 42.5126L52.5296 42.6947C51.8981 43.2547 51.1196 43.5502 50.3331 43.5851L51.022 44.2647C52.405 45.6289 52.4346 47.8514 51.0884 49.2519L50.7649 49.5886C49.4027 51.0058 47.1561 51.042 45.749 49.6915C45.7215 50.5784 45.3637 51.4561 44.678 52.1241L44.3973 52.3977C42.9925 53.7663 40.7441 53.7365 39.3761 52.3312L37.0905 49.9832C37.0618 50.8264 36.7209 51.66 36.0706 52.2959C34.7343 53.6028 32.5933 53.5844 31.2795 52.2549L16.904 37.7071C15.0653 35.8464 13.8045 33.4932 13.2739 30.9317L12.5375 27.3769L0.458252 15.31L14.3593 1.12939ZM29.6463 40.7588L29.644 40.7565L28.8536 41.5214L28.8558 41.5237L35.3509 48.2751C36.2252 49.1839 36.2032 50.6277 35.3015 51.5095C34.398 52.3931 32.9503 52.3807 32.062 51.4818L17.6864 36.9339C15.997 35.2243 14.8386 33.0621 14.351 30.7085L13.5479 26.8314L2.00657 15.3019L14.3851 2.67446L26.386 14.1265H27.3786C30.2467 14.1265 33.0575 14.9301 35.4922 16.4462L35.5451 16.4792L49.4953 21.2766C50.905 21.7615 51.6564 23.2959 51.1749 24.7068C50.6925 26.1201 49.1559 26.8747 47.7427 26.3925L38.552 23.2561L37.9878 24.1678L52.1015 38.1138C53.1092 39.1095 53.0649 40.7497 52.0051 41.6896L51.7998 41.8717C50.9434 42.6311 49.694 42.686 48.7825 42.0555L38.5626 31.9739L38.5616 31.9729L37.7881 32.7549L37.7891 32.756L47.6745 42.5593C47.8 42.6838 47.9329 42.7972 48.0718 42.8995L50.2495 45.0478C51.204 45.9893 51.2244 47.5231 50.2953 48.4897L49.9718 48.8263C49.0121 49.8248 47.4162 49.83 46.45 48.8377L34.0557 36.1086L33.2669 36.8753L43.9575 47.8738C44.8998 48.8433 44.8787 50.3928 43.9104 51.3363L43.6296 51.6098C42.6602 52.5544 41.1084 52.5338 40.1643 51.5639L29.6463 40.7588Z" fill="url(#paint1_radial_1304_1649)"/>
<defs>
<radialGradient id="paint0_radial_1304_1649" cx="0" cy="0" r="1" gradientUnits="userSpaceOnUse" gradientTransform="translate(18.0996 0.961013) rotate(67.2305) scale(57.6281 77.8981)">
<stop offset="0.0260417" stop-color="#FFC342"/>
<stop offset="0.572917" stop-color="#B07900"/>
<stop offset="0.609375" stop-color="#B37A00"/>
<stop offset="1" stop-color="#FF8717"/>
</radialGradient>
<radialGradient id="paint1_radial_1304_1649" cx="0" cy="0" r="1" gradientUnits="userSpaceOnUse" gradientTransform="translate(35.7181 16.8837) rotate(-102.856) scale(29.2963 70.1571)">
<stop offset="0.253624" stop-color="#FFE8BD"/>
<stop offset="1" stop-color="#71531E"/>
</radialGradient>
</defs>
</svg>
