<svg width="84" height="84" viewBox="0 0 84 84" fill="none" xmlns="http://www.w3.org/2000/svg">
<g filter="url(#filter0_d_1054_5157)">
<mask id="path-1-inside-1_1054_5157" fill="white">
<path fill-rule="evenodd" clip-rule="evenodd" d="M45.5 24.5003C46.7887 24.5003 47.8334 25.5449 47.8334 26.8336V31.5003C47.8334 32.7889 46.7887 33.8336 45.5 33.8336C44.2114 33.8336 43.1667 32.7889 43.1667 31.5003V26.8336C43.1667 25.5449 44.2114 24.5003 45.5 24.5003Z"/>
<path fill-rule="evenodd" clip-rule="evenodd" d="M16.3334 22.1668C16.3334 18.9452 18.9451 16.3335 22.1667 16.3335H61.8334C65.0551 16.3335 67.6667 18.9452 67.6667 22.1668V61.8335C67.6667 65.0552 65.0551 67.6668 61.8334 67.6668H22.1667C18.9451 67.6668 16.3334 65.0552 16.3334 61.8335V22.1668ZM29.1667 39.6668V21.0003H56V39.6668C56 40.9555 54.9554 42.0001 53.6667 42.0001H31.5C30.2114 42.0001 29.1667 40.9555 29.1667 39.6668ZM47.8334 26.8336C47.8334 25.5449 46.7887 24.5003 45.5 24.5003C44.2114 24.5003 43.1667 25.5449 43.1667 26.8336V31.5003C43.1667 32.7889 44.2114 33.8336 45.5 33.8336C46.7887 33.8336 47.8334 32.7889 47.8334 31.5003V26.8336Z"/>
</mask>
<path fill-rule="evenodd" clip-rule="evenodd" d="M45.5 24.5003C46.7887 24.5003 47.8334 25.5449 47.8334 26.8336V31.5003C47.8334 32.7889 46.7887 33.8336 45.5 33.8336C44.2114 33.8336 43.1667 32.7889 43.1667 31.5003V26.8336C43.1667 25.5449 44.2114 24.5003 45.5 24.5003Z" fill="url(#paint0_radial_1054_5157)"/>
<path fill-rule="evenodd" clip-rule="evenodd" d="M16.3334 22.1668C16.3334 18.9452 18.9451 16.3335 22.1667 16.3335H61.8334C65.0551 16.3335 67.6667 18.9452 67.6667 22.1668V61.8335C67.6667 65.0552 65.0551 67.6668 61.8334 67.6668H22.1667C18.9451 67.6668 16.3334 65.0552 16.3334 61.8335V22.1668ZM29.1667 39.6668V21.0003H56V39.6668C56 40.9555 54.9554 42.0001 53.6667 42.0001H31.5C30.2114 42.0001 29.1667 40.9555 29.1667 39.6668ZM47.8334 26.8336C47.8334 25.5449 46.7887 24.5003 45.5 24.5003C44.2114 24.5003 43.1667 25.5449 43.1667 26.8336V31.5003C43.1667 32.7889 44.2114 33.8336 45.5 33.8336C46.7887 33.8336 47.8334 32.7889 47.8334 31.5003V26.8336Z" fill="url(#paint1_radial_1054_5157)"/>
<path d="M48.8334 26.8336C48.8334 24.9927 47.341 23.5003 45.5 23.5003V25.5003C46.2364 25.5003 46.8334 26.0972 46.8334 26.8336H48.8334ZM48.8334 31.5003V26.8336H46.8334V31.5003H48.8334ZM45.5 34.8336C47.341 34.8336 48.8334 33.3412 48.8334 31.5003H46.8334C46.8334 32.2367 46.2364 32.8336 45.5 32.8336V34.8336ZM42.1667 31.5003C42.1667 33.3412 43.6591 34.8336 45.5 34.8336V32.8336C44.7637 32.8336 44.1667 32.2367 44.1667 31.5003H42.1667ZM42.1667 26.8336V31.5003H44.1667V26.8336H42.1667ZM45.5 23.5003C43.6591 23.5003 42.1667 24.9927 42.1667 26.8336H44.1667C44.1667 26.0972 44.7637 25.5003 45.5 25.5003V23.5003ZM29.1667 21.0003V19.0003H27.1667V21.0003H29.1667ZM56 21.0003H58V19.0003H56V21.0003ZM18.3334 22.1668C18.3334 20.0497 20.0496 18.3335 22.1667 18.3335V14.3335C17.8405 14.3335 14.3334 17.8406 14.3334 22.1668H18.3334ZM18.3334 61.8335V22.1668H14.3334V61.8335H18.3334ZM22.1667 65.6668C20.0496 65.6668 18.3334 63.9506 18.3334 61.8335H14.3334C14.3334 66.1598 17.8405 69.6668 22.1667 69.6668V65.6668ZM61.8334 65.6668H22.1667V69.6668H61.8334V65.6668ZM65.6667 61.8335C65.6667 63.9506 63.9505 65.6668 61.8334 65.6668V69.6668C66.1597 69.6668 69.6667 66.1598 69.6667 61.8335H65.6667ZM65.6667 22.1668V61.8335H69.6667V22.1668H65.6667ZM61.8334 18.3335C63.9505 18.3335 65.6667 20.0497 65.6667 22.1668H69.6667C69.6667 17.8406 66.1597 14.3335 61.8334 14.3335V18.3335ZM31.5 40.0001C31.3159 40.0001 31.1667 39.8509 31.1667 39.6668H27.1667C27.1667 42.06 29.1068 44.0001 31.5 44.0001V40.0001ZM53.6667 40.0001H31.5V44.0001H53.6667V40.0001ZM54 39.6668C54 39.8509 53.8508 40.0001 53.6667 40.0001V44.0001C56.0599 44.0001 58 42.06 58 39.6668H54ZM31.1667 39.6668V21.0003H27.1667V39.6668H31.1667ZM29.1667 23.0003H56V19.0003H29.1667V23.0003ZM54 21.0003V39.6668H58V21.0003H54ZM22.1667 18.3335H61.8334V14.3335H22.1667V18.3335Z" fill="url(#paint2_radial_1054_5157)" mask="url(#path-1-inside-1_1054_5157)"/>
</g>
<defs>
<filter id="filter0_d_1054_5157" x="0.333374" y="0.333496" width="83.3334" height="83.3335" filterUnits="userSpaceOnUse" color-interpolation-filters="sRGB">
<feFlood flood-opacity="0" result="BackgroundImageFix"/>
<feColorMatrix in="SourceAlpha" type="matrix" values="0 0 0 0 0 0 0 0 0 0 0 0 0 0 0 0 0 0 127 0" result="hardAlpha"/>
<feOffset/>
<feGaussianBlur stdDeviation="8"/>
<feComposite in2="hardAlpha" operator="out"/>
<feColorMatrix type="matrix" values="0 0 0 0 1 0 0 0 0 0.752941 0 0 0 0 0.223529 0 0 0 0.24 0"/>
<feBlend mode="normal" in2="BackgroundImageFix" result="effect1_dropShadow_1054_5157"/>
<feBlend mode="normal" in="SourceGraphic" in2="effect1_dropShadow_1054_5157" result="shape"/>
</filter>
<radialGradient id="paint0_radial_1054_5157" cx="0" cy="0" r="1" gradientUnits="userSpaceOnUse" gradientTransform="translate(42 16.3335) rotate(90) scale(51.3333 65.7087)">
<stop offset="0.0260417" stop-color="#FFC342"/>
<stop offset="0.572917" stop-color="#9F6E03"/>
<stop offset="0.609375" stop-color="#9F6E03"/>
<stop offset="1" stop-color="#FF8717"/>
</radialGradient>
<radialGradient id="paint1_radial_1054_5157" cx="0" cy="0" r="1" gradientUnits="userSpaceOnUse" gradientTransform="translate(42 16.3335) rotate(90) scale(51.3333 65.7087)">
<stop offset="0.0260417" stop-color="#FFC342"/>
<stop offset="0.572917" stop-color="#9F6E03"/>
<stop offset="0.609375" stop-color="#9F6E03"/>
<stop offset="1" stop-color="#FF8717"/>
</radialGradient>
<radialGradient id="paint2_radial_1054_5157" cx="0" cy="0" r="1" gradientUnits="userSpaceOnUse" gradientTransform="translate(42 32.1002) rotate(-90) scale(23.4667 54.8242)">
<stop offset="0.313257" stop-color="#FFE8BD"/>
<stop offset="1" stop-color="#543600" stop-opacity="0.6"/>
</radialGradient>
</defs>
</svg>
