<svg width="56" height="56" viewBox="0 0 56 56" fill="none" xmlns="http://www.w3.org/2000/svg">
<path fill-rule="evenodd" clip-rule="evenodd" d="M12.0628 14.3172C5.40074 17.0253 2.19541 24.6213 4.90348 31.2833C6.69455 35.6894 10.2235 39.2343 14.5178 41.9875C29.8338 42.0986 40.2243 37.2251 47.6336 29.334C48.9963 24.0728 49.1725 18.7318 47.2735 14.0602C44.5654 7.39818 36.9695 4.19285 30.3074 6.90092C26.6635 8.38215 24.0537 11.3257 22.8801 14.779C19.6301 13.1239 15.7067 12.836 12.0628 14.3172ZM41.089 17.1852C41.089 20.0335 38.7801 22.3425 35.9318 22.3425C33.0835 22.3425 30.7746 20.0335 30.7746 17.1852C30.7746 14.337 33.0835 12.028 35.9318 12.028C38.7801 12.028 41.089 14.337 41.089 17.1852Z" fill="url(#paint0_radial_1304_2575)"/>
<path d="M36.9542 49.4022C41.2042 44.3938 45.6614 36.9475 47.6336 29.334C40.2243 37.2251 29.8338 42.0986 14.5178 41.9875C21.3652 46.3776 30.1584 48.755 36.9542 49.4022Z" fill="url(#paint1_radial_1304_2575)"/>
<path fill-rule="evenodd" clip-rule="evenodd" d="M47.6335 29.3342C47.5375 29.7049 47.4356 30.0752 47.3281 30.4448C45.2279 37.667 40.9973 44.6378 36.9542 49.4024C30.4482 48.7828 22.1117 46.5775 15.4043 42.5385C15.1054 42.3586 14.8098 42.175 14.5177 41.9877C10.2235 39.2345 6.6945 35.6896 4.90343 31.2835C2.19536 24.6214 5.40069 17.0255 12.0627 14.3174C15.3383 12.9859 18.8398 13.084 21.8749 14.3196C22.2162 14.4585 22.5516 14.6119 22.8801 14.7791C22.9987 14.4301 23.132 14.0863 23.2795 13.7486C24.5918 10.7458 27.0317 8.23263 30.3074 6.90111C36.9694 4.19304 44.5654 7.39837 47.2734 14.0604C49.1724 18.732 48.9963 24.073 47.6335 29.3342ZM22.2771 13.2957C23.701 10.0462 26.3452 7.3243 29.8931 5.88208C37.118 2.94525 45.3556 6.42135 48.2925 13.6462C50.311 18.6119 50.0963 24.2131 48.6984 29.61C46.676 37.4176 42.1252 45.0088 37.7929 50.1141L37.4214 50.5519L36.8499 50.4975C29.9254 49.838 20.9531 47.4203 13.924 42.9137C9.51088 40.0843 5.78849 36.3819 3.8844 31.6977C0.947565 24.4729 4.42367 16.2352 11.6485 13.2984C15.1965 11.8562 18.9898 11.9612 22.2771 13.2957ZM35.9317 21.2426C38.1725 21.2426 39.989 19.4262 39.989 17.1854C39.989 14.9447 38.1725 13.1282 35.9317 13.1282C33.691 13.1282 31.8745 14.9447 31.8745 17.1854C31.8745 19.4262 33.691 21.2426 35.9317 21.2426ZM35.9317 22.3426C38.78 22.3426 41.089 20.0337 41.089 17.1854C41.089 14.3372 38.78 12.0282 35.9317 12.0282C33.0835 12.0282 30.7745 14.3372 30.7745 17.1854C30.7745 20.0337 33.0835 22.3426 35.9317 22.3426Z" fill="url(#paint2_radial_1304_2575)"/>
<defs>
<radialGradient id="paint0_radial_1304_2575" cx="0" cy="0" r="1" gradientUnits="userSpaceOnUse" gradientTransform="translate(16.32 5.93896) rotate(73.033) scale(56.5907 73.7478)">
<stop offset="0.0260417" stop-color="#FFC342"/>
<stop offset="0.572917" stop-color="#9F6E03"/>
<stop offset="0.609375" stop-color="#9F6E03"/>
<stop offset="1" stop-color="#FF8717"/>
</radialGradient>
<radialGradient id="paint1_radial_1304_2575" cx="0" cy="0" r="1" gradientUnits="userSpaceOnUse" gradientTransform="translate(25.781 2.06111) rotate(87.9943) scale(54.1399 70.554)">
<stop offset="0.0260417" stop-color="#FFC342"/>
<stop offset="0.572917" stop-color="#9F6E03"/>
<stop offset="0.609375" stop-color="#9F6E03"/>
<stop offset="1" stop-color="#FF8717"/>
</radialGradient>
<radialGradient id="paint2_radial_1304_2575" cx="0" cy="0" r="1" gradientUnits="userSpaceOnUse" gradientTransform="translate(34.9916 2.91349) rotate(96.2109) scale(56.1646 128.678)">
<stop offset="0.313257" stop-color="#FFE8BD"/>
<stop offset="1" stop-color="#3B2909"/>
</radialGradient>
</defs>
</svg>
