<svg width="42" height="43" viewBox="0 0 42 43" fill="none" xmlns="http://www.w3.org/2000/svg">
<g filter="url(#filter0_d_725_8804)">
<path d="M36.2798 13.3334C33.708 7.44702 27.8344 3.33337 21 3.33337C14.1656 3.33337 8.29201 7.44702 5.72015 13.3334" stroke="white" stroke-width="2" stroke-linecap="round" stroke-linejoin="round" shape-rendering="crispEdges"/>
<path d="M36.2798 13.3334C33.708 7.44702 27.8344 3.33337 21 3.33337C14.1656 3.33337 8.29201 7.44702 5.72015 13.3334" stroke="url(#paint0_linear_725_8804)" stroke-width="2" stroke-linecap="round" stroke-linejoin="round" shape-rendering="crispEdges"/>
</g>
<g filter="url(#filter1_d_725_8804)">
<path d="M21 11.6666C17.9144 14.6915 16 18.9067 16 23.569C16 23.986 16.0153 24.3995 16.0454 24.809C19.1044 27.8305 21 32.0272 21 36.6666C21 32.0272 22.8956 27.8305 25.9546 24.809C25.9847 24.3995 26 23.986 26 23.569C26 18.9067 24.0856 14.6915 21 11.6666Z" stroke="white" stroke-width="2" stroke-linecap="round" stroke-linejoin="round" shape-rendering="crispEdges"/>
<path d="M21 11.6666C17.9144 14.6915 16 18.9067 16 23.569C16 23.986 16.0153 24.3995 16.0454 24.809C19.1044 27.8305 21 32.0272 21 36.6666C21 32.0272 22.8956 27.8305 25.9546 24.809C25.9847 24.3995 26 23.986 26 23.569C26 18.9067 24.0856 14.6915 21 11.6666Z" stroke="url(#paint1_linear_725_8804)" stroke-width="2" stroke-linecap="round" stroke-linejoin="round" shape-rendering="crispEdges"/>
</g>
<g filter="url(#filter2_d_725_8804)">
<path d="M4.33331 20C4.33331 29.2048 11.7952 36.6667 21 36.6667C21 32.0273 19.1044 27.8306 16.0454 24.809C13.0353 21.8356 8.89865 20 4.33331 20Z" stroke="white" stroke-width="2" stroke-linecap="round" stroke-linejoin="round" shape-rendering="crispEdges"/>
<path d="M4.33331 20C4.33331 29.2048 11.7952 36.6667 21 36.6667C21 32.0273 19.1044 27.8306 16.0454 24.809C13.0353 21.8356 8.89865 20 4.33331 20Z" stroke="url(#paint2_linear_725_8804)" stroke-width="2" stroke-linecap="round" stroke-linejoin="round" shape-rendering="crispEdges"/>
</g>
<g filter="url(#filter3_d_725_8804)">
<path d="M37.6667 20C37.6667 29.2048 30.2048 36.6667 21 36.6667C21 32.0273 22.8956 27.8306 25.9546 24.809C28.9647 21.8356 33.1013 20 37.6667 20Z" stroke="white" stroke-width="2" stroke-linecap="round" stroke-linejoin="round" shape-rendering="crispEdges"/>
<path d="M37.6667 20C37.6667 29.2048 30.2048 36.6667 21 36.6667C21 32.0273 22.8956 27.8306 25.9546 24.809C28.9647 21.8356 33.1013 20 37.6667 20Z" stroke="url(#paint3_linear_725_8804)" stroke-width="2" stroke-linecap="round" stroke-linejoin="round" shape-rendering="crispEdges"/>
</g>
<defs>
<filter id="filter0_d_725_8804" x="1.71991" y="1.33337" width="38.5602" height="18.0002" filterUnits="userSpaceOnUse" color-interpolation-filters="sRGB">
<feFlood flood-opacity="0" result="BackgroundImageFix"/>
<feColorMatrix in="SourceAlpha" type="matrix" values="0 0 0 0 0 0 0 0 0 0 0 0 0 0 0 0 0 0 127 0" result="hardAlpha"/>
<feOffset dy="2"/>
<feGaussianBlur stdDeviation="1.5"/>
<feComposite in2="hardAlpha" operator="out"/>
<feColorMatrix type="matrix" values="0 0 0 0 0 0 0 0 0 0 0 0 0 0 0 0 0 0 0.32 0"/>
<feBlend mode="normal" in2="BackgroundImageFix" result="effect1_dropShadow_725_8804"/>
<feBlend mode="normal" in="SourceGraphic" in2="effect1_dropShadow_725_8804" result="shape"/>
</filter>
<filter id="filter1_d_725_8804" x="12" y="9.66663" width="18" height="33" filterUnits="userSpaceOnUse" color-interpolation-filters="sRGB">
<feFlood flood-opacity="0" result="BackgroundImageFix"/>
<feColorMatrix in="SourceAlpha" type="matrix" values="0 0 0 0 0 0 0 0 0 0 0 0 0 0 0 0 0 0 127 0" result="hardAlpha"/>
<feOffset dy="2"/>
<feGaussianBlur stdDeviation="1.5"/>
<feComposite in2="hardAlpha" operator="out"/>
<feColorMatrix type="matrix" values="0 0 0 0 0 0 0 0 0 0 0 0 0 0 0 0 0 0 0.32 0"/>
<feBlend mode="normal" in2="BackgroundImageFix" result="effect1_dropShadow_725_8804"/>
<feBlend mode="normal" in="SourceGraphic" in2="effect1_dropShadow_725_8804" result="shape"/>
</filter>
<filter id="filter2_d_725_8804" x="0.333313" y="18" width="24.6667" height="24.6666" filterUnits="userSpaceOnUse" color-interpolation-filters="sRGB">
<feFlood flood-opacity="0" result="BackgroundImageFix"/>
<feColorMatrix in="SourceAlpha" type="matrix" values="0 0 0 0 0 0 0 0 0 0 0 0 0 0 0 0 0 0 127 0" result="hardAlpha"/>
<feOffset dy="2"/>
<feGaussianBlur stdDeviation="1.5"/>
<feComposite in2="hardAlpha" operator="out"/>
<feColorMatrix type="matrix" values="0 0 0 0 0 0 0 0 0 0 0 0 0 0 0 0 0 0 0.32 0"/>
<feBlend mode="normal" in2="BackgroundImageFix" result="effect1_dropShadow_725_8804"/>
<feBlend mode="normal" in="SourceGraphic" in2="effect1_dropShadow_725_8804" result="shape"/>
</filter>
<filter id="filter3_d_725_8804" x="17" y="18" width="24.6667" height="24.6666" filterUnits="userSpaceOnUse" color-interpolation-filters="sRGB">
<feFlood flood-opacity="0" result="BackgroundImageFix"/>
<feColorMatrix in="SourceAlpha" type="matrix" values="0 0 0 0 0 0 0 0 0 0 0 0 0 0 0 0 0 0 127 0" result="hardAlpha"/>
<feOffset dy="2"/>
<feGaussianBlur stdDeviation="1.5"/>
<feComposite in2="hardAlpha" operator="out"/>
<feColorMatrix type="matrix" values="0 0 0 0 0 0 0 0 0 0 0 0 0 0 0 0 0 0 0.32 0"/>
<feBlend mode="normal" in2="BackgroundImageFix" result="effect1_dropShadow_725_8804"/>
<feBlend mode="normal" in="SourceGraphic" in2="effect1_dropShadow_725_8804" result="shape"/>
</filter>
<linearGradient id="paint0_linear_725_8804" x1="21" y1="10.9762" x2="21" y2="1.83337" gradientUnits="userSpaceOnUse">
<stop offset="0.276042" stop-color="#D7E8FF"/>
<stop offset="0.447917" stop-color="#6C809C" stop-opacity="0.6"/>
<stop offset="0.645833" stop-color="#D7E8FF" stop-opacity="0.6"/>
</linearGradient>
<linearGradient id="paint1_linear_725_8804" x1="21" y1="30.7738" x2="21" y2="7.91663" gradientUnits="userSpaceOnUse">
<stop offset="0.276042" stop-color="#D7E8FF"/>
<stop offset="0.447917" stop-color="#6C809C" stop-opacity="0.6"/>
<stop offset="0.645833" stop-color="#D7E8FF" stop-opacity="0.6"/>
</linearGradient>
<linearGradient id="paint2_linear_725_8804" x1="12.6666" y1="32.7381" x2="12.6666" y2="17.5" gradientUnits="userSpaceOnUse">
<stop offset="0.276042" stop-color="#D7E8FF"/>
<stop offset="0.447917" stop-color="#6C809C" stop-opacity="0.6"/>
<stop offset="0.645833" stop-color="#D7E8FF" stop-opacity="0.6"/>
</linearGradient>
<linearGradient id="paint3_linear_725_8804" x1="29.3333" y1="32.7381" x2="29.3333" y2="17.5" gradientUnits="userSpaceOnUse">
<stop offset="0.276042" stop-color="#D7E8FF"/>
<stop offset="0.447917" stop-color="#6C809C" stop-opacity="0.6"/>
<stop offset="0.645833" stop-color="#D7E8FF" stop-opacity="0.6"/>
</linearGradient>
</defs>
</svg>
