<svg width="41" height="42" viewBox="0 0 41 42" fill="none" xmlns="http://www.w3.org/2000/svg">
<g filter="url(#filter0_d_725_8792)">
<path d="M14.6667 15.8333C14.6667 13.5321 16.5322 11.6666 18.8333 11.6666C21.1345 11.6666 23 13.5321 23 15.8333C23 18.1345 21.1345 20 18.8333 20V22.5M18.8333 27.5V28.3333M32.1667 17.5L36.3333 25L32.1667 25.8333V30.8333H29.6667L24.6667 30L23.8333 35.8333H11.3333L9.66667 27.1825C7.10064 24.7523 5.5 21.313 5.5 17.5C5.5 10.1361 11.4695 4.16663 18.8333 4.16663C26.1972 4.16663 32.1667 10.1361 32.1667 17.5Z" stroke="white" stroke-width="2" stroke-linecap="round" stroke-linejoin="round" shape-rendering="crispEdges"/>
<path d="M14.6667 15.8333C14.6667 13.5321 16.5322 11.6666 18.8333 11.6666C21.1345 11.6666 23 13.5321 23 15.8333C23 18.1345 21.1345 20 18.8333 20V22.5M18.8333 27.5V28.3333M32.1667 17.5L36.3333 25L32.1667 25.8333V30.8333H29.6667L24.6667 30L23.8333 35.8333H11.3333L9.66667 27.1825C7.10064 24.7523 5.5 21.313 5.5 17.5C5.5 10.1361 11.4695 4.16663 18.8333 4.16663C26.1972 4.16663 32.1667 10.1361 32.1667 17.5Z" stroke="url(#paint0_linear_725_8792)" stroke-width="2" stroke-linecap="round" stroke-linejoin="round" shape-rendering="crispEdges"/>
</g>
<defs>
<filter id="filter0_d_725_8792" x="1.5" y="2.16663" width="38.8334" height="39.6666" filterUnits="userSpaceOnUse" color-interpolation-filters="sRGB">
<feFlood flood-opacity="0" result="BackgroundImageFix"/>
<feColorMatrix in="SourceAlpha" type="matrix" values="0 0 0 0 0 0 0 0 0 0 0 0 0 0 0 0 0 0 127 0" result="hardAlpha"/>
<feOffset dy="2"/>
<feGaussianBlur stdDeviation="1.5"/>
<feComposite in2="hardAlpha" operator="out"/>
<feColorMatrix type="matrix" values="0 0 0 0 0 0 0 0 0 0 0 0 0 0 0 0 0 0 0.32 0"/>
<feBlend mode="normal" in2="BackgroundImageFix" result="effect1_dropShadow_725_8792"/>
<feBlend mode="normal" in="SourceGraphic" in2="effect1_dropShadow_725_8792" result="shape"/>
</filter>
<linearGradient id="paint0_linear_725_8792" x1="20.9167" y1="28.369" x2="20.9167" y2="-0.583374" gradientUnits="userSpaceOnUse">
<stop offset="0.276042" stop-color="#D7E8FF"/>
<stop offset="0.447917" stop-color="#6C809C" stop-opacity="0.6"/>
<stop offset="0.645833" stop-color="#D7E8FF" stop-opacity="0.6"/>
</linearGradient>
</defs>
</svg>
