<svg width="41" height="43" viewBox="0 0 41 43" fill="none" xmlns="http://www.w3.org/2000/svg">
<g filter="url(#filter0_d_1162_6867)">
<path d="M18.3333 28.3334L20.7816 25.8334L23.3333 28.2469M28.2983 36.6667C28.2983 36.6667 28.3187 33.7744 28.2983 33.1334C28.7562 32.8881 29.2007 32.6209 29.6303 32.3334C30.4938 31.7554 31.2972 31.0946 32.0292 30.3626C34.8945 27.4973 36.6667 23.5389 36.6667 19.1667C36.6667 10.4222 29.5778 3.33337 20.8333 3.33337C12.0888 3.33337 5 10.4222 5 19.1667C5 23.5389 6.77221 27.4973 9.6375 30.3626C10.3695 31.0946 11.1729 31.7554 12.0364 32.3334C12.466 32.6209 12.8789 32.8881 13.3369 33.1334C13.3369 33.3402 13.3369 34.5179 13.3369 36.6667C23.3111 36.6667 28.2983 36.6667 28.2983 36.6667ZM15 22.5C16.8409 22.5 18.3333 21.0077 18.3333 19.1667L15 15.8334C13.1591 15.8334 11.6667 17.3258 11.6667 19.1667C11.6667 21.0077 13.1591 22.5 15 22.5ZM26.6667 22.5C24.8258 22.5 23.3333 21.0077 23.3333 19.1667L26.6667 15.8334C28.5076 15.8334 30 17.3258 30 19.1667C30 21.0077 28.5076 22.5 26.6667 22.5Z" stroke="white" stroke-width="2" stroke-linecap="round" stroke-linejoin="round" shape-rendering="crispEdges"/>
<path d="M18.3333 28.3334L20.7816 25.8334L23.3333 28.2469M28.2983 36.6667C28.2983 36.6667 28.3187 33.7744 28.2983 33.1334C28.7562 32.8881 29.2007 32.6209 29.6303 32.3334C30.4938 31.7554 31.2972 31.0946 32.0292 30.3626C34.8945 27.4973 36.6667 23.5389 36.6667 19.1667C36.6667 10.4222 29.5778 3.33337 20.8333 3.33337C12.0888 3.33337 5 10.4222 5 19.1667C5 23.5389 6.77221 27.4973 9.6375 30.3626C10.3695 31.0946 11.1729 31.7554 12.0364 32.3334C12.466 32.6209 12.8789 32.8881 13.3369 33.1334C13.3369 33.3402 13.3369 34.5179 13.3369 36.6667C23.3111 36.6667 28.2983 36.6667 28.2983 36.6667ZM15 22.5C16.8409 22.5 18.3333 21.0077 18.3333 19.1667L15 15.8334C13.1591 15.8334 11.6667 17.3258 11.6667 19.1667C11.6667 21.0077 13.1591 22.5 15 22.5ZM26.6667 22.5C24.8258 22.5 23.3333 21.0077 23.3333 19.1667L26.6667 15.8334C28.5076 15.8334 30 17.3258 30 19.1667C30 21.0077 28.5076 22.5 26.6667 22.5Z" stroke="url(#paint0_linear_1162_6867)" stroke-width="2" stroke-linecap="round" stroke-linejoin="round" shape-rendering="crispEdges"/>
</g>
<defs>
<filter id="filter0_d_1162_6867" x="1" y="1.33337" width="39.6666" height="41.3334" filterUnits="userSpaceOnUse" color-interpolation-filters="sRGB">
<feFlood flood-opacity="0" result="BackgroundImageFix"/>
<feColorMatrix in="SourceAlpha" type="matrix" values="0 0 0 0 0 0 0 0 0 0 0 0 0 0 0 0 0 0 127 0" result="hardAlpha"/>
<feOffset dy="2"/>
<feGaussianBlur stdDeviation="1.5"/>
<feComposite in2="hardAlpha" operator="out"/>
<feColorMatrix type="matrix" values="0 0 0 0 0 0 0 0 0 0 0 0 0 0 0 0 0 0 0.32 0"/>
<feBlend mode="normal" in2="BackgroundImageFix" result="effect1_dropShadow_1162_6867"/>
<feBlend mode="normal" in="SourceGraphic" in2="effect1_dropShadow_1162_6867" result="shape"/>
</filter>
<linearGradient id="paint0_linear_1162_6867" x1="20.8333" y1="28.8095" x2="20.8333" y2="-1.66662" gradientUnits="userSpaceOnUse">
<stop offset="0.276042" stop-color="#D7E8FF"/>
<stop offset="0.447917" stop-color="#6C809C" stop-opacity="0.6"/>
<stop offset="0.645833" stop-color="#D7E8FF" stop-opacity="0.6"/>
</linearGradient>
</defs>
</svg>
