<svg width="42" height="43" viewBox="0 0 42 43" fill="none" xmlns="http://www.w3.org/2000/svg">
<g filter="url(#filter0_d_725_8795)">
<path fill-rule="evenodd" clip-rule="evenodd" d="M35.4729 3.32369C35.5162 2.77311 35.9977 2.3619 36.5483 2.40523C37.774 2.5017 38.5815 3.27587 38.8657 4.22989C39.095 4.99956 38.9832 5.87485 38.5436 6.58111L38.6093 35.1403L36.881 36.851H7.37083C6.64881 37.2779 5.76292 37.3671 4.9945 37.1131C4.04931 36.8008 3.29941 35.9707 3.23926 34.7427C3.21224 34.1911 3.63751 33.722 4.18913 33.695C4.74076 33.668 5.20984 34.0932 5.23686 34.6449C5.24706 34.8531 5.30717 34.9711 5.36089 35.0398C5.4178 35.1126 5.50284 35.1748 5.622 35.2141C5.88292 35.3003 6.21677 35.2471 6.4424 35.0679C6.54682 34.985 6.63132 34.8732 6.68159 34.7213C6.73226 34.5681 6.76088 34.3341 6.68993 33.9952C5.27475 27.297 7.08403 20.7419 8.1874 18.2449L8.62776 17.2483L9.583 17.7723C10.9564 18.5256 14.2456 19.3396 17.1351 17.1829L13.4049 13.4143L11.9406 14.0495L9.19389 7.71697L15.5247 10.6228L14.8693 12.0507L18.5721 15.7916C20.829 12.9637 20.1113 9.64179 19.3975 8.24401L18.9021 7.27368L19.9112 6.86301C22.4398 5.83401 29.0455 4.21951 35.6989 5.83226C36.0356 5.91323 36.2703 5.89155 36.425 5.84543C36.5783 5.79969 36.6925 5.71854 36.7785 5.61662C36.9644 5.3964 37.0274 5.06426 36.949 4.80089C36.9131 4.68061 36.8536 4.59378 36.7825 4.53473C36.7153 4.479 36.5992 4.41543 36.3913 4.39907C35.8408 4.35573 35.4296 3.87427 35.4729 3.32369ZM18.5538 18.6162C15.3791 21.1458 11.7848 20.7628 9.64955 19.9849C8.67795 22.7108 7.49351 28.1244 8.64688 33.5825L8.64719 33.584C8.74171 34.0346 8.75504 34.46 8.69755 34.851H34.397C33.8878 34.2517 33.2758 33.5514 32.633 32.8291C31.1941 31.2123 29.6229 29.5101 28.7292 28.6066L20.8917 20.9782L18.5538 18.6162ZM36.6037 32.7169L36.5465 7.85789C36.1398 7.91236 35.6973 7.88906 35.23 7.77652L35.2285 7.77616C29.8069 6.46178 24.3607 7.4855 21.6072 8.376C22.3205 10.5301 22.5972 14.1265 19.9875 17.2217L22.3 19.558L30.1375 27.1865L30.1441 27.1931C31.0157 28.0737 32.7585 29.5788 34.4438 30.9706C35.2265 31.6171 35.9765 32.2223 36.6037 32.7169Z" fill="white"/>
<path fill-rule="evenodd" clip-rule="evenodd" d="M35.4729 3.32369C35.5162 2.77311 35.9977 2.3619 36.5483 2.40523C37.774 2.5017 38.5815 3.27587 38.8657 4.22989C39.095 4.99956 38.9832 5.87485 38.5436 6.58111L38.6093 35.1403L36.881 36.851H7.37083C6.64881 37.2779 5.76292 37.3671 4.9945 37.1131C4.04931 36.8008 3.29941 35.9707 3.23926 34.7427C3.21224 34.1911 3.63751 33.722 4.18913 33.695C4.74076 33.668 5.20984 34.0932 5.23686 34.6449C5.24706 34.8531 5.30717 34.9711 5.36089 35.0398C5.4178 35.1126 5.50284 35.1748 5.622 35.2141C5.88292 35.3003 6.21677 35.2471 6.4424 35.0679C6.54682 34.985 6.63132 34.8732 6.68159 34.7213C6.73226 34.5681 6.76088 34.3341 6.68993 33.9952C5.27475 27.297 7.08403 20.7419 8.1874 18.2449L8.62776 17.2483L9.583 17.7723C10.9564 18.5256 14.2456 19.3396 17.1351 17.1829L13.4049 13.4143L11.9406 14.0495L9.19389 7.71697L15.5247 10.6228L14.8693 12.0507L18.5721 15.7916C20.829 12.9637 20.1113 9.64179 19.3975 8.24401L18.9021 7.27368L19.9112 6.86301C22.4398 5.83401 29.0455 4.21951 35.6989 5.83226C36.0356 5.91323 36.2703 5.89155 36.425 5.84543C36.5783 5.79969 36.6925 5.71854 36.7785 5.61662C36.9644 5.3964 37.0274 5.06426 36.949 4.80089C36.9131 4.68061 36.8536 4.59378 36.7825 4.53473C36.7153 4.479 36.5992 4.41543 36.3913 4.39907C35.8408 4.35573 35.4296 3.87427 35.4729 3.32369ZM18.5538 18.6162C15.3791 21.1458 11.7848 20.7628 9.64955 19.9849C8.67795 22.7108 7.49351 28.1244 8.64688 33.5825L8.64719 33.584C8.74171 34.0346 8.75504 34.46 8.69755 34.851H34.397C33.8878 34.2517 33.2758 33.5514 32.633 32.8291C31.1941 31.2123 29.6229 29.5101 28.7292 28.6066L20.8917 20.9782L18.5538 18.6162ZM36.6037 32.7169L36.5465 7.85789C36.1398 7.91236 35.6973 7.88906 35.23 7.77652L35.2285 7.77616C29.8069 6.46178 24.3607 7.4855 21.6072 8.376C22.3205 10.5301 22.5972 14.1265 19.9875 17.2217L22.3 19.558L30.1375 27.1865L30.1441 27.1931C31.0157 28.0737 32.7585 29.5788 34.4438 30.9706C35.2265 31.6171 35.9765 32.2223 36.6037 32.7169Z" fill="url(#paint0_linear_725_8795)"/>
</g>
<defs>
<filter id="filter0_d_725_8795" x="0.238037" y="1.4021" width="41.7438" height="40.8523" filterUnits="userSpaceOnUse" color-interpolation-filters="sRGB">
<feFlood flood-opacity="0" result="BackgroundImageFix"/>
<feColorMatrix in="SourceAlpha" type="matrix" values="0 0 0 0 0 0 0 0 0 0 0 0 0 0 0 0 0 0 127 0" result="hardAlpha"/>
<feOffset dy="2"/>
<feGaussianBlur stdDeviation="1.5"/>
<feComposite in2="hardAlpha" operator="out"/>
<feColorMatrix type="matrix" values="0 0 0 0 0 0 0 0 0 0 0 0 0 0 0 0 0 0 0.32 0"/>
<feBlend mode="normal" in2="BackgroundImageFix" result="effect1_dropShadow_725_8795"/>
<feBlend mode="normal" in="SourceGraphic" in2="effect1_dropShadow_725_8795" result="shape"/>
</filter>
<linearGradient id="paint0_linear_725_8795" x1="25.66" y1="10.441" x2="18.9776" y2="44.6767" gradientUnits="userSpaceOnUse">
<stop offset="0.276042" stop-color="#D7E8FF"/>
<stop offset="0.447917" stop-color="#6C809C" stop-opacity="0.6"/>
<stop offset="0.645833" stop-color="#D7E8FF" stop-opacity="0.6"/>
</linearGradient>
</defs>
</svg>
