<svg width="40" height="43" viewBox="0 0 40 43" fill="none" xmlns="http://www.w3.org/2000/svg">
<g filter="url(#filter0_d_725_8798)">
<path d="M9.38594 36.6667L12.1892 29.7377C8.35917 27.1612 5.83331 22.7439 5.83331 17.7273C5.83331 9.77776 12.1759 3.33337 20 3.33337C27.824 3.33337 34.1666 9.77776 34.1666 17.7273C34.1666 22.7439 31.6408 27.1612 27.8108 29.7377L30.614 36.6667H9.38594Z" stroke="white" stroke-width="2" stroke-linejoin="round" shape-rendering="crispEdges"/>
<path d="M9.38594 36.6667L12.1892 29.7377C8.35917 27.1612 5.83331 22.7439 5.83331 17.7273C5.83331 9.77776 12.1759 3.33337 20 3.33337C27.824 3.33337 34.1666 9.77776 34.1666 17.7273C34.1666 22.7439 31.6408 27.1612 27.8108 29.7377L30.614 36.6667H9.38594Z" stroke="url(#paint0_linear_725_8798)" stroke-width="2" stroke-linejoin="round" shape-rendering="crispEdges"/>
</g>
<g filter="url(#filter1_d_725_8798)">
<path d="M16.6667 31.6666V36.6666" stroke="white" stroke-width="2" stroke-linecap="round" stroke-linejoin="round" shape-rendering="crispEdges"/>
<path d="M16.6667 31.6666V36.6666" stroke="url(#paint1_linear_725_8798)" stroke-width="2" stroke-linecap="round" stroke-linejoin="round" shape-rendering="crispEdges"/>
</g>
<g filter="url(#filter2_d_725_8798)">
<path d="M23.3333 31.6666V36.6666" stroke="white" stroke-width="2" stroke-linecap="round" stroke-linejoin="round" shape-rendering="crispEdges"/>
<path d="M23.3333 31.6666V36.6666" stroke="url(#paint2_linear_725_8798)" stroke-width="2" stroke-linecap="round" stroke-linejoin="round" shape-rendering="crispEdges"/>
</g>
<g filter="url(#filter3_d_725_8798)">
<path d="M14.1667 19.1666C15.5474 19.1666 16.6667 18.0473 16.6667 16.6666C16.6667 15.2859 15.5474 14.1666 14.1667 14.1666C12.786 14.1666 11.6667 15.2859 11.6667 16.6666C11.6667 18.0473 12.786 19.1666 14.1667 19.1666Z" stroke="white" stroke-width="2" stroke-linejoin="round" shape-rendering="crispEdges"/>
<path d="M14.1667 19.1666C15.5474 19.1666 16.6667 18.0473 16.6667 16.6666C16.6667 15.2859 15.5474 14.1666 14.1667 14.1666C12.786 14.1666 11.6667 15.2859 11.6667 16.6666C11.6667 18.0473 12.786 19.1666 14.1667 19.1666Z" stroke="url(#paint3_linear_725_8798)" stroke-width="2" stroke-linejoin="round" shape-rendering="crispEdges"/>
</g>
<g filter="url(#filter4_d_725_8798)">
<path d="M25.8333 19.1666C27.214 19.1666 28.3333 18.0473 28.3333 16.6666C28.3333 15.2859 27.214 14.1666 25.8333 14.1666C24.4526 14.1666 23.3333 15.2859 23.3333 16.6666C23.3333 18.0473 24.4526 19.1666 25.8333 19.1666Z" stroke="white" stroke-width="2" stroke-linejoin="round" shape-rendering="crispEdges"/>
<path d="M25.8333 19.1666C27.214 19.1666 28.3333 18.0473 28.3333 16.6666C28.3333 15.2859 27.214 14.1666 25.8333 14.1666C24.4526 14.1666 23.3333 15.2859 23.3333 16.6666C23.3333 18.0473 24.4526 19.1666 25.8333 19.1666Z" stroke="url(#paint4_linear_725_8798)" stroke-width="2" stroke-linejoin="round" shape-rendering="crispEdges"/>
</g>
<defs>
<filter id="filter0_d_725_8798" x="1.83331" y="1.33337" width="36.3333" height="41.3334" filterUnits="userSpaceOnUse" color-interpolation-filters="sRGB">
<feFlood flood-opacity="0" result="BackgroundImageFix"/>
<feColorMatrix in="SourceAlpha" type="matrix" values="0 0 0 0 0 0 0 0 0 0 0 0 0 0 0 0 0 0 127 0" result="hardAlpha"/>
<feOffset dy="2"/>
<feGaussianBlur stdDeviation="1.5"/>
<feComposite in2="hardAlpha" operator="out"/>
<feColorMatrix type="matrix" values="0 0 0 0 0 0 0 0 0 0 0 0 0 0 0 0 0 0 0.32 0"/>
<feBlend mode="normal" in2="BackgroundImageFix" result="effect1_dropShadow_725_8798"/>
<feBlend mode="normal" in="SourceGraphic" in2="effect1_dropShadow_725_8798" result="shape"/>
</filter>
<filter id="filter1_d_725_8798" x="12.6667" y="29.6666" width="8" height="13" filterUnits="userSpaceOnUse" color-interpolation-filters="sRGB">
<feFlood flood-opacity="0" result="BackgroundImageFix"/>
<feColorMatrix in="SourceAlpha" type="matrix" values="0 0 0 0 0 0 0 0 0 0 0 0 0 0 0 0 0 0 127 0" result="hardAlpha"/>
<feOffset dy="2"/>
<feGaussianBlur stdDeviation="1.5"/>
<feComposite in2="hardAlpha" operator="out"/>
<feColorMatrix type="matrix" values="0 0 0 0 0 0 0 0 0 0 0 0 0 0 0 0 0 0 0.32 0"/>
<feBlend mode="normal" in2="BackgroundImageFix" result="effect1_dropShadow_725_8798"/>
<feBlend mode="normal" in="SourceGraphic" in2="effect1_dropShadow_725_8798" result="shape"/>
</filter>
<filter id="filter2_d_725_8798" x="19.3333" y="29.6666" width="8" height="13" filterUnits="userSpaceOnUse" color-interpolation-filters="sRGB">
<feFlood flood-opacity="0" result="BackgroundImageFix"/>
<feColorMatrix in="SourceAlpha" type="matrix" values="0 0 0 0 0 0 0 0 0 0 0 0 0 0 0 0 0 0 127 0" result="hardAlpha"/>
<feOffset dy="2"/>
<feGaussianBlur stdDeviation="1.5"/>
<feComposite in2="hardAlpha" operator="out"/>
<feColorMatrix type="matrix" values="0 0 0 0 0 0 0 0 0 0 0 0 0 0 0 0 0 0 0.32 0"/>
<feBlend mode="normal" in2="BackgroundImageFix" result="effect1_dropShadow_725_8798"/>
<feBlend mode="normal" in="SourceGraphic" in2="effect1_dropShadow_725_8798" result="shape"/>
</filter>
<filter id="filter3_d_725_8798" x="7.66669" y="12.1666" width="13" height="13" filterUnits="userSpaceOnUse" color-interpolation-filters="sRGB">
<feFlood flood-opacity="0" result="BackgroundImageFix"/>
<feColorMatrix in="SourceAlpha" type="matrix" values="0 0 0 0 0 0 0 0 0 0 0 0 0 0 0 0 0 0 127 0" result="hardAlpha"/>
<feOffset dy="2"/>
<feGaussianBlur stdDeviation="1.5"/>
<feComposite in2="hardAlpha" operator="out"/>
<feColorMatrix type="matrix" values="0 0 0 0 0 0 0 0 0 0 0 0 0 0 0 0 0 0 0.32 0"/>
<feBlend mode="normal" in2="BackgroundImageFix" result="effect1_dropShadow_725_8798"/>
<feBlend mode="normal" in="SourceGraphic" in2="effect1_dropShadow_725_8798" result="shape"/>
</filter>
<filter id="filter4_d_725_8798" x="19.3333" y="12.1666" width="13" height="13" filterUnits="userSpaceOnUse" color-interpolation-filters="sRGB">
<feFlood flood-opacity="0" result="BackgroundImageFix"/>
<feColorMatrix in="SourceAlpha" type="matrix" values="0 0 0 0 0 0 0 0 0 0 0 0 0 0 0 0 0 0 127 0" result="hardAlpha"/>
<feOffset dy="2"/>
<feGaussianBlur stdDeviation="1.5"/>
<feComposite in2="hardAlpha" operator="out"/>
<feColorMatrix type="matrix" values="0 0 0 0 0 0 0 0 0 0 0 0 0 0 0 0 0 0 0.32 0"/>
<feBlend mode="normal" in2="BackgroundImageFix" result="effect1_dropShadow_725_8798"/>
<feBlend mode="normal" in="SourceGraphic" in2="effect1_dropShadow_725_8798" result="shape"/>
</filter>
<linearGradient id="paint0_linear_725_8798" x1="20" y1="28.8096" x2="20" y2="-1.66663" gradientUnits="userSpaceOnUse">
<stop offset="0.276042" stop-color="#D7E8FF"/>
<stop offset="0.447917" stop-color="#6C809C" stop-opacity="0.6"/>
<stop offset="0.645833" stop-color="#D7E8FF" stop-opacity="0.6"/>
</linearGradient>
<linearGradient id="paint1_linear_725_8798" x1="17.1667" y1="35.4881" x2="17.1667" y2="30.9166" gradientUnits="userSpaceOnUse">
<stop offset="0.276042" stop-color="#D7E8FF"/>
<stop offset="0.447917" stop-color="#6C809C" stop-opacity="0.6"/>
<stop offset="0.645833" stop-color="#D7E8FF" stop-opacity="0.6"/>
</linearGradient>
<linearGradient id="paint2_linear_725_8798" x1="23.8333" y1="35.4881" x2="23.8333" y2="30.9166" gradientUnits="userSpaceOnUse">
<stop offset="0.276042" stop-color="#D7E8FF"/>
<stop offset="0.447917" stop-color="#6C809C" stop-opacity="0.6"/>
<stop offset="0.645833" stop-color="#D7E8FF" stop-opacity="0.6"/>
</linearGradient>
<linearGradient id="paint3_linear_725_8798" x1="14.1667" y1="17.9881" x2="14.1667" y2="13.4166" gradientUnits="userSpaceOnUse">
<stop offset="0.276042" stop-color="#D7E8FF"/>
<stop offset="0.447917" stop-color="#6C809C" stop-opacity="0.6"/>
<stop offset="0.645833" stop-color="#D7E8FF" stop-opacity="0.6"/>
</linearGradient>
<linearGradient id="paint4_linear_725_8798" x1="25.8333" y1="17.9881" x2="25.8333" y2="13.4166" gradientUnits="userSpaceOnUse">
<stop offset="0.276042" stop-color="#D7E8FF"/>
<stop offset="0.447917" stop-color="#6C809C" stop-opacity="0.6"/>
<stop offset="0.645833" stop-color="#D7E8FF" stop-opacity="0.6"/>
</linearGradient>
</defs>
</svg>
