<svg width="41" height="40" viewBox="0 0 41 40" fill="none" xmlns="http://www.w3.org/2000/svg">
<path fill-rule="evenodd" clip-rule="evenodd" d="M18.9951 3.24505L20.7046 2.91296C21.8201 4.22122 22.5421 5.39539 22.9994 6.67033C23.5817 8.29377 23.7287 10.0653 23.7287 12.4494C23.7287 13.6927 24.0233 14.5621 24.4326 15.1013C24.8409 15.6391 25.3625 15.851 25.8505 15.8008C26.6181 15.7218 27.3842 15.0253 27.5769 13.5461L29.1902 12.8921C32.7905 15.7499 34.2076 20.0909 34.2076 23.7305C34.2076 31.301 28.0705 37.4381 20.5 37.4381C12.9295 37.4381 6.79236 31.301 6.79236 23.7305C6.79236 22.0742 7.13963 20.4428 7.60401 19.1433L9.48397 19.1339C10.22 21.1306 11.2647 22.2963 12.3213 22.8937L11.8998 23.6394L12.3213 22.8937C13.685 23.6646 15.074 23.4904 15.8903 22.8945C17.1549 21.9714 17.623 20.4365 17.1197 18.6854C16.67 17.1208 15.4425 15.3862 13.3047 13.8077L13.2046 12.2834C14.2192 11.3051 15.3753 9.92135 16.4227 8.34517C17.4666 6.77425 18.4073 5.00514 18.9951 3.24505ZM20.2277 5.58738C19.6244 6.95308 18.8764 8.26648 18.0885 9.4521C17.2286 10.746 16.2916 11.9323 15.3893 12.9079C17.2712 14.5048 18.5175 16.3085 19.0419 18.1329C19.7356 20.5466 19.126 23.0087 17.0695 24.5099C15.5586 25.6128 13.3164 25.7537 11.3371 24.6347C10.4209 24.1168 9.58966 23.3521 8.88515 22.3343C8.82572 22.7933 8.79236 23.2624 8.79236 23.7305C8.79236 30.1965 14.034 35.4381 20.5 35.4381C26.9659 35.4381 32.2076 30.1965 32.2076 23.7305C32.2076 20.9811 31.2768 17.8454 29.0773 15.4998C28.5031 16.7301 27.4789 17.6438 26.0552 17.7903C24.7783 17.9217 23.6091 17.3242 22.8396 16.3106C22.0895 15.3225 21.7287 13.9827 21.7287 12.4494C21.7287 10.1166 21.578 8.63132 21.1168 7.34556C20.9094 6.76708 20.6267 6.1964 20.2277 5.58738Z" fill="white"/>
<path fill-rule="evenodd" clip-rule="evenodd" d="M18.9951 3.24505L20.7046 2.91296C21.8201 4.22122 22.5421 5.39539 22.9994 6.67033C23.5817 8.29377 23.7287 10.0653 23.7287 12.4494C23.7287 13.6927 24.0233 14.5621 24.4326 15.1013C24.8409 15.6391 25.3625 15.851 25.8505 15.8008C26.6181 15.7218 27.3842 15.0253 27.5769 13.5461L29.1902 12.8921C32.7905 15.7499 34.2076 20.0909 34.2076 23.7305C34.2076 31.301 28.0705 37.4381 20.5 37.4381C12.9295 37.4381 6.79236 31.301 6.79236 23.7305C6.79236 22.0742 7.13963 20.4428 7.60401 19.1433L9.48397 19.1339C10.22 21.1306 11.2647 22.2963 12.3213 22.8937L11.8998 23.6394L12.3213 22.8937C13.685 23.6646 15.074 23.4904 15.8903 22.8945C17.1549 21.9714 17.623 20.4365 17.1197 18.6854C16.67 17.1208 15.4425 15.3862 13.3047 13.8077L13.2046 12.2834C14.2192 11.3051 15.3753 9.92135 16.4227 8.34517C17.4666 6.77425 18.4073 5.00514 18.9951 3.24505ZM20.2277 5.58738C19.6244 6.95308 18.8764 8.26648 18.0885 9.4521C17.2286 10.746 16.2916 11.9323 15.3893 12.9079C17.2712 14.5048 18.5175 16.3085 19.0419 18.1329C19.7356 20.5466 19.126 23.0087 17.0695 24.5099C15.5586 25.6128 13.3164 25.7537 11.3371 24.6347C10.4209 24.1168 9.58966 23.3521 8.88515 22.3343C8.82572 22.7933 8.79236 23.2624 8.79236 23.7305C8.79236 30.1965 14.034 35.4381 20.5 35.4381C26.9659 35.4381 32.2076 30.1965 32.2076 23.7305C32.2076 20.9811 31.2768 17.8454 29.0773 15.4998C28.5031 16.7301 27.4789 17.6438 26.0552 17.7903C24.7783 17.9217 23.6091 17.3242 22.8396 16.3106C22.0895 15.3225 21.7287 13.9827 21.7287 12.4494C21.7287 10.1166 21.578 8.63132 21.1168 7.34556C20.9094 6.76708 20.6267 6.1964 20.2277 5.58738Z" fill="url(#paint0_linear_725_8801)"/>
<defs>
<linearGradient id="paint0_linear_725_8801" x1="21.0025" y1="24.9042" x2="21.0025" y2="-0.626377" gradientUnits="userSpaceOnUse">
<stop offset="0.276042" stop-color="#D7E8FF"/>
<stop offset="0.447917" stop-color="#6C809C" stop-opacity="0.6"/>
<stop offset="0.645833" stop-color="#D7E8FF" stop-opacity="0.6"/>
</linearGradient>
</defs>
</svg>
