<svg width="40" height="40" viewBox="0 0 40 40" fill="none" xmlns="http://www.w3.org/2000/svg">
<path fill-rule="evenodd" clip-rule="evenodd" d="M17.776 1.85908H19.1903L23.1151 5.78397V7.19818L21.1101 9.20318L31.0024 19.0955L33.0074 17.0905H34.4216L38.3177 20.9866V22.4008L24.2292 36.4893H22.815L18.9189 32.5932V31.179L21.0492 29.0486C20.4428 27.8402 19.8541 26.7978 19.2392 25.8742L8.25055 36.8628L6.84119 36.8676L3.27121 33.3461L3.26636 31.9271L14.249 20.9444C13.3495 20.351 12.3302 19.7672 11.1517 19.1616L9.02664 21.2867H7.61243L3.68754 17.3618V15.9476L17.776 1.85908ZM12.634 17.6794C15.111 18.9941 16.9919 20.2887 18.5646 21.8738C20.1191 23.4406 21.3344 25.253 22.5357 27.5621L29.5882 20.5097L19.6959 10.6174L12.634 17.6794ZM15.8828 22.139L5.39253 32.6293L7.53863 34.7463L18.0312 24.2537C17.7468 23.915 17.4525 23.5925 17.1448 23.2824C16.7518 22.8862 16.3339 22.5073 15.8828 22.139ZM21.0402 31.8861L23.5221 34.368L36.1964 21.6937L33.7145 19.2118L21.0402 31.8861ZM20.9938 6.49108L18.4832 3.9804L5.80886 16.6547L8.31954 19.1654L20.9938 6.49108Z" fill="white"/>
<path fill-rule="evenodd" clip-rule="evenodd" d="M17.776 1.85908H19.1903L23.1151 5.78397V7.19818L21.1101 9.20318L31.0024 19.0955L33.0074 17.0905H34.4216L38.3177 20.9866V22.4008L24.2292 36.4893H22.815L18.9189 32.5932V31.179L21.0492 29.0486C20.4428 27.8402 19.8541 26.7978 19.2392 25.8742L8.25055 36.8628L6.84119 36.8676L3.27121 33.3461L3.26636 31.9271L14.249 20.9444C13.3495 20.351 12.3302 19.7672 11.1517 19.1616L9.02664 21.2867H7.61243L3.68754 17.3618V15.9476L17.776 1.85908ZM12.634 17.6794C15.111 18.9941 16.9919 20.2887 18.5646 21.8738C20.1191 23.4406 21.3344 25.253 22.5357 27.5621L29.5882 20.5097L19.6959 10.6174L12.634 17.6794ZM15.8828 22.139L5.39253 32.6293L7.53863 34.7463L18.0312 24.2537C17.7468 23.915 17.4525 23.5925 17.1448 23.2824C16.7518 22.8862 16.3339 22.5073 15.8828 22.139ZM21.0402 31.8861L23.5221 34.368L36.1964 21.6937L33.7145 19.2118L21.0402 31.8861ZM20.9938 6.49108L18.4832 3.9804L5.80886 16.6547L8.31954 19.1654L20.9938 6.49108Z" fill="url(#paint0_linear_725_8798)"/>
<defs>
<linearGradient id="paint0_linear_725_8798" x1="19.2301" y1="33.7696" x2="23.6884" y2="-0.304419" gradientUnits="userSpaceOnUse">
<stop offset="0.276042" stop-color="#D7E8FF"/>
<stop offset="0.447917" stop-color="#6C809C" stop-opacity="0.6"/>
<stop offset="0.645833" stop-color="#D7E8FF" stop-opacity="0.6"/>
</linearGradient>
</defs>
</svg>
