<svg width="43" height="43" viewBox="0 0 43 43" fill="none" xmlns="http://www.w3.org/2000/svg">
<g filter="url(#filter0_d_1340_660)">
<path fill-rule="evenodd" clip-rule="evenodd" d="M21.6428 4.07715C12.8487 4.07715 5.71973 11.2062 5.71973 20.0002C5.71973 28.7943 12.8487 35.9233 21.6428 35.9233C24.0381 35.9233 26.3091 35.3949 28.3464 34.4479C20.4607 34.3385 14.1019 27.912 14.1019 20.0003C14.1019 12.0885 20.4608 5.66196 28.3466 5.55262C26.3093 4.60562 24.0382 4.07715 21.6428 4.07715ZM3.71973 20.0002C3.71973 10.1016 11.7442 2.07715 21.6428 2.07715C26.1323 2.07715 30.2384 3.72908 33.3827 6.4569L32.4171 8.16291C31.2014 7.76613 29.9023 7.5512 28.551 7.5512C21.6756 7.5512 16.1019 13.1248 16.1019 20.0003C16.1019 26.8757 21.6756 32.4493 28.551 32.4493C29.9022 32.4493 31.2013 32.2344 32.417 31.8377L33.3825 33.5437C30.2383 36.2714 26.1322 37.9233 21.6428 37.9233C11.7442 37.9233 3.71973 29.8989 3.71973 20.0002Z" fill="white"/>
<path fill-rule="evenodd" clip-rule="evenodd" d="M21.6428 4.07715C12.8487 4.07715 5.71973 11.2062 5.71973 20.0002C5.71973 28.7943 12.8487 35.9233 21.6428 35.9233C24.0381 35.9233 26.3091 35.3949 28.3464 34.4479C20.4607 34.3385 14.1019 27.912 14.1019 20.0003C14.1019 12.0885 20.4608 5.66196 28.3466 5.55262C26.3093 4.60562 24.0382 4.07715 21.6428 4.07715ZM3.71973 20.0002C3.71973 10.1016 11.7442 2.07715 21.6428 2.07715C26.1323 2.07715 30.2384 3.72908 33.3827 6.4569L32.4171 8.16291C31.2014 7.76613 29.9023 7.5512 28.551 7.5512C21.6756 7.5512 16.1019 13.1248 16.1019 20.0003C16.1019 26.8757 21.6756 32.4493 28.551 32.4493C29.9022 32.4493 31.2013 32.2344 32.417 31.8377L33.3825 33.5437C30.2383 36.2714 26.1322 37.9233 21.6428 37.9233C11.7442 37.9233 3.71973 29.8989 3.71973 20.0002Z" fill="url(#paint0_linear_1340_660)"/>
</g>
<g filter="url(#filter1_d_1340_660)">
<path fill-rule="evenodd" clip-rule="evenodd" d="M24.8335 19.9635C25.9975 22.0747 28.2438 23.5022 30.8216 23.5022C33.3994 23.5022 35.6456 22.0747 36.8097 19.9635C35.6456 17.8523 33.3994 16.4248 30.8216 16.4248C28.2438 16.4248 25.9975 17.8523 24.8335 19.9635ZM22.8059 19.5425C24.2078 16.5224 27.2687 14.4248 30.8216 14.4248C34.3745 14.4248 37.4353 16.5224 38.8372 19.5425L39.0327 19.9635L38.8372 20.3846C37.4353 23.4046 34.3745 25.5022 30.8216 25.5022C27.2687 25.5022 24.2078 23.4046 22.8059 20.3846L22.6105 19.9635L22.8059 19.5425Z" fill="white"/>
<path fill-rule="evenodd" clip-rule="evenodd" d="M24.8335 19.9635C25.9975 22.0747 28.2438 23.5022 30.8216 23.5022C33.3994 23.5022 35.6456 22.0747 36.8097 19.9635C35.6456 17.8523 33.3994 16.4248 30.8216 16.4248C28.2438 16.4248 25.9975 17.8523 24.8335 19.9635ZM22.8059 19.5425C24.2078 16.5224 27.2687 14.4248 30.8216 14.4248C34.3745 14.4248 37.4353 16.5224 38.8372 19.5425L39.0327 19.9635L38.8372 20.3846C37.4353 23.4046 34.3745 25.5022 30.8216 25.5022C27.2687 25.5022 24.2078 23.4046 22.8059 20.3846L22.6105 19.9635L22.8059 19.5425Z" fill="url(#paint1_linear_1340_660)"/>
</g>
<path d="M32.9941 19.9635C32.9941 21.1634 32.0214 22.1361 30.8216 22.1361C29.6217 22.1361 28.649 21.1634 28.649 19.9635C28.649 18.7637 29.6217 17.791 30.8216 17.791C32.0214 17.791 32.9941 18.7637 32.9941 19.9635Z" fill="url(#paint2_linear_1340_660)"/>
<defs>
<filter id="filter0_d_1340_660" x="0.719727" y="1.07715" width="35.663" height="41.8462" filterUnits="userSpaceOnUse" color-interpolation-filters="sRGB">
<feFlood flood-opacity="0" result="BackgroundImageFix"/>
<feColorMatrix in="SourceAlpha" type="matrix" values="0 0 0 0 0 0 0 0 0 0 0 0 0 0 0 0 0 0 127 0" result="hardAlpha"/>
<feOffset dy="2"/>
<feGaussianBlur stdDeviation="1.5"/>
<feComposite in2="hardAlpha" operator="out"/>
<feColorMatrix type="matrix" values="0 0 0 0 0 0 0 0 0 0 0 0 0 0 0 0 0 0 0.32 0"/>
<feBlend mode="normal" in2="BackgroundImageFix" result="effect1_dropShadow_1340_660"/>
<feBlend mode="normal" in="SourceGraphic" in2="effect1_dropShadow_1340_660" result="shape"/>
</filter>
<filter id="filter1_d_1340_660" x="19.6105" y="13.4248" width="22.4222" height="17.0774" filterUnits="userSpaceOnUse" color-interpolation-filters="sRGB">
<feFlood flood-opacity="0" result="BackgroundImageFix"/>
<feColorMatrix in="SourceAlpha" type="matrix" values="0 0 0 0 0 0 0 0 0 0 0 0 0 0 0 0 0 0 127 0" result="hardAlpha"/>
<feOffset dy="2"/>
<feGaussianBlur stdDeviation="1.5"/>
<feComposite in2="hardAlpha" operator="out"/>
<feColorMatrix type="matrix" values="0 0 0 0 0 0 0 0 0 0 0 0 0 0 0 0 0 0 0.32 0"/>
<feBlend mode="normal" in2="BackgroundImageFix" result="effect1_dropShadow_1340_660"/>
<feBlend mode="normal" in="SourceGraphic" in2="effect1_dropShadow_1340_660" result="shape"/>
</filter>
<linearGradient id="paint0_linear_1340_660" x1="17.5758" y1="28.9453" x2="17.5758" y2="-1.99978" gradientUnits="userSpaceOnUse">
<stop offset="0.276042" stop-color="#D7E8FF"/>
<stop offset="0.447917" stop-color="#6C809C" stop-opacity="0.6"/>
<stop offset="0.645833" stop-color="#D7E8FF" stop-opacity="0.6"/>
</linearGradient>
<linearGradient id="paint1_linear_1340_660" x1="30.239" y1="22.3625" x2="30.239" y2="14.0632" gradientUnits="userSpaceOnUse">
<stop offset="0.276042" stop-color="#D7E8FF"/>
<stop offset="0.447917" stop-color="#6C809C" stop-opacity="0.6"/>
<stop offset="0.645833" stop-color="#D7E8FF" stop-opacity="0.6"/>
</linearGradient>
<linearGradient id="paint2_linear_1340_660" x1="29.7073" y1="25.7419" x2="30.5639" y2="4.29068" gradientUnits="userSpaceOnUse">
<stop offset="0.276042" stop-color="#D7E8FF"/>
<stop offset="0.447917" stop-color="#6C809C" stop-opacity="0.6"/>
<stop offset="0.645833" stop-color="#D7E8FF" stop-opacity="0.6"/>
</linearGradient>
</defs>
</svg>
