<svg width="41" height="43" viewBox="0 0 41 43" fill="none" xmlns="http://www.w3.org/2000/svg">
<g filter="url(#filter0_d_725_8792)">
<path fill-rule="evenodd" clip-rule="evenodd" d="M37.3399 3.16016L35.4565 10.38C35.4116 10.552 35.3217 10.709 35.196 10.8347L26.0306 20L29.575 23.5444L31.1077 22.0117C31.4983 21.6211 32.1314 21.6211 32.5219 22.0117C32.9125 22.4022 32.9125 23.0353 32.5219 23.4259L29.6832 26.2646L33.5862 30.1676C34.6915 29.9473 35.8828 30.2655 36.7396 31.1222C38.1026 32.4852 38.1026 34.695 36.7396 36.058C35.3766 37.4209 33.1668 37.4209 31.8039 36.058C30.9629 35.217 30.6409 34.0537 30.8376 32.9658L26.8856 29.0623L24.2894 31.6584C23.8989 32.0489 23.2657 32.0489 22.8752 31.6584C22.4847 31.2679 22.4847 30.6347 22.8752 30.2442L24.0444 29.075L20.5 25.5306L16.9557 29.075L18.1249 30.2442C18.5154 30.6347 18.5154 31.2679 18.1249 31.6584C17.7344 32.0489 17.1012 32.0489 16.7107 31.6584L14.1145 29.0623L10.1625 32.9658C10.3592 34.0537 10.0372 35.217 9.19622 36.058C7.83326 37.4209 5.62346 37.4209 4.2605 36.058C2.89754 34.695 2.89754 32.4852 4.2605 31.1222C5.12761 30.2551 6.33746 29.9397 7.45396 30.1759L11.3411 26.2888L8.47816 23.4259C8.08764 23.0353 8.08764 22.4022 8.47816 22.0117C8.86868 21.6211 9.50185 21.6211 9.89237 22.0117L11.4251 23.5444L14.9695 20L5.80414 10.8347C5.67843 10.709 5.58851 10.552 5.54363 10.38L3.66017 3.16016L10.88 5.04362C11.052 5.0885 11.209 5.17842 11.3347 5.30413L20.5 14.4695L29.6654 5.30413C29.7911 5.17842 29.9481 5.0885 30.1201 5.04362L37.3399 3.16016ZM19.5865 16.3843C19.6319 16.4696 19.6905 16.5496 19.7623 16.6214C19.8341 16.6932 19.9142 16.7518 19.9994 16.7973L23.8381 20.6359C23.8591 20.6617 23.8817 20.6866 23.9057 20.7107C23.9298 20.7347 23.9548 20.7573 23.9805 20.7784L28.1608 24.9586L25.4586 27.6608L7.41033 9.61245L6.45662 5.95661L10.1125 6.91032L19.5865 16.3843ZM24.6164 18.5858L21.9143 15.8837L30.8876 6.91032L34.5435 5.95661L33.5898 9.61245L24.6164 18.5858ZM16.3837 21.4143L12.8393 24.9586L15.5415 27.6608L19.0858 24.1164L16.3837 21.4143ZM7.78201 32.5365C7.2001 31.9545 6.25663 31.9545 5.67472 32.5365C5.0928 33.1184 5.0928 34.0618 5.67472 34.6437C6.25663 35.2257 7.2001 35.2257 7.78201 34.6437C8.36392 34.0618 8.36392 33.1184 7.78201 32.5365ZM33.2181 32.5365C32.6362 33.1184 32.6362 34.0618 33.2181 34.6437C33.8 35.2257 34.7435 35.2257 35.3254 34.6437C35.9073 34.0618 35.9073 33.1184 35.3254 32.5365C34.7435 31.9545 33.8 31.9545 33.2181 32.5365Z" fill="white"/>
<path fill-rule="evenodd" clip-rule="evenodd" d="M37.3399 3.16016L35.4565 10.38C35.4116 10.552 35.3217 10.709 35.196 10.8347L26.0306 20L29.575 23.5444L31.1077 22.0117C31.4983 21.6211 32.1314 21.6211 32.5219 22.0117C32.9125 22.4022 32.9125 23.0353 32.5219 23.4259L29.6832 26.2646L33.5862 30.1676C34.6915 29.9473 35.8828 30.2655 36.7396 31.1222C38.1026 32.4852 38.1026 34.695 36.7396 36.058C35.3766 37.4209 33.1668 37.4209 31.8039 36.058C30.9629 35.217 30.6409 34.0537 30.8376 32.9658L26.8856 29.0623L24.2894 31.6584C23.8989 32.0489 23.2657 32.0489 22.8752 31.6584C22.4847 31.2679 22.4847 30.6347 22.8752 30.2442L24.0444 29.075L20.5 25.5306L16.9557 29.075L18.1249 30.2442C18.5154 30.6347 18.5154 31.2679 18.1249 31.6584C17.7344 32.0489 17.1012 32.0489 16.7107 31.6584L14.1145 29.0623L10.1625 32.9658C10.3592 34.0537 10.0372 35.217 9.19622 36.058C7.83326 37.4209 5.62346 37.4209 4.2605 36.058C2.89754 34.695 2.89754 32.4852 4.2605 31.1222C5.12761 30.2551 6.33746 29.9397 7.45396 30.1759L11.3411 26.2888L8.47816 23.4259C8.08764 23.0353 8.08764 22.4022 8.47816 22.0117C8.86868 21.6211 9.50185 21.6211 9.89237 22.0117L11.4251 23.5444L14.9695 20L5.80414 10.8347C5.67843 10.709 5.58851 10.552 5.54363 10.38L3.66017 3.16016L10.88 5.04362C11.052 5.0885 11.209 5.17842 11.3347 5.30413L20.5 14.4695L29.6654 5.30413C29.7911 5.17842 29.9481 5.0885 30.1201 5.04362L37.3399 3.16016ZM19.5865 16.3843C19.6319 16.4696 19.6905 16.5496 19.7623 16.6214C19.8341 16.6932 19.9142 16.7518 19.9994 16.7973L23.8381 20.6359C23.8591 20.6617 23.8817 20.6866 23.9057 20.7107C23.9298 20.7347 23.9548 20.7573 23.9805 20.7784L28.1608 24.9586L25.4586 27.6608L7.41033 9.61245L6.45662 5.95661L10.1125 6.91032L19.5865 16.3843ZM24.6164 18.5858L21.9143 15.8837L30.8876 6.91032L34.5435 5.95661L33.5898 9.61245L24.6164 18.5858ZM16.3837 21.4143L12.8393 24.9586L15.5415 27.6608L19.0858 24.1164L16.3837 21.4143ZM7.78201 32.5365C7.2001 31.9545 6.25663 31.9545 5.67472 32.5365C5.0928 33.1184 5.0928 34.0618 5.67472 34.6437C6.25663 35.2257 7.2001 35.2257 7.78201 34.6437C8.36392 34.0618 8.36392 33.1184 7.78201 32.5365ZM33.2181 32.5365C32.6362 33.1184 32.6362 34.0618 33.2181 34.6437C33.8 35.2257 34.7435 35.2257 35.3254 34.6437C35.9073 34.0618 35.9073 33.1184 35.3254 32.5365C34.7435 31.9545 33.8 31.9545 33.2181 32.5365Z" fill="url(#paint0_linear_725_8792)"/>
</g>
<defs>
<filter id="filter0_d_725_8792" x="0.238281" y="2.16016" width="40.5236" height="39.92" filterUnits="userSpaceOnUse" color-interpolation-filters="sRGB">
<feFlood flood-opacity="0" result="BackgroundImageFix"/>
<feColorMatrix in="SourceAlpha" type="matrix" values="0 0 0 0 0 0 0 0 0 0 0 0 0 0 0 0 0 0 127 0" result="hardAlpha"/>
<feOffset dy="2"/>
<feGaussianBlur stdDeviation="1.5"/>
<feComposite in2="hardAlpha" operator="out"/>
<feColorMatrix type="matrix" values="0 0 0 0 0 0 0 0 0 0 0 0 0 0 0 0 0 0 0.32 0"/>
<feBlend mode="normal" in2="BackgroundImageFix" result="effect1_dropShadow_725_8792"/>
<feBlend mode="normal" in="SourceGraphic" in2="effect1_dropShadow_725_8792" result="shape"/>
</filter>
<linearGradient id="paint0_linear_725_8792" x1="28.6621" y1="28.162" x2="0.425911" y2="-0.0741049" gradientUnits="userSpaceOnUse">
<stop offset="0.276042" stop-color="#D7E8FF"/>
<stop offset="0.447917" stop-color="#6C809C" stop-opacity="0.6"/>
<stop offset="0.645833" stop-color="#D7E8FF" stop-opacity="0.6"/>
</linearGradient>
</defs>
</svg>
