<svg width="40" height="40" viewBox="0 0 40 40" fill="none" xmlns="http://www.w3.org/2000/svg">
<path d="M13.3334 22.5011L17.5 26.6678M6.31614 29.5184C4.4359 26.82 3.33337 23.5393 3.33337 20.0011C3.33337 10.7964 10.7953 3.33447 20 3.33447C29.2048 3.33447 36.6667 10.7964 36.6667 20.0011C36.6667 29.2059 29.2048 36.6678 20 36.6678C16.4619 36.6678 13.1812 35.5653 10.4828 33.6851L6.31614 29.5184ZM6.31614 29.5184C7.44718 31.1416 8.85962 32.554 10.4828 33.6851L6.31614 29.5184ZM6.31614 29.5184L13.3334 22.5011L6.31614 29.5184ZM10.4828 33.6851L17.5 26.6678L10.4828 33.6851ZM13.3334 22.5011L16.6667 19.1678L20.8334 23.3345L17.5 26.6678L13.3334 22.5011Z" stroke="white" stroke-width="2" stroke-linecap="round" stroke-linejoin="round"/>
<path d="M15.8333 10.001V13.3343M14.1666 11.6676H17.5H14.1666Z" stroke="white" stroke-width="2" stroke-linecap="round" stroke-linejoin="round"/>
<path d="M25.8334 11.6675V16.6675M23.3334 14.1675H28.3334H23.3334Z" stroke="white" stroke-width="2" stroke-linecap="round" stroke-linejoin="round"/>
<path d="M28.3333 22.501V25.8343M26.6666 24.1676H30H26.6666Z" stroke="white" stroke-width="2" stroke-linecap="round" stroke-linejoin="round"/>
</svg>
