<svg width="56" height="56" viewBox="0 0 56 56" fill="none" xmlns="http://www.w3.org/2000/svg">
<path fill-rule="evenodd" clip-rule="evenodd" d="M7.10822 9.86039C4.41454 9.86039 2.23087 12.0441 2.23087 14.7377C2.23087 16.1115 2.70552 17.0091 3.35424 17.5517C4.01926 18.1079 4.98371 18.3877 6.12035 18.2843C7.06216 18.1987 7.64514 17.6717 7.95944 16.9778C8.29388 16.2394 8.29193 15.3663 8.04384 14.7692C7.69908 13.9396 7.07699 13.7802 6.60805 13.8883C6.09478 14.0066 5.81274 14.3919 5.90631 14.8867L3.98046 15.2509C3.65344 13.5219 4.84016 12.2844 6.16777 11.9784C7.53972 11.6621 9.13064 12.2768 9.8538 14.0171C10.3223 15.1447 10.2898 16.5833 9.74485 17.7865C9.17977 19.0341 8.03457 20.0784 6.2978 20.2363C4.75585 20.3764 3.2412 20.0124 2.09677 19.0552C0.936041 18.0843 0.270874 16.5989 0.270874 14.7377C0.270874 10.9616 3.33206 7.90039 7.10822 7.90039H32.0061C35.7823 7.90039 38.8435 10.9616 38.8435 14.7377C38.8435 17.6165 38.6609 20.737 38.4779 23.8653C38.3807 25.5259 38.2834 27.1889 38.2133 28.819C38.0221 33.2593 38.0277 37.502 38.7157 41.1034H49.7482C51.2742 40.9745 52.7702 41.3408 53.9033 42.2885C55.064 43.2593 55.7292 44.7448 55.7292 46.6059C55.7292 50.3821 52.668 53.4433 48.8918 53.4433H25.9939C21.1756 53.4433 17.7664 51.9907 15.4545 49.4249C13.1757 46.8958 12.0835 43.4152 11.5959 39.5918C11.1074 35.7602 11.2119 31.4578 11.4307 27.183C11.4907 26.0092 11.5592 24.8391 11.6272 23.6795C11.8085 20.5823 11.9856 17.5595 11.9856 14.7377C11.9856 12.0441 9.80191 9.86039 7.10822 9.86039ZM11.9 9.86039C13.1625 11.1009 13.9456 12.8279 13.9456 14.7377C13.9456 17.6213 13.7634 20.7316 13.5808 23.8491C13.5136 24.9965 13.4463 26.1448 13.3881 27.2831C13.1698 31.5487 13.0755 35.6997 13.5402 39.3439C14.0059 42.996 15.0187 46.0132 16.9106 48.1129C18.7695 50.176 21.5966 51.4833 25.9939 51.4833C28.6876 51.4833 30.8713 49.2996 30.8713 46.6059C30.8713 45.2322 30.3966 44.3346 29.7479 43.792C29.2755 43.3968 28.652 43.1412 27.923 43.0634H26.94C25.8274 43.1767 25.2051 43.7312 24.8878 44.3682C24.5424 45.0618 24.5398 45.8948 24.7892 46.4949C25.1024 47.2486 25.8251 47.5035 26.4118 47.3587C26.6969 47.2884 26.9119 47.1315 27.0368 46.9233C27.1567 46.7234 27.2528 46.3766 27.1137 45.8123L29.0166 45.343C29.2569 46.3172 29.1491 47.2121 28.7176 47.9315C28.2911 48.6425 27.6071 49.0827 26.8812 49.2617C25.446 49.6157 23.6988 48.9786 22.9792 47.247C22.5119 46.1224 22.5348 44.6962 23.1334 43.4943C23.7562 42.2439 24.9851 41.2728 26.8043 41.1074C27.2111 41.0704 27.616 41.0685 28.0127 41.1034H36.7229C36.0566 37.3419 36.0695 33.0453 36.2551 28.7347C36.3283 27.0349 36.4277 25.3385 36.5259 23.6637C36.7068 20.5774 36.8835 17.5643 36.8835 14.7377C36.8835 12.0441 34.6998 9.86039 32.0061 9.86039H11.9ZM31.7447 43.0634C32.444 43.9843 32.8313 45.1857 32.8313 46.6059C32.8313 48.5158 32.0482 50.2427 30.7857 51.4833H48.8918C51.5855 51.4833 53.7692 49.2996 53.7692 46.6059C53.7692 45.2322 53.2945 44.3346 52.6458 43.792C51.9808 43.2357 51.0163 42.956 49.8797 43.0594L49.8354 43.0634H31.7447Z" fill="white"/>
<path fill-rule="evenodd" clip-rule="evenodd" d="M42.996 8.32228C44.0281 8.87795 44.8975 9.49413 45.6621 10.2576C46.4575 11.0518 47.1116 11.9776 47.7202 13.101C48.3289 11.9776 48.9829 11.0518 49.7783 10.2576C50.5429 9.49413 51.4124 8.87795 52.4445 8.32228C51.4124 7.76662 50.5429 7.15044 49.7783 6.38698C48.9829 5.59278 48.3289 4.667 47.7202 3.54357C47.1116 4.667 46.4575 5.59278 45.6621 6.38698C44.8975 7.15044 44.0281 7.76662 42.996 8.32228ZM44.2773 5C45.225 4.05366 45.9832 2.81444 46.8227 0.899902L48.6177 0.899902C49.4573 2.81444 50.2154 4.05366 51.1632 5C52.1079 5.94327 53.304 6.65837 55.1261 7.41769V9.22688C53.304 9.98619 52.1079 10.7013 51.1632 11.6446C50.2154 12.5909 49.4573 13.8301 48.6177 15.7447H46.8227C45.9832 13.8301 45.225 12.5909 44.2773 11.6446C43.3326 10.7013 42.1364 9.98619 40.3143 9.22688L40.3143 7.41769C42.1364 6.65837 43.3326 5.94327 44.2773 5Z" fill="white"/>
</svg>
