<svg width="56" height="56" viewBox="0 0 56 56" fill="none" xmlns="http://www.w3.org/2000/svg">
<path fill-rule="evenodd" clip-rule="evenodd" d="M5.44193 46.5469V15.9741H3.48193V48.5069H52.5179V15.9741H50.5579V46.5469H5.44193Z" fill="white"/>
<path fill-rule="evenodd" clip-rule="evenodd" d="M1.70837 12.6929C1.70837 9.39023 4.38571 6.71289 7.68837 6.71289H48.3116C51.6142 6.71289 54.2915 9.39023 54.2915 12.6929V16.9539H32.8225V21.2448L31.8425 22.2248H24.1574L23.1774 21.2448V16.9539H1.70837V12.6929ZM23.1774 14.9939V13.0155L24.1574 12.0355H31.8425L32.8225 13.0155V14.9939H52.3316V12.6929C52.3316 10.4727 50.5317 8.67289 48.3116 8.67289H7.68837C5.46819 8.67289 3.66837 10.4727 3.66837 12.6929V14.9939H23.1774ZM25.1374 13.9955V20.2648H30.8625V13.9955H25.1374Z" fill="white"/>
<path fill-rule="evenodd" clip-rule="evenodd" d="M9.80614 26.9116C10.8383 27.4673 11.7077 28.0835 12.4723 28.8469C13.2677 29.6411 13.9218 30.5669 14.5304 31.6904C15.1391 30.5669 15.7931 29.6411 16.5885 28.8469C17.3531 28.0835 18.2226 27.4673 19.2547 26.9116C18.2226 26.356 17.3531 25.7398 16.5885 24.9763C15.7931 24.1821 15.1391 23.2564 14.5304 22.1329C13.9218 23.2564 13.2677 24.1821 12.4723 24.9763C11.7077 25.7398 10.8383 26.356 9.80614 26.9116ZM11.0874 23.5894C12.0352 22.643 12.7933 21.4038 13.6329 19.4893L15.4279 19.4893C16.2675 21.4038 17.0256 22.643 17.9734 23.5894C18.9181 24.5326 20.1142 25.2477 21.9363 26.007V27.8162C20.1142 28.5755 18.9181 29.2906 17.9734 30.2339C17.0256 31.1803 16.2675 32.4195 15.4279 34.334H13.6329C12.7933 32.4195 12.0352 31.1803 11.0874 30.2339C10.1427 29.2906 8.94661 28.5755 7.12451 27.8162L7.12451 26.007C8.94661 25.2477 10.1427 24.5326 11.0874 23.5894Z" fill="white"/>
<path fill-rule="evenodd" clip-rule="evenodd" d="M36.0666 36.6812C37.0988 37.2368 37.9682 37.853 38.7328 38.6165C39.5282 39.4107 40.1822 40.3364 40.7909 41.4599C41.3996 40.3364 42.0536 39.4107 42.849 38.6165C43.6136 37.853 44.4831 37.2368 45.5152 36.6812C44.4831 36.1255 43.6136 35.5093 42.849 34.7459C42.0536 33.9517 41.3996 33.0259 40.7909 31.9025C40.1822 33.0259 39.5282 33.9517 38.7328 34.7459C37.9682 35.5093 37.0988 36.1255 36.0666 36.6812ZM37.3479 33.3589C38.2957 32.4125 39.0538 31.1733 39.8934 29.2588L41.6884 29.2588C42.528 31.1733 43.2861 32.4125 44.2339 33.3589C45.1786 34.3022 46.3747 35.0173 48.1968 35.7766V37.5858C46.3747 38.3451 45.1786 39.0602 44.2339 40.0034C43.2861 40.9498 42.528 42.189 41.6884 44.1035H39.8934C39.0538 42.189 38.2957 40.9498 37.3479 40.0034C36.4032 39.0602 35.2071 38.3451 33.385 37.5858L33.385 35.7766C35.2071 35.0173 36.4032 34.3022 37.3479 33.3589Z" fill="white"/>
</svg>
