<svg width="56" height="56" viewBox="0 0 56 56" fill="none" xmlns="http://www.w3.org/2000/svg">
<path fill-rule="evenodd" clip-rule="evenodd" d="M23.2624 6.72443L23.2625 6.72632C23.2647 6.74933 23.2688 6.78812 23.2759 6.84043C23.2902 6.94536 23.3163 7.10273 23.3628 7.29476C23.4567 7.68231 23.6283 8.19037 23.9354 8.69065C24.5175 9.63902 25.6404 10.6639 27.9999 10.6639C30.3595 10.6639 31.4824 9.63902 32.0645 8.69065C32.3716 8.19037 32.5432 7.68231 32.637 7.29476C32.6835 7.10273 32.7097 6.94536 32.724 6.84043C32.7311 6.78812 32.7352 6.74933 32.7373 6.72632L32.7375 6.72445V5.08936H34.6975V5.94617L42.3068 7.34232L55.7318 21.1448L47.3489 29.5278L42.8024 24.9813V50.6446H13.1975V24.9813L8.651 29.5278L0.268066 21.1448L13.693 7.34232L21.3024 5.94617V5.08936H23.2624V6.72443ZM13.1975 22.2094V10.6629L3.02084 21.1258L8.651 26.7559L13.1975 22.2094ZM15.1575 9.06634V48.6846H20.8677C18.641 42.504 18.3398 37.9449 19.3024 34.3165C20.335 30.4244 22.7789 27.775 25.42 25.4454C26.161 24.7917 26.9157 24.1621 27.6659 23.5362C32.1615 19.7855 36.4959 16.1692 36.7756 8.32018L34.5046 7.90349C34.3696 8.41252 34.137 9.06104 33.7349 9.716C32.9209 11.0422 31.4593 12.3079 28.9799 12.5732V16.2937H27.0199V12.5732C24.5406 12.3079 23.079 11.0422 22.265 9.716C21.8629 9.06104 21.6302 8.41252 21.4953 7.90349L15.1575 9.06634ZM38.722 8.67731C38.3067 17.2652 33.328 21.3951 28.8486 25.1108C28.1173 25.7174 27.3992 26.3131 26.7165 26.9153C24.1664 29.1646 22.0788 31.495 21.1969 34.8191C20.5319 37.3258 20.5284 40.4947 21.6743 44.7466C22.1469 42.7572 23.0035 41.1026 24.121 39.6841C26.0277 37.264 28.6493 35.5938 31.1563 34.1032C31.4723 33.9153 31.7859 33.7305 32.0963 33.5476C34.3051 32.2461 36.3513 31.0403 37.9373 29.4956C39.6889 27.7896 40.8424 25.6969 40.8424 22.6154V20.2494L47.3489 26.7559L52.979 21.1258L41.3379 9.15726L38.722 8.67731ZM40.8424 29.1088C40.389 29.7547 39.8713 30.348 39.3048 30.8997C37.536 32.6224 35.2645 33.9586 33.0802 35.2434C32.7705 35.4256 32.4625 35.6068 32.158 35.7878C29.6482 37.2802 27.319 38.7921 25.6607 40.897C24.1653 42.7951 23.1779 45.2277 23.2248 48.6846H40.8424V29.1088Z" fill="white"/>
</svg>
