<svg width="24" height="24" viewBox="0 0 24 24" fill="none" xmlns="http://www.w3.org/2000/svg">
<g clip-path="url(#clip0_699_6882)">
<path fill-rule="evenodd" clip-rule="evenodd" d="M11.9993 2.73379C9.60378 2.73379 7.42222 3.64171 5.77697 5.13354C5.10495 5.74289 4.52286 6.44936 4.05289 7.23051C3.21494 8.62327 2.73281 10.2542 2.73281 12.0002C2.73281 12.4702 2.76773 12.9315 2.835 13.3818C3.01782 14.6058 3.44006 15.7514 4.05289 16.77C5.67495 19.466 8.62722 21.2667 11.9993 21.2667C15.4356 21.2667 18.4362 19.3966 20.037 16.6147C20.8185 15.2567 21.2657 13.6819 21.2657 12.0002C21.2657 10.3186 20.8185 8.74377 20.037 7.38573C19.5519 6.5428 18.9378 5.78301 18.2216 5.13354C17.2361 4.23999 16.0584 3.55621 14.7587 3.15139C13.8881 2.8802 12.9615 2.73379 11.9993 2.73379ZM4.70221 3.94826C6.63029 2.19997 9.1912 1.13379 11.9993 1.13379C13.1247 1.13379 14.2116 1.30515 15.2346 1.62378C16.761 2.09922 18.1421 2.90166 19.2963 3.94826C20.1353 4.70897 20.8549 5.59919 21.4238 6.5877C22.3412 8.18202 22.8657 10.0311 22.8657 12.0002C22.8657 13.9694 22.3412 15.8185 21.4238 17.4128C19.5491 20.6704 16.0312 22.8667 11.9993 22.8667C8.04292 22.8667 4.5813 20.7519 2.6819 17.5948C1.963 16.3999 1.46716 15.0549 1.25255 13.6182C1.17364 13.0899 1.13281 12.5496 1.13281 12.0002C1.13281 9.95554 1.69831 8.04049 2.6819 6.40566C3.23296 5.48972 3.91507 4.662 4.70221 3.94826ZM12.435 16.266C11.2008 16.3641 9.86931 16.005 8.53767 14.9978L9.50287 13.7217C10.5544 14.5171 11.5036 14.735 12.3081 14.671C13.1287 14.6058 13.8776 14.2401 14.491 13.7398L15.5023 14.9797C14.7007 15.6335 13.653 16.1691 12.435 16.266Z" fill="white"/>
<path d="M17.127 10.7608C17.127 11.4452 16.5721 12 15.8877 12C15.2033 12 14.6484 11.4452 14.6484 10.7608C14.6484 10.0763 15.2033 9.52148 15.8877 9.52148C16.5721 9.52148 17.127 10.0763 17.127 10.7608Z" fill="white"/>
<path d="M9.34964 10.7608C9.34964 11.4452 8.7948 12 8.11037 12C7.42594 12 6.87109 11.4452 6.87109 10.7608C6.87109 10.0763 7.42594 9.52148 8.11037 9.52148C8.7948 9.52148 9.34964 10.0763 9.34964 10.7608Z" fill="white"/>
</g>
<defs>
<clipPath id="clip0_699_6882">
<rect width="24" height="24" fill="white"/>
</clipPath>
</defs>
</svg>
