<svg width="32" height="32" viewBox="0 0 32 32" fill="none" xmlns="http://www.w3.org/2000/svg">
<path d="M16.6639 22.6634L16.6638 22.6634C16.5768 22.7506 16.4734 22.8197 16.3596 22.8669C16.2458 22.9141 16.1238 22.9384 16.0006 22.9384C15.8774 22.9384 15.7554 22.9141 15.6415 22.8669C15.5277 22.8197 15.4243 22.7506 15.3373 22.6634L15.3372 22.6634L5.33725 12.6634C5.16133 12.4875 5.0625 12.2489 5.0625 12.0001C5.0625 11.7513 5.16133 11.5127 5.33725 11.3368C5.51317 11.1608 5.75177 11.062 6.00056 11.062C6.24934 11.062 6.48794 11.1608 6.66386 11.3368C6.66386 11.3368 6.66386 11.3368 6.66386 11.3368L15.9564 20.6305L16.0006 20.6747L16.0448 20.6305L25.3373 11.3368C25.4244 11.2497 25.5278 11.1806 25.6416 11.1334C25.7554 11.0863 25.8774 11.062 26.0006 11.062C26.1237 11.062 26.2457 11.0863 26.3595 11.1334C26.4733 11.1806 26.5768 11.2497 26.6639 11.3368C26.751 11.4239 26.8201 11.5273 26.8672 11.6411C26.9144 11.7549 26.9386 11.8769 26.9386 12.0001C26.9386 12.1233 26.9144 12.2452 26.8672 12.359C26.8201 12.4729 26.751 12.5763 26.6639 12.6634L16.6639 22.6634Z" fill="url(#paint0_linear_1764_8892)" stroke="url(#paint1_linear_1764_8892)" stroke-width="0.125"/>
<defs>
<linearGradient id="paint0_linear_1764_8892" x1="1.20078" y1="3.2001" x2="33.2008" y2="25.6001" gradientUnits="userSpaceOnUse">
<stop offset="0.276042" stop-color="#D7E8FF"/>
<stop offset="0.447917" stop-color="#6C809C" stop-opacity="0.6"/>
<stop offset="0.645833" stop-color="#D7E8FF" stop-opacity="0.6"/>
</linearGradient>
<linearGradient id="paint1_linear_1764_8892" x1="16.0006" y1="20.172" x2="16.0006" y2="9.19931" gradientUnits="userSpaceOnUse">
<stop offset="0.276042" stop-color="#D7E8FF"/>
<stop offset="0.447917" stop-color="#6C809C" stop-opacity="0.6"/>
<stop offset="0.645833" stop-color="#D7E8FF" stop-opacity="0.6"/>
</linearGradient>
</defs>
</svg>
