<svg width="32" height="32" viewBox="0 0 32 32" fill="none" xmlns="http://www.w3.org/2000/svg">
<path d="M22.6639 15.3371L22.6639 15.3371C22.7511 15.4242 22.8202 15.5276 22.8674 15.6414C22.9146 15.7552 22.9388 15.8772 22.9388 16.0004C22.9388 16.1236 22.9146 16.2456 22.8674 16.3594C22.8202 16.4732 22.7511 16.5766 22.6639 16.6637L22.6639 16.6637L12.6639 26.6637C12.4879 26.8396 12.2493 26.9385 12.0006 26.9385C11.7518 26.9385 11.5132 26.8396 11.3372 26.6637C11.1613 26.4878 11.0625 26.2492 11.0625 26.0004C11.0625 25.7516 11.1613 25.513 11.3372 25.3371C11.3372 25.3371 11.3372 25.3371 11.3372 25.3371L20.631 16.0446L20.6752 16.0004L20.631 15.9562L11.3372 6.66372C11.2501 6.57662 11.181 6.47321 11.1339 6.3594C11.0868 6.24559 11.0625 6.12361 11.0625 6.00042C11.0625 5.87723 11.0868 5.75525 11.1339 5.64144C11.181 5.52763 11.2501 5.42422 11.3372 5.33711C11.4244 5.25001 11.5278 5.18091 11.6416 5.13377C11.7554 5.08663 11.8774 5.06236 12.0006 5.06236C12.1237 5.06236 12.2457 5.08663 12.3595 5.13377C12.4733 5.18091 12.5768 5.25001 12.6639 5.33711L22.6639 15.3371Z" fill="url(#paint0_linear_1179_9624)" stroke="url(#paint1_linear_1179_9624)" stroke-width="0.125"/>
<defs>
<linearGradient id="paint0_linear_1179_9624" x1="3.20059" y1="30.8002" x2="25.6006" y2="-1.1998" gradientUnits="userSpaceOnUse">
<stop offset="0.276042" stop-color="#D7E8FF"/>
<stop offset="0.447917" stop-color="#6C809C" stop-opacity="0.6"/>
<stop offset="0.645833" stop-color="#D7E8FF" stop-opacity="0.6"/>
</linearGradient>
<linearGradient id="paint1_linear_1179_9624" x1="20.1725" y1="16.0004" x2="9.1998" y2="16.0004" gradientUnits="userSpaceOnUse">
<stop offset="0.276042" stop-color="#D7E8FF"/>
<stop offset="0.447917" stop-color="#6C809C" stop-opacity="0.6"/>
<stop offset="0.645833" stop-color="#D7E8FF" stop-opacity="0.6"/>
</linearGradient>
</defs>
</svg>
