<svg width="32" height="32" viewBox="0 0 32 32" fill="none" xmlns="http://www.w3.org/2000/svg">
<path fill-rule="evenodd" clip-rule="evenodd" d="M1.1156 1.78809L6.90576 5.09555C9.36855 3.03978 12.5401 1.80193 15.9991 1.80193C17.47 1.80193 18.8901 2.02588 20.2264 2.44211C22.0298 3.00382 23.6781 3.91498 25.0926 5.09571L30.8878 1.78847L30.1972 16.0198C30.1937 18.5857 29.5089 20.9944 28.3133 23.072C25.8636 27.329 21.2669 30.1983 15.9991 30.1983C10.83 30.1983 6.30696 27.4355 3.82479 23.3098C2.88551 21.7486 2.23775 19.9915 1.95737 18.1144C1.8552 17.4304 1.80187 16.7309 1.80092 16.0196L1.1156 1.78809ZM3.11426 10.0284C3.32774 9.56853 3.56512 9.12197 3.82479 8.69037C4.35641 7.80676 4.98139 6.98593 5.68606 6.24147L2.854 4.62374L3.11426 10.0284ZM15.9991 3.40193C12.7425 3.40193 9.7761 4.63653 7.53951 6.66456C6.62603 7.49286 5.83473 8.45322 5.19579 9.51521C4.0564 11.409 3.4009 13.6268 3.4009 16.0001C3.4009 16.3284 3.41345 16.6537 3.43806 16.9754C6.27226 16.057 9.33626 13.8235 12.1289 11.1853C14.7911 8.67035 17.1278 5.86355 18.6824 3.68814C17.8183 3.50074 16.9206 3.40193 15.9991 3.40193ZM20.3084 4.15798C18.7029 6.4741 16.1572 9.58082 13.2276 12.3484C10.319 15.0962 6.94082 17.5977 3.66522 18.5804C3.9567 19.9812 4.48089 21.2967 5.19579 22.485C7.40061 26.1496 11.4143 28.5983 15.9991 28.5983C20.6713 28.5983 24.7506 26.0552 26.9265 22.2739C27.9892 20.4273 28.5972 18.2859 28.5972 16.0001V15.9807L29.1484 4.62335L24.8885 7.05437L24.4586 6.66456C23.2615 5.57903 21.8553 4.72106 20.3084 4.15798ZM16.558 22.5623C14.9865 22.6872 13.2775 22.2326 11.5515 20.9271L12.5167 19.651C13.9627 20.7447 15.2893 21.0581 16.4311 20.9673C17.5891 20.8752 18.6353 20.3604 19.4829 19.6691L20.4942 20.909C19.4584 21.7538 18.1134 22.4386 16.558 22.5623Z" fill="white"/>
<path fill-rule="evenodd" clip-rule="evenodd" d="M1.1156 1.78809L6.90576 5.09555C9.36855 3.03978 12.5401 1.80193 15.9991 1.80193C17.47 1.80193 18.8901 2.02588 20.2264 2.44211C22.0298 3.00382 23.6781 3.91498 25.0926 5.09571L30.8878 1.78847L30.1972 16.0198C30.1937 18.5857 29.5089 20.9944 28.3133 23.072C25.8636 27.329 21.2669 30.1983 15.9991 30.1983C10.83 30.1983 6.30696 27.4355 3.82479 23.3098C2.88551 21.7486 2.23775 19.9915 1.95737 18.1144C1.8552 17.4304 1.80187 16.7309 1.80092 16.0196L1.1156 1.78809ZM3.11426 10.0284C3.32774 9.56853 3.56512 9.12197 3.82479 8.69037C4.35641 7.80676 4.98139 6.98593 5.68606 6.24147L2.854 4.62374L3.11426 10.0284ZM15.9991 3.40193C12.7425 3.40193 9.7761 4.63653 7.53951 6.66456C6.62603 7.49286 5.83473 8.45322 5.19579 9.51521C4.0564 11.409 3.4009 13.6268 3.4009 16.0001C3.4009 16.3284 3.41345 16.6537 3.43806 16.9754C6.27226 16.057 9.33626 13.8235 12.1289 11.1853C14.7911 8.67035 17.1278 5.86355 18.6824 3.68814C17.8183 3.50074 16.9206 3.40193 15.9991 3.40193ZM20.3084 4.15798C18.7029 6.4741 16.1572 9.58082 13.2276 12.3484C10.319 15.0962 6.94082 17.5977 3.66522 18.5804C3.9567 19.9812 4.48089 21.2967 5.19579 22.485C7.40061 26.1496 11.4143 28.5983 15.9991 28.5983C20.6713 28.5983 24.7506 26.0552 26.9265 22.2739C27.9892 20.4273 28.5972 18.2859 28.5972 16.0001V15.9807L29.1484 4.62335L24.8885 7.05437L24.4586 6.66456C23.2615 5.57903 21.8553 4.72106 20.3084 4.15798ZM16.558 22.5623C14.9865 22.6872 13.2775 22.2326 11.5515 20.9271L12.5167 19.651C13.9627 20.7447 15.2893 21.0581 16.4311 20.9673C17.5891 20.8752 18.6353 20.3604 19.4829 19.6691L20.4942 20.909C19.4584 21.7538 18.1134 22.4386 16.558 22.5623Z" fill="url(#paint0_linear_1602_12767)"/>
<path d="M22.8355 15.2637C22.8355 16.1763 22.0957 16.9161 21.1831 16.9161C20.2706 16.9161 19.5308 16.1763 19.5308 15.2637C19.5308 14.3511 20.2706 13.6113 21.1831 13.6113C22.0957 13.6113 22.8355 14.3511 22.8355 15.2637Z" fill="white"/>
<path d="M22.8355 15.2637C22.8355 16.1763 22.0957 16.9161 21.1831 16.9161C20.2706 16.9161 19.5308 16.1763 19.5308 15.2637C19.5308 14.3511 20.2706 13.6113 21.1831 13.6113C22.0957 13.6113 22.8355 14.3511 22.8355 15.2637Z" fill="url(#paint1_linear_1602_12767)"/>
<path d="M12.4674 15.2637C12.4674 16.1763 11.7277 16.9161 10.8151 16.9161C9.90251 16.9161 9.16272 16.1763 9.16272 15.2637C9.16272 14.3511 9.90251 13.6113 10.8151 13.6113C11.7277 13.6113 12.4674 14.3511 12.4674 15.2637Z" fill="white"/>
<path d="M12.4674 15.2637C12.4674 16.1763 11.7277 16.9161 10.8151 16.9161C9.90251 16.9161 9.16272 16.1763 9.16272 15.2637C9.16272 14.3511 9.90251 13.6113 10.8151 13.6113C11.7277 13.6113 12.4674 14.3511 12.4674 15.2637Z" fill="url(#paint2_linear_1602_12767)"/>
<defs>
<linearGradient id="paint0_linear_1602_12767" x1="16.0017" y1="23.5016" x2="16.0017" y2="-2.47344" gradientUnits="userSpaceOnUse">
<stop offset="0.276042" stop-color="#D7E8FF"/>
<stop offset="0.447917" stop-color="#6C809C" stop-opacity="0.6"/>
<stop offset="0.645833" stop-color="#D7E8FF" stop-opacity="0.6"/>
</linearGradient>
<linearGradient id="paint1_linear_1602_12767" x1="21.1831" y1="16.1371" x2="21.1831" y2="13.1156" gradientUnits="userSpaceOnUse">
<stop offset="0.276042" stop-color="#D7E8FF"/>
<stop offset="0.447917" stop-color="#6C809C" stop-opacity="0.6"/>
<stop offset="0.645833" stop-color="#D7E8FF" stop-opacity="0.6"/>
</linearGradient>
<linearGradient id="paint2_linear_1602_12767" x1="10.8151" y1="16.1371" x2="10.8151" y2="13.1156" gradientUnits="userSpaceOnUse">
<stop offset="0.276042" stop-color="#D7E8FF"/>
<stop offset="0.447917" stop-color="#6C809C" stop-opacity="0.6"/>
<stop offset="0.645833" stop-color="#D7E8FF" stop-opacity="0.6"/>
</linearGradient>
</defs>
</svg>
