<svg xmlns="http://www.w3.org/2000/svg" width="24" height="24" fill="none"><path fill="#fff" fill-rule="evenodd" d="M.62.986 5.157 3.58A10.807 10.807 0 0 1 12 1.151a10.826 10.826 0 0 1 6.84 2.428L23.384.987l-.535 11.033a10.845 10.845 0 0 1-10.849 10.829A10.843 10.843 0 0 1 1.15 12.018L.62.986Zm1.879 5.772A10.825 10.825 0 0 1 3.947 4.73l-1.59-.908.142 2.936Zm9.5-4.007c-2.39 0-4.568.906-6.21 2.395A9.296 9.296 0 0 0 4.068 7.24a9.202 9.202 0 0 0-1.306 5.218c2.013-.72 4.189-2.317 6.197-4.214a40.475 40.475 0 0 0 4.708-5.342A9.31 9.31 0 0 0 12 2.751Zm3.307.609c-1.215 1.733-3.094 4.011-5.248 6.046-2.135 2.017-4.628 3.88-7.075 4.666A9.243 9.243 0 0 0 12 21.249a9.245 9.245 0 0 0 9.249-9.25v-.019l.396-8.158-3.005 1.714-.43-.39a9.25 9.25 0 0 0-2.903-1.786Zm-2.872 13.76c-1.232.099-2.562-.26-3.891-1.265l.965-1.277c1.05.794 1.997 1.012 2.8.948.818-.065 1.565-.43 2.178-.93l1.01 1.24c-.8.653-1.846 1.188-3.062 1.285Z" clip-rule="evenodd"/><path fill="#fff" d="M17.127 11.448a1.24 1.24 0 1 1-2.479 0 1.24 1.24 0 0 1 2.479 0ZM9.35 11.448a1.24 1.24 0 1 1-2.479 0 1.24 1.24 0 0 1 2.479 0Z"/></svg>