<svg version="1.1" xmlns="http://www.w3.org/2000/svg" xmlns:xlink="http://www.w3.org/1999/xlink" width="24" height="24" viewBox="0,0,255.99431,255.99431"><g fill="#ffbf43" fill-rule="none" stroke="none" stroke-width="1" stroke-linecap="butt" stroke-linejoin="miter" stroke-miterlimit="10" stroke-dasharray="" stroke-dashoffset="0" font-family="none" font-weight="none" font-size="none" text-anchor="none" style="mix-blend-mode: normal"><g transform="translate(-0.00288,-0.00289) scale(1.00002,1.00002)"><g><g transform="translate(-0.01426,0.8786) scale(10.66667,10.66667)"><path d="M0.61914,0.98633l4.53928,2.59293c1.86607,-1.51762 4.24782,-2.42809 6.84058,-2.42809c1.1237,0 2.2088,0.17108 3.23,0.48918c1.3327,0.41511 2.5545,1.0799 3.6109,1.93906l4.5431,-2.5927l-0.5353,11.03289c-0.0035,1.9585 -0.5267,3.7975 -1.4396,5.3839c-1.8716,3.2522 -5.3838,5.4449 -9.4091,5.4449c-3.94981,0 -7.40575,-2.1113 -9.30204,-5.2632c-0.71772,-1.1929 -1.21274,-2.5357 -1.427,-3.9701c-0.07784,-0.5212 -0.11857,-1.054 -0.11953,-1.5957zM2.49891,6.75762c0.06398,-0.11572 0.13001,-0.23015 0.19805,-0.34323c0.36231,-0.6022 0.78135,-1.1662 1.24972,-1.68466l-1.58914,-0.90775zM11.999,2.75117c-2.39083,0 -4.5682,0.90617 -6.21028,2.39513c-0.67072,0.60818 -1.2517,1.31329 -1.72077,2.09294c-0.83633,1.39008 -1.31753,3.01786 -1.31753,4.76056c0,0.1535 0.00373,0.3061 0.01111,0.4577c2.01328,-0.7201 4.18934,-2.317 6.19752,-4.21418c1.88565,-1.78141 3.55275,-3.75943 4.70815,-5.34226c-0.5407,-0.09842 -1.0982,-0.14989 -1.6682,-0.14989zM15.3063,3.35983c-1.2155,1.73335 -3.0942,4.01141 -5.2485,6.04656c-2.13494,2.01691 -4.62743,3.87921 -7.07462,4.66521c0.22008,0.962 0.59025,1.8668 1.08477,2.6887c1.61895,2.6909 4.56554,4.4881 7.93105,4.4881c3.4298,0 6.4246,-1.8665 8.0223,-4.643c0.78,-1.3554 1.2264,-2.9272 1.2264,-4.6056v-0.0194l0.3959,-8.15881l-3.0043,1.71452l-0.4299,-0.38981c-0.8418,-0.76328 -1.8242,-1.3732 -2.9031,-1.78647zM12.4341,17.1208c-1.2324,0.098 -2.56184,-0.2606 -3.89137,-1.2662l0.9652,-1.2761c1.04947,0.7937 1.99667,1.0112 2.79927,0.9473c0.8189,-0.0651 1.5661,-0.4299 2.1783,-0.9292l1.0113,1.2399c-0.8003,0.6527 -1.8465,1.1876 -3.0627,1.2843z" fill-rule="evenodd"></path><path d="M17.127,11.4483c0,0.6844 -0.5549,1.2392 -1.2393,1.2392c-0.6844,0 -1.2393,-0.5548 -1.2393,-1.2392c0,-0.6845 0.5549,-1.2393 1.2393,-1.2393c0.6844,0 1.2393,0.5548 1.2393,1.2393z" fill-rule="nonzero"></path><path d="M9.34964,11.4483c0,0.6844 -0.55484,1.2392 -1.23927,1.2392c-0.68443,0 -1.23928,-0.5548 -1.23928,-1.2392c0,-0.6845 0.55485,-1.2393 1.23928,-1.2393c0.68443,0 1.23927,0.5548 1.23927,1.2393z" fill-rule="nonzero"></path></g></g></g></g></svg>