<svg width="41" height="40" viewBox="0 0 41 40" fill="none" xmlns="http://www.w3.org/2000/svg">
<path d="M11.7903 27.4568C7.67199 27.4568 4.33347 24.1183 4.33347 20C4.33347 15.8817 7.67199 12.5432 11.7903 12.5432C21.6914 12.5432 21.3885 27.4568 30.8623 27.4568C34.9805 27.4568 38.3191 24.1183 38.3191 20C38.3191 15.8817 34.9805 12.5432 30.8623 12.5432C27.8152 12.5432 25.7795 14.086 24.0904 16.1791C20.5278 20.5938 18.5069 27.4568 11.7903 27.4568Z" stroke="#438CEC" stroke-width="1.6"/>
<path d="M22.4379 12.4793C24.7766 9.58117 27.5952 7.44507 31.8141 7.44507C34.0173 7.44507 36.0594 8.13519 37.7359 9.31105" stroke="#438CEC" stroke-width="1.6"/>
<path d="M20.5021 27.4567C18.1634 30.3549 15.3448 32.491 11.1258 32.491C8.92262 32.491 6.88057 31.8008 5.20409 30.625" stroke="#438CEC" stroke-width="1.6"/>
</svg>
