<svg width="35" height="47" viewBox="0 0 35 47" fill="none" xmlns="http://www.w3.org/2000/svg">
<mask id="mask0_1101_2373" style="mask-type:alpha" maskUnits="userSpaceOnUse" x="0" y="0" width="35" height="47">
<path d="M0 4.82312C7.11594 4.51692 10.5123 4.05369 17.1858 0.950195C23.9171 4.11622 27.0144 4.51692 34.3716 4.82312V24.684C34.3716 30.4945 31.6228 35.9626 26.9595 39.429L17.1858 46.6938L7.41213 39.429C2.74874 35.9626 0 30.4945 0 24.684V4.82312Z" fill="white"/>
</mask>
<g mask="url(#mask0_1101_2373)">
<path fill-rule="evenodd" clip-rule="evenodd" d="M0 3.26486L17.1858 0.310547L34.3716 3.26486V24.6837C34.3716 27.6876 33.637 30.5999 32.283 33.1914C30.706 29.1022 26.1648 26.9618 22.2166 25.4279C20.5175 24.7676 18.8184 24.1067 17.1228 23.4357C16.8194 23.3156 16.508 23.2011 16.194 23.0856L16.1937 23.0855L16.1935 23.0854C14.9776 22.6383 13.7242 22.1774 12.7563 21.3301C10.3429 19.2175 10.7006 14.7418 13.9547 13.6704C14.1766 13.5973 14.4033 13.5419 14.6328 13.5026C14.2295 13.695 12.8357 14.7298 12.4403 15.7977L12.7104 16.0213C12.8509 15.8933 13.1857 15.604 13.4006 15.4704C13.7085 15.2592 14.1167 15.0563 14.6328 14.889C15.9475 14.4636 17.5879 14.5947 18.6018 15.0201C19.4648 15.3824 20.2532 15.971 21.0256 16.5477L21.0257 16.5477C21.3626 16.7993 21.6965 17.0485 22.0321 17.2757C23.5147 18.2795 25.1225 19.2946 26.8133 19.9051C28.1061 20.3708 29.1235 20.4503 29.9594 20.4349C30.0584 20.4333 30.2617 20.0056 30.3303 19.8614L30.3404 19.8401L30.3463 19.828C31.2374 18.0126 30.8357 15.6561 30.135 13.8389C30.0633 13.652 29.1591 11.4913 29.0654 11.5245L28.5297 11.7179C28.7883 12.2661 29.009 13.1892 29.0458 13.8389C29.0826 14.4974 29.0428 15.223 28.3635 15.5422C27.988 15.7184 27.5442 15.7083 27.1479 15.5861C26.3345 15.3357 25.7484 14.7472 25.2382 14.0958C25.0044 13.7979 24.9024 13.4224 24.8021 13.0534L24.7986 13.0415C24.7819 12.9804 24.7653 12.9199 24.7481 12.86C24.7048 12.7087 24.6419 12.5479 24.5518 12.3919C24.2195 11.817 23.4643 11.4225 22.7304 11.1247C21.9965 10.8268 21.408 10.5017 20.9648 10.2039C20.5217 9.90607 19.5659 9.12355 19.1506 8.6252C18.8184 8.22652 18.5733 7.7252 18.4986 7.52408H18.0353L18.0367 7.53746C18.045 7.6193 18.0625 7.79128 18.1127 8.13965C18.1558 8.43806 18.2087 8.76319 18.2918 9.07976C18.3749 9.39633 18.4986 9.69295 18.4986 9.69295C18.4986 9.69295 17.8868 9.37405 17.5469 9.23463C15.2569 8.29489 13.1542 7.78455 10.6655 7.58521C9.16147 7.46463 6.05151 7.41196 4.08146 7.5229V8.21881C4.68243 8.21881 5.63692 8.26873 6.58808 8.40493C7.56951 8.54547 8.97302 8.80916 9.65345 9.4147C9.65345 9.4147 7.79334 9.43354 6.4601 9.81973C5.62917 10.0604 4.35692 10.7797 4.08146 11.0279V11.7334C4.71131 11.4135 5.12928 11.2783 5.72765 11.1652C6.24737 11.0671 7.09167 11.0233 7.44374 11.0981C7.33927 11.1992 6.88281 11.7169 6.51773 12.1311L6.51767 12.1312L6.5176 12.1312C6.36294 12.3067 6.22469 12.4635 6.13656 12.5622C5.99773 12.7336 5.86899 12.9009 5.75686 13.0534C2.26367 17.7889 4.25114 24.7498 8.70306 28.0264C9.10411 28.3213 9.52178 28.5936 9.95249 28.8422C11.3627 29.6573 12.6198 30.1622 14.561 30.9204L14.6571 30.9578C15.1659 31.1566 15.6761 31.353 16.1867 31.5495C17.753 32.1524 19.3217 32.7563 20.8551 33.4323L20.938 33.4689C21.0112 33.501 21.0844 33.5332 21.1576 33.5653L21.1599 33.5663C22.5737 34.2114 23.7201 35.0035 24.3394 36.3195C24.9587 37.6355 25.2615 39.5565 23.7897 41.4718C23.3752 42.0112 22.9273 42.4081 22.6984 42.596L17.1858 46.6935L7.41213 39.4287C2.74874 35.9623 0 30.4943 0 24.6837V3.26486ZM22.2043 13.3373C21.7564 13.1468 21.5575 12.7423 21.514 12.5634C21.6227 12.5659 21.7831 12.5726 21.9737 12.5835C22.369 12.6069 22.8921 12.6529 23.3359 12.7297C23.4755 12.8949 23.6237 13.4235 23.7325 13.9054C23.5803 13.8335 23.2766 13.7293 22.9714 13.6246L22.9714 13.6246C22.7989 13.5655 22.6259 13.5061 22.4794 13.4523C22.4362 13.434 22.3937 13.4162 22.3522 13.3989L22.3489 13.3975C22.3145 13.3829 22.2804 13.3687 22.2474 13.3549L22.2052 13.3373H22.2043Z" fill="white"/>
<mask id="mask1_1101_2373" style="mask-type:alpha" maskUnits="userSpaceOnUse" x="0" y="0" width="35" height="47">
<path fill-rule="evenodd" clip-rule="evenodd" d="M0 3.26486L17.1858 0.310547L34.3716 3.26486V24.6837C34.3716 27.6876 33.637 30.5999 32.283 33.1914C30.706 29.1022 26.1648 26.9618 22.2166 25.4279C20.5175 24.7676 18.8184 24.1067 17.1228 23.4357C16.8194 23.3156 16.508 23.2011 16.194 23.0856L16.1937 23.0855L16.1935 23.0854C14.9776 22.6383 13.7242 22.1774 12.7563 21.3301C10.3429 19.2175 10.7006 14.7418 13.9547 13.6704C14.1766 13.5973 14.4033 13.5419 14.6328 13.5026C14.2295 13.695 12.8357 14.7298 12.4403 15.7977L12.7104 16.0213C12.8509 15.8933 13.1857 15.604 13.4006 15.4704C13.7085 15.2592 14.1167 15.0563 14.6328 14.889C15.9475 14.4636 17.5879 14.5947 18.6018 15.0201C19.4648 15.3824 20.2532 15.971 21.0256 16.5477L21.0257 16.5477C21.3626 16.7993 21.6965 17.0485 22.0321 17.2757C23.5147 18.2795 25.1225 19.2946 26.8133 19.9051C28.1061 20.3708 29.1235 20.4503 29.9594 20.4349C30.0584 20.4333 30.2617 20.0056 30.3303 19.8614L30.3404 19.8401L30.3463 19.828C31.2374 18.0126 30.8357 15.6561 30.135 13.8389C30.0633 13.652 29.1591 11.4913 29.0654 11.5245L28.5297 11.7179C28.7883 12.2661 29.009 13.1892 29.0458 13.8389C29.0826 14.4974 29.0428 15.223 28.3635 15.5422C27.988 15.7184 27.5442 15.7083 27.1479 15.5861C26.3345 15.3357 25.7484 14.7472 25.2382 14.0958C25.0044 13.7979 24.9024 13.4224 24.8021 13.0534L24.7986 13.0415C24.7819 12.9804 24.7653 12.9199 24.7481 12.86C24.7048 12.7087 24.6419 12.5479 24.5518 12.3919C24.2195 11.817 23.4643 11.4225 22.7304 11.1247C21.9965 10.8268 21.408 10.5017 20.9648 10.2039C20.5217 9.90607 19.5659 9.12355 19.1506 8.6252C18.8184 8.22652 18.5733 7.7252 18.4986 7.52408H18.0353L18.0367 7.53746C18.045 7.6193 18.0625 7.79128 18.1127 8.13965C18.1558 8.43806 18.2087 8.76319 18.2918 9.07976C18.3749 9.39633 18.4986 9.69295 18.4986 9.69295C18.4986 9.69295 17.8868 9.37405 17.5469 9.23463C15.2569 8.29489 13.1542 7.78455 10.6655 7.58521C9.16147 7.46463 6.05151 7.41196 4.08146 7.5229V8.21881C4.68243 8.21881 5.63692 8.26873 6.58808 8.40493C7.56951 8.54547 8.97302 8.80916 9.65345 9.4147C9.65345 9.4147 7.79334 9.43354 6.4601 9.81973C5.62917 10.0604 4.35692 10.7797 4.08146 11.0279V11.7334C4.71131 11.4135 5.12928 11.2783 5.72765 11.1652C6.24737 11.0671 7.09167 11.0233 7.44374 11.0981C7.33927 11.1992 6.88281 11.7169 6.51773 12.1311L6.51767 12.1312L6.5176 12.1312C6.36294 12.3067 6.22469 12.4635 6.13656 12.5622C5.99773 12.7336 5.86899 12.9009 5.75686 13.0534C2.26367 17.7889 4.25114 24.7498 8.70306 28.0264C9.10411 28.3213 9.52178 28.5936 9.95249 28.8422C11.3627 29.6573 12.6198 30.1622 14.561 30.9204L14.6571 30.9578C15.1659 31.1566 15.6761 31.353 16.1867 31.5495C17.753 32.1524 19.3217 32.7563 20.8551 33.4323L20.938 33.4689C21.0112 33.501 21.0844 33.5332 21.1576 33.5653L21.1599 33.5663C22.5737 34.2114 23.7201 35.0035 24.3394 36.3195C24.9587 37.6355 25.2615 39.5565 23.7897 41.4718C23.3752 42.0112 22.9273 42.4081 22.6984 42.596L17.1858 46.6935L7.41213 39.4287C2.74874 35.9623 0 30.4943 0 24.6837V3.26486ZM22.2043 13.3373C21.7564 13.1468 21.5575 12.7423 21.514 12.5634C21.6227 12.5659 21.7831 12.5726 21.9737 12.5835C22.369 12.6069 22.8921 12.6529 23.3359 12.7297C23.4755 12.8949 23.6237 13.4235 23.7325 13.9054C23.5803 13.8335 23.2766 13.7293 22.9714 13.6246L22.9714 13.6246C22.7989 13.5655 22.6259 13.5061 22.4794 13.4523C22.4362 13.434 22.3937 13.4162 22.3522 13.3989L22.3489 13.3975C22.3145 13.3829 22.2804 13.3687 22.2474 13.3549L22.2052 13.3373H22.2043Z" fill="white"/>
</mask>
<g mask="url(#mask1_1101_2373)">
<g opacity="0.5" filter="url(#filter0_f_1101_2373)">
<path d="M28.078 2.44524C28.078 17.057 16.2328 28.9022 1.62102 28.9022C-12.9908 28.9022 -24.8359 17.057 -24.8359 2.44524C-24.8359 -12.1665 -12.9908 -24.0117 1.62102 -24.0117C16.2328 -24.0117 28.078 -12.1665 28.078 2.44524Z" fill="white"/>
</g>
</g>
</g>
<defs>
<filter id="filter0_f_1101_2373" x="-74.1507" y="-73.3265" width="151.543" height="151.544" filterUnits="userSpaceOnUse" color-interpolation-filters="sRGB">
<feFlood flood-opacity="0" result="BackgroundImageFix"/>
<feBlend mode="normal" in="SourceGraphic" in2="BackgroundImageFix" result="shape"/>
<feGaussianBlur stdDeviation="24.6574" result="effect1_foregroundBlur_1101_2373"/>
</filter>
</defs>
</svg>
