<svg width="180" height="50" viewBox="0 0 180 50" fill="none" xmlns="http://www.w3.org/2000/svg">
<mask id="mask0_1101_2371" style="mask-type:alpha" maskUnits="userSpaceOnUse" x="0" y="0" width="35" height="47">
<path d="M0 4.82312C7.11594 4.51692 10.5123 4.05369 17.1858 0.950195C23.9171 4.11622 27.0144 4.51692 34.3716 4.82312V24.684C34.3716 30.4945 31.6228 35.9626 26.9595 39.429L17.1858 46.6938L7.41213 39.429C2.74874 35.9626 0 30.4945 0 24.684V4.82312Z" fill="white"/>
</mask>
<g mask="url(#mask0_1101_2371)">
<path fill-rule="evenodd" clip-rule="evenodd" d="M0 3.26486L17.1858 0.310547L34.3716 3.26486V24.6837C34.3716 27.6876 33.637 30.5999 32.283 33.1914C30.706 29.1022 26.1648 26.9618 22.2166 25.4279C20.5175 24.7676 18.8184 24.1067 17.1228 23.4357C16.8194 23.3156 16.508 23.2011 16.194 23.0856L16.1937 23.0855L16.1935 23.0854C14.9776 22.6383 13.7242 22.1774 12.7563 21.3301C10.3429 19.2175 10.7006 14.7418 13.9547 13.6704C14.1766 13.5973 14.4033 13.5419 14.6328 13.5026C14.2295 13.695 12.8357 14.7298 12.4403 15.7977L12.7104 16.0213C12.8509 15.8933 13.1857 15.604 13.4006 15.4704C13.7085 15.2592 14.1167 15.0563 14.6328 14.889C15.9475 14.4636 17.5879 14.5947 18.6018 15.0201C19.4648 15.3824 20.2532 15.971 21.0256 16.5477L21.0257 16.5477C21.3626 16.7993 21.6965 17.0485 22.0321 17.2757C23.5147 18.2795 25.1225 19.2946 26.8133 19.9051C28.1061 20.3708 29.1235 20.4503 29.9594 20.4349C30.0584 20.4333 30.2617 20.0056 30.3303 19.8614L30.3404 19.8401L30.3463 19.828C31.2374 18.0126 30.8357 15.6561 30.135 13.8389C30.0633 13.652 29.1591 11.4913 29.0654 11.5245L28.5297 11.7179C28.7883 12.2661 29.009 13.1892 29.0458 13.8389C29.0826 14.4974 29.0428 15.223 28.3635 15.5422C27.988 15.7184 27.5442 15.7083 27.1479 15.5861C26.3345 15.3357 25.7484 14.7472 25.2382 14.0958C25.0044 13.7979 24.9024 13.4224 24.8021 13.0534L24.7986 13.0415C24.7819 12.9804 24.7653 12.9199 24.7481 12.86C24.7048 12.7087 24.6419 12.5479 24.5518 12.3919C24.2195 11.817 23.4643 11.4225 22.7304 11.1247C21.9965 10.8268 21.408 10.5017 20.9648 10.2039C20.5217 9.90607 19.5659 9.12355 19.1506 8.6252C18.8184 8.22652 18.5733 7.7252 18.4986 7.52408H18.0353L18.0367 7.53746C18.045 7.6193 18.0625 7.79128 18.1127 8.13965C18.1558 8.43806 18.2087 8.76319 18.2918 9.07976C18.3749 9.39633 18.4986 9.69295 18.4986 9.69295C18.4986 9.69295 17.8868 9.37405 17.5469 9.23463C15.2569 8.29489 13.1542 7.78455 10.6655 7.58521C9.16147 7.46463 6.05151 7.41196 4.08146 7.5229V8.21881C4.68243 8.21881 5.63692 8.26873 6.58808 8.40493C7.56951 8.54547 8.97302 8.80916 9.65345 9.4147C9.65345 9.4147 7.79334 9.43354 6.4601 9.81973C5.62917 10.0604 4.35692 10.7797 4.08146 11.0279V11.7334C4.71131 11.4135 5.12928 11.2783 5.72765 11.1652C6.24737 11.0671 7.09167 11.0233 7.44374 11.0981C7.33927 11.1992 6.88281 11.7169 6.51773 12.1311L6.51767 12.1312L6.5176 12.1312C6.36294 12.3067 6.22469 12.4635 6.13656 12.5622C5.99773 12.7336 5.86899 12.9009 5.75686 13.0534C2.26367 17.7889 4.25114 24.7498 8.70306 28.0264C9.10411 28.3213 9.52178 28.5936 9.95249 28.8422C11.3627 29.6573 12.6198 30.1622 14.561 30.9204L14.6571 30.9578C15.1659 31.1566 15.6761 31.353 16.1867 31.5495C17.753 32.1524 19.3217 32.7563 20.8551 33.4323L20.938 33.4689C21.0112 33.501 21.0844 33.5332 21.1576 33.5653L21.1599 33.5663C22.5737 34.2114 23.7201 35.0035 24.3394 36.3195C24.9587 37.6355 25.2615 39.5565 23.7897 41.4718C23.3752 42.0112 22.9273 42.4081 22.6984 42.596L17.1858 46.6935L7.41213 39.4287C2.74874 35.9623 0 30.4943 0 24.6837V3.26486ZM22.2043 13.3373C21.7564 13.1468 21.5575 12.7423 21.514 12.5634C21.6227 12.5659 21.7831 12.5726 21.9737 12.5835C22.369 12.6069 22.8921 12.6529 23.3359 12.7297C23.4755 12.8949 23.6237 13.4235 23.7325 13.9054C23.5803 13.8335 23.2766 13.7293 22.9714 13.6246L22.9714 13.6246C22.7989 13.5655 22.6259 13.5061 22.4794 13.4523C22.4362 13.434 22.3937 13.4162 22.3522 13.3989L22.3489 13.3975C22.3145 13.3829 22.2804 13.3687 22.2474 13.3549L22.2052 13.3373H22.2043Z" fill="white"/>
<mask id="mask1_1101_2371" style="mask-type:alpha" maskUnits="userSpaceOnUse" x="0" y="0" width="35" height="47">
<path fill-rule="evenodd" clip-rule="evenodd" d="M0 3.26486L17.1858 0.310547L34.3716 3.26486V24.6837C34.3716 27.6876 33.637 30.5999 32.283 33.1914C30.706 29.1022 26.1648 26.9618 22.2166 25.4279C20.5175 24.7676 18.8184 24.1067 17.1228 23.4357C16.8194 23.3156 16.508 23.2011 16.194 23.0856L16.1937 23.0855L16.1935 23.0854C14.9776 22.6383 13.7242 22.1774 12.7563 21.3301C10.3429 19.2175 10.7006 14.7418 13.9547 13.6704C14.1766 13.5973 14.4033 13.5419 14.6328 13.5026C14.2295 13.695 12.8357 14.7298 12.4403 15.7977L12.7104 16.0213C12.8509 15.8933 13.1857 15.604 13.4006 15.4704C13.7085 15.2592 14.1167 15.0563 14.6328 14.889C15.9475 14.4636 17.5879 14.5947 18.6018 15.0201C19.4648 15.3824 20.2532 15.971 21.0256 16.5477L21.0257 16.5477C21.3626 16.7993 21.6965 17.0485 22.0321 17.2757C23.5147 18.2795 25.1225 19.2946 26.8133 19.9051C28.1061 20.3708 29.1235 20.4503 29.9594 20.4349C30.0584 20.4333 30.2617 20.0056 30.3303 19.8614L30.3404 19.8401L30.3463 19.828C31.2374 18.0126 30.8357 15.6561 30.135 13.8389C30.0633 13.652 29.1591 11.4913 29.0654 11.5245L28.5297 11.7179C28.7883 12.2661 29.009 13.1892 29.0458 13.8389C29.0826 14.4974 29.0428 15.223 28.3635 15.5422C27.988 15.7184 27.5442 15.7083 27.1479 15.5861C26.3345 15.3357 25.7484 14.7472 25.2382 14.0958C25.0044 13.7979 24.9024 13.4224 24.8021 13.0534L24.7986 13.0415C24.7819 12.9804 24.7653 12.9199 24.7481 12.86C24.7048 12.7087 24.6419 12.5479 24.5518 12.3919C24.2195 11.817 23.4643 11.4225 22.7304 11.1247C21.9965 10.8268 21.408 10.5017 20.9648 10.2039C20.5217 9.90607 19.5659 9.12355 19.1506 8.6252C18.8184 8.22652 18.5733 7.7252 18.4986 7.52408H18.0353L18.0367 7.53746C18.045 7.6193 18.0625 7.79128 18.1127 8.13965C18.1558 8.43806 18.2087 8.76319 18.2918 9.07976C18.3749 9.39633 18.4986 9.69295 18.4986 9.69295C18.4986 9.69295 17.8868 9.37405 17.5469 9.23463C15.2569 8.29489 13.1542 7.78455 10.6655 7.58521C9.16147 7.46463 6.05151 7.41196 4.08146 7.5229V8.21881C4.68243 8.21881 5.63692 8.26873 6.58808 8.40493C7.56951 8.54547 8.97302 8.80916 9.65345 9.4147C9.65345 9.4147 7.79334 9.43354 6.4601 9.81973C5.62917 10.0604 4.35692 10.7797 4.08146 11.0279V11.7334C4.71131 11.4135 5.12928 11.2783 5.72765 11.1652C6.24737 11.0671 7.09167 11.0233 7.44374 11.0981C7.33927 11.1992 6.88281 11.7169 6.51773 12.1311L6.51767 12.1312L6.5176 12.1312C6.36294 12.3067 6.22469 12.4635 6.13656 12.5622C5.99773 12.7336 5.86899 12.9009 5.75686 13.0534C2.26367 17.7889 4.25114 24.7498 8.70306 28.0264C9.10411 28.3213 9.52178 28.5936 9.95249 28.8422C11.3627 29.6573 12.6198 30.1622 14.561 30.9204L14.6571 30.9578C15.1659 31.1566 15.6761 31.353 16.1867 31.5495C17.753 32.1524 19.3217 32.7563 20.8551 33.4323L20.938 33.4689C21.0112 33.501 21.0844 33.5332 21.1576 33.5653L21.1599 33.5663C22.5737 34.2114 23.7201 35.0035 24.3394 36.3195C24.9587 37.6355 25.2615 39.5565 23.7897 41.4718C23.3752 42.0112 22.9273 42.4081 22.6984 42.596L17.1858 46.6935L7.41213 39.4287C2.74874 35.9623 0 30.4943 0 24.6837V3.26486ZM22.2043 13.3373C21.7564 13.1468 21.5575 12.7423 21.514 12.5634C21.6227 12.5659 21.7831 12.5726 21.9737 12.5835C22.369 12.6069 22.8921 12.6529 23.3359 12.7297C23.4755 12.8949 23.6237 13.4235 23.7325 13.9054C23.5803 13.8335 23.2766 13.7293 22.9714 13.6246L22.9714 13.6246C22.7989 13.5655 22.6259 13.5061 22.4794 13.4523C22.4362 13.434 22.3937 13.4162 22.3522 13.3989L22.3489 13.3975C22.3145 13.3829 22.2804 13.3687 22.2474 13.3549L22.2052 13.3373H22.2043Z" fill="white"/>
</mask>
<g mask="url(#mask1_1101_2371)">
<g opacity="0.5" filter="url(#filter0_f_1101_2371)">
<path d="M28.078 2.44524C28.078 17.057 16.2328 28.9022 1.62102 28.9022C-12.9908 28.9022 -24.8359 17.057 -24.8359 2.44524C-24.8359 -12.1665 -12.9908 -24.0117 1.62102 -24.0117C16.2328 -24.0117 28.078 -12.1665 28.078 2.44524Z" fill="white"/>
</g>
</g>
</g>
<path fill-rule="evenodd" clip-rule="evenodd" d="M177.86 17.628C177.493 17.4752 176.79 17.3071 175.751 17.1237C174.946 17.0017 174.169 16.9284 173.422 16.9038H168.109V27.0888L168.378 27.1523L168.761 27.2334C170.5 27.6015 171.971 27.5687 173.726 27.2696L174.787 27.0888V27.3246L174.309 27.6019C173.868 27.8583 173.407 28.0715 172.934 28.2405C172.906 28.2503 172.879 28.26 172.851 28.2695C172.775 28.2958 172.698 28.321 172.621 28.3451L172.604 28.3504C172.494 28.3844 172.384 28.4161 172.273 28.4455C171.042 28.771 169.745 28.8085 168.484 28.5414L168.151 28.4709L168.109 28.4653V37.8555H172.679C173.812 37.8555 174.837 37.6128 175.753 37.1275C176.67 36.6421 177.452 35.9545 178.099 35.0647C178.774 34.1479 179.286 33.0827 179.636 31.8693H180L178.544 39.5139H159.13V39.1094H159.615C160.235 39.1094 160.748 38.9072 161.152 38.5027C161.583 38.0712 161.799 37.5589 161.799 36.9657V17.7936C161.799 17.1735 161.583 16.6611 161.152 16.2566C160.748 15.8522 160.235 15.6499 159.615 15.6499H159.13V15.2455H172.863V15.2442H173.871C174.128 15.2406 174.391 15.2294 174.66 15.2105C175.435 15.113 176.059 14.8033 176.531 14.2815C177.111 13.6703 177.402 12.8604 177.402 11.8519V11.3476H177.86V17.628Z" fill="white"/>
<path d="M45.6053 31.7902C45.6053 36.2355 50.3806 40.207 55.423 40.338C58.4671 40.4172 61.4104 39.5154 63.3033 37.7676C64.8917 36.301 65.6887 34.4106 65.6887 32.1379C65.6887 32.0258 65.683 31.9097 65.6718 31.7902C65.524 30.2255 64.4168 28.0902 62.5754 26.8912C60.5933 25.6006 59.1106 25.0458 58.2991 24.7974L53.7366 23.0246L52.9897 22.718C50.1209 21.516 50.2667 18.914 51.1862 17.6094C52.0357 16.404 54.0567 16.054 55.7459 16.9824C56.6322 17.4696 57.4529 18.3308 58.527 19.1816C59.3667 19.8467 60.1948 20.4864 61.4967 20.9552C62.9288 21.4709 63.8748 21.3064 64.6006 21.2766C64.6006 21.2766 64.6302 20.0422 64.5643 19.1816C64.4983 18.321 64.3096 17.3893 63.9558 16.6438C63.6329 15.9633 63.2576 15.3811 63.0035 15.045L62.6637 15.2057C62.9259 15.6532 63.1668 16.2997 63.1856 16.8064C63.1865 16.8303 63.1869 16.8539 63.1868 16.8771C63.1876 17.1239 63.1533 17.3165 63.0828 17.4725C63.0431 17.5604 62.9918 17.6366 62.9288 17.7044C62.7436 17.9035 62.4399 18.0981 62.0293 18.0981C61.6509 18.0981 61.0425 17.8794 60.3825 17.3576C59.4563 16.6254 58.8922 16.1294 58.0711 15.4948C57.7577 15.2646 57.4425 15.0332 57.129 14.8112C56.8528 14.6157 56.5743 14.4357 56.2948 14.2699C54.6476 13.2927 53.7836 12.9466 52.4574 12.6802C50.8805 12.3634 49.4883 12.3423 48.5473 12.3423L45.6842 12.3423V12.8265C47.101 12.948 48.9635 13.86 47.5437 15.361C47.5299 15.3755 47.5159 15.3901 47.5015 15.4048C47.2578 15.6596 47.0252 15.9517 46.8495 16.1899C46.6155 16.5072 46.4301 16.8725 46.2618 17.2532C46.0825 17.6588 45.8921 18.1857 45.8 18.7342C45.7517 19.0997 45.7208 19.4434 45.7031 19.798C45.696 19.9965 45.6922 20.2039 45.688 20.4266C45.6868 20.4915 45.6856 20.5578 45.6842 20.6256C45.6842 23.0798 47.062 25.6094 49.7682 27.1732C50.7491 27.7401 51.6239 28.0914 52.9741 28.619L53.0406 28.645C54.8668 29.3585 56.8639 30.1388 58.0598 30.6723C58.4858 30.8623 58.8884 31.0605 59.2557 31.2793C60.614 32.0883 61.4901 33.1783 61.2822 35.1728C61.0965 36.9537 59.1165 38.161 57.5037 38.4412C52.3613 39.0158 50.4123 36.4198 49.631 35.1728C49.006 34.1752 48.8436 32.3677 48.9483 31.3857C47.7778 30.6859 45.8322 29.5269 45.8322 29.5269C45.7549 29.8876 45.6053 30.9034 45.6053 31.7902Z" fill="white"/>
<path d="M67.7702 34.2482C67.5622 33.8983 67.3743 33.5355 67.2065 33.1596C66.5722 31.739 66.1295 29.5116 66.1615 28.2188C66.1539 27.9275 66.1539 27.6313 66.1613 27.3302C66.2268 24.6885 66.8621 22.4519 68.0673 20.6206C69.3001 18.763 71.0341 17.3629 73.2692 16.4203C75.5051 15.4507 78.173 15.0043 81.273 15.0811C82.9416 15.1224 84.4873 15.3018 85.9103 15.6192L87.8067 16.0884L87.6788 21.2526L87.3444 21.2443C87.3762 19.9626 86.9419 18.9202 86.0418 18.1173C85.599 17.7101 85.0508 17.4002 84.4021 17.189C83.5655 16.9205 82.657 16.7742 81.6767 16.7499C79.7628 16.7025 78.1475 17.121 76.8309 18.0055C75.5419 18.8637 74.5536 20.107 73.8659 21.7353C73.2051 23.3643 72.8481 25.2571 72.7947 27.4136C72.7392 29.651 73.0012 31.5995 73.5804 33.2592C74.1867 34.9196 75.085 36.2231 76.2753 37.1697C77.4926 38.1169 78.9632 38.6389 80.6871 38.7355C82.5741 38.7822 84.1314 38.5241 85.3592 37.9611C85.647 37.8291 85.9205 37.6775 86.1796 37.5063C86.3968 37.3627 86.6039 37.2055 86.8009 37.0344C86.952 36.9032 87.0971 36.764 87.2363 36.6166C87.7747 35.9454 88.1902 35.3238 88.2786 34.4397L88.6433 34.4487L88.6264 38.3657C88.2081 38.6665 87.7447 38.9375 87.236 39.1787C86.6425 39.4601 85.9873 39.7008 85.2707 39.901C83.9667 40.2733 82.4252 40.4374 80.646 40.3933C77.6006 40.2909 74.985 39.7136 72.7993 38.6615C70.6135 37.6094 68.9372 36.1383 67.7702 34.2482Z" fill="white"/>
<path d="M104.499 15.5559C103.447 15.3401 102.368 15.2323 101.263 15.2323H88.522V15.6368H89.0478C89.614 15.6368 90.0994 15.839 90.5039 16.2435C90.9353 16.621 91.151 17.1198 91.151 17.74V36.9525C91.151 37.5457 90.9353 38.0581 90.5039 38.4895C90.0724 38.894 89.5736 39.0962 89.0073 39.0962H88.522V39.5007H100.049V39.0962H99.645C99.1326 39.0962 98.6338 38.9075 98.1484 38.53C97.69 38.1525 97.4608 37.6266 97.4608 36.9525V16.9715H98.2698C98.6203 16.9446 99.0113 16.9446 99.4427 16.9715C99.7124 16.9715 100.063 17.0255 100.494 17.1333C100.953 17.2412 101.411 17.4434 101.87 17.74C102.328 18.0366 102.719 18.495 103.043 19.1152C103.366 19.7085 103.541 20.5174 103.568 21.5421C103.595 21.9196 103.595 22.2566 103.568 22.5533C103.541 22.8229 103.514 23.0251 103.487 23.16C103.272 24.2925 102.948 25.1554 102.517 25.7486C102.112 26.3418 101.64 26.7463 101.101 26.962C100.562 27.1777 100.036 27.2856 99.5236 27.2856H98.6929L98.7023 27.3015L100.985 31.1578C100.985 31.1578 105.555 38.8894 107.827 42.7302C109.171 45.0003 109.199 46.0364 108.902 47.1467C108.697 47.9155 108.385 48.5202 108.199 48.8494L108.199 48.8507L108.557 49.0488L108.825 48.5675L111.296 44.0951C111.916 42.9722 112.226 42.4102 112.346 41.8175C112.456 41.2706 112.449 40.7071 112.323 40.1629C112.187 39.5746 111.861 39.0231 111.211 37.9232L111.207 37.9165L105.491 28.2476C105.485 28.249 105.48 28.2504 105.474 28.2519V28.2194L105.491 28.2476C106.459 28.0009 107.261 27.6128 107.896 27.0834C108.705 26.3823 109.285 25.5733 109.635 24.6565C110.013 23.7128 110.202 22.7825 110.202 21.8657C110.202 20.5713 109.946 19.4927 109.433 18.6299C108.921 17.767 108.233 17.0929 107.37 16.6075C106.535 16.1221 105.577 15.7716 104.499 15.5559Z" fill="white"/>
<path d="M105.474 28.2194V28.2519L105.491 28.2476L105.474 28.2194Z" fill="white"/>
<path fill-rule="evenodd" clip-rule="evenodd" d="M153.603 16.7016C151.527 15.7309 149.019 15.2455 146.08 15.2455H135.2L132.585 15.2455H129.322L122.035 26.333C122.035 26.333 115.851 16.0243 113.554 12.1978C112.197 9.9362 112.162 8.90034 112.452 7.78815C112.652 7.01813 113.062 6.22576 113.245 5.89537L112.886 5.69824L110.179 10.669C109.566 11.7958 109.259 12.3598 109.142 12.9532C109.036 13.5008 109.047 14.0641 109.177 14.6076C109.316 15.195 109.645 15.7445 110.303 16.8403L110.306 16.8469L117.357 28.6051L117.36 36.9662C117.333 37.5595 117.104 38.0718 116.672 38.5032C116.241 38.9077 115.715 39.1099 115.095 39.1099H114.65V39.5144L126.376 39.5139V39.1095H125.931C125.311 39.1095 124.785 38.9072 124.354 38.5027C123.923 38.0713 123.693 37.559 123.666 36.9657V28.6145L130.765 17.6327L131.269 16.8561L131.386 16.6762C131.695 16.2137 132.168 15.8692 132.721 15.7246C132.834 15.6906 133.202 15.6292 133.546 15.7324C133.913 15.8314 134.235 16.0197 134.512 16.2971C134.944 16.7286 135.173 17.2409 135.2 17.8341V36.9253C135.173 37.5185 134.944 38.0309 134.512 38.4623C134.081 38.8937 133.541 39.1095 132.894 39.1095H132.409V39.5139H135.2H146.08C149.019 39.5139 151.527 39.0286 153.603 38.0578C155.707 37.0871 157.311 35.6984 158.417 33.8917C159.549 32.0851 160.115 29.9144 160.115 27.3797C160.115 24.845 159.549 22.6743 158.417 20.8677C157.311 19.0341 155.707 17.6454 153.603 16.7016ZM141.469 37.8556V16.8634H145.514C147.995 16.8634 149.936 17.7937 151.338 19.6543C152.767 21.5149 153.482 24.09 153.482 27.3797C153.482 30.6694 152.767 33.2446 151.338 35.1052C149.936 36.9388 147.995 37.8556 145.514 37.8556H141.469Z" fill="white"/>
<defs>
<filter id="filter0_f_1101_2371" x="-74.1507" y="-73.3265" width="151.543" height="151.544" filterUnits="userSpaceOnUse" color-interpolation-filters="sRGB">
<feFlood flood-opacity="0" result="BackgroundImageFix"/>
<feBlend mode="normal" in="SourceGraphic" in2="BackgroundImageFix" result="shape"/>
<feGaussianBlur stdDeviation="24.6574" result="effect1_foregroundBlur_1101_2371"/>
</filter>
</defs>
</svg>
