<svg width="32" height="32" viewBox="0 0 32 32" fill="none" xmlns="http://www.w3.org/2000/svg">
<path d="M16 0L19.1331 2.27302L22.9421 1.5845L24.7787 4.99181L28.5093 6.02416L28.6856 9.89092L31.5988 12.4397L30.08 16L31.5988 19.5603L28.6856 22.1091L28.5093 25.9758L24.7787 27.0082L22.9421 30.4155L19.1331 29.727L16 32L12.8669 29.727L9.05786 30.4155L7.22126 27.0082L3.4907 25.9758L3.31436 22.1091L0.401154 19.5603L1.92 16L0.401154 12.4397L3.31436 9.89092L3.4907 6.02416L7.22126 4.99181L9.05786 1.5845L12.8669 2.27302L16 0Z" fill="url(#paint0_linear_1179_9632)"/>
<circle cx="16.0002" cy="16.0002" r="12.8" fill="url(#paint1_linear_1179_9632)"/>
<circle cx="16.0002" cy="16.0002" r="12.3" stroke="url(#paint2_linear_1179_9632)" stroke-opacity="0.6"/>
<g filter="url(#filter0_i_1179_9632)">
<path d="M8.80975 18.3474C8.72086 17.8592 8.70035 16.5636 8.67984 15.3618C9.64387 16.163 10.7925 17.2395 11.5583 17.878C12.0847 18.3098 12.2625 18.4663 12.3377 18.4663C12.3856 18.4663 12.4061 18.4225 12.4061 18.0344V17.2145C12.4061 15.5496 12.4744 14.0036 12.5291 13.6155C12.4676 13.6218 12.1736 13.6406 11.948 13.6406C11.8181 13.6406 11.5924 13.6406 11.5172 13.6218C11.5993 14.4981 11.6266 16.0816 11.6266 16.6011C10.7788 15.9752 9.01486 14.3854 8.20125 13.6907C8.04399 13.5655 7.9893 13.5342 7.96195 13.5342C7.92092 13.5342 7.89358 13.5592 7.89358 13.8784C7.89358 14.955 7.8252 17.7653 7.77051 18.3599C7.83888 18.3411 8.24227 18.3349 8.33799 18.3349C8.49524 18.3349 8.65249 18.3286 8.80975 18.3474Z" fill="white"/>
<path d="M14.1568 16.5385C14.1568 17.4711 14.1021 18.1221 14.0816 18.3537C14.191 18.3349 14.4303 18.3349 14.7585 18.3349C15.1892 18.3349 15.7362 18.3787 16.6455 18.3787C16.919 18.3787 17.0147 18.3724 17.0489 18.3537C17.0694 18.1659 17.1583 17.8216 17.2266 17.5963C16.9737 17.7027 16.5908 17.7465 16.0438 17.7465C15.7498 17.7465 15.5789 17.7403 15.3875 17.7215C15.3123 17.7152 15.2439 17.6965 15.2234 17.6777C15.1892 17.6464 15.1755 17.4899 15.1755 16.4509V16.1755C15.1755 16.1567 15.1824 16.1505 15.2029 16.1505C15.3875 16.1505 16.0302 16.1567 16.2558 16.1755C16.5566 16.1943 16.6865 16.2318 16.8164 16.3007C16.8164 16.1004 16.8301 15.7186 16.8848 15.4807C16.7959 15.512 16.6728 15.5246 16.2353 15.5433C15.996 15.5433 15.3738 15.5496 15.2029 15.5496C15.1824 15.5496 15.1755 15.5371 15.1755 15.5183V14.2665C15.1755 14.254 15.1824 14.2477 15.2029 14.2477C15.5652 14.2477 16.0028 14.254 16.2421 14.2727C16.6455 14.3166 16.8164 14.3479 16.9326 14.4167C16.9326 14.0474 16.9737 13.747 17.001 13.603C16.8711 13.6406 16.5634 13.6406 16.3241 13.6406H14.6832C14.4439 13.6406 14.191 13.6406 14.0542 13.6218C14.1158 13.8158 14.1568 14.3917 14.1568 15.4369V16.5385Z" fill="white"/>
<path d="M17.6558 13.6218C17.8951 13.941 18.1344 14.4981 18.36 15.0739L19.495 17.9969C19.6385 18.3411 19.6796 18.4413 19.7343 18.4413C19.7821 18.4413 19.8505 18.3474 20.0077 18.0532C20.3769 17.3334 20.9581 16.0503 21.341 15.3493L22.64 18.1096C22.7494 18.3286 22.8246 18.4413 22.8656 18.4413C22.9203 18.4413 22.9819 18.3411 23.1118 18.047C23.6246 16.8452 24.1579 15.5308 24.3561 15.0802C24.6296 14.448 24.8894 13.8784 25.033 13.6155C24.9168 13.6218 24.6706 13.6406 24.3766 13.6406C24.2194 13.6406 24.0963 13.6343 24.0006 13.6218C23.9459 13.9911 23.8092 14.3979 23.6109 14.93C23.4468 15.4119 23.1938 16.019 22.975 16.5698L21.7102 13.8909C21.6281 13.7345 21.5529 13.6155 21.5187 13.6155C21.4846 13.6155 21.4572 13.6468 21.3478 13.8534L20.0214 16.5949C19.8231 16.0816 19.4608 15.0989 19.3856 14.8486C19.201 14.2915 19.0779 13.8847 19.0232 13.6155C18.907 13.6218 18.613 13.6406 18.278 13.6406C17.984 13.6406 17.7583 13.6281 17.6558 13.6218Z" fill="white"/>
</g>
<defs>
<filter id="filter0_i_1179_9632" x="7.77051" y="13.5342" width="17.2627" height="5.13213" filterUnits="userSpaceOnUse" color-interpolation-filters="sRGB">
<feFlood flood-opacity="0" result="BackgroundImageFix"/>
<feBlend mode="normal" in="SourceGraphic" in2="BackgroundImageFix" result="shape"/>
<feColorMatrix in="SourceAlpha" type="matrix" values="0 0 0 0 0 0 0 0 0 0 0 0 0 0 0 0 0 0 127 0" result="hardAlpha"/>
<feOffset dy="0.2"/>
<feGaussianBlur stdDeviation="0.1"/>
<feComposite in2="hardAlpha" operator="arithmetic" k2="-1" k3="1"/>
<feColorMatrix type="matrix" values="0 0 0 0 0 0 0 0 0 0 0 0 0 0 0 0 0 0 0.25 0"/>
<feBlend mode="normal" in2="shape" result="effect1_innerShadow_1179_9632"/>
</filter>
<linearGradient id="paint0_linear_1179_9632" x1="16" y1="-9.03026e-06" x2="4.55162" y2="27.1774" gradientUnits="userSpaceOnUse">
<stop stop-color="#FF5B5B"/>
<stop offset="1" stop-color="#400707"/>
</linearGradient>
<linearGradient id="paint1_linear_1179_9632" x1="16.0002" y1="3.20019" x2="6.84149" y2="24.9421" gradientUnits="userSpaceOnUse">
<stop stop-color="#FF5B5B"/>
<stop offset="1" stop-color="#400707"/>
</linearGradient>
<linearGradient id="paint2_linear_1179_9632" x1="16.0002" y1="3.20019" x2="6.84149" y2="24.9421" gradientUnits="userSpaceOnUse">
<stop stop-color="#460505"/>
<stop offset="1" stop-color="#FD4343"/>
</linearGradient>
</defs>
</svg>
