<svg width="60" height="60" viewBox="0 0 60 60" fill="none" xmlns="http://www.w3.org/2000/svg">
<path d="M30 0L35.8746 4.2619L43.0165 2.97093L46.4601 9.35965L53.4549 11.2953L53.7856 18.5455L59.2478 23.3244L56.4 30L59.2478 36.6756L53.7856 41.4545L53.4549 48.7047L46.4601 50.6404L43.0165 57.0291L35.8746 55.7381L30 60L24.1254 55.7381L16.9835 57.0291L13.5399 50.6404L6.54506 48.7047L6.21442 41.4545L0.752163 36.6756L3.6 30L0.752163 23.3244L6.21442 18.5455L6.54506 11.2953L13.5399 9.35965L16.9835 2.97093L24.1254 4.2619L30 0Z" fill="url(#paint0_linear_725_8667)"/>
<circle cx="30" cy="30" r="24" fill="url(#paint1_linear_725_8667)"/>
<circle cx="30" cy="30" r="23.5" stroke="url(#paint2_linear_725_8667)" stroke-opacity="0.6"/>
<g filter="url(#filter0_i_725_8667)">
<path d="M16.5189 34.4017C16.3522 33.4864 16.3138 31.0571 16.2753 28.8038C18.0829 30.306 20.2366 32.3245 21.6723 33.5216C22.6595 34.3313 22.9928 34.6247 23.1338 34.6247C23.2235 34.6247 23.262 34.5426 23.262 33.815V32.2776C23.262 29.1559 23.3902 26.2571 23.4927 25.5295C23.3774 25.5413 22.8261 25.5765 22.4031 25.5765C22.1595 25.5765 21.7364 25.5765 21.5954 25.5413C21.7493 27.1843 21.8005 30.1534 21.8005 31.1275C20.2109 29.9539 16.9035 26.973 15.3779 25.6703C15.0831 25.4356 14.9805 25.377 14.9293 25.377C14.8523 25.377 14.8011 25.4239 14.8011 26.0224C14.8011 28.041 14.6729 33.3103 14.5703 34.4252C14.6985 34.39 15.4549 34.3783 15.6343 34.3783C15.9292 34.3783 16.224 34.3665 16.5189 34.4017Z" fill="white"/>
<path d="M26.5446 31.0101C26.5446 32.7587 26.442 33.9793 26.4036 34.4135C26.6087 34.3783 27.0574 34.3783 27.6727 34.3783C28.4803 34.3783 29.5059 34.4604 31.2109 34.4604C31.7237 34.4604 31.9032 34.4487 31.9673 34.4135C32.0057 34.0614 32.1724 33.4159 32.3006 32.9935C31.8262 33.193 31.1083 33.2751 30.0828 33.2751C29.5315 33.2751 29.2111 33.2634 28.8521 33.2282C28.7111 33.2164 28.5829 33.1812 28.5444 33.146C28.4803 33.0873 28.4547 32.7939 28.4547 30.8458V30.3294C28.4547 30.2942 28.4675 30.2825 28.506 30.2825C28.8521 30.2825 30.0571 30.2942 30.4802 30.3294C31.0443 30.3646 31.2878 30.4351 31.5314 30.5642C31.5314 30.1886 31.557 29.4727 31.6596 29.0268C31.4929 29.0854 31.2622 29.1089 30.4417 29.1441C29.993 29.1441 28.8265 29.1559 28.506 29.1559C28.4675 29.1559 28.4547 29.1324 28.4547 29.0972V26.75C28.4547 26.7266 28.4675 26.7148 28.506 26.7148C29.1854 26.7148 30.0059 26.7266 30.4545 26.7618C31.2109 26.8439 31.5314 26.9026 31.7493 27.0317C31.7493 26.3393 31.8262 25.776 31.8775 25.506C31.6339 25.5765 31.0571 25.5765 30.6084 25.5765H27.5317C27.083 25.5765 26.6087 25.5765 26.3523 25.5413C26.4677 25.9051 26.5446 26.9847 26.5446 28.9446V31.0101Z" fill="white"/>
<path d="M33.1052 25.5413C33.5539 26.1398 34.0026 27.1843 34.4256 28.2639L36.5537 33.7445C36.8229 34.39 36.8998 34.5778 37.0023 34.5778C37.0921 34.5778 37.2203 34.4017 37.5151 33.8502C38.2074 32.5006 39.297 30.0947 40.0149 28.7803L42.4507 33.9558C42.6558 34.3665 42.7968 34.5778 42.8737 34.5778C42.9763 34.5778 43.0916 34.39 43.3352 33.8384C44.2967 31.5852 45.2966 29.1207 45.6684 28.2757C46.1811 27.0904 46.6683 26.0224 46.9375 25.5295C46.7196 25.5413 46.2581 25.5765 45.7068 25.5765C45.412 25.5765 45.1812 25.5647 45.0017 25.5413C44.8992 26.2337 44.6428 26.9965 44.271 27.994C43.9634 28.8977 43.489 30.036 43.0788 31.0688L40.7072 26.0459C40.5534 25.7525 40.4123 25.5295 40.3482 25.5295C40.2841 25.5295 40.2329 25.5882 40.0278 25.9755L37.5408 31.1157C37.169 30.1534 36.4896 28.3109 36.3485 27.8415C36.0024 26.797 35.7717 26.0342 35.6691 25.5295C35.4512 25.5413 34.8999 25.5765 34.2718 25.5765C33.7205 25.5765 33.2975 25.553 33.1052 25.5413Z" fill="white"/>
</g>
<defs>
<filter id="filter0_i_725_8667" x="14.5703" y="25.377" width="32.3672" height="9.44756" filterUnits="userSpaceOnUse" color-interpolation-filters="sRGB">
<feFlood flood-opacity="0" result="BackgroundImageFix"/>
<feBlend mode="normal" in="SourceGraphic" in2="BackgroundImageFix" result="shape"/>
<feColorMatrix in="SourceAlpha" type="matrix" values="0 0 0 0 0 0 0 0 0 0 0 0 0 0 0 0 0 0 127 0" result="hardAlpha"/>
<feOffset dy="0.2"/>
<feGaussianBlur stdDeviation="0.1"/>
<feComposite in2="hardAlpha" operator="arithmetic" k2="-1" k3="1"/>
<feColorMatrix type="matrix" values="0 0 0 0 0 0 0 0 0 0 0 0 0 0 0 0 0 0 0.25 0"/>
<feBlend mode="normal" in2="shape" result="effect1_innerShadow_725_8667"/>
</filter>
<linearGradient id="paint0_linear_725_8667" x1="30" y1="-1.69317e-05" x2="8.53429" y2="50.9577" gradientUnits="userSpaceOnUse">
<stop stop-color="#FF5B5B"/>
<stop offset="1" stop-color="#400707"/>
</linearGradient>
<linearGradient id="paint1_linear_725_8667" x1="30" y1="5.99999" x2="12.8274" y2="46.7661" gradientUnits="userSpaceOnUse">
<stop stop-color="#FF5B5B"/>
<stop offset="1" stop-color="#400707"/>
</linearGradient>
<linearGradient id="paint2_linear_725_8667" x1="30" y1="5.99999" x2="12.8274" y2="46.7661" gradientUnits="userSpaceOnUse">
<stop stop-color="#460505"/>
<stop offset="1" stop-color="#FD4343"/>
</linearGradient>
</defs>
</svg>
