<svg width="128" height="32" viewBox="0 0 128 32" fill="none" xmlns="http://www.w3.org/2000/svg">
<rect width="128" height="32" rx="16" fill="url(#paint0_linear_1174_1360)"/>
<path d="M17.862 16.982C17.862 18.732 17.778 20.426 17.708 21.056C17.932 21.014 18.506 21 19.164 21C19.57 21 19.934 21.014 20.102 21.028C20.032 20.342 19.948 18.62 19.948 16.982V16.114C19.948 16.072 19.962 16.044 20.004 16.044H24.904C24.932 16.044 24.946 16.072 24.946 16.114V16.982C24.946 18.732 24.876 20.426 24.806 21.056C24.89 21.056 25.66 21 26.15 21C26.528 21 27.018 21.014 27.2 21.028C27.13 20.342 27.046 18.62 27.046 16.982V14.518C27.046 12.516 27.13 10.99 27.2 10.444C26.864 10.486 26.402 10.5 25.842 10.5C25.352 10.5 25.002 10.486 24.806 10.458C24.876 11.004 24.946 12.236 24.946 14.252V14.448C24.946 14.49 24.932 14.504 24.89 14.504H20.004C19.962 14.504 19.948 14.49 19.948 14.448V14.252C19.948 12.166 20.018 10.948 20.074 10.444C19.836 10.486 19.304 10.5 18.674 10.5C18.296 10.5 17.862 10.5 17.652 10.458C17.778 11.074 17.862 12.502 17.862 14.518V16.982ZM35.1272 21.238C38.7672 21.238 40.8532 18.69 40.8532 15.484C40.8532 12.656 38.7812 10.262 35.3092 10.262C31.4032 10.262 29.5552 13.09 29.5552 15.82C29.5552 18.312 31.1932 21.238 35.1272 21.238ZM35.5332 19.95C33.1532 19.95 31.9212 17.822 31.9212 15.344C31.9212 12.782 33.2372 11.522 34.9032 11.522C37.3112 11.522 38.4872 13.734 38.4872 15.974C38.4872 19.208 36.7092 19.95 35.5332 19.95ZM45.4721 11.816C45.4721 11.774 45.4861 11.746 45.5141 11.732C45.6121 11.69 45.8501 11.676 46.2561 11.676C47.5301 11.676 48.1181 12.376 48.1181 13.328C48.1181 13.762 47.9641 14.308 47.5161 14.63C47.3341 14.756 47.1241 14.784 46.8021 14.784C46.6621 14.784 45.7801 14.784 45.5281 14.742C45.4861 14.728 45.4721 14.7 45.4721 14.644V11.816ZM48.7621 18.046C48.7621 19.222 47.8801 19.824 46.9281 19.824C46.0461 19.824 45.6401 19.614 45.5421 19.502C45.5001 19.46 45.4721 18.312 45.4721 16.968V16.1C45.4721 16.058 45.4861 16.044 45.5281 16.03C45.6261 16.016 46.1161 16.016 46.4381 16.03C47.0961 16.072 47.6841 16.184 48.1321 16.618C48.6781 17.122 48.7621 17.612 48.7621 18.046ZM43.4141 16.982C43.4141 18.746 43.3441 20.412 43.2741 21.056C43.5541 21.014 44.1701 21 44.5621 21C44.8281 21 45.8641 21.098 46.8721 21.098C49.5601 21.098 50.9741 19.6 50.9741 17.836C50.9741 16.422 50.0781 15.498 48.6361 15.05C49.3641 14.7 50.0221 13.944 50.0221 12.88C50.0221 11.83 49.4201 10.458 46.6901 10.458C45.7381 10.458 44.9961 10.5 44.1701 10.5C43.8341 10.5 43.4421 10.472 43.2321 10.458C43.3441 11.004 43.4141 12.516 43.4141 14.518V16.982ZM55.714 10.444C55.532 10.486 54.762 10.5 54.454 10.5C54.244 10.5 53.74 10.5 53.362 10.458C53.53 11.62 53.628 18.284 53.628 20.706C53.628 21.154 53.67 21.238 53.768 21.238C53.824 21.238 53.95 21.168 54.272 20.888C55.952 19.376 59.382 15.526 61.048 14.14C61.048 15.316 61.006 19.208 60.838 21.056C60.992 21.014 61.608 21 61.86 21C62.266 21 62.756 21.014 63.106 21.028C62.994 20.244 62.868 16.716 62.868 12.992V10.962C62.868 10.276 62.826 10.192 62.714 10.192C62.574 10.192 62.182 10.514 61.132 11.522C59.564 13.006 57.296 15.54 55.448 17.318C55.49 14.644 55.532 11.522 55.714 10.444ZM73.1634 14.518C73.1634 12.516 73.2474 10.99 73.3174 10.444C73.0514 10.486 72.4354 10.5 71.9734 10.5C71.4834 10.5 71.1054 10.5 70.9234 10.458C70.9934 11.004 71.0774 12.11 71.0774 14.126V14.77C70.7554 14.882 70.3354 14.952 69.7054 14.952C68.3054 14.952 67.4794 14.308 67.4794 12.782C67.4794 11.55 67.5494 10.92 67.5914 10.444C67.3534 10.444 66.6394 10.5 66.2754 10.5C65.9394 10.5 65.3654 10.458 65.2254 10.458C65.3374 11.018 65.3934 11.788 65.3934 12.782C65.3934 14.014 65.6174 14.63 65.9954 15.12C66.5554 15.834 67.3954 16.282 68.9914 16.282C69.6074 16.282 70.3914 16.198 71.0774 15.974V16.842C71.0774 18.606 70.9934 20.44 70.9234 21.07C71.1334 21.028 71.5534 21 72.2674 21C72.8414 21 73.1634 21 73.3314 21.042C73.2194 20.342 73.1634 18.606 73.1634 16.982V14.518ZM78.9145 14.518C78.9145 12.53 78.9845 10.99 79.0545 10.444C78.7745 10.486 78.3685 10.5 77.6265 10.5C77.2765 10.5 76.8145 10.5 76.6325 10.458C76.7865 10.948 76.8145 12.502 76.8145 14.518V16.982C76.8145 18.746 76.7445 20.468 76.6745 21.07C76.9125 21.028 77.6825 21 78.1725 21C78.5785 21 78.9145 21.014 79.0825 21.028C78.9705 20.58 78.9145 18.62 78.9145 16.982V15.568C79.8105 16.758 81.0705 18.424 82.2325 19.74C83.2265 20.958 83.9265 21.098 85.2565 21.098C85.6205 21.098 86.3485 21.056 86.4465 20.958C86.1525 20.846 85.7045 20.552 84.3745 19.152C83.2965 17.99 81.5465 16.002 80.9025 15.134C81.2385 14.714 82.8345 13.076 83.6185 12.222C84.5705 11.27 85.2845 10.668 85.6065 10.43C85.2845 10.472 84.5845 10.5 83.6885 10.5C83.4645 10.5 83.2125 10.472 83.0025 10.458C82.8905 10.668 82.2745 11.606 81.7845 12.18C80.7205 13.58 79.6285 14.742 78.9145 15.4V14.518ZM92.7414 18.284C92.7554 18.284 92.7834 18.298 92.7974 18.326C93.1334 19.11 93.6654 20.412 93.9314 21.056C94.1974 21.014 94.8834 21 95.4854 21C95.6674 21 96.1014 21.014 96.5494 21.028C96.1014 20.426 95.3314 18.788 94.6594 17.304C93.4274 14.532 92.0134 11.424 91.7894 10.976C91.5234 10.374 91.4254 10.262 91.3274 10.262C91.2154 10.262 91.1314 10.416 90.8654 10.976L88.0514 17.304C87.2534 19.054 86.6514 20.314 86.2594 21.056C86.4414 21.014 86.9314 21 87.4774 21C87.9674 21 88.2054 21.014 88.4294 21.028C88.5834 20.398 88.9614 19.292 89.3254 18.326C89.3394 18.298 89.3534 18.284 89.3954 18.284H92.7414ZM89.8434 16.94C89.8014 16.94 89.8014 16.912 89.8154 16.87L91.0194 13.762L92.2794 16.87C92.2934 16.912 92.2794 16.94 92.2374 16.94H89.8434ZM97.8267 21.056C98.0367 21.014 98.4707 21 99.0447 21C99.2547 21 99.7027 20.986 99.9407 21.028C99.9407 19.908 100.165 17.108 100.319 14.868C101.187 16.59 102.671 19.124 103.609 21.07C103.679 21.196 103.721 21.224 103.819 21.056C104.673 19.278 106.143 16.87 107.249 14.84C107.403 16.884 107.683 19.908 107.683 21.056C107.963 21.014 108.509 21 109.111 21C109.671 21 109.965 21.014 110.119 21.028C109.853 20.09 109.377 16.128 108.999 12.894C108.901 12.166 108.845 11.396 108.747 10.682C108.691 10.304 108.677 10.262 108.579 10.262C108.509 10.262 108.425 10.346 108.187 10.724C107.823 11.396 107.459 11.984 106.437 13.566L104.029 17.626L101.033 12.656C100.543 11.914 100.011 10.99 99.6747 10.5C99.5767 10.346 99.5487 10.262 99.4507 10.262C99.4087 10.262 99.3807 10.29 99.3387 10.5C99.2407 11.158 99.1427 11.844 99.0447 12.628C98.6527 15.848 98.0507 20.09 97.8267 21.056Z" fill="white"/>
<rect x="0.5" y="0.5" width="127" height="31" rx="15.5" stroke="url(#paint1_linear_1174_1360)" stroke-opacity="0.6"/>
<defs>
<linearGradient id="paint0_linear_1174_1360" x1="64" y1="-9.03026e-06" x2="60.667" y2="31.649" gradientUnits="userSpaceOnUse">
<stop stop-color="#FF5B5B"/>
<stop offset="1" stop-color="#400707"/>
</linearGradient>
<linearGradient id="paint1_linear_1174_1360" x1="64" y1="-9.03026e-06" x2="60.667" y2="31.649" gradientUnits="userSpaceOnUse">
<stop stop-color="#460505"/>
<stop offset="1" stop-color="#FD4343"/>
</linearGradient>
</defs>
</svg>
