<svg width="238" height="32" viewBox="0 0 238 32" fill="none" xmlns="http://www.w3.org/2000/svg">
<rect width="238" height="32" rx="16" fill="url(#paint0_linear_1174_642)"/>
<path d="M22.468 18.284C22.482 18.284 22.51 18.298 22.524 18.326C22.86 19.11 23.392 20.412 23.658 21.056C23.924 21.014 24.61 21 25.212 21C25.394 21 25.828 21.014 26.276 21.028C25.828 20.426 25.058 18.788 24.386 17.304C23.154 14.532 21.74 11.424 21.516 10.976C21.25 10.374 21.152 10.262 21.054 10.262C20.942 10.262 20.858 10.416 20.592 10.976L17.778 17.304C16.98 19.054 16.378 20.314 15.986 21.056C16.168 21.014 16.658 21 17.204 21C17.694 21 17.932 21.014 18.156 21.028C18.31 20.398 18.688 19.292 19.052 18.326C19.066 18.298 19.08 18.284 19.122 18.284H22.468ZM19.57 16.94C19.528 16.94 19.528 16.912 19.542 16.87L20.746 13.762L22.006 16.87C22.02 16.912 22.006 16.94 21.964 16.94H19.57ZM30.0785 14.518C30.0785 12.53 30.1485 10.99 30.2185 10.444C29.9385 10.486 29.5325 10.5 28.7905 10.5C28.4405 10.5 27.9785 10.5 27.7965 10.458C27.9505 10.948 27.9785 12.502 27.9785 14.518V16.982C27.9785 18.746 27.9085 20.468 27.8385 21.07C28.0765 21.028 28.8465 21 29.3365 21C29.7425 21 30.0785 21.014 30.2465 21.028C30.1345 20.58 30.0785 18.62 30.0785 16.982V15.568C30.9745 16.758 32.2345 18.424 33.3965 19.74C34.3905 20.958 35.0905 21.098 36.4205 21.098C36.7845 21.098 37.5125 21.056 37.6105 20.958C37.3165 20.846 36.8685 20.552 35.5385 19.152C34.4605 17.99 32.7105 16.002 32.0665 15.134C32.4025 14.714 33.9985 13.076 34.7825 12.222C35.7345 11.27 36.4485 10.668 36.7705 10.43C36.4485 10.472 35.7485 10.5 34.8525 10.5C34.6285 10.5 34.3765 10.472 34.1665 10.458C34.0545 10.668 33.4385 11.606 32.9485 12.18C31.8845 13.58 30.7925 14.742 30.0785 15.4V14.518ZM49.7683 22.624C49.7683 21.364 49.9503 19.894 50.0203 19.474C49.6423 19.516 48.9703 19.544 48.0883 19.544C48.0183 19.544 47.9903 19.516 47.9903 19.46C47.9903 19.306 47.9623 17.71 47.9623 16.562V14.532C47.9623 12.754 48.0323 11.088 48.1023 10.444C47.8923 10.486 47.5423 10.5 46.7583 10.5C46.3523 10.5 45.8763 10.5 45.7223 10.458C45.7923 11.13 45.8623 12.908 45.8623 14.532V16.562C45.8623 17.682 45.8483 18.956 45.8063 19.516C45.8063 19.6 45.7783 19.642 45.7083 19.642H41.0463C40.9903 19.642 40.9623 19.6 40.9623 19.516C40.9623 19.18 40.9343 18.466 40.9343 16.562V14.532C40.9343 12.754 40.9903 11.088 41.0603 10.444C40.8503 10.486 40.2623 10.5 39.7583 10.5C38.9743 10.5 38.7923 10.5 38.6383 10.458C38.7503 11.172 38.8343 12.362 38.8343 14.532V16.996C38.8343 18.97 38.7643 20.51 38.6943 21.056C38.9183 21.014 39.4783 21 40.0383 21H46.8003C47.9203 21 48.1023 21.07 48.3403 21.35C48.5083 21.574 48.6623 22.078 48.8723 22.75L49.7683 22.624ZM54.1007 10.444C53.9187 10.486 53.1487 10.5 52.8407 10.5C52.6307 10.5 52.1267 10.5 51.7487 10.458C51.9167 11.62 52.0147 18.284 52.0147 20.706C52.0147 21.154 52.0567 21.238 52.1547 21.238C52.2107 21.238 52.3367 21.168 52.6587 20.888C54.3387 19.376 57.7687 15.526 59.4347 14.14C59.4347 15.316 59.3927 19.208 59.2247 21.056C59.3787 21.014 59.9947 21 60.2467 21C60.6527 21 61.1427 21.014 61.4927 21.028C61.3807 20.244 61.2547 16.716 61.2547 12.992V10.962C61.2547 10.276 61.2127 10.192 61.1007 10.192C60.9607 10.192 60.5687 10.514 59.5187 11.522C57.9507 13.006 55.6827 15.54 53.8347 17.318C53.8767 14.644 53.9187 11.522 54.1007 10.444ZM67.0753 10.444C66.8933 10.486 66.1233 10.5 65.8153 10.5C65.6053 10.5 65.1013 10.5 64.7233 10.458C64.8913 11.62 64.9893 18.284 64.9893 20.706C64.9893 21.154 65.0313 21.238 65.1293 21.238C65.1853 21.238 65.3113 21.168 65.6333 20.888C67.3133 19.376 70.7433 15.526 72.4093 14.14C72.4093 15.316 72.3673 19.208 72.1993 21.056C72.3533 21.014 72.9693 21 73.2213 21C73.6273 21 74.1173 21.014 74.4673 21.028C74.3553 20.244 74.2293 16.716 74.2293 12.992V10.962C74.2293 10.276 74.1873 10.192 74.0753 10.192C73.9353 10.192 73.5433 10.514 72.4933 11.522C70.9253 13.006 68.6573 15.54 66.8093 17.318C66.8513 14.644 66.8933 11.522 67.0753 10.444ZM83.714 10.444C83.532 10.486 82.762 10.5 82.454 10.5C82.244 10.5 81.74 10.5 81.362 10.458C81.53 11.62 81.628 18.284 81.628 20.706C81.628 21.154 81.67 21.238 81.768 21.238C81.824 21.238 81.95 21.168 82.272 20.888C83.952 19.376 87.382 15.526 89.048 14.14C89.048 15.316 89.006 19.208 88.838 21.056C88.992 21.014 89.608 21 89.86 21C90.266 21 90.756 21.014 91.106 21.028C90.994 20.244 90.868 16.716 90.868 12.992V10.962C90.868 10.276 90.826 10.192 90.714 10.192C90.574 10.192 90.182 10.514 89.132 11.522C87.564 13.006 85.296 15.54 83.448 17.318C83.49 14.644 83.532 11.522 83.714 10.444ZM97.5806 21.056C97.7906 21.014 98.2246 21 98.7986 21C99.0086 21 99.4566 20.986 99.6946 21.028C99.6946 19.908 99.9186 17.108 100.073 14.868C100.941 16.59 102.425 19.124 103.363 21.07C103.433 21.196 103.475 21.224 103.573 21.056C104.427 19.278 105.897 16.87 107.003 14.84C107.157 16.884 107.437 19.908 107.437 21.056C107.717 21.014 108.263 21 108.865 21C109.425 21 109.719 21.014 109.873 21.028C109.607 20.09 109.131 16.128 108.753 12.894C108.655 12.166 108.599 11.396 108.501 10.682C108.445 10.304 108.431 10.262 108.333 10.262C108.263 10.262 108.179 10.346 107.941 10.724C107.577 11.396 107.213 11.984 106.191 13.566L103.783 17.626L100.787 12.656C100.297 11.914 99.7646 10.99 99.4286 10.5C99.3306 10.346 99.3026 10.262 99.2046 10.262C99.1626 10.262 99.1346 10.29 99.0926 10.5C98.9946 11.158 98.8966 11.844 98.7986 12.628C98.4066 15.848 97.8046 20.09 97.5806 21.056ZM112.772 16.982C112.772 19.068 112.66 20.524 112.618 21.042C112.842 21 113.332 21 114.004 21C114.886 21 116.006 21.098 117.868 21.098C118.428 21.098 118.624 21.084 118.694 21.042C118.736 20.622 118.918 19.852 119.058 19.348C118.54 19.586 117.756 19.684 116.636 19.684C116.034 19.684 115.684 19.67 115.292 19.628C115.138 19.614 114.998 19.572 114.956 19.53C114.886 19.46 114.858 19.11 114.858 16.786V16.17C114.858 16.128 114.872 16.114 114.914 16.114C115.292 16.114 116.608 16.128 117.07 16.17C117.686 16.212 117.952 16.296 118.218 16.45C118.218 16.002 118.246 15.148 118.358 14.616C118.176 14.686 117.924 14.714 117.028 14.756C116.538 14.756 115.264 14.77 114.914 14.77C114.872 14.77 114.858 14.742 114.858 14.7V11.9C114.858 11.872 114.872 11.858 114.914 11.858C115.656 11.858 116.552 11.872 117.042 11.914C117.868 12.012 118.218 12.082 118.456 12.236C118.456 11.41 118.54 10.738 118.596 10.416C118.33 10.5 117.7 10.5 117.21 10.5H113.85C113.36 10.5 112.842 10.5 112.562 10.458C112.688 10.892 112.772 12.18 112.772 14.518V16.982ZM121.289 16.982C121.289 18.732 121.205 20.426 121.135 21.056C121.317 21.014 122.031 21 122.423 21C122.829 21 123.305 21.014 123.529 21.028C123.459 20.356 123.389 18.62 123.389 17.038V11.97C123.389 11.69 123.389 11.69 123.459 11.648C123.571 11.606 123.893 11.592 124.103 11.592C124.775 11.592 125.391 11.802 125.741 12.138C126.175 12.46 126.427 12.936 126.427 13.706C126.427 15.176 125.363 15.582 124.257 15.652C124.327 15.876 124.495 16.52 124.565 16.772C126.651 16.842 128.471 15.596 128.471 13.468C128.471 12.474 128.023 11.76 127.617 11.41C126.903 10.808 126.049 10.444 124.215 10.444C123.249 10.444 122.605 10.5 121.989 10.5C121.597 10.5 121.345 10.514 121.121 10.472C121.219 11.018 121.289 12.502 121.289 14.518V16.982ZM135.834 21.238C139.474 21.238 141.56 18.69 141.56 15.484C141.56 12.656 139.488 10.262 136.016 10.262C132.11 10.262 130.262 13.09 130.262 15.82C130.262 18.312 131.9 21.238 135.834 21.238ZM136.24 19.95C133.86 19.95 132.628 17.822 132.628 15.344C132.628 12.782 133.944 11.522 135.61 11.522C138.018 11.522 139.194 13.734 139.194 15.974C139.194 19.208 137.416 19.95 136.24 19.95ZM144.121 16.982C144.121 18.746 144.051 20.412 143.981 21.056C144.191 21.014 144.541 21 145.325 21C145.731 21 146.221 21.014 146.389 21.028C146.291 20.468 146.221 19.236 146.221 16.982V14.056C146.221 13.496 146.235 12.138 146.235 11.942C146.235 11.886 146.263 11.858 146.305 11.858H151.107C151.177 11.858 151.205 11.9 151.205 11.97C151.205 12.292 151.219 13.748 151.219 14.322V16.982C151.219 18.732 151.135 20.426 151.065 21.056C151.275 21.014 151.751 21 152.409 21C152.927 21 153.277 21.014 153.487 21.028C153.375 20.328 153.319 18.62 153.319 16.982V14.518C153.319 12.516 153.389 10.99 153.459 10.444C153.193 10.486 152.675 10.5 152.073 10.5H145.171C144.835 10.5 144.093 10.458 143.939 10.458C144.093 11.074 144.121 12.502 144.121 14.518V16.982ZM156.973 16.982C156.973 18.732 156.889 20.426 156.819 21.056C157.001 21.014 157.715 21 158.107 21C158.513 21 158.989 21.014 159.213 21.028C159.143 20.356 159.073 18.62 159.073 17.038V11.97C159.073 11.69 159.073 11.69 159.143 11.648C159.255 11.606 159.577 11.592 159.787 11.592C160.459 11.592 161.075 11.802 161.425 12.138C161.859 12.46 162.111 12.936 162.111 13.706C162.111 15.176 161.047 15.582 159.941 15.652C160.011 15.876 160.179 16.52 160.249 16.772C162.335 16.842 164.155 15.596 164.155 13.468C164.155 12.474 163.707 11.76 163.301 11.41C162.587 10.808 161.733 10.444 159.899 10.444C158.933 10.444 158.289 10.5 157.673 10.5C157.281 10.5 157.029 10.514 156.805 10.472C156.903 11.018 156.973 12.502 156.973 14.518V16.982ZM168.657 10.444C168.475 10.486 167.705 10.5 167.397 10.5C167.187 10.5 166.683 10.5 166.305 10.458C166.473 11.62 166.571 18.284 166.571 20.706C166.571 21.154 166.613 21.238 166.711 21.238C166.767 21.238 166.893 21.168 167.215 20.888C168.895 19.376 172.325 15.526 173.991 14.14C173.991 15.316 173.949 19.208 173.781 21.056C173.935 21.014 174.551 21 174.803 21C175.209 21 175.699 21.014 176.049 21.028C175.937 20.244 175.811 16.716 175.811 12.992V10.962C175.811 10.276 175.769 10.192 175.657 10.192C175.517 10.192 175.125 10.514 174.075 11.522C172.507 13.006 170.239 15.54 168.391 17.318C168.433 14.644 168.475 11.522 168.657 10.444ZM186.613 14.518C186.613 12.502 186.627 11.032 186.809 10.458C186.515 10.514 185.955 10.5 185.619 10.5C185.367 10.5 184.471 10.444 183.869 10.444C182.567 10.444 181.713 10.654 181.111 10.99C180.369 11.396 179.557 12.25 179.557 13.608C179.557 14.882 180.173 15.82 181.307 16.45C181.153 16.618 180.677 17.206 179.893 18.27C179.515 18.76 179.123 19.292 178.773 19.726C178.157 20.468 177.681 20.916 177.499 21.028C177.681 21.084 178.059 21.112 178.381 21.126C179.319 21.168 179.697 21.084 180.103 20.86C180.369 20.706 180.691 20.37 180.971 19.992C181.461 19.32 182.595 17.556 183.043 16.926C183.099 16.87 183.141 16.842 183.169 16.842C183.379 16.856 183.645 16.87 183.925 16.87H184.527C184.555 16.87 184.569 16.898 184.569 16.94V17.29C184.569 19.026 184.499 20.356 184.401 21.07C184.555 21.028 185.073 21 185.689 21C186.081 21 186.529 21.014 186.795 21.056C186.725 20.398 186.613 18.662 186.613 16.982V14.518ZM184.569 15.442C184.569 15.54 184.541 15.54 184.499 15.554C184.345 15.596 184.219 15.61 183.827 15.61C183.435 15.61 183.001 15.554 182.721 15.428C181.993 15.106 181.615 14.406 181.615 13.566C181.615 12.152 182.623 11.662 183.729 11.662C184.065 11.662 184.401 11.69 184.513 11.746C184.541 11.76 184.555 11.788 184.555 11.844C184.555 12.432 184.569 14.238 184.569 15.442ZM188.443 12.18C188.947 12.026 189.311 11.956 190.403 11.886C191.285 11.844 191.621 11.858 192.223 11.858V16.982C192.223 18.746 192.153 20.454 192.083 21.056C192.461 21.014 192.923 21 193.539 21C193.945 21 194.267 21.014 194.477 21.028C194.407 20.356 194.323 18.606 194.323 16.982V11.858C195.443 11.858 195.891 11.872 196.423 11.914C197.221 11.984 197.697 12.082 197.991 12.292C198.005 11.676 198.047 10.962 198.201 10.36C197.865 10.43 196.857 10.5 195.863 10.5H191.131C189.843 10.5 189.199 10.458 188.765 10.346C188.723 10.822 188.555 11.802 188.443 12.18ZM202.208 10.444C202.026 10.486 201.256 10.5 200.948 10.5C200.738 10.5 200.234 10.5 199.856 10.458C200.024 11.62 200.122 18.284 200.122 20.706C200.122 21.154 200.164 21.238 200.262 21.238C200.318 21.238 200.444 21.168 200.766 20.888C202.446 19.376 205.876 15.526 207.542 14.14C207.542 15.316 207.5 19.208 207.332 21.056C207.486 21.014 208.102 21 208.354 21C208.76 21 209.25 21.014 209.6 21.028C209.488 20.244 209.362 16.716 209.362 12.992V10.962C209.362 10.276 209.32 10.192 209.208 10.192C209.068 10.192 208.676 10.514 207.626 11.522C206.058 13.006 203.79 15.54 201.942 17.318C201.984 14.644 202.026 11.522 202.208 10.444ZM220.164 14.518C220.164 12.502 220.178 11.032 220.36 10.458C220.066 10.514 219.506 10.5 219.17 10.5C218.918 10.5 218.022 10.444 217.42 10.444C216.118 10.444 215.264 10.654 214.662 10.99C213.92 11.396 213.108 12.25 213.108 13.608C213.108 14.882 213.724 15.82 214.858 16.45C214.704 16.618 214.228 17.206 213.444 18.27C213.066 18.76 212.674 19.292 212.324 19.726C211.708 20.468 211.232 20.916 211.05 21.028C211.232 21.084 211.61 21.112 211.932 21.126C212.87 21.168 213.248 21.084 213.654 20.86C213.92 20.706 214.242 20.37 214.522 19.992C215.012 19.32 216.146 17.556 216.594 16.926C216.65 16.87 216.692 16.842 216.72 16.842C216.93 16.856 217.196 16.87 217.476 16.87H218.078C218.106 16.87 218.12 16.898 218.12 16.94V17.29C218.12 19.026 218.05 20.356 217.952 21.07C218.106 21.028 218.624 21 219.24 21C219.632 21 220.08 21.014 220.346 21.056C220.276 20.398 220.164 18.662 220.164 16.982V14.518ZM218.12 15.442C218.12 15.54 218.092 15.54 218.05 15.554C217.896 15.596 217.77 15.61 217.378 15.61C216.986 15.61 216.552 15.554 216.272 15.428C215.544 15.106 215.166 14.406 215.166 13.566C215.166 12.152 216.174 11.662 217.28 11.662C217.616 11.662 217.952 11.69 218.064 11.746C218.092 11.76 218.106 11.788 218.106 11.844C218.106 12.432 218.12 14.238 218.12 15.442Z" fill="white"/>
<rect x="0.5" y="0.5" width="237" height="31" rx="15.5" stroke="url(#paint1_linear_1174_642)" stroke-opacity="0.6"/>
<defs>
<linearGradient id="paint0_linear_1174_642" x1="119" y1="-9.03026e-06" x2="117.193" y2="31.8977" gradientUnits="userSpaceOnUse">
<stop stop-color="#FF5B5B"/>
<stop offset="1" stop-color="#400707"/>
</linearGradient>
<linearGradient id="paint1_linear_1174_642" x1="119" y1="-9.03026e-06" x2="117.193" y2="31.8977" gradientUnits="userSpaceOnUse">
<stop stop-color="#460505"/>
<stop offset="1" stop-color="#FD4343"/>
</linearGradient>
</defs>
</svg>
