<svg width="248" height="32" viewBox="0 0 248 32" fill="none" xmlns="http://www.w3.org/2000/svg">
<rect width="248" height="32" rx="16" fill="url(#paint0_linear_1174_841)"/>
<path d="M17.862 16.982C17.862 18.732 17.778 20.426 17.708 21.056C17.932 21.014 18.506 21 19.164 21C19.57 21 19.934 21.014 20.102 21.028C20.032 20.342 19.948 18.62 19.948 16.982V16.114C19.948 16.072 19.962 16.044 20.004 16.044H24.904C24.932 16.044 24.946 16.072 24.946 16.114V16.982C24.946 18.732 24.876 20.426 24.806 21.056C24.89 21.056 25.66 21 26.15 21C26.528 21 27.018 21.014 27.2 21.028C27.13 20.342 27.046 18.62 27.046 16.982V14.518C27.046 12.516 27.13 10.99 27.2 10.444C26.864 10.486 26.402 10.5 25.842 10.5C25.352 10.5 25.002 10.486 24.806 10.458C24.876 11.004 24.946 12.236 24.946 14.252V14.448C24.946 14.49 24.932 14.504 24.89 14.504H20.004C19.962 14.504 19.948 14.49 19.948 14.448V14.252C19.948 12.166 20.018 10.948 20.074 10.444C19.836 10.486 19.304 10.5 18.674 10.5C18.296 10.5 17.862 10.5 17.652 10.458C17.778 11.074 17.862 12.502 17.862 14.518V16.982ZM35.1272 21.238C38.7672 21.238 40.8532 18.69 40.8532 15.484C40.8532 12.656 38.7812 10.262 35.3092 10.262C31.4032 10.262 29.5552 13.09 29.5552 15.82C29.5552 18.312 31.1932 21.238 35.1272 21.238ZM35.5332 19.95C33.1532 19.95 31.9212 17.822 31.9212 15.344C31.9212 12.782 33.2372 11.522 34.9032 11.522C37.3112 11.522 38.4872 13.734 38.4872 15.974C38.4872 19.208 36.7092 19.95 35.5332 19.95ZM45.4721 11.816C45.4721 11.774 45.4861 11.746 45.5141 11.732C45.6121 11.69 45.8501 11.676 46.2561 11.676C47.5301 11.676 48.1181 12.376 48.1181 13.328C48.1181 13.762 47.9641 14.308 47.5161 14.63C47.3341 14.756 47.1241 14.784 46.8021 14.784C46.6621 14.784 45.7801 14.784 45.5281 14.742C45.4861 14.728 45.4721 14.7 45.4721 14.644V11.816ZM48.7621 18.046C48.7621 19.222 47.8801 19.824 46.9281 19.824C46.0461 19.824 45.6401 19.614 45.5421 19.502C45.5001 19.46 45.4721 18.312 45.4721 16.968V16.1C45.4721 16.058 45.4861 16.044 45.5281 16.03C45.6261 16.016 46.1161 16.016 46.4381 16.03C47.0961 16.072 47.6841 16.184 48.1321 16.618C48.6781 17.122 48.7621 17.612 48.7621 18.046ZM43.4141 16.982C43.4141 18.746 43.3441 20.412 43.2741 21.056C43.5541 21.014 44.1701 21 44.5621 21C44.8281 21 45.8641 21.098 46.8721 21.098C49.5601 21.098 50.9741 19.6 50.9741 17.836C50.9741 16.422 50.0781 15.498 48.6361 15.05C49.3641 14.7 50.0221 13.944 50.0221 12.88C50.0221 11.83 49.4201 10.458 46.6901 10.458C45.7381 10.458 44.9961 10.5 44.1701 10.5C43.8341 10.5 43.4421 10.472 43.2321 10.458C43.3441 11.004 43.4141 12.516 43.4141 14.518V16.982ZM58.26 21.238C61.9 21.238 63.986 18.69 63.986 15.484C63.986 12.656 61.914 10.262 58.442 10.262C54.536 10.262 52.688 13.09 52.688 15.82C52.688 18.312 54.326 21.238 58.26 21.238ZM58.666 19.95C56.286 19.95 55.054 17.822 55.054 15.344C55.054 12.782 56.37 11.522 58.036 11.522C60.444 11.522 61.62 13.734 61.62 15.974C61.62 19.208 59.842 19.95 58.666 19.95ZM72.3083 21.238C73.5263 21.238 74.7163 21.014 75.2763 20.79C75.3183 20.342 75.4863 19.362 75.6403 18.956C74.8143 19.502 73.6943 19.698 72.5743 19.698C69.5363 19.698 68.2063 17.598 68.2063 15.372C68.2063 14.21 68.4863 13.202 69.3683 12.432C69.9143 11.97 70.6843 11.606 71.8603 11.606C73.4983 11.606 74.7303 12.166 75.3883 12.824C75.3883 12.11 75.5423 11.172 75.6543 10.766C75.0663 10.654 73.9043 10.262 72.0423 10.262C69.9843 10.262 68.6263 10.78 67.5063 11.746C66.1483 12.95 65.8403 14.546 65.8403 15.582C65.8403 16.94 66.2323 18.522 67.5903 19.726C68.9483 20.888 70.6283 21.238 72.3083 21.238ZM76.9082 12.18C77.4122 12.026 77.7762 11.956 78.8682 11.886C79.7502 11.844 80.0862 11.858 80.6882 11.858V16.982C80.6882 18.746 80.6182 20.454 80.5482 21.056C80.9262 21.014 81.3882 21 82.0042 21C82.4102 21 82.7322 21.014 82.9422 21.028C82.8722 20.356 82.7882 18.606 82.7882 16.982V11.858C83.9082 11.858 84.3562 11.872 84.8882 11.914C85.6862 11.984 86.1622 12.082 86.4562 12.292C86.4702 11.676 86.5122 10.962 86.6662 10.36C86.3302 10.43 85.3222 10.5 84.3282 10.5H79.5962C78.3082 10.5 77.6642 10.458 77.2302 10.346C77.1882 10.822 77.0202 11.802 76.9082 12.18ZM90.6729 10.444C90.4909 10.486 89.7209 10.5 89.4129 10.5C89.2029 10.5 88.6989 10.5 88.3209 10.458C88.4889 11.62 88.5869 18.284 88.5869 20.706C88.5869 21.154 88.6289 21.238 88.7269 21.238C88.7829 21.238 88.9089 21.168 89.2309 20.888C90.9109 19.376 94.3409 15.526 96.0069 14.14C96.0069 15.316 95.9649 19.208 95.7969 21.056C95.9509 21.014 96.5669 21 96.8189 21C97.2249 21 97.7149 21.014 98.0649 21.028C97.9529 20.244 97.8269 16.716 97.8269 12.992V10.962C97.8269 10.276 97.7849 10.192 97.6729 10.192C97.5329 10.192 97.1409 10.514 96.0909 11.522C94.5229 13.006 92.2549 15.54 90.4069 17.318C90.4489 14.644 90.4909 11.522 90.6729 10.444ZM107.312 10.444C107.13 10.486 106.36 10.5 106.052 10.5C105.842 10.5 105.338 10.5 104.96 10.458C105.128 11.62 105.226 18.284 105.226 20.706C105.226 21.154 105.268 21.238 105.366 21.238C105.422 21.238 105.548 21.168 105.87 20.888C107.55 19.376 110.98 15.526 112.646 14.14C112.646 15.316 112.604 19.208 112.436 21.056C112.59 21.014 113.206 21 113.458 21C113.864 21 114.354 21.014 114.704 21.028C114.592 20.244 114.466 16.716 114.466 12.992V10.962C114.466 10.276 114.424 10.192 114.312 10.192C114.172 10.192 113.78 10.514 112.73 11.522C111.162 13.006 108.894 15.54 107.046 17.318C107.088 14.644 107.13 11.522 107.312 10.444ZM126.414 21.238C130.054 21.238 132.14 18.69 132.14 15.484C132.14 12.656 130.068 10.262 126.596 10.262C122.69 10.262 120.842 13.09 120.842 15.82C120.842 18.312 122.48 21.238 126.414 21.238ZM126.82 19.95C124.44 19.95 123.208 17.822 123.208 15.344C123.208 12.782 124.524 11.522 126.19 11.522C128.598 11.522 129.774 13.734 129.774 15.974C129.774 19.208 127.996 19.95 126.82 19.95ZM136.815 14.658C136.815 13.678 136.857 12.264 136.857 11.914C136.857 11.872 136.871 11.858 136.913 11.858C137.991 11.858 139.027 11.872 139.545 11.914C140.343 11.97 140.875 12.026 141.169 12.236C141.183 11.634 141.169 11.018 141.323 10.416C141.001 10.514 140.287 10.5 138.999 10.5H135.569C135.219 10.5 134.757 10.514 134.575 10.472C134.687 10.962 134.757 12.516 134.757 14.532V16.982C134.757 19.474 134.687 20.132 134.617 21.028C134.729 21.014 135.135 21 135.527 21C136.073 21 136.885 21.098 138.061 21.098C140.805 21.098 142.317 19.698 142.317 17.92C142.317 16.702 141.729 15.834 140.763 15.316C140.021 14.924 139.027 14.728 137.683 14.728H136.871C136.829 14.728 136.815 14.7 136.815 14.658ZM136.815 16.072C136.815 16.03 136.829 16.016 136.857 16.002C136.955 15.988 137.151 15.974 137.361 15.974C138.201 15.974 138.943 16.114 139.405 16.492C139.965 16.94 140.105 17.43 140.105 18.06C140.105 19.166 139.307 19.824 138.243 19.824C137.627 19.824 137.081 19.712 136.899 19.558C136.857 19.516 136.815 19.138 136.815 16.968V16.072ZM148.255 14.658C148.255 12.404 148.353 10.976 148.409 10.43C148.087 10.472 147.569 10.5 147.121 10.5H145.511C144.223 10.5 143.565 10.458 143.159 10.346C143.089 10.836 142.949 11.76 142.837 12.18C143.341 12.026 143.705 11.956 144.797 11.886C145.581 11.844 145.567 11.858 146.155 11.858C146.197 12.348 146.211 13.076 146.211 14.532V16.982C146.211 19.474 146.141 20.132 146.071 21.028C146.183 21.014 146.575 21 146.981 21C147.499 21 148.017 21.098 149.515 21.098C152.259 21.098 153.771 19.656 153.771 17.92C153.771 16.702 153.183 15.834 152.217 15.316C151.475 14.924 150.439 14.728 149.137 14.728H148.325C148.283 14.728 148.255 14.7 148.255 14.658ZM148.255 16.072C148.255 16.03 148.269 16.016 148.311 16.002C148.409 15.988 148.661 15.974 148.871 15.974C149.711 15.974 150.397 16.114 150.859 16.492C151.419 16.94 151.545 17.43 151.545 18.06C151.545 19.222 150.775 19.824 149.697 19.824C149.095 19.824 148.549 19.712 148.367 19.558C148.297 19.488 148.255 19.138 148.255 16.968V16.072ZM163.508 14.518C163.508 12.502 163.522 11.032 163.704 10.458C163.41 10.514 162.85 10.5 162.514 10.5C162.262 10.5 161.366 10.444 160.764 10.444C159.462 10.444 158.608 10.654 158.006 10.99C157.264 11.396 156.452 12.25 156.452 13.608C156.452 14.882 157.068 15.82 158.202 16.45C158.048 16.618 157.572 17.206 156.788 18.27C156.41 18.76 156.018 19.292 155.668 19.726C155.052 20.468 154.575 20.916 154.393 21.028C154.575 21.084 154.954 21.112 155.276 21.126C156.214 21.168 156.592 21.084 156.998 20.86C157.264 20.706 157.586 20.37 157.866 19.992C158.356 19.32 159.49 17.556 159.938 16.926C159.994 16.87 160.036 16.842 160.064 16.842C160.274 16.856 160.54 16.87 160.82 16.87H161.422C161.45 16.87 161.464 16.898 161.464 16.94V17.29C161.464 19.026 161.394 20.356 161.296 21.07C161.45 21.028 161.968 21 162.584 21C162.976 21 163.424 21.014 163.69 21.056C163.62 20.398 163.508 18.662 163.508 16.982V14.518ZM161.464 15.442C161.464 15.54 161.436 15.54 161.394 15.554C161.24 15.596 161.114 15.61 160.722 15.61C160.33 15.61 159.896 15.554 159.616 15.428C158.888 15.106 158.51 14.406 158.51 13.566C158.51 12.152 159.518 11.662 160.624 11.662C160.96 11.662 161.296 11.69 161.408 11.746C161.436 11.76 161.45 11.788 161.45 11.844C161.45 12.432 161.464 14.238 161.464 15.442ZM169.23 11.816C169.23 11.774 169.244 11.746 169.272 11.732C169.37 11.69 169.608 11.676 170.014 11.676C171.288 11.676 171.876 12.376 171.876 13.328C171.876 13.762 171.722 14.308 171.274 14.63C171.092 14.756 170.882 14.784 170.56 14.784C170.42 14.784 169.538 14.784 169.286 14.742C169.244 14.728 169.23 14.7 169.23 14.644V11.816ZM172.52 18.046C172.52 19.222 171.638 19.824 170.686 19.824C169.804 19.824 169.398 19.614 169.3 19.502C169.258 19.46 169.23 18.312 169.23 16.968V16.1C169.23 16.058 169.244 16.044 169.286 16.03C169.384 16.016 169.874 16.016 170.196 16.03C170.854 16.072 171.442 16.184 171.89 16.618C172.436 17.122 172.52 17.612 172.52 18.046ZM167.172 16.982C167.172 18.746 167.102 20.412 167.032 21.056C167.312 21.014 167.928 21 168.32 21C168.586 21 169.622 21.098 170.63 21.098C173.318 21.098 174.732 19.6 174.732 17.836C174.732 16.422 173.836 15.498 172.394 15.05C173.122 14.7 173.78 13.944 173.78 12.88C173.78 11.83 173.178 10.458 170.448 10.458C169.496 10.458 168.754 10.5 167.928 10.5C167.592 10.5 167.2 10.472 166.99 10.458C167.102 11.004 167.172 12.516 167.172 14.518V16.982ZM182.459 18.326C182.795 19.11 183.327 20.454 183.551 21.056C183.817 21.014 184.503 21 185.105 21C185.287 21 185.721 21.014 186.169 21.028C185.721 20.426 184.951 18.788 184.279 17.304C183.047 14.532 181.633 11.438 181.409 11.004C181.143 10.402 181.045 10.262 180.947 10.262C180.835 10.262 180.751 10.43 180.485 11.004L177.671 17.304C176.873 19.054 176.271 20.314 175.879 21.056C176.061 21.014 176.551 21 177.097 21C177.587 21 177.839 21.014 178.049 21.028C178.217 20.398 178.581 19.32 178.959 18.326L180.653 14.056L182.459 18.326ZM187.899 16.982C187.899 19.068 187.787 20.524 187.745 21.042C187.969 21 188.459 21 189.131 21C190.013 21 191.133 21.098 192.995 21.098C193.555 21.098 193.751 21.084 193.821 21.042C193.863 20.622 194.045 19.852 194.185 19.348C193.667 19.586 192.883 19.684 191.763 19.684C191.161 19.684 190.811 19.67 190.419 19.628C190.265 19.614 190.125 19.572 190.083 19.53C190.013 19.46 189.985 19.11 189.985 16.786V16.17C189.985 16.128 189.999 16.114 190.041 16.114C190.419 16.114 191.735 16.128 192.197 16.17C192.813 16.212 193.079 16.296 193.345 16.45C193.345 16.002 193.373 15.148 193.485 14.616C193.303 14.686 193.051 14.714 192.155 14.756C191.665 14.756 190.391 14.77 190.041 14.77C189.999 14.77 189.985 14.742 189.985 14.7V11.9C189.985 11.872 189.999 11.858 190.041 11.858C190.783 11.858 191.679 11.872 192.169 11.914C192.995 12.012 193.345 12.082 193.583 12.236C193.583 11.41 193.667 10.738 193.723 10.416C193.457 10.5 192.827 10.5 192.337 10.5H188.977C188.487 10.5 187.969 10.5 187.689 10.458C187.815 10.892 187.899 12.18 187.899 14.518V16.982ZM196.444 16.982C196.444 18.732 196.36 20.426 196.29 21.056C196.514 21.014 197.088 21 197.746 21C198.152 21 198.516 21.014 198.684 21.028C198.614 20.342 198.53 18.62 198.53 16.982V16.114C198.53 16.072 198.544 16.044 198.586 16.044H203.486C203.514 16.044 203.528 16.072 203.528 16.114V16.982C203.528 18.732 203.458 20.426 203.388 21.056C203.472 21.056 204.242 21 204.732 21C205.11 21 205.6 21.014 205.782 21.028C205.712 20.342 205.628 18.62 205.628 16.982V14.518C205.628 12.516 205.712 10.99 205.782 10.444C205.446 10.486 204.984 10.5 204.424 10.5C203.934 10.5 203.584 10.486 203.388 10.458C203.458 11.004 203.528 12.236 203.528 14.252V14.448C203.528 14.49 203.514 14.504 203.472 14.504H198.586C198.544 14.504 198.53 14.49 198.53 14.448V14.252C198.53 12.166 198.6 10.948 198.656 10.444C198.418 10.486 197.886 10.5 197.256 10.5C196.878 10.5 196.444 10.5 196.234 10.458C196.36 11.074 196.444 12.502 196.444 14.518V16.982ZM211.286 10.444C211.104 10.486 210.334 10.5 210.026 10.5C209.816 10.5 209.312 10.5 208.934 10.458C209.102 11.62 209.2 18.284 209.2 20.706C209.2 21.154 209.242 21.238 209.34 21.238C209.396 21.238 209.522 21.168 209.844 20.888C211.524 19.376 214.954 15.526 216.62 14.14C216.62 15.316 216.578 19.208 216.41 21.056C216.564 21.014 217.18 21 217.432 21C217.838 21 218.328 21.014 218.678 21.028C218.566 20.244 218.44 16.716 218.44 12.992V10.962C218.44 10.276 218.398 10.192 218.286 10.192C218.146 10.192 217.754 10.514 216.704 11.522C215.136 13.006 212.868 15.54 211.02 17.318C211.062 14.644 211.104 11.522 211.286 10.444ZM229.242 14.518C229.242 12.502 229.256 11.032 229.438 10.458C229.144 10.514 228.584 10.5 228.248 10.5C227.996 10.5 227.1 10.444 226.498 10.444C225.196 10.444 224.342 10.654 223.74 10.99C222.998 11.396 222.186 12.25 222.186 13.608C222.186 14.882 222.802 15.82 223.936 16.45C223.782 16.618 223.306 17.206 222.522 18.27C222.144 18.76 221.752 19.292 221.402 19.726C220.786 20.468 220.31 20.916 220.128 21.028C220.31 21.084 220.688 21.112 221.01 21.126C221.948 21.168 222.326 21.084 222.732 20.86C222.998 20.706 223.32 20.37 223.6 19.992C224.09 19.32 225.224 17.556 225.672 16.926C225.728 16.87 225.77 16.842 225.798 16.842C226.008 16.856 226.274 16.87 226.554 16.87H227.156C227.184 16.87 227.198 16.898 227.198 16.94V17.29C227.198 19.026 227.128 20.356 227.03 21.07C227.184 21.028 227.702 21 228.318 21C228.71 21 229.158 21.014 229.424 21.056C229.354 20.398 229.242 18.662 229.242 16.982V14.518ZM227.198 15.442C227.198 15.54 227.17 15.54 227.128 15.554C226.974 15.596 226.848 15.61 226.456 15.61C226.064 15.61 225.63 15.554 225.35 15.428C224.622 15.106 224.244 14.406 224.244 13.566C224.244 12.152 225.252 11.662 226.358 11.662C226.694 11.662 227.03 11.69 227.142 11.746C227.17 11.76 227.184 11.788 227.184 11.844C227.184 12.432 227.198 14.238 227.198 15.442Z" fill="white"/>
<rect x="0.5" y="0.5" width="247" height="31" rx="15.5" stroke="url(#paint1_linear_1174_841)" stroke-opacity="0.6"/>
<defs>
<linearGradient id="paint0_linear_1174_841" x1="124" y1="-9.03026e-06" x2="122.266" y2="31.9057" gradientUnits="userSpaceOnUse">
<stop stop-color="#FF5B5B"/>
<stop offset="1" stop-color="#400707"/>
</linearGradient>
<linearGradient id="paint1_linear_1174_841" x1="124" y1="-9.03026e-06" x2="122.266" y2="31.9057" gradientUnits="userSpaceOnUse">
<stop stop-color="#460505"/>
<stop offset="1" stop-color="#FD4343"/>
</linearGradient>
</defs>
</svg>
