<svg width="100" height="24" viewBox="0 0 100 24" fill="none" xmlns="http://www.w3.org/2000/svg">
<rect width="100" height="24" rx="4" fill="#CC0000" fill-opacity="0.9"/>
<g clip-path="url(#clip0_822_8919)">
<path d="M17.25 12C17.25 12.6875 16.6875 13.25 16 13.25C15.3125 13.25 14.75 12.6875 14.75 12C14.75 11.3125 15.3125 10.75 16 10.75C16.6875 10.75 17.25 11.3125 17.25 12ZM18.6375 14.6625L19.525 15.55C20.4375 14.6375 21 13.3875 21 12C21 10.6125 20.4375 9.36255 19.525 8.45005L18.6375 9.33755C19.325 10.025 19.75 10.9625 19.75 12C19.75 13.0375 19.325 13.975 18.6375 14.6625ZM12.475 15.55L13.3625 14.6625C12.675 13.975 12.25 13.0375 12.25 12C12.25 10.9625 12.675 10.025 13.3625 9.33755L12.475 8.45005C11.5625 9.36255 11 10.6125 11 12C11 13.3875 11.5625 14.6375 12.475 15.55ZM21.2875 17.3125L22.175 18.2C23.7625 16.6125 24.75 14.425 24.75 12C24.75 9.57505 23.7625 7.38755 22.175 5.80005L21.2875 6.68755C22.65 8.05005 23.5 9.92505 23.5 12C23.5 14.075 22.65 15.95 21.2875 17.3125ZM9.825 18.2L10.7125 17.3125C9.35 15.95 8.5 14.075 8.5 12C8.5 9.92505 9.35 8.05005 10.7125 6.68755L9.825 5.80005C8.2375 7.38755 7.25 9.57505 7.25 12C7.25 14.425 8.2375 16.6125 9.825 18.2Z" fill="white"/>
</g>
<path d="M36.7441 12.502H34.208L34.1943 11.251H36.4092C36.7829 11.251 37.0996 11.1963 37.3594 11.0869C37.6237 10.973 37.8242 10.8112 37.9609 10.6016C38.0977 10.3874 38.166 10.1299 38.166 9.8291C38.166 9.49642 38.1022 9.22526 37.9746 9.01562C37.847 8.80599 37.651 8.65332 37.3867 8.55762C37.127 8.46191 36.7943 8.41406 36.3887 8.41406H34.7275V17H33.0117V7.04688H36.3887C36.9355 7.04688 37.4232 7.09928 37.8516 7.2041C38.2845 7.30892 38.6514 7.47298 38.9521 7.69629C39.2575 7.91504 39.4876 8.19303 39.6426 8.53027C39.8021 8.86751 39.8818 9.26855 39.8818 9.7334C39.8818 10.1436 39.7839 10.5195 39.5879 10.8613C39.3919 11.1986 39.1025 11.4743 38.7197 11.6885C38.3369 11.9027 37.8607 12.0303 37.291 12.0713L36.7441 12.502ZM36.6689 17H33.668L34.4404 15.6396H36.6689C37.0563 15.6396 37.3799 15.5758 37.6396 15.4482C37.8994 15.3161 38.0931 15.1361 38.2207 14.9082C38.3529 14.6758 38.4189 14.4046 38.4189 14.0947C38.4189 13.7712 38.362 13.4909 38.248 13.2539C38.1341 13.0124 37.9541 12.8278 37.708 12.7002C37.4619 12.568 37.1406 12.502 36.7441 12.502H34.8164L34.8301 11.251H37.3389L37.7285 11.7227C38.2754 11.7409 38.7243 11.8617 39.0752 12.085C39.4307 12.3083 39.695 12.5977 39.8682 12.9531C40.0413 13.3086 40.1279 13.6914 40.1279 14.1016C40.1279 14.735 39.9889 15.266 39.7109 15.6943C39.4375 16.1227 39.0433 16.4486 38.5283 16.6719C38.0133 16.8906 37.3936 17 36.6689 17ZM52.5789 11.3467V12.7139H48.4158V11.3467H52.5789ZM45.7156 13.7598H47.4246C47.4747 14.1973 47.5773 14.5664 47.7322 14.8672C47.8917 15.168 48.1219 15.3958 48.4227 15.5508C48.728 15.7057 49.1268 15.7832 49.6189 15.7832C50.0154 15.7832 50.3572 15.7035 50.6443 15.5439C50.936 15.3844 51.1753 15.1589 51.3621 14.8672C51.549 14.571 51.688 14.2201 51.7791 13.8145C51.8702 13.4043 51.9158 12.9463 51.9158 12.4404V11.6064C51.9158 11.1826 51.8839 10.7975 51.8201 10.4512C51.7563 10.1003 51.6583 9.79036 51.5262 9.52148C51.3986 9.2526 51.2391 9.02702 51.0477 8.84473C50.8608 8.65788 50.6421 8.5166 50.3914 8.4209C50.1408 8.3252 49.8605 8.27734 49.5506 8.27734C49.0721 8.27734 48.6847 8.35938 48.3885 8.52344C48.0923 8.68294 47.8689 8.91764 47.7186 9.22754C47.5682 9.53288 47.4679 9.90202 47.4178 10.335H45.7088C45.7771 9.66504 45.964 9.07259 46.2693 8.55762C46.5747 8.04264 46.9985 7.63932 47.5408 7.34766C48.0877 7.05599 48.7576 6.91016 49.5506 6.91016C50.1749 6.91016 50.7355 7.02181 51.2322 7.24512C51.7335 7.46387 52.1619 7.7806 52.5174 8.19531C52.8729 8.60547 53.144 9.09993 53.3309 9.67871C53.5223 10.2575 53.618 10.9046 53.618 11.6201V12.4404C53.618 13.1559 53.5245 13.8031 53.3377 14.3818C53.1554 14.9606 52.8888 15.4551 52.5379 15.8652C52.187 16.2754 51.7654 16.5898 51.2732 16.8086C50.7811 17.0273 50.2296 17.1367 49.6189 17.1367C48.8123 17.1367 48.1287 16.9932 47.5682 16.7061C47.0122 16.4144 46.5792 16.0133 46.2693 15.5029C45.9594 14.9925 45.7749 14.4115 45.7156 13.7598ZM59.2453 7.9834H61.2004C61.7883 7.9834 62.3283 8.08138 62.8205 8.27734C63.3173 8.47331 63.7502 8.7513 64.1193 9.11133C64.4885 9.4668 64.7756 9.89518 64.9807 10.3965C65.1857 10.8932 65.2883 11.4469 65.2883 12.0576C65.2883 12.6592 65.1857 13.2083 64.9807 13.7051C64.7756 14.2018 64.4885 14.6302 64.1193 14.9902C63.7502 15.3457 63.3173 15.6191 62.8205 15.8105C62.3283 16.002 61.7883 16.0977 61.2004 16.0977H59.2453C58.662 16.0977 58.1219 16.002 57.6252 15.8105C57.1284 15.6191 56.6932 15.3457 56.3195 14.9902C55.9504 14.6348 55.6633 14.2109 55.4582 13.7188C55.2577 13.222 55.1574 12.6729 55.1574 12.0713C55.1574 11.4606 55.2577 10.9069 55.4582 10.4102C55.6633 9.90885 55.9504 9.47819 56.3195 9.11816C56.6932 8.75358 57.1284 8.47331 57.6252 8.27734C58.1219 8.08138 58.662 7.9834 59.2453 7.9834ZM59.2453 9.35059C58.7349 9.35059 58.2951 9.45996 57.926 9.67871C57.5568 9.8929 57.272 10.2028 57.0715 10.6084C56.8755 11.014 56.7775 11.5016 56.7775 12.0713C56.7775 12.4906 56.8345 12.8643 56.9484 13.1924C57.0624 13.5205 57.2264 13.7985 57.4406 14.0264C57.6548 14.2542 57.9146 14.4297 58.2199 14.5527C58.5253 14.6758 58.8671 14.7373 59.2453 14.7373H61.2141C61.7199 14.7373 62.1551 14.6302 62.5197 14.416C62.8843 14.1973 63.1646 13.8874 63.3605 13.4863C63.5611 13.0853 63.6613 12.609 63.6613 12.0576C63.6613 11.6338 63.6044 11.2555 63.4904 10.9229C63.3811 10.5856 63.2193 10.3008 63.0051 10.0684C62.7954 9.83594 62.5402 9.6582 62.2395 9.53516C61.9387 9.41211 61.5969 9.35059 61.2141 9.35059H59.2453ZM61.05 6.63672V17.4102H59.4025V6.63672H61.05ZM68.8375 14.2041L73.2535 7.04688H74.9693V17H73.2535V9.83594L68.8375 17H67.1285V7.04688H68.8375V14.2041ZM81.1572 13.2881H78.5664V11.9277H81.1572C81.6084 11.9277 81.973 11.8548 82.251 11.709C82.529 11.5632 82.7318 11.3626 82.8594 11.1074C82.9915 10.8477 83.0576 10.5514 83.0576 10.2188C83.0576 9.9043 82.9915 9.61035 82.8594 9.33691C82.7318 9.05892 82.529 8.83561 82.251 8.66699C81.973 8.49837 81.6084 8.41406 81.1572 8.41406H79.0928V17H77.377V7.04688H81.1572C81.9274 7.04688 82.5814 7.18359 83.1191 7.45703C83.6615 7.72591 84.0739 8.09961 84.3564 8.57812C84.639 9.05208 84.7803 9.5944 84.7803 10.2051C84.7803 10.8477 84.639 11.3991 84.3564 11.8594C84.0739 12.3197 83.6615 12.6729 83.1191 12.9189C82.5814 13.165 81.9274 13.2881 81.1572 13.2881ZM93.183 15.6396V17H87.8988V15.6396H93.183ZM88.3842 7.04688V17H86.6684V7.04688H88.3842ZM92.4926 11.2031V12.543H87.8988V11.2031H92.4926ZM93.1488 7.04688V8.41406H87.8988V7.04688H93.1488Z" fill="white"/>
<defs>
<clipPath id="clip0_822_8919">
<rect width="20" height="20" fill="white" transform="translate(6 2)"/>
</clipPath>
</defs>
</svg>
