<svg width="46" height="47" viewBox="0 0 46 47" fill="none" xmlns="http://www.w3.org/2000/svg">
<g filter="url(#filter0_d_725_8951)">
<path d="M25.056 1.50246C26.5154 1.49686 27.9748 1.51153 29.4338 1.54646L29.8218 1.56046C30.2698 1.57646 30.7117 1.59646 31.2457 1.62046C33.3736 1.72045 34.8255 2.05644 36.0995 2.55043C37.4194 3.05841 38.5313 3.74638 39.6433 4.85835C40.66 5.85752 41.4468 7.06616 41.9492 8.40023C42.4431 9.67418 42.7791 11.1281 42.8791 13.2561C42.9031 13.788 42.9231 14.232 42.9391 14.68L42.9511 15.068C42.9866 16.5263 43.002 17.9851 42.9971 19.4439L42.9991 20.9358V23.5557C43.004 25.0151 42.9887 26.4746 42.9531 27.9336L42.9411 28.3215C42.9251 28.7695 42.9051 29.2115 42.8811 29.7455C42.7811 31.8734 42.4411 33.3254 41.9492 34.5993C41.4485 35.9348 40.6614 37.1444 39.6433 38.1432C38.6432 39.1598 37.434 39.9467 36.0995 40.4491C34.8255 40.9431 33.3736 41.2791 31.2457 41.3791C30.7117 41.4031 30.2698 41.4231 29.8218 41.4391L29.4338 41.4511C27.9748 41.4867 26.5154 41.502 25.056 41.4971L23.5641 41.4991H20.9462C19.4868 41.504 18.0274 41.4887 16.5685 41.4531L16.1805 41.4411C15.7057 41.4239 15.2311 41.4039 14.7565 41.3811C12.6287 41.2811 11.1767 40.9411 9.9008 40.4491C8.56624 39.9478 7.35741 39.1608 6.35898 38.1432C5.34112 37.1438 4.55352 35.9344 4.0511 34.5993C3.55713 33.3254 3.22114 31.8734 3.12115 29.7455C3.09887 29.2709 3.07888 28.7963 3.06115 28.3215L3.05115 27.9336C3.01428 26.4746 2.99761 25.0152 3.00115 23.5557V19.4439C2.99557 17.9851 3.01024 16.5263 3.04515 15.068L3.05915 14.68C3.07515 14.232 3.09515 13.788 3.11915 13.2561C3.21914 11.1261 3.55513 9.67618 4.0491 8.40023C4.55182 7.06551 5.34096 5.8572 6.36098 4.86035C7.35872 3.84189 8.56679 3.05355 9.9008 2.55043C11.1767 2.05644 12.6267 1.72045 14.7565 1.62046L16.1805 1.56046L16.5685 1.55046C18.0267 1.51361 19.4855 1.49694 20.9442 1.50046L25.056 1.50246ZM23.0001 11.5021C21.6752 11.4834 20.3598 11.7282 19.1303 12.2222C17.9008 12.7163 16.7817 13.4498 15.8382 14.3801C14.8946 15.3105 14.1454 16.419 13.634 17.6414C13.1226 18.8638 12.8592 20.1757 12.8592 21.5008C12.8592 22.8259 13.1226 24.1377 13.634 25.3601C14.1454 26.5825 14.8946 27.6911 15.8382 28.6214C16.7817 29.5518 17.9008 30.2853 19.1303 30.7793C20.3598 31.2734 21.6752 31.5182 23.0001 31.4994C25.6522 31.4994 28.1956 30.4459 30.0708 28.5706C31.9461 26.6953 32.9996 24.1519 32.9996 21.4998C32.9996 18.8477 31.9461 16.3043 30.0708 14.429C28.1956 12.5537 25.6522 11.5021 23.0001 11.5021ZM23.0001 15.502C23.7971 15.4873 24.589 15.6316 25.3296 15.9264C26.0702 16.2212 26.7446 16.6606 27.3135 17.219C27.8823 17.7774 28.3342 18.4435 28.6427 19.1785C28.9512 19.9135 29.1102 20.7026 29.1103 21.4998C29.1105 22.2969 28.9518 23.086 28.6435 23.8211C28.3352 24.5562 27.8836 25.2225 27.3149 25.7811C26.7462 26.3397 26.0719 26.7793 25.3315 27.0744C24.591 27.3695 23.7991 27.514 23.0021 27.4996C21.4109 27.4996 19.8849 26.8675 18.7597 25.7423C17.6345 24.6171 17.0024 23.091 17.0024 21.4998C17.0024 19.9085 17.6345 18.3825 18.7597 17.2573C19.8849 16.1321 21.4109 15.5 23.0021 15.5L23.0001 15.502ZM33.4996 8.50222C32.8544 8.52805 32.2442 8.80251 31.7969 9.26814C31.3495 9.73376 31.0997 10.3544 31.0997 11.0001C31.0997 11.6458 31.3495 12.2665 31.7969 12.7321C32.2442 13.1978 32.8544 13.4722 33.4996 13.4981C34.1626 13.4981 34.7985 13.2347 35.2673 12.7658C35.7361 12.297 35.9995 11.6612 35.9995 10.9981C35.9995 10.3351 35.7361 9.69926 35.2673 9.23043C34.7985 8.76161 34.1626 8.49822 33.4996 8.49822V8.50222Z" fill="white"/>
<path d="M25.056 1.50246C26.5154 1.49686 27.9748 1.51153 29.4338 1.54646L29.8218 1.56046C30.2698 1.57646 30.7117 1.59646 31.2457 1.62046C33.3736 1.72045 34.8255 2.05644 36.0995 2.55043C37.4194 3.05841 38.5313 3.74638 39.6433 4.85835C40.66 5.85752 41.4468 7.06616 41.9492 8.40023C42.4431 9.67418 42.7791 11.1281 42.8791 13.2561C42.9031 13.788 42.9231 14.232 42.9391 14.68L42.9511 15.068C42.9866 16.5263 43.002 17.9851 42.9971 19.4439L42.9991 20.9358V23.5557C43.004 25.0151 42.9887 26.4746 42.9531 27.9336L42.9411 28.3215C42.9251 28.7695 42.9051 29.2115 42.8811 29.7455C42.7811 31.8734 42.4411 33.3254 41.9492 34.5993C41.4485 35.9348 40.6614 37.1444 39.6433 38.1432C38.6432 39.1598 37.434 39.9467 36.0995 40.4491C34.8255 40.9431 33.3736 41.2791 31.2457 41.3791C30.7117 41.4031 30.2698 41.4231 29.8218 41.4391L29.4338 41.4511C27.9748 41.4867 26.5154 41.502 25.056 41.4971L23.5641 41.4991H20.9462C19.4868 41.504 18.0274 41.4887 16.5685 41.4531L16.1805 41.4411C15.7057 41.4239 15.2311 41.4039 14.7565 41.3811C12.6287 41.2811 11.1767 40.9411 9.9008 40.4491C8.56624 39.9478 7.35741 39.1608 6.35898 38.1432C5.34112 37.1438 4.55352 35.9344 4.0511 34.5993C3.55713 33.3254 3.22114 31.8734 3.12115 29.7455C3.09887 29.2709 3.07888 28.7963 3.06115 28.3215L3.05115 27.9336C3.01428 26.4746 2.99761 25.0152 3.00115 23.5557V19.4439C2.99557 17.9851 3.01024 16.5263 3.04515 15.068L3.05915 14.68C3.07515 14.232 3.09515 13.788 3.11915 13.2561C3.21914 11.1261 3.55513 9.67618 4.0491 8.40023C4.55182 7.06551 5.34096 5.8572 6.36098 4.86035C7.35872 3.84189 8.56679 3.05355 9.9008 2.55043C11.1767 2.05644 12.6267 1.72045 14.7565 1.62046L16.1805 1.56046L16.5685 1.55046C18.0267 1.51361 19.4855 1.49694 20.9442 1.50046L25.056 1.50246ZM23.0001 11.5021C21.6752 11.4834 20.3598 11.7282 19.1303 12.2222C17.9008 12.7163 16.7817 13.4498 15.8382 14.3801C14.8946 15.3105 14.1454 16.419 13.634 17.6414C13.1226 18.8638 12.8592 20.1757 12.8592 21.5008C12.8592 22.8259 13.1226 24.1377 13.634 25.3601C14.1454 26.5825 14.8946 27.6911 15.8382 28.6214C16.7817 29.5518 17.9008 30.2853 19.1303 30.7793C20.3598 31.2734 21.6752 31.5182 23.0001 31.4994C25.6522 31.4994 28.1956 30.4459 30.0708 28.5706C31.9461 26.6953 32.9996 24.1519 32.9996 21.4998C32.9996 18.8477 31.9461 16.3043 30.0708 14.429C28.1956 12.5537 25.6522 11.5021 23.0001 11.5021ZM23.0001 15.502C23.7971 15.4873 24.589 15.6316 25.3296 15.9264C26.0702 16.2212 26.7446 16.6606 27.3135 17.219C27.8823 17.7774 28.3342 18.4435 28.6427 19.1785C28.9512 19.9135 29.1102 20.7026 29.1103 21.4998C29.1105 22.2969 28.9518 23.086 28.6435 23.8211C28.3352 24.5562 27.8836 25.2225 27.3149 25.7811C26.7462 26.3397 26.0719 26.7793 25.3315 27.0744C24.591 27.3695 23.7991 27.514 23.0021 27.4996C21.4109 27.4996 19.8849 26.8675 18.7597 25.7423C17.6345 24.6171 17.0024 23.091 17.0024 21.4998C17.0024 19.9085 17.6345 18.3825 18.7597 17.2573C19.8849 16.1321 21.4109 15.5 23.0021 15.5L23.0001 15.502ZM33.4996 8.50222C32.8544 8.52805 32.2442 8.80251 31.7969 9.26814C31.3495 9.73376 31.0997 10.3544 31.0997 11.0001C31.0997 11.6458 31.3495 12.2665 31.7969 12.7321C32.2442 13.1978 32.8544 13.4722 33.4996 13.4981C34.1626 13.4981 34.7985 13.2347 35.2673 12.7658C35.7361 12.297 35.9995 11.6612 35.9995 10.9981C35.9995 10.3351 35.7361 9.69926 35.2673 9.23043C34.7985 8.76161 34.1626 8.49822 33.4996 8.49822V8.50222Z" fill="url(#paint0_linear_725_8951)"/>
</g>
<defs>
<filter id="filter0_d_725_8951" x="0" y="0.5" width="46" height="46" filterUnits="userSpaceOnUse" color-interpolation-filters="sRGB">
<feFlood flood-opacity="0" result="BackgroundImageFix"/>
<feColorMatrix in="SourceAlpha" type="matrix" values="0 0 0 0 0 0 0 0 0 0 0 0 0 0 0 0 0 0 127 0" result="hardAlpha"/>
<feOffset dy="2"/>
<feGaussianBlur stdDeviation="1.5"/>
<feComposite in2="hardAlpha" operator="out"/>
<feColorMatrix type="matrix" values="0 0 0 0 0 0 0 0 0 0 0 0 0 0 0 0 0 0 0.32 0"/>
<feBlend mode="normal" in2="BackgroundImageFix" result="effect1_dropShadow_725_8951"/>
<feBlend mode="normal" in="SourceGraphic" in2="effect1_dropShadow_725_8951" result="shape"/>
</filter>
<linearGradient id="paint0_linear_725_8951" x1="23" y1="32.0714" x2="23" y2="-4.5" gradientUnits="userSpaceOnUse">
<stop offset="0.276042" stop-color="#D7E8FF"/>
<stop offset="0.447917" stop-color="#99B2D6" stop-opacity="0.6"/>
<stop offset="0.645833" stop-color="#D7E8FF" stop-opacity="0.6"/>
</linearGradient>
</defs>
</svg>
