<svg width="36" height="35" viewBox="0 0 36 35" fill="none" xmlns="http://www.w3.org/2000/svg">
<g filter="url(#filter0_d_1623_38832)">
<path d="M18 1C9.72 1 3 7.72 3 16C3 24.28 9.72 31 18 31C26.28 31 33 24.28 33 16C33 7.72 26.28 1 18 1ZM24.96 11.2C24.735 13.57 23.76 19.33 23.265 21.985C23.055 23.11 22.635 23.485 22.245 23.53C21.375 23.605 20.715 22.96 19.875 22.405C18.555 21.535 17.805 20.995 16.53 20.155C15.045 19.18 16.005 18.64 16.86 17.77C17.085 17.545 20.925 14.05 21 13.735C21.0104 13.6873 21.009 13.6378 20.996 13.5907C20.9829 13.5437 20.9585 13.5005 20.925 13.465C20.835 13.39 20.715 13.42 20.61 13.435C20.475 13.465 18.375 14.86 14.28 17.62C13.68 18.025 13.14 18.235 12.66 18.22C12.12 18.205 11.1 17.92 10.335 17.665C9.39 17.365 8.655 17.2 8.715 16.675C8.745 16.405 9.12 16.135 9.825 15.85C14.205 13.945 17.115 12.685 18.57 12.085C22.74 10.345 23.595 10.045 24.165 10.045C24.285 10.045 24.57 10.075 24.75 10.225C24.9 10.345 24.945 10.51 24.96 10.63C24.945 10.72 24.975 10.99 24.96 11.2Z" fill="white"/>
<path d="M18 1C9.72 1 3 7.72 3 16C3 24.28 9.72 31 18 31C26.28 31 33 24.28 33 16C33 7.72 26.28 1 18 1ZM24.96 11.2C24.735 13.57 23.76 19.33 23.265 21.985C23.055 23.11 22.635 23.485 22.245 23.53C21.375 23.605 20.715 22.96 19.875 22.405C18.555 21.535 17.805 20.995 16.53 20.155C15.045 19.18 16.005 18.64 16.86 17.77C17.085 17.545 20.925 14.05 21 13.735C21.0104 13.6873 21.009 13.6378 20.996 13.5907C20.9829 13.5437 20.9585 13.5005 20.925 13.465C20.835 13.39 20.715 13.42 20.61 13.435C20.475 13.465 18.375 14.86 14.28 17.62C13.68 18.025 13.14 18.235 12.66 18.22C12.12 18.205 11.1 17.92 10.335 17.665C9.39 17.365 8.655 17.2 8.715 16.675C8.745 16.405 9.12 16.135 9.825 15.85C14.205 13.945 17.115 12.685 18.57 12.085C22.74 10.345 23.595 10.045 24.165 10.045C24.285 10.045 24.57 10.075 24.75 10.225C24.9 10.345 24.945 10.51 24.96 10.63C24.945 10.72 24.975 10.99 24.96 11.2Z" fill="url(#paint0_linear_1623_38832)"/>
</g>
<defs>
<filter id="filter0_d_1623_38832" x="0.75" y="0.25" width="34.5" height="34.5" filterUnits="userSpaceOnUse" color-interpolation-filters="sRGB">
<feFlood flood-opacity="0" result="BackgroundImageFix"/>
<feColorMatrix in="SourceAlpha" type="matrix" values="0 0 0 0 0 0 0 0 0 0 0 0 0 0 0 0 0 0 127 0" result="hardAlpha"/>
<feOffset dy="1.5"/>
<feGaussianBlur stdDeviation="1.125"/>
<feComposite in2="hardAlpha" operator="out"/>
<feColorMatrix type="matrix" values="0 0 0 0 0 0 0 0 0 0 0 0 0 0 0 0 0 0 0.32 0"/>
<feBlend mode="normal" in2="BackgroundImageFix" result="effect1_dropShadow_1623_38832"/>
<feBlend mode="normal" in="SourceGraphic" in2="effect1_dropShadow_1623_38832" result="shape"/>
</filter>
<linearGradient id="paint0_linear_1623_38832" x1="18" y1="23.9286" x2="18" y2="-3.5" gradientUnits="userSpaceOnUse">
<stop offset="0.276042" stop-color="#EBF3FF"/>
<stop offset="0.447917" stop-color="#C3D0E1" stop-opacity="0.6"/>
<stop offset="0.645833" stop-color="#EBF3FF" stop-opacity="0.6"/>
</linearGradient>
</defs>
</svg>
