<svg width="46" height="47" viewBox="0 0 46 47" fill="none" xmlns="http://www.w3.org/2000/svg">
<g filter="url(#filter0_d_725_8933)">
<path d="M23 1.5C11.96 1.5 3 10.46 3 21.5C3 32.54 11.96 41.5 23 41.5C34.04 41.5 43 32.54 43 21.5C43 10.46 34.04 1.5 23 1.5ZM32.28 15.1C31.98 18.26 30.68 25.94 30.02 29.48C29.74 30.98 29.18 31.48 28.66 31.54C27.5 31.64 26.62 30.78 25.5 30.04C23.74 28.88 22.74 28.16 21.04 27.04C19.06 25.74 20.34 25.02 21.48 23.86C21.78 23.56 26.9 18.9 27 18.48C27.0139 18.4164 27.012 18.3503 26.9946 18.2876C26.9772 18.2249 26.9447 18.1673 26.9 18.12C26.78 18.02 26.62 18.06 26.48 18.08C26.3 18.12 23.5 19.98 18.04 23.66C17.24 24.2 16.52 24.48 15.88 24.46C15.16 24.44 13.8 24.06 12.78 23.72C11.52 23.32 10.54 23.1 10.62 22.4C10.66 22.04 11.16 21.68 12.1 21.3C17.94 18.76 21.82 17.08 23.76 16.28C29.32 13.96 30.46 13.56 31.22 13.56C31.38 13.56 31.76 13.6 32 13.8C32.2 13.96 32.26 14.18 32.28 14.34C32.26 14.46 32.3 14.82 32.28 15.1Z" fill="white"/>
<path d="M23 1.5C11.96 1.5 3 10.46 3 21.5C3 32.54 11.96 41.5 23 41.5C34.04 41.5 43 32.54 43 21.5C43 10.46 34.04 1.5 23 1.5ZM32.28 15.1C31.98 18.26 30.68 25.94 30.02 29.48C29.74 30.98 29.18 31.48 28.66 31.54C27.5 31.64 26.62 30.78 25.5 30.04C23.74 28.88 22.74 28.16 21.04 27.04C19.06 25.74 20.34 25.02 21.48 23.86C21.78 23.56 26.9 18.9 27 18.48C27.0139 18.4164 27.012 18.3503 26.9946 18.2876C26.9772 18.2249 26.9447 18.1673 26.9 18.12C26.78 18.02 26.62 18.06 26.48 18.08C26.3 18.12 23.5 19.98 18.04 23.66C17.24 24.2 16.52 24.48 15.88 24.46C15.16 24.44 13.8 24.06 12.78 23.72C11.52 23.32 10.54 23.1 10.62 22.4C10.66 22.04 11.16 21.68 12.1 21.3C17.94 18.76 21.82 17.08 23.76 16.28C29.32 13.96 30.46 13.56 31.22 13.56C31.38 13.56 31.76 13.6 32 13.8C32.2 13.96 32.26 14.18 32.28 14.34C32.26 14.46 32.3 14.82 32.28 15.1Z" fill="url(#paint0_linear_725_8933)"/>
</g>
<defs>
<filter id="filter0_d_725_8933" x="0" y="0.5" width="46" height="46" filterUnits="userSpaceOnUse" color-interpolation-filters="sRGB">
<feFlood flood-opacity="0" result="BackgroundImageFix"/>
<feColorMatrix in="SourceAlpha" type="matrix" values="0 0 0 0 0 0 0 0 0 0 0 0 0 0 0 0 0 0 127 0" result="hardAlpha"/>
<feOffset dy="2"/>
<feGaussianBlur stdDeviation="1.5"/>
<feComposite in2="hardAlpha" operator="out"/>
<feColorMatrix type="matrix" values="0 0 0 0 0 0 0 0 0 0 0 0 0 0 0 0 0 0 0.32 0"/>
<feBlend mode="normal" in2="BackgroundImageFix" result="effect1_dropShadow_725_8933"/>
<feBlend mode="normal" in="SourceGraphic" in2="effect1_dropShadow_725_8933" result="shape"/>
</filter>
<linearGradient id="paint0_linear_725_8933" x1="23" y1="32.0714" x2="23" y2="-4.5" gradientUnits="userSpaceOnUse">
<stop offset="0.276042" stop-color="#D7E8FF"/>
<stop offset="0.447917" stop-color="#99B2D6" stop-opacity="0.6"/>
<stop offset="0.645833" stop-color="#D7E8FF" stop-opacity="0.6"/>
</linearGradient>
</defs>
</svg>
