<svg width="40" height="41" viewBox="0 0 40 41" fill="none" xmlns="http://www.w3.org/2000/svg">
<g clip-path="url(#clip0_822_8121)">
<g filter="url(#filter0_d_822_8121)">
<path fill-rule="evenodd" clip-rule="evenodd" d="M20 40.5C31.0457 40.5 40 31.5457 40 20.5C40 9.4543 31.0457 0.5 20 0.5C8.9543 0.5 0 9.4543 0 20.5C0 31.5457 8.9543 40.5 20 40.5ZM25.0401 7.18604C25.0397 8.66308 25.576 10.09 26.5492 11.201C28.4855 13.4363 31.1622 13.3082 31.1622 13.3082V17.7076C28.9659 17.7113 26.824 17.0239 25.0401 15.7428V24.6982C25.0401 29.183 21.4095 32.8136 16.9389 32.8136C12.7673 32.8136 8.83777 29.4393 8.83777 24.6982C8.83777 19.829 13.1375 16.0133 18.0494 16.6682V21.1673C15.6148 20.4127 13.2514 22.2493 13.2514 24.6982C13.2514 26.7484 14.9314 28.3999 16.9532 28.3999C17.9091 28.3998 18.8278 28.0287 19.5156 27.3648C20.2034 26.7009 20.6067 25.7959 20.6407 24.8406V7.18604H25.0401Z" fill="white"/>
<path fill-rule="evenodd" clip-rule="evenodd" d="M20 40.5C31.0457 40.5 40 31.5457 40 20.5C40 9.4543 31.0457 0.5 20 0.5C8.9543 0.5 0 9.4543 0 20.5C0 31.5457 8.9543 40.5 20 40.5ZM25.0401 7.18604C25.0397 8.66308 25.576 10.09 26.5492 11.201C28.4855 13.4363 31.1622 13.3082 31.1622 13.3082V17.7076C28.9659 17.7113 26.824 17.0239 25.0401 15.7428V24.6982C25.0401 29.183 21.4095 32.8136 16.9389 32.8136C12.7673 32.8136 8.83777 29.4393 8.83777 24.6982C8.83777 19.829 13.1375 16.0133 18.0494 16.6682V21.1673C15.6148 20.4127 13.2514 22.2493 13.2514 24.6982C13.2514 26.7484 14.9314 28.3999 16.9532 28.3999C17.9091 28.3998 18.8278 28.0287 19.5156 27.3648C20.2034 26.7009 20.6067 25.7959 20.6407 24.8406V7.18604H25.0401Z" fill="url(#paint0_linear_822_8121)"/>
</g>
</g>
<defs>
<filter id="filter0_d_822_8121" x="-3" y="-0.5" width="46" height="46" filterUnits="userSpaceOnUse" color-interpolation-filters="sRGB">
<feFlood flood-opacity="0" result="BackgroundImageFix"/>
<feColorMatrix in="SourceAlpha" type="matrix" values="0 0 0 0 0 0 0 0 0 0 0 0 0 0 0 0 0 0 127 0" result="hardAlpha"/>
<feOffset dy="2"/>
<feGaussianBlur stdDeviation="1.5"/>
<feComposite in2="hardAlpha" operator="out"/>
<feColorMatrix type="matrix" values="0 0 0 0 0 0 0 0 0 0 0 0 0 0 0 0 0 0 0.32 0"/>
<feBlend mode="normal" in2="BackgroundImageFix" result="effect1_dropShadow_822_8121"/>
<feBlend mode="normal" in="SourceGraphic" in2="effect1_dropShadow_822_8121" result="shape"/>
</filter>
<linearGradient id="paint0_linear_822_8121" x1="20" y1="31.0714" x2="20" y2="-5.5" gradientUnits="userSpaceOnUse">
<stop offset="0.276042" stop-color="#D7E8FF"/>
<stop offset="0.447917" stop-color="#99B2D6" stop-opacity="0.6"/>
<stop offset="0.645833" stop-color="#D7E8FF" stop-opacity="0.6"/>
</linearGradient>
<clipPath id="clip0_822_8121">
<rect width="40" height="40" fill="white" transform="translate(0 0.5)"/>
</clipPath>
</defs>
</svg>
