<svg width="28" height="28" viewBox="0 0 28 28" fill="none" xmlns="http://www.w3.org/2000/svg">
<path fill-rule="evenodd" clip-rule="evenodd" d="M14 28C21.732 28 28 21.732 28 14C28 6.26801 21.732 0 14 0C6.26801 0 0 6.26801 0 14C0 21.732 6.26801 28 14 28ZM17.528 4.68022C17.5278 5.71416 17.9032 6.71297 18.5845 7.49071C19.9399 9.05542 21.8135 8.96572 21.8135 8.96572V12.0453C20.2761 12.0479 18.7768 11.5668 17.528 10.6699V16.9387C17.528 20.0781 14.9866 22.6195 11.8572 22.6195C8.93713 22.6195 6.18644 20.2575 6.18644 16.9387C6.18644 13.5303 9.19625 10.8593 12.6346 11.3178V14.4671C10.9304 13.9389 9.27598 15.2245 9.27598 16.9387C9.27598 18.3739 10.452 19.53 11.8672 19.53C12.5364 19.5299 13.1794 19.2701 13.6609 18.8053C14.1424 18.3406 14.4247 17.7072 14.4485 17.0384V4.68022H17.528Z" fill="white"/>
<path fill-rule="evenodd" clip-rule="evenodd" d="M14 28C21.732 28 28 21.732 28 14C28 6.26801 21.732 0 14 0C6.26801 0 0 6.26801 0 14C0 21.732 6.26801 28 14 28ZM17.528 4.68022C17.5278 5.71416 17.9032 6.71297 18.5845 7.49071C19.9399 9.05542 21.8135 8.96572 21.8135 8.96572V12.0453C20.2761 12.0479 18.7768 11.5668 17.528 10.6699V16.9387C17.528 20.0781 14.9866 22.6195 11.8572 22.6195C8.93713 22.6195 6.18644 20.2575 6.18644 16.9387C6.18644 13.5303 9.19625 10.8593 12.6346 11.3178V14.4671C10.9304 13.9389 9.27598 15.2245 9.27598 16.9387C9.27598 18.3739 10.452 19.53 11.8672 19.53C12.5364 19.5299 13.1794 19.2701 13.6609 18.8053C14.1424 18.3406 14.4247 17.7072 14.4485 17.0384V4.68022H17.528Z" fill="url(#paint0_linear_1179_8648)"/>
<defs>
<linearGradient id="paint0_linear_1179_8648" x1="14" y1="21.4" x2="14" y2="-4.2" gradientUnits="userSpaceOnUse">
<stop offset="0.276042" stop-color="#EBF3FF"/>
<stop offset="0.447917" stop-color="#C3D0E1" stop-opacity="0.6"/>
<stop offset="0.645833" stop-color="#EBF3FF" stop-opacity="0.6"/>
</linearGradient>
</defs>
</svg>
