<svg width="46" height="47" viewBox="0 0 46 47" fill="none" xmlns="http://www.w3.org/2000/svg">
<g filter="url(#filter0_d_725_8939)">
<path d="M18.815 1.505L20.03 1.5H25.97L27.1867 1.505L28.71 1.52167L29.4317 1.53333L30.1283 1.55167L30.8 1.575L31.4467 1.60167L32.07 1.63667L32.67 1.67834L33.245 1.72834L33.8 1.78335C36.7 2.11003 38.6883 2.81005 40.1883 4.31012C41.6883 5.81018 42.3883 7.79693 42.715 10.6987L42.7717 11.2537L42.82 11.8304L42.8617 12.4305L42.895 13.0521L42.9367 14.0322L42.9567 14.7156L42.9783 15.7889L42.9933 17.314L43 18.9474L42.9983 24.4693L42.9933 25.686L42.9767 27.2094L42.965 27.9311L42.9467 28.6278L42.9233 29.2995L42.8967 29.9462L42.8617 30.5695L42.82 31.1696L42.77 31.7446L42.715 32.2996C42.3883 35.1997 41.6883 37.1882 40.1883 38.6882C38.6883 40.1883 36.7017 40.8883 33.8 41.215L33.245 41.2717L32.6683 41.32L32.0683 41.3617L31.4467 41.395L30.4667 41.4367L29.7833 41.4567L28.71 41.4783L27.185 41.4933L25.5517 41.5L20.03 41.4983L18.8133 41.4933L17.29 41.4767L16.5683 41.465L15.8717 41.4467L15.2 41.4233L14.5533 41.3967L13.93 41.3617L13.33 41.32L12.755 41.27L12.2 41.215C9.3 40.8883 7.31167 40.1883 5.81167 38.6882C4.31167 37.1882 3.61167 35.2014 3.285 32.2996L3.22833 31.7446L3.18 31.1679L3.13833 30.5679L3.105 29.9462L3.06333 28.9661L3.04333 28.2828L3.02167 27.2094L3.00667 25.6843L3 24.0509L3.00167 18.529L3.00667 17.3123L3.02333 15.7889L3.035 15.0672L3.05333 14.3705L3.07667 13.6988L3.10333 13.0521L3.13833 12.4288L3.18 11.8288L3.23 11.2537L3.285 10.6987C3.61167 7.7986 4.31167 5.81018 5.81167 4.31012C7.31167 2.81005 9.29833 2.11003 12.2 1.78335L12.755 1.72668L13.3317 1.67834L13.9317 1.63667L14.5533 1.60334L15.5333 1.56167L16.2167 1.54167L17.29 1.52L18.815 1.505ZM14.3167 13.6655H9.75C9.96667 24.0659 15.1667 30.3162 24.2833 30.3162H24.8V24.366C28.15 24.6993 30.6833 27.1494 31.7 30.3162H36.4333C35.1333 25.5827 31.7167 22.9659 29.5833 21.9659C31.7167 20.7325 34.7167 17.7323 35.4333 13.6655H31.1333C30.2 16.9656 27.4333 19.9658 24.8 20.2491V13.6655H20.5V25.1993C17.8333 24.5326 14.4667 21.2992 14.3167 13.6655Z" fill="white"/>
<path d="M18.815 1.505L20.03 1.5H25.97L27.1867 1.505L28.71 1.52167L29.4317 1.53333L30.1283 1.55167L30.8 1.575L31.4467 1.60167L32.07 1.63667L32.67 1.67834L33.245 1.72834L33.8 1.78335C36.7 2.11003 38.6883 2.81005 40.1883 4.31012C41.6883 5.81018 42.3883 7.79693 42.715 10.6987L42.7717 11.2537L42.82 11.8304L42.8617 12.4305L42.895 13.0521L42.9367 14.0322L42.9567 14.7156L42.9783 15.7889L42.9933 17.314L43 18.9474L42.9983 24.4693L42.9933 25.686L42.9767 27.2094L42.965 27.9311L42.9467 28.6278L42.9233 29.2995L42.8967 29.9462L42.8617 30.5695L42.82 31.1696L42.77 31.7446L42.715 32.2996C42.3883 35.1997 41.6883 37.1882 40.1883 38.6882C38.6883 40.1883 36.7017 40.8883 33.8 41.215L33.245 41.2717L32.6683 41.32L32.0683 41.3617L31.4467 41.395L30.4667 41.4367L29.7833 41.4567L28.71 41.4783L27.185 41.4933L25.5517 41.5L20.03 41.4983L18.8133 41.4933L17.29 41.4767L16.5683 41.465L15.8717 41.4467L15.2 41.4233L14.5533 41.3967L13.93 41.3617L13.33 41.32L12.755 41.27L12.2 41.215C9.3 40.8883 7.31167 40.1883 5.81167 38.6882C4.31167 37.1882 3.61167 35.2014 3.285 32.2996L3.22833 31.7446L3.18 31.1679L3.13833 30.5679L3.105 29.9462L3.06333 28.9661L3.04333 28.2828L3.02167 27.2094L3.00667 25.6843L3 24.0509L3.00167 18.529L3.00667 17.3123L3.02333 15.7889L3.035 15.0672L3.05333 14.3705L3.07667 13.6988L3.10333 13.0521L3.13833 12.4288L3.18 11.8288L3.23 11.2537L3.285 10.6987C3.61167 7.7986 4.31167 5.81018 5.81167 4.31012C7.31167 2.81005 9.29833 2.11003 12.2 1.78335L12.755 1.72668L13.3317 1.67834L13.9317 1.63667L14.5533 1.60334L15.5333 1.56167L16.2167 1.54167L17.29 1.52L18.815 1.505ZM14.3167 13.6655H9.75C9.96667 24.0659 15.1667 30.3162 24.2833 30.3162H24.8V24.366C28.15 24.6993 30.6833 27.1494 31.7 30.3162H36.4333C35.1333 25.5827 31.7167 22.9659 29.5833 21.9659C31.7167 20.7325 34.7167 17.7323 35.4333 13.6655H31.1333C30.2 16.9656 27.4333 19.9658 24.8 20.2491V13.6655H20.5V25.1993C17.8333 24.5326 14.4667 21.2992 14.3167 13.6655Z" fill="url(#paint0_linear_725_8939)"/>
</g>
<defs>
<filter id="filter0_d_725_8939" x="0" y="0.5" width="46" height="46" filterUnits="userSpaceOnUse" color-interpolation-filters="sRGB">
<feFlood flood-opacity="0" result="BackgroundImageFix"/>
<feColorMatrix in="SourceAlpha" type="matrix" values="0 0 0 0 0 0 0 0 0 0 0 0 0 0 0 0 0 0 127 0" result="hardAlpha"/>
<feOffset dy="2"/>
<feGaussianBlur stdDeviation="1.5"/>
<feComposite in2="hardAlpha" operator="out"/>
<feColorMatrix type="matrix" values="0 0 0 0 0 0 0 0 0 0 0 0 0 0 0 0 0 0 0.32 0"/>
<feBlend mode="normal" in2="BackgroundImageFix" result="effect1_dropShadow_725_8939"/>
<feBlend mode="normal" in="SourceGraphic" in2="effect1_dropShadow_725_8939" result="shape"/>
</filter>
<linearGradient id="paint0_linear_725_8939" x1="23" y1="32.0714" x2="23" y2="-4.5" gradientUnits="userSpaceOnUse">
<stop offset="0.276042" stop-color="#D7E8FF"/>
<stop offset="0.447917" stop-color="#99B2D6" stop-opacity="0.6"/>
<stop offset="0.645833" stop-color="#D7E8FF" stop-opacity="0.6"/>
</linearGradient>
</defs>
</svg>
