<svg width="46" height="47" viewBox="0 0 46 47" fill="none" xmlns="http://www.w3.org/2000/svg">
<g filter="url(#filter0_d_725_8944)">
<path d="M23 1.5C34.046 1.5 43 10.454 43 21.5C43 32.546 34.046 41.5 23 41.5C19.4656 41.5057 15.9933 40.5703 12.94 38.79L3.00803 41.5L5.71203 31.564C3.93021 28.5097 2.99412 25.036 3.00003 21.5C3.00003 10.454 11.954 1.5 23 1.5ZM16.184 12.1L15.784 12.116C15.5251 12.1318 15.272 12.1998 15.04 12.316C14.8231 12.4389 14.625 12.5924 14.452 12.772C14.212 12.998 14.076 13.194 13.93 13.384C13.1903 14.3458 12.792 15.5266 12.798 16.74C12.802 17.72 13.058 18.674 13.458 19.566C14.276 21.37 15.622 23.28 17.398 25.05C17.826 25.476 18.246 25.904 18.698 26.302C20.9048 28.2449 23.5345 29.6461 26.378 30.394L27.514 30.568C27.884 30.588 28.254 30.56 28.626 30.542C29.2085 30.5119 29.7772 30.3542 30.292 30.08C30.5539 29.9451 30.8095 29.7983 31.058 29.64C31.058 29.64 31.144 29.584 31.308 29.46C31.578 29.26 31.744 29.118 31.968 28.884C32.134 28.712 32.278 28.51 32.388 28.28C32.544 27.954 32.7 27.332 32.764 26.814C32.812 26.418 32.798 26.202 32.792 26.068C32.784 25.854 32.606 25.632 32.412 25.538L31.248 25.016C31.248 25.016 29.508 24.258 28.444 23.774C28.3327 23.7254 28.2134 23.6976 28.092 23.692C27.9552 23.6779 27.8169 23.6933 27.6865 23.7371C27.5561 23.781 27.4366 23.8522 27.336 23.946C27.326 23.942 27.192 24.056 25.746 25.808C25.663 25.9195 25.5487 26.0038 25.4176 26.0501C25.2865 26.0964 25.1446 26.1026 25.01 26.068C24.8797 26.033 24.7521 25.9889 24.628 25.936C24.38 25.832 24.294 25.792 24.124 25.72C22.9761 25.2191 21.9134 24.5423 20.974 23.714C20.722 23.494 20.488 23.254 20.248 23.022C19.4612 22.2684 18.7755 21.416 18.208 20.486L18.09 20.296C18.0053 20.1683 17.9367 20.0306 17.886 19.886C17.81 19.592 18.008 19.356 18.008 19.356C18.008 19.356 18.494 18.824 18.72 18.536C18.94 18.256 19.126 17.984 19.246 17.79C19.482 17.41 19.556 17.02 19.432 16.718C18.872 15.35 18.292 13.988 17.696 12.636C17.578 12.368 17.228 12.176 16.91 12.138C16.802 12.126 16.694 12.114 16.586 12.106C16.3174 12.0926 16.0483 12.0953 15.78 12.114L16.182 12.098L16.184 12.1Z" fill="white"/>
<path d="M23 1.5C34.046 1.5 43 10.454 43 21.5C43 32.546 34.046 41.5 23 41.5C19.4656 41.5057 15.9933 40.5703 12.94 38.79L3.00803 41.5L5.71203 31.564C3.93021 28.5097 2.99412 25.036 3.00003 21.5C3.00003 10.454 11.954 1.5 23 1.5ZM16.184 12.1L15.784 12.116C15.5251 12.1318 15.272 12.1998 15.04 12.316C14.8231 12.4389 14.625 12.5924 14.452 12.772C14.212 12.998 14.076 13.194 13.93 13.384C13.1903 14.3458 12.792 15.5266 12.798 16.74C12.802 17.72 13.058 18.674 13.458 19.566C14.276 21.37 15.622 23.28 17.398 25.05C17.826 25.476 18.246 25.904 18.698 26.302C20.9048 28.2449 23.5345 29.6461 26.378 30.394L27.514 30.568C27.884 30.588 28.254 30.56 28.626 30.542C29.2085 30.5119 29.7772 30.3542 30.292 30.08C30.5539 29.9451 30.8095 29.7983 31.058 29.64C31.058 29.64 31.144 29.584 31.308 29.46C31.578 29.26 31.744 29.118 31.968 28.884C32.134 28.712 32.278 28.51 32.388 28.28C32.544 27.954 32.7 27.332 32.764 26.814C32.812 26.418 32.798 26.202 32.792 26.068C32.784 25.854 32.606 25.632 32.412 25.538L31.248 25.016C31.248 25.016 29.508 24.258 28.444 23.774C28.3327 23.7254 28.2134 23.6976 28.092 23.692C27.9552 23.6779 27.8169 23.6933 27.6865 23.7371C27.5561 23.781 27.4366 23.8522 27.336 23.946C27.326 23.942 27.192 24.056 25.746 25.808C25.663 25.9195 25.5487 26.0038 25.4176 26.0501C25.2865 26.0964 25.1446 26.1026 25.01 26.068C24.8797 26.033 24.7521 25.9889 24.628 25.936C24.38 25.832 24.294 25.792 24.124 25.72C22.9761 25.2191 21.9134 24.5423 20.974 23.714C20.722 23.494 20.488 23.254 20.248 23.022C19.4612 22.2684 18.7755 21.416 18.208 20.486L18.09 20.296C18.0053 20.1683 17.9367 20.0306 17.886 19.886C17.81 19.592 18.008 19.356 18.008 19.356C18.008 19.356 18.494 18.824 18.72 18.536C18.94 18.256 19.126 17.984 19.246 17.79C19.482 17.41 19.556 17.02 19.432 16.718C18.872 15.35 18.292 13.988 17.696 12.636C17.578 12.368 17.228 12.176 16.91 12.138C16.802 12.126 16.694 12.114 16.586 12.106C16.3174 12.0926 16.0483 12.0953 15.78 12.114L16.182 12.098L16.184 12.1Z" fill="url(#paint0_linear_725_8944)"/>
</g>
<defs>
<filter id="filter0_d_725_8944" x="0" y="0.5" width="46" height="46" filterUnits="userSpaceOnUse" color-interpolation-filters="sRGB">
<feFlood flood-opacity="0" result="BackgroundImageFix"/>
<feColorMatrix in="SourceAlpha" type="matrix" values="0 0 0 0 0 0 0 0 0 0 0 0 0 0 0 0 0 0 127 0" result="hardAlpha"/>
<feOffset dy="2"/>
<feGaussianBlur stdDeviation="1.5"/>
<feComposite in2="hardAlpha" operator="out"/>
<feColorMatrix type="matrix" values="0 0 0 0 0 0 0 0 0 0 0 0 0 0 0 0 0 0 0.32 0"/>
<feBlend mode="normal" in2="BackgroundImageFix" result="effect1_dropShadow_725_8944"/>
<feBlend mode="normal" in="SourceGraphic" in2="effect1_dropShadow_725_8944" result="shape"/>
</filter>
<linearGradient id="paint0_linear_725_8944" x1="23" y1="32.0714" x2="23" y2="-4.5" gradientUnits="userSpaceOnUse">
<stop offset="0.276042" stop-color="#D7E8FF"/>
<stop offset="0.447917" stop-color="#99B2D6" stop-opacity="0.6"/>
<stop offset="0.645833" stop-color="#D7E8FF" stop-opacity="0.6"/>
</linearGradient>
</defs>
</svg>
