<svg width="84" height="84" viewBox="0 0 84 84" fill="none" xmlns="http://www.w3.org/2000/svg">
<circle cx="42" cy="42" r="31.5" stroke="url(#paint0_radial_1251_10357)"/>
<circle cx="42" cy="42" r="24" fill="#151512"/>
<path d="M53 31H31C30.4696 31 29.9609 31.2107 29.5858 31.5858C29.2107 31.9609 29 32.4696 29 33V51C29 51.5304 29.2107 52.0391 29.5858 52.4142C29.9609 52.7893 30.4696 53 31 53H53C53.5304 53 54.0391 52.7893 54.4142 52.4142C54.7893 52.0391 55 51.5304 55 51V33C55 32.4696 54.7893 31.9609 54.4142 31.5858C54.0391 31.2107 53.5304 31 53 31ZM31 33H53V38H31V33ZM53 51H40V40H53V51Z" fill="url(#paint1_radial_1251_10357)"/>
<path d="M2.81081 42L8 48L-4.76995e-08 42L8 36L2.81081 42Z" fill="url(#paint2_radial_1251_10357)"/>
<path d="M42 2.81081L36 8L42 2.14569e-07L48 8L42 2.81081Z" fill="url(#paint3_radial_1251_10357)"/>
<path d="M42 81.1892L48 76L42 84L36 76L42 81.1892Z" fill="url(#paint4_radial_1251_10357)"/>
<path d="M81.1892 42L76 36L84 42L76 48L81.1892 42Z" fill="url(#paint5_radial_1251_10357)"/>
<defs>
<radialGradient id="paint0_radial_1251_10357" cx="0" cy="0" r="1" gradientUnits="userSpaceOnUse" gradientTransform="translate(42 10) rotate(90) scale(64 81.9225)">
<stop offset="0.0260417" stop-color="#FFC342"/>
<stop offset="0.572917" stop-color="#9F6E03"/>
<stop offset="0.609375" stop-color="#9F6E03"/>
<stop offset="1" stop-color="#FF8717"/>
</radialGradient>
<radialGradient id="paint1_radial_1251_10357" cx="0" cy="0" r="1" gradientUnits="userSpaceOnUse" gradientTransform="translate(42 31) rotate(90) scale(22 33.281)">
<stop offset="0.0260417" stop-color="#FFC342"/>
<stop offset="0.572917" stop-color="#9F6E03"/>
<stop offset="0.609375" stop-color="#9F6E03"/>
<stop offset="1" stop-color="#FF8717"/>
</radialGradient>
<radialGradient id="paint2_radial_1251_10357" cx="0" cy="0" r="1" gradientUnits="userSpaceOnUse" gradientTransform="translate(4 48) rotate(-90) scale(12 10.2403)">
<stop offset="0.0260417" stop-color="#FFC342"/>
<stop offset="0.572917" stop-color="#9F6E03"/>
<stop offset="0.609375" stop-color="#9F6E03"/>
<stop offset="1" stop-color="#FF8717"/>
</radialGradient>
<radialGradient id="paint3_radial_1251_10357" cx="0" cy="0" r="1" gradientUnits="userSpaceOnUse" gradientTransform="translate(36 4) scale(12 10.2403)">
<stop offset="0.0260417" stop-color="#FFC342"/>
<stop offset="0.572917" stop-color="#9F6E03"/>
<stop offset="0.609375" stop-color="#9F6E03"/>
<stop offset="1" stop-color="#FF8717"/>
</radialGradient>
<radialGradient id="paint4_radial_1251_10357" cx="0" cy="0" r="1" gradientUnits="userSpaceOnUse" gradientTransform="translate(48 80) rotate(-180) scale(12 10.2403)">
<stop offset="0.0260417" stop-color="#FFC342"/>
<stop offset="0.572917" stop-color="#9F6E03"/>
<stop offset="0.609375" stop-color="#9F6E03"/>
<stop offset="1" stop-color="#FF8717"/>
</radialGradient>
<radialGradient id="paint5_radial_1251_10357" cx="0" cy="0" r="1" gradientUnits="userSpaceOnUse" gradientTransform="translate(80 36) rotate(90) scale(12 10.2403)">
<stop offset="0.0260417" stop-color="#FFC342"/>
<stop offset="0.572917" stop-color="#9F6E03"/>
<stop offset="0.609375" stop-color="#9F6E03"/>
<stop offset="1" stop-color="#FF8717"/>
</radialGradient>
</defs>
</svg>
