<svg width="84" height="84" viewBox="0 0 84 84" fill="none" xmlns="http://www.w3.org/2000/svg">
<circle cx="42" cy="42" r="31.5" stroke="url(#paint0_radial_1251_10305)"/>
<circle cx="42" cy="42" r="24" fill="#151512"/>
<path d="M52 30H49V29C49 28.7348 48.8946 28.4804 48.7071 28.2929C48.5196 28.1054 48.2652 28 48 28C47.7348 28 47.4804 28.1054 47.2929 28.2929C47.1054 28.4804 47 28.7348 47 29V30H37V29C37 28.7348 36.8946 28.4804 36.7071 28.2929C36.5196 28.1054 36.2652 28 36 28C35.7348 28 35.4804 28.1054 35.2929 28.2929C35.1054 28.4804 35 28.7348 35 29V30H32C31.4696 30 30.9609 30.2107 30.5858 30.5858C30.2107 30.9609 30 31.4696 30 32V52C30 52.5304 30.2107 53.0391 30.5858 53.4142C30.9609 53.7893 31.4696 54 32 54H52C52.5304 54 53.0391 53.7893 53.4142 53.4142C53.7893 53.0391 54 52.5304 54 52V32C54 31.4696 53.7893 30.9609 53.4142 30.5858C53.0391 30.2107 52.5304 30 52 30ZM52 36H32V32H35V33C35 33.2652 35.1054 33.5196 35.2929 33.7071C35.4804 33.8946 35.7348 34 36 34C36.2652 34 36.5196 33.8946 36.7071 33.7071C36.8946 33.5196 37 33.2652 37 33V32H47V33C47 33.2652 47.1054 33.5196 47.2929 33.7071C47.4804 33.8946 47.7348 34 48 34C48.2652 34 48.5196 33.8946 48.7071 33.7071C48.8946 33.5196 49 33.2652 49 33V32H52V36Z" fill="black"/>
<path d="M52 30H49V29C49 28.7348 48.8946 28.4804 48.7071 28.2929C48.5196 28.1054 48.2652 28 48 28C47.7348 28 47.4804 28.1054 47.2929 28.2929C47.1054 28.4804 47 28.7348 47 29V30H37V29C37 28.7348 36.8946 28.4804 36.7071 28.2929C36.5196 28.1054 36.2652 28 36 28C35.7348 28 35.4804 28.1054 35.2929 28.2929C35.1054 28.4804 35 28.7348 35 29V30H32C31.4696 30 30.9609 30.2107 30.5858 30.5858C30.2107 30.9609 30 31.4696 30 32V52C30 52.5304 30.2107 53.0391 30.5858 53.4142C30.9609 53.7893 31.4696 54 32 54H52C52.5304 54 53.0391 53.7893 53.4142 53.4142C53.7893 53.0391 54 52.5304 54 52V32C54 31.4696 53.7893 30.9609 53.4142 30.5858C53.0391 30.2107 52.5304 30 52 30ZM52 36H32V32H35V33C35 33.2652 35.1054 33.5196 35.2929 33.7071C35.4804 33.8946 35.7348 34 36 34C36.2652 34 36.5196 33.8946 36.7071 33.7071C36.8946 33.5196 37 33.2652 37 33V32H47V33C47 33.2652 47.1054 33.5196 47.2929 33.7071C47.4804 33.8946 47.7348 34 48 34C48.2652 34 48.5196 33.8946 48.7071 33.7071C48.8946 33.5196 49 33.2652 49 33V32H52V36Z" fill="url(#paint1_radial_1251_10305)"/>
<path d="M2.81081 42L8 48L-4.76995e-08 42L8 36L2.81081 42Z" fill="url(#paint2_radial_1251_10305)"/>
<path d="M42 2.81081L36 8L42 2.14569e-07L48 8L42 2.81081Z" fill="url(#paint3_radial_1251_10305)"/>
<path d="M42 81.1892L48 76L42 84L36 76L42 81.1892Z" fill="url(#paint4_radial_1251_10305)"/>
<path d="M81.1892 42L76 36L84 42L76 48L81.1892 42Z" fill="url(#paint5_radial_1251_10305)"/>
<defs>
<radialGradient id="paint0_radial_1251_10305" cx="0" cy="0" r="1" gradientUnits="userSpaceOnUse" gradientTransform="translate(42 10) rotate(90) scale(64 81.9225)">
<stop offset="0.0260417" stop-color="#FFC342"/>
<stop offset="0.572917" stop-color="#9F6E03"/>
<stop offset="0.609375" stop-color="#9F6E03"/>
<stop offset="1" stop-color="#FF8717"/>
</radialGradient>
<radialGradient id="paint1_radial_1251_10305" cx="0" cy="0" r="1" gradientUnits="userSpaceOnUse" gradientTransform="translate(42 28) rotate(90) scale(26 30.7209)">
<stop offset="0.0260417" stop-color="#FFC342"/>
<stop offset="0.572917" stop-color="#9F6E03"/>
<stop offset="0.609375" stop-color="#9F6E03"/>
<stop offset="1" stop-color="#FF8717"/>
</radialGradient>
<radialGradient id="paint2_radial_1251_10305" cx="0" cy="0" r="1" gradientUnits="userSpaceOnUse" gradientTransform="translate(4 48) rotate(-90) scale(12 10.2403)">
<stop offset="0.0260417" stop-color="#FFC342"/>
<stop offset="0.572917" stop-color="#9F6E03"/>
<stop offset="0.609375" stop-color="#9F6E03"/>
<stop offset="1" stop-color="#FF8717"/>
</radialGradient>
<radialGradient id="paint3_radial_1251_10305" cx="0" cy="0" r="1" gradientUnits="userSpaceOnUse" gradientTransform="translate(36 4) scale(12 10.2403)">
<stop offset="0.0260417" stop-color="#FFC342"/>
<stop offset="0.572917" stop-color="#9F6E03"/>
<stop offset="0.609375" stop-color="#9F6E03"/>
<stop offset="1" stop-color="#FF8717"/>
</radialGradient>
<radialGradient id="paint4_radial_1251_10305" cx="0" cy="0" r="1" gradientUnits="userSpaceOnUse" gradientTransform="translate(48 80) rotate(-180) scale(12 10.2403)">
<stop offset="0.0260417" stop-color="#FFC342"/>
<stop offset="0.572917" stop-color="#9F6E03"/>
<stop offset="0.609375" stop-color="#9F6E03"/>
<stop offset="1" stop-color="#FF8717"/>
</radialGradient>
<radialGradient id="paint5_radial_1251_10305" cx="0" cy="0" r="1" gradientUnits="userSpaceOnUse" gradientTransform="translate(80 36) rotate(90) scale(12 10.2403)">
<stop offset="0.0260417" stop-color="#FFC342"/>
<stop offset="0.572917" stop-color="#9F6E03"/>
<stop offset="0.609375" stop-color="#9F6E03"/>
<stop offset="1" stop-color="#FF8717"/>
</radialGradient>
</defs>
</svg>
