<svg width="84" height="84" viewBox="0 0 84 84" fill="none" xmlns="http://www.w3.org/2000/svg">
<circle cx="42" cy="42" r="31.5" stroke="url(#paint0_radial_1251_10331)"/>
<circle cx="42" cy="42" r="24" fill="#151512"/>
<path d="M56 34V50C56 50.5304 55.7893 51.0391 55.4142 51.4142C55.0391 51.7893 54.5304 52 54 52H46C45.2044 52 44.4413 52.3161 43.8787 52.8787C43.3161 53.4413 43 54.2044 43 55C43 55.2652 42.8946 55.5196 42.7071 55.7071C42.5196 55.8946 42.2652 56 42 56C41.7348 56 41.4804 55.8946 41.2929 55.7071C41.1054 55.5196 41 55.2652 41 55C41 54.2044 40.6839 53.4413 40.1213 52.8787C39.5587 52.3161 38.7956 52 38 52H30C29.4696 52 28.9609 51.7893 28.5858 51.4142C28.2107 51.0391 28 50.5304 28 50V34C28 33.4696 28.2107 32.9609 28.5858 32.5858C28.9609 32.2107 29.4696 32 30 32H37C38.0609 32 39.0783 32.4214 39.8284 33.1716C40.5786 33.9217 41 34.9391 41 36V47C41 47.2652 41.1054 47.5196 41.2929 47.7071C41.4804 47.8946 41.7348 48 42 48C42.2652 48 42.5196 47.8946 42.7071 47.7071C42.8946 47.5196 43 47.2652 43 47V36C43 34.9391 43.4214 33.9217 44.1716 33.1716C44.9217 32.4214 45.9391 32 47 32H54C54.5304 32 55.0391 32.2107 55.4142 32.5858C55.7893 32.9609 56 33.4696 56 34Z" fill="url(#paint1_radial_1251_10331)"/>
<path d="M2.81081 42L8 48L-4.76995e-08 42L8 36L2.81081 42Z" fill="url(#paint2_radial_1251_10331)"/>
<path d="M42 2.81081L36 8L42 2.14569e-07L48 8L42 2.81081Z" fill="url(#paint3_radial_1251_10331)"/>
<path d="M42 81.1892L48 76L42 84L36 76L42 81.1892Z" fill="url(#paint4_radial_1251_10331)"/>
<path d="M81.1892 42L76 36L84 42L76 48L81.1892 42Z" fill="url(#paint5_radial_1251_10331)"/>
<defs>
<radialGradient id="paint0_radial_1251_10331" cx="0" cy="0" r="1" gradientUnits="userSpaceOnUse" gradientTransform="translate(42 10) rotate(90) scale(64 81.9225)">
<stop offset="0.0260417" stop-color="#FFC342"/>
<stop offset="0.572917" stop-color="#9F6E03"/>
<stop offset="0.609375" stop-color="#9F6E03"/>
<stop offset="1" stop-color="#FF8717"/>
</radialGradient>
<radialGradient id="paint1_radial_1251_10331" cx="0" cy="0" r="1" gradientUnits="userSpaceOnUse" gradientTransform="translate(42 32) rotate(90) scale(24 35.8411)">
<stop offset="0.0260417" stop-color="#FFC342"/>
<stop offset="0.572917" stop-color="#9F6E03"/>
<stop offset="0.609375" stop-color="#9F6E03"/>
<stop offset="1" stop-color="#FF8717"/>
</radialGradient>
<radialGradient id="paint2_radial_1251_10331" cx="0" cy="0" r="1" gradientUnits="userSpaceOnUse" gradientTransform="translate(4 48) rotate(-90) scale(12 10.2403)">
<stop offset="0.0260417" stop-color="#FFC342"/>
<stop offset="0.572917" stop-color="#9F6E03"/>
<stop offset="0.609375" stop-color="#9F6E03"/>
<stop offset="1" stop-color="#FF8717"/>
</radialGradient>
<radialGradient id="paint3_radial_1251_10331" cx="0" cy="0" r="1" gradientUnits="userSpaceOnUse" gradientTransform="translate(36 4) scale(12 10.2403)">
<stop offset="0.0260417" stop-color="#FFC342"/>
<stop offset="0.572917" stop-color="#9F6E03"/>
<stop offset="0.609375" stop-color="#9F6E03"/>
<stop offset="1" stop-color="#FF8717"/>
</radialGradient>
<radialGradient id="paint4_radial_1251_10331" cx="0" cy="0" r="1" gradientUnits="userSpaceOnUse" gradientTransform="translate(48 80) rotate(-180) scale(12 10.2403)">
<stop offset="0.0260417" stop-color="#FFC342"/>
<stop offset="0.572917" stop-color="#9F6E03"/>
<stop offset="0.609375" stop-color="#9F6E03"/>
<stop offset="1" stop-color="#FF8717"/>
</radialGradient>
<radialGradient id="paint5_radial_1251_10331" cx="0" cy="0" r="1" gradientUnits="userSpaceOnUse" gradientTransform="translate(80 36) rotate(90) scale(12 10.2403)">
<stop offset="0.0260417" stop-color="#FFC342"/>
<stop offset="0.572917" stop-color="#9F6E03"/>
<stop offset="0.609375" stop-color="#9F6E03"/>
<stop offset="1" stop-color="#FF8717"/>
</radialGradient>
</defs>
</svg>
