<svg width="84" height="84" viewBox="0 0 84 84" fill="none" xmlns="http://www.w3.org/2000/svg">
<circle cx="42" cy="42" r="31.5" stroke="url(#paint0_radial_1251_10344)"/>
<circle cx="42" cy="42" r="24" fill="#151512"/>
<path d="M53.0002 30H45.0002C44.8471 30 44.696 30.0351 44.5586 30.1028C44.4212 30.1704 44.3012 30.2687 44.2077 30.39L36.2077 40.7913L35.0002 39.5863C34.8145 39.4003 34.5939 39.2528 34.3511 39.1521C34.1083 39.0515 33.8481 38.9997 33.5852 38.9997C33.3224 38.9997 33.0622 39.0515 32.8194 39.1521C32.5766 39.2528 32.356 39.4003 32.1702 39.5863L30.584 41.1737C30.3982 41.3595 30.2509 41.58 30.1503 41.8227C30.0498 42.0653 29.998 42.3254 29.998 42.5881C29.998 42.8508 30.0498 43.1109 30.1503 43.3536C30.2509 43.5963 30.3982 43.8168 30.584 44.0025L33.084 46.5025L29.584 50.0025C29.3982 50.1882 29.2509 50.4087 29.1503 50.6514C29.0498 50.8941 28.998 51.1542 28.998 51.4169C28.998 51.6796 29.0498 51.9397 29.1503 52.1823C29.2509 52.425 29.3982 52.6455 29.584 52.8312L31.1702 54.4163C31.5453 54.791 32.0538 55.0016 32.584 55.0016C33.1142 55.0016 33.6227 54.791 33.9977 54.4163L37.4977 50.9163L39.9977 53.4163C40.1835 53.6022 40.4041 53.7497 40.6469 53.8504C40.8897 53.951 41.1499 54.0028 41.4127 54.0028C41.6756 54.0028 41.9358 53.951 42.1786 53.8504C42.4214 53.7497 42.642 53.6022 42.8277 53.4163L44.414 51.8288C44.5998 51.643 44.7471 51.4225 44.8477 51.1798C44.9482 50.9372 44.9999 50.6771 44.9999 50.4144C44.9999 50.1517 44.9482 49.8916 44.8477 49.6489C44.7471 49.4062 44.5998 49.1857 44.414 49L43.209 47.795L53.6102 39.795C53.7319 39.7013 53.8304 39.5809 53.898 39.443C53.9657 39.3052 54.0006 39.1536 54.0002 39V31C54.0002 30.7348 53.8949 30.4804 53.7074 30.2929C53.5198 30.1054 53.2655 30 53.0002 30ZM52.0002 38.5075L41.7827 46.3675L40.4152 45L46.7077 38.7075C46.8952 38.5199 47.0005 38.2654 47.0004 38.0002C47.0002 37.7349 46.8948 37.4806 46.7071 37.2931C46.5195 37.1057 46.265 37.0004 45.9998 37.0005C45.7346 37.0006 45.4802 37.1061 45.2927 37.2937L39.0002 43.585L37.634 42.2175L45.4927 32H52.0002V38.5075Z" fill="url(#paint1_radial_1251_10344)"/>
<path d="M2.81081 42L8 48L-4.76995e-08 42L8 36L2.81081 42Z" fill="url(#paint2_radial_1251_10344)"/>
<path d="M42 2.81081L36 8L42 2.14569e-07L48 8L42 2.81081Z" fill="url(#paint3_radial_1251_10344)"/>
<path d="M42 81.1892L48 76L42 84L36 76L42 81.1892Z" fill="url(#paint4_radial_1251_10344)"/>
<path d="M81.1892 42L76 36L84 42L76 48L81.1892 42Z" fill="url(#paint5_radial_1251_10344)"/>
<defs>
<radialGradient id="paint0_radial_1251_10344" cx="0" cy="0" r="1" gradientUnits="userSpaceOnUse" gradientTransform="translate(42 10) rotate(90) scale(64 81.9225)">
<stop offset="0.0260417" stop-color="#FFC342"/>
<stop offset="0.572917" stop-color="#9F6E03"/>
<stop offset="0.609375" stop-color="#9F6E03"/>
<stop offset="1" stop-color="#FF8717"/>
</radialGradient>
<radialGradient id="paint1_radial_1251_10344" cx="0" cy="0" r="1" gradientUnits="userSpaceOnUse" gradientTransform="translate(41.4991 30) rotate(90) scale(25.0016 32.0038)">
<stop offset="0.0260417" stop-color="#FFC342"/>
<stop offset="0.572917" stop-color="#9F6E03"/>
<stop offset="0.609375" stop-color="#9F6E03"/>
<stop offset="1" stop-color="#FF8717"/>
</radialGradient>
<radialGradient id="paint2_radial_1251_10344" cx="0" cy="0" r="1" gradientUnits="userSpaceOnUse" gradientTransform="translate(4 48) rotate(-90) scale(12 10.2403)">
<stop offset="0.0260417" stop-color="#FFC342"/>
<stop offset="0.572917" stop-color="#9F6E03"/>
<stop offset="0.609375" stop-color="#9F6E03"/>
<stop offset="1" stop-color="#FF8717"/>
</radialGradient>
<radialGradient id="paint3_radial_1251_10344" cx="0" cy="0" r="1" gradientUnits="userSpaceOnUse" gradientTransform="translate(36 4) scale(12 10.2403)">
<stop offset="0.0260417" stop-color="#FFC342"/>
<stop offset="0.572917" stop-color="#9F6E03"/>
<stop offset="0.609375" stop-color="#9F6E03"/>
<stop offset="1" stop-color="#FF8717"/>
</radialGradient>
<radialGradient id="paint4_radial_1251_10344" cx="0" cy="0" r="1" gradientUnits="userSpaceOnUse" gradientTransform="translate(48 80) rotate(-180) scale(12 10.2403)">
<stop offset="0.0260417" stop-color="#FFC342"/>
<stop offset="0.572917" stop-color="#9F6E03"/>
<stop offset="0.609375" stop-color="#9F6E03"/>
<stop offset="1" stop-color="#FF8717"/>
</radialGradient>
<radialGradient id="paint5_radial_1251_10344" cx="0" cy="0" r="1" gradientUnits="userSpaceOnUse" gradientTransform="translate(80 36) rotate(90) scale(12 10.2403)">
<stop offset="0.0260417" stop-color="#FFC342"/>
<stop offset="0.572917" stop-color="#9F6E03"/>
<stop offset="0.609375" stop-color="#9F6E03"/>
<stop offset="1" stop-color="#FF8717"/>
</radialGradient>
</defs>
</svg>
