<svg width="48" height="48" viewBox="0 0 48 48" fill="none" xmlns="http://www.w3.org/2000/svg">
<circle cx="24" cy="24" r="23.5" stroke="url(#paint0_radial_2010_8754)"/>
<circle cx="24" cy="24" r="18" fill="#151512"/>
<path d="M32.25 15.75H15.75C15.3522 15.75 14.9706 15.908 14.6893 16.1893C14.408 16.4706 14.25 16.8522 14.25 17.25V30.75C14.25 31.1478 14.408 31.5294 14.6893 31.8107C14.9706 32.092 15.3522 32.25 15.75 32.25H32.25C32.6478 32.25 33.0294 32.092 33.3107 31.8107C33.592 31.5294 33.75 31.1478 33.75 30.75V17.25C33.75 16.8522 33.592 16.4706 33.3107 16.1893C33.0294 15.908 32.6478 15.75 32.25 15.75ZM15.75 17.25H32.25V21H15.75V17.25ZM32.25 30.75H22.5V22.5H32.25V30.75Z" fill="url(#paint1_radial_2010_8754)"/>
<defs>
<radialGradient id="paint0_radial_2010_8754" cx="0" cy="0" r="1" gradientUnits="userSpaceOnUse" gradientTransform="translate(24) rotate(90) scale(48 61.4419)">
<stop offset="0.0260417" stop-color="#FFC342"/>
<stop offset="0.572917" stop-color="#9F6E03"/>
<stop offset="0.609375" stop-color="#9F6E03"/>
<stop offset="1" stop-color="#FF8717"/>
</radialGradient>
<radialGradient id="paint1_radial_2010_8754" cx="0" cy="0" r="1" gradientUnits="userSpaceOnUse" gradientTransform="translate(24 15.75) rotate(90) scale(16.5 24.9608)">
<stop offset="0.0260417" stop-color="#FFC342"/>
<stop offset="0.572917" stop-color="#9F6E03"/>
<stop offset="0.609375" stop-color="#9F6E03"/>
<stop offset="1" stop-color="#FF8717"/>
</radialGradient>
</defs>
</svg>
