<svg width="48" height="48" viewBox="0 0 48 48" fill="none" xmlns="http://www.w3.org/2000/svg">
<circle cx="24" cy="24" r="23.5" stroke="url(#paint0_radial_2021_17213)"/>
<circle cx="24" cy="24" r="18" fill="#151512"/>
<path d="M34.5 18V30C34.5 30.3978 34.342 30.7794 34.0607 31.0607C33.7794 31.342 33.3978 31.5 33 31.5H27C26.4033 31.5 25.831 31.7371 25.409 32.159C24.9871 32.581 24.75 33.1533 24.75 33.75C24.75 33.9489 24.671 34.1397 24.5303 34.2803C24.3897 34.421 24.1989 34.5 24 34.5C23.8011 34.5 23.6103 34.421 23.4697 34.2803C23.329 34.1397 23.25 33.9489 23.25 33.75C23.25 33.1533 23.0129 32.581 22.591 32.159C22.169 31.7371 21.5967 31.5 21 31.5H15C14.6022 31.5 14.2206 31.342 13.9393 31.0607C13.658 30.7794 13.5 30.3978 13.5 30V18C13.5 17.6022 13.658 17.2206 13.9393 16.9393C14.2206 16.658 14.6022 16.5 15 16.5H20.25C21.0456 16.5 21.8087 16.8161 22.3713 17.3787C22.9339 17.9413 23.25 18.7044 23.25 19.5V27.75C23.25 27.9489 23.329 28.1397 23.4697 28.2803C23.6103 28.421 23.8011 28.5 24 28.5C24.1989 28.5 24.3897 28.421 24.5303 28.2803C24.671 28.1397 24.75 27.9489 24.75 27.75V19.5C24.75 18.7044 25.0661 17.9413 25.6287 17.3787C26.1913 16.8161 26.9544 16.5 27.75 16.5H33C33.3978 16.5 33.7794 16.658 34.0607 16.9393C34.342 17.2206 34.5 17.6022 34.5 18Z" fill="url(#paint1_radial_2021_17213)"/>
<defs>
<radialGradient id="paint0_radial_2021_17213" cx="0" cy="0" r="1" gradientUnits="userSpaceOnUse" gradientTransform="translate(24) rotate(90) scale(48 61.4419)">
<stop offset="0.0260417" stop-color="#FFC342"/>
<stop offset="0.572917" stop-color="#9F6E03"/>
<stop offset="0.609375" stop-color="#9F6E03"/>
<stop offset="1" stop-color="#FF8717"/>
</radialGradient>
<radialGradient id="paint1_radial_2021_17213" cx="0" cy="0" r="1" gradientUnits="userSpaceOnUse" gradientTransform="translate(24 16.5) rotate(90) scale(18 26.8808)">
<stop offset="0.0260417" stop-color="#FFC342"/>
<stop offset="0.572917" stop-color="#9F6E03"/>
<stop offset="0.609375" stop-color="#9F6E03"/>
<stop offset="1" stop-color="#FF8717"/>
</radialGradient>
</defs>
</svg>
