<svg width="48" height="48" viewBox="0 0 48 48" fill="none" xmlns="http://www.w3.org/2000/svg">
<circle cx="24" cy="24" r="23.5" stroke="url(#paint0_radial_2010_8745)"/>
<circle cx="24" cy="24" r="18" fill="#151512"/>
<path d="M32.2497 15H26.2497C26.1348 15 26.0215 15.0264 25.9185 15.0771C25.8154 15.1278 25.7254 15.2015 25.6553 15.2925L19.6553 23.0934L18.7497 22.1897C18.6104 22.0502 18.445 21.9396 18.2629 21.8641C18.0808 21.7886 17.8856 21.7498 17.6884 21.7498C17.4913 21.7498 17.2961 21.7886 17.114 21.8641C16.9319 21.9396 16.7665 22.0502 16.6272 22.1897L15.4375 23.3803C15.2982 23.5196 15.1877 23.685 15.1123 23.867C15.0369 24.049 14.998 24.2441 14.998 24.4411C14.998 24.6381 15.0369 24.8332 15.1123 25.0152C15.1877 25.1972 15.2982 25.3626 15.4375 25.5019L17.3125 27.3769L14.6875 30.0019C14.5482 30.1412 14.4377 30.3065 14.3623 30.4886C14.2869 30.6706 14.248 30.8656 14.248 31.0627C14.248 31.2597 14.2869 31.4548 14.3623 31.6368C14.4377 31.8188 14.5482 31.9841 14.6875 32.1234L15.8772 33.3122C16.1585 33.5933 16.5399 33.7512 16.9375 33.7512C17.3352 33.7512 17.7165 33.5933 17.9978 33.3122L20.6228 30.6872L22.4978 32.5622C22.6371 32.7017 22.8026 32.8123 22.9847 32.8878C23.1668 32.9633 23.3619 33.0021 23.5591 33.0021C23.7562 33.0021 23.9514 32.9633 24.1335 32.8878C24.3156 32.8123 24.481 32.7017 24.6203 32.5622L25.81 31.3716C25.9493 31.2323 26.0599 31.0669 26.1353 30.8849C26.2107 30.7029 26.2495 30.5078 26.2495 30.3108C26.2495 30.1138 26.2107 29.9187 26.1353 29.7367C26.0599 29.5547 25.9493 29.3893 25.81 29.25L24.9063 28.3463L32.7072 22.3463C32.7985 22.276 32.8723 22.1857 32.923 22.0823C32.9738 21.9789 33 21.8652 32.9997 21.75V15.75C32.9997 15.5511 32.9207 15.3603 32.78 15.2197C32.6394 15.079 32.4486 15 32.2497 15ZM31.4997 21.3806L23.8366 27.2756L22.8109 26.25L27.5303 21.5306C27.6709 21.3899 27.7499 21.1991 27.7498 21.0001C27.7497 20.8012 27.6706 20.6105 27.5299 20.4698C27.3891 20.3292 27.1983 20.2503 26.9994 20.2504C26.8004 20.2505 26.6097 20.3296 26.4691 20.4703L21.7497 25.1887L20.725 24.1631L26.6191 16.5H31.4997V21.3806Z" fill="url(#paint1_radial_2010_8745)"/>
<defs>
<radialGradient id="paint0_radial_2010_8745" cx="0" cy="0" r="1" gradientUnits="userSpaceOnUse" gradientTransform="translate(24 14.7429) rotate(-90) scale(21.9429 51.2642)">
<stop offset="0.313257" stop-color="#FFE8BD"/>
<stop offset="1" stop-color="#543600" stop-opacity="0.6"/>
</radialGradient>
<radialGradient id="paint1_radial_2010_8745" cx="0" cy="0" r="1" gradientUnits="userSpaceOnUse" gradientTransform="translate(23.6239 15) rotate(90) scale(18.7512 24.0029)">
<stop offset="0.0260417" stop-color="#FFC342"/>
<stop offset="0.572917" stop-color="#9F6E03"/>
<stop offset="0.609375" stop-color="#9F6E03"/>
<stop offset="1" stop-color="#FF8717"/>
</radialGradient>
</defs>
</svg>
