<svg width="48" height="48" viewBox="0 0 48 48" fill="none" xmlns="http://www.w3.org/2000/svg">
<circle cx="24" cy="24" r="23.5" stroke="url(#paint0_radial_2021_17218)"/>
<circle cx="24" cy="24" r="18" fill="#151512"/>
<path d="M31.4997 25.5C31.5016 25.8058 31.4087 26.1047 31.2338 26.3555C31.0588 26.6063 30.8105 26.7968 30.5228 26.9006L25.6807 28.6819L23.8994 33.5203C23.7939 33.8069 23.6031 34.0542 23.3526 34.2289C23.1022 34.4036 22.8041 34.4972 22.4988 34.4972C22.1934 34.4972 21.8954 34.4036 21.6449 34.2289C21.3945 34.0542 21.2036 33.8069 21.0982 33.5203L19.3122 28.6875L14.4728 26.9062C14.1863 26.8008 13.939 26.6099 13.7643 26.3595C13.5896 26.109 13.4959 25.811 13.4959 25.5056C13.4959 25.2003 13.5896 24.9022 13.7643 24.6518C13.939 24.4013 14.1863 24.2105 14.4728 24.105L19.315 22.3238L21.0963 17.4853C21.2018 17.1987 21.3926 16.9514 21.6431 16.7767C21.8935 16.602 22.1915 16.5084 22.4969 16.5084C22.8023 16.5084 23.1003 16.602 23.3507 16.7767C23.6012 16.9514 23.7921 17.1987 23.8975 17.4853L25.6788 22.3275L30.5172 24.1088C30.8044 24.2111 31.0529 24.3998 31.2288 24.6488C31.4046 24.8978 31.4993 25.1951 31.4997 25.5ZM26.2497 16.5H27.7497V18C27.7497 18.1989 27.8287 18.3897 27.9694 18.5303C28.11 18.671 28.3008 18.75 28.4997 18.75C28.6986 18.75 28.8894 18.671 29.0301 18.5303C29.1707 18.3897 29.2497 18.1989 29.2497 18V16.5H30.7497C30.9486 16.5 31.1394 16.421 31.2801 16.2803C31.4207 16.1397 31.4997 15.9489 31.4997 15.75C31.4997 15.5511 31.4207 15.3603 31.2801 15.2197C31.1394 15.079 30.9486 15 30.7497 15H29.2497V13.5C29.2497 13.3011 29.1707 13.1103 29.0301 12.9697C28.8894 12.829 28.6986 12.75 28.4997 12.75C28.3008 12.75 28.11 12.829 27.9694 12.9697C27.8287 13.1103 27.7497 13.3011 27.7497 13.5V15H26.2497C26.0508 15 25.86 15.079 25.7194 15.2197C25.5787 15.3603 25.4997 15.5511 25.4997 15.75C25.4997 15.9489 25.5787 16.1397 25.7194 16.2803C25.86 16.421 26.0508 16.5 26.2497 16.5ZM34.4997 19.5H33.7497V18.75C33.7497 18.5511 33.6707 18.3603 33.5301 18.2197C33.3894 18.079 33.1986 18 32.9997 18C32.8008 18 32.61 18.079 32.4694 18.2197C32.3287 18.3603 32.2497 18.5511 32.2497 18.75V19.5H31.4997C31.3008 19.5 31.11 19.579 30.9694 19.7197C30.8287 19.8603 30.7497 20.0511 30.7497 20.25C30.7497 20.4489 30.8287 20.6397 30.9694 20.7803C31.11 20.921 31.3008 21 31.4997 21H32.2497V21.75C32.2497 21.9489 32.3287 22.1397 32.4694 22.2803C32.61 22.421 32.8008 22.5 32.9997 22.5C33.1986 22.5 33.3894 22.421 33.5301 22.2803C33.6707 22.1397 33.7497 21.9489 33.7497 21.75V21H34.4997C34.6986 21 34.8894 20.921 35.0301 20.7803C35.1707 20.6397 35.2497 20.4489 35.2497 20.25C35.2497 20.0511 35.1707 19.8603 35.0301 19.7197C34.8894 19.579 34.6986 19.5 34.4997 19.5Z" fill="url(#paint1_radial_2021_17218)"/>
<defs>
<radialGradient id="paint0_radial_2021_17218" cx="0" cy="0" r="1" gradientUnits="userSpaceOnUse" gradientTransform="translate(24) rotate(90) scale(48 61.4419)">
<stop offset="0.0260417" stop-color="#FFC342"/>
<stop offset="0.572917" stop-color="#9F6E03"/>
<stop offset="0.609375" stop-color="#9F6E03"/>
<stop offset="1" stop-color="#FF8717"/>
</radialGradient>
<radialGradient id="paint1_radial_2021_17218" cx="0" cy="0" r="1" gradientUnits="userSpaceOnUse" gradientTransform="translate(24.3728 12.75) rotate(90) scale(21.7472 27.8457)">
<stop offset="0.0260417" stop-color="#FFC342"/>
<stop offset="0.572917" stop-color="#9F6E03"/>
<stop offset="0.609375" stop-color="#9F6E03"/>
<stop offset="1" stop-color="#FF8717"/>
</radialGradient>
</defs>
</svg>
