<svg width="35" height="46" viewBox="0 0 35 46" fill="none" xmlns="http://www.w3.org/2000/svg">
<mask id="mask0_1251_9858" style="mask-type:alpha" maskUnits="userSpaceOnUse" x="0" y="0" width="35" height="46">
<path d="M0.282973 23.7338V4.14382C3.707 3.99238 6.2862 3.79555 8.81716 3.26234C11.3863 2.72109 13.8951 1.83563 17.1851 0.312275C20.5011 1.86573 22.9516 2.75188 25.4856 3.28579C27.983 3.81198 30.5506 3.99355 34.0886 4.14424V23.7338C34.0886 29.4548 31.3822 34.8387 26.7906 38.2517L17.1858 45.391L7.58094 38.2517C2.98937 34.8387 0.282973 29.4549 0.282973 23.7338Z" fill="url(#paint0_radial_1251_9858)" stroke="url(#paint1_radial_1251_9858)" stroke-width="0.565946"/>
</mask>
<g mask="url(#mask0_1251_9858)">
<path d="M14.068 12.7927C14.041 12.801 14.014 12.8096 13.9871 12.8185C12.4047 13.3395 11.5233 14.6878 11.3328 16.1728C11.1421 17.6599 11.6468 19.2712 12.8245 20.3021C13.7754 21.1345 15.0097 21.5896 16.2292 22.0381L16.2298 22.0383L14.068 12.7927ZM14.068 12.7927C13.8815 12.931 13.6717 13.1022 13.4632 13.2958C13.011 13.7156 12.5494 14.2547 12.3433 14.8116L12.3178 14.8805L12.3743 14.9273L12.6444 15.1508L12.7136 15.2081L12.7801 15.1476C12.9208 15.0195 13.2493 14.7362 13.4553 14.6081L13.4553 14.6081L13.4591 14.6055C13.7576 14.4008 14.1565 14.202 14.6647 14.0372C15.9552 13.6197 17.5701 13.7493 18.5618 14.1653C19.4095 14.5212 20.1866 15.1002 20.9598 15.6775C20.9611 15.6785 20.9624 15.6794 20.9637 15.6804L20.9638 15.6804L20.9647 15.6811C21.3009 15.9322 21.6364 16.1826 21.9741 16.4112C23.4573 17.4154 25.0742 18.437 26.7782 19.0522L26.7782 19.0523C28.0851 19.5231 29.1155 19.6038 29.9612 19.5882M14.068 12.7927L28.874 13.8381C28.7906 14.1187 28.6279 14.3534 28.3196 14.4983M29.9612 19.5882C29.9612 19.5882 29.9612 19.5882 29.9611 19.5882L29.9594 19.4847L29.9614 19.5882C29.9613 19.5882 29.9613 19.5882 29.9612 19.5882ZM29.9612 19.5882C30.0082 19.5874 30.0446 19.5631 30.0656 19.5463C30.0892 19.5274 30.1109 19.5035 30.1303 19.4793C30.1693 19.4305 30.2092 19.367 30.246 19.3029C30.3197 19.1743 30.3891 19.0285 30.4233 18.9565L30.4237 18.9557L30.4237 18.9557L30.4336 18.9348L30.4338 18.9345L30.4392 18.9234C30.4392 18.9232 30.4393 18.9231 30.4393 18.923C31.3496 17.0681 30.9354 14.6769 30.2317 12.8516C30.2316 12.8515 30.2316 12.8515 30.2316 12.8515L30.135 12.8887M30.135 12.8887C30.0633 12.7018 29.1591 10.5411 29.0654 10.5743L28.6274 10.7324C28.626 10.7295 28.6246 10.7265 28.6232 10.7236L28.5297 10.7677L28.5648 10.8651L28.5723 10.8623C28.8122 11.4175 29.0111 12.2751 29.0458 12.8887M30.135 12.8887C30.8357 14.7059 31.2374 17.0624 30.3463 18.8778L30.135 12.8887ZM29.0458 12.8887L28.9425 12.8945C28.9425 12.8945 28.9425 12.8945 28.9425 12.8945L29.0458 12.8887ZM29.0458 12.8887C29.0826 13.5472 29.0428 14.2728 28.3635 14.592M28.3635 14.592L28.3196 14.4983M28.3635 14.592L28.3195 14.4983C28.3195 14.4983 28.3196 14.4983 28.3196 14.4983M28.3635 14.592C27.988 14.7682 27.5442 14.7581 27.1479 14.6359C26.3345 14.3855 25.7484 13.797 25.2382 13.1456C25.0044 12.8478 24.9024 12.4722 24.8021 12.1032L24.7986 12.0913M28.3196 14.4983L24.8476 11.8813M24.7986 12.0913L24.8984 12.0642C24.8983 12.0638 24.8982 12.0633 24.8981 12.0629L24.8977 12.0616L24.7986 12.0913ZM24.7986 12.0913C24.7819 12.0302 24.7653 11.9697 24.7481 11.9098M24.7481 11.9098L24.8476 11.8813M24.7481 11.9098L24.8476 11.8812C24.8476 11.8813 24.8476 11.8813 24.8476 11.8813M24.7481 11.9098C24.7048 11.7585 24.6419 11.5977 24.5518 11.4417C24.2195 10.8668 23.4643 10.4723 22.7304 10.1745C21.9965 9.87664 21.408 9.55152 20.9648 9.2537C20.5217 8.95588 19.5659 8.17335 19.1506 7.675C18.8184 7.27632 18.5733 6.77501 18.4986 6.57389H18.1394L18.1383 6.5634L18.0353 6.57389V6.58741M24.8476 11.8813L18.1917 8.15585C18.107 7.8334 18.0535 7.50354 18.0103 7.20422C17.9598 6.85416 17.9422 6.68072 17.9338 6.59773M18.0353 6.58741L17.9338 6.59773M18.0353 6.58741V6.67737H18.0462L17.9338 6.59773M18.0353 6.58741L17.9338 6.59776L17.9338 6.59773M9.35673 8.36934C9.04705 8.16748 8.64234 8.00931 8.20528 7.88477C7.6534 7.7275 7.0626 7.62723 6.57341 7.55718C5.62751 7.42173 4.67795 7.37209 4.08146 7.37209H3.97798V7.26861V6.5727V6.47488L4.07564 6.46938C6.05038 6.35818 9.16505 6.41091 10.6737 6.53186C13.1733 6.73207 15.2864 7.24496 17.5862 8.18869C17.5862 8.1887 17.5862 8.1887 17.5862 8.1887L17.5469 8.28444L9.35673 8.36934ZM9.35673 8.36934C9.35052 8.36958 9.34422 8.36983 9.33785 8.37008C9.14145 8.37793 8.86573 8.39243 8.54809 8.41908C7.91419 8.47225 7.10781 8.57418 6.43131 8.77014C6.00582 8.89339 5.47277 9.13718 5.01416 9.3793C4.55836 9.61995 4.16065 9.86708 4.01219 10.0008L3.97798 10.0317V10.0777V10.7832V10.9518L4.12832 10.8754C4.74946 10.56 5.15813 10.4279 5.74686 10.3167C6.00068 10.2688 6.33658 10.2337 6.65304 10.22C6.86962 10.2106 7.07177 10.2115 7.23004 10.2238C7.03969 10.4323 6.71863 10.7965 6.44935 11.102L6.44076 11.1117L6.4407 11.1118L6.44028 11.1123L6.4402 11.1124L6.4401 11.1125L6.43997 11.1126C6.28519 11.2882 6.14723 11.4447 6.05939 11.543L6.0593 11.5429L6.05613 11.5468C5.91631 11.7195 5.78659 11.8881 5.6735 12.0419C2.13856 16.8341 4.1553 23.8575 8.64172 27.1596L8.64176 27.1596C9.04594 27.4567 9.4668 27.7311 9.90076 27.9816M9.35673 8.36934L16.2301 22.0385C16.5437 22.1538 16.8562 22.2687 17.1609 22.3892L17.1228 22.4855L17.1609 22.3893C18.8561 23.0601 20.555 23.7209 22.2541 24.3812C24.2297 25.1488 26.3611 26.0707 28.1971 27.3155C29.9704 28.5179 31.4743 30.0254 32.2947 31.9924C33.575 29.4663 34.2681 26.6431 34.2681 23.7335V2.40188L17.1858 -0.534647L0.103483 2.40188V23.7335C0.103483 29.5113 2.83674 34.9486 7.47386 38.3954L17.1858 45.6144M9.35673 8.36934C9.40554 8.40116 9.45199 8.43406 9.49583 8.46809C9.01954 8.4823 7.56039 8.55082 6.4601 8.86954C5.62917 9.11022 4.35692 9.82953 4.08146 10.0777V10.6672C4.06597 10.675 4.05035 10.6829 4.03461 10.6909L4.08146 10.7832H4.18495V10.7313M9.35673 8.36934L4.18495 10.7313M9.90076 27.9816C9.90074 27.9816 9.90072 27.9816 9.9007 27.9816L9.95249 27.892L9.90076 27.9816ZM9.90076 27.9816C11.3186 28.8012 12.5826 29.3086 14.5234 30.0666L14.5235 30.0667L14.6195 30.104M14.6195 30.104C15.1285 30.3029 15.639 30.4994 16.1495 30.6959C17.7162 31.2989 19.2826 31.9019 20.8133 32.5768L20.8134 32.5768L20.8963 32.6134L20.8963 32.6134L21.1159 32.7098L21.1576 32.6151M14.6195 30.104L14.6571 30.0076M14.6195 30.104L14.6196 30.104L14.6571 30.0076M21.1576 32.6151L21.116 32.7099L21.117 32.7102L21.1599 32.6161M21.1576 32.6151L21.1599 32.6161M21.1576 32.6151L20.938 32.5187L20.8551 32.4821C19.3217 31.8061 17.753 31.2022 16.1867 30.5993C15.6761 30.4028 15.1659 30.2064 14.6571 30.0076M21.1599 32.6161L21.1182 32.7108L21.1178 32.7106C22.5228 33.3519 23.6421 34.1306 24.2458 35.4134C24.8538 36.7055 25.1491 38.5827 23.7077 40.4585C23.3008 40.988 22.8606 41.3786 22.6347 41.5642M21.1599 32.6161C22.5737 33.2612 23.7201 34.0533 24.3394 35.3693C24.9587 36.6853 25.2615 38.6063 23.7897 40.5216C23.3752 41.061 22.9273 41.458 22.6984 41.6458M22.6347 41.5642L17.1858 45.6144M22.6347 41.5642L22.6366 41.5627L22.6984 41.6458M22.6347 41.5642C22.634 41.5647 22.6334 41.5652 22.6327 41.5658L22.6984 41.6458M17.1858 45.6144L17.2475 45.6603L17.1858 45.7433L17.1241 45.6603L17.1858 45.6144ZM22.6984 41.6458L14.561 29.9702L14.6571 30.0076M4.18495 10.7313C4.7585 10.4483 5.16266 10.3218 5.72765 10.215C6.19316 10.1271 6.91908 10.0828 7.31844 10.1283L4.18495 10.7313ZM21.0257 15.5975L21.0256 15.5975C20.2532 15.0208 19.4648 14.4322 18.6018 14.0699L21.0257 15.5975ZM21.0257 15.5975C21.3626 15.8491 21.6965 16.0983 22.0321 16.3255C23.5147 17.3293 25.1225 18.3444 26.8133 18.9549L21.0257 15.5975ZM23.5857 12.7822C23.5428 12.6063 23.4959 12.4325 23.4472 12.2801C23.4138 12.1756 23.38 12.0826 23.3467 12.0067C23.3216 11.9495 23.2983 11.9057 23.2778 11.8746C22.8484 11.8028 22.3493 11.7592 21.9678 11.7366L23.5857 12.7822ZM23.5857 12.7822C23.4243 12.7204 23.2169 12.6492 23.0129 12.5793L23.005 12.5766L23.005 12.5765L23.0028 12.5758C22.8316 12.5171 22.6615 12.4587 22.5174 12.4059C22.4748 12.3878 22.4329 12.3703 22.3922 12.3532L22.3893 12.352C22.3892 12.352 22.3892 12.352 22.3891 12.3519C22.3544 12.3372 22.3202 12.323 22.2872 12.3092L22.245 12.2916L22.2263 12.2838C21.9195 12.1465 21.7439 11.8983 21.6627 11.7216C21.7501 11.7251 21.8533 11.7301 21.9676 11.7366L23.5857 12.7822ZM6.13656 11.612C5.99773 11.7834 5.86899 11.9507 5.75686 12.1032L6.13656 11.612Z" fill="url(#paint2_radial_1251_9858)" stroke="url(#paint3_radial_1251_9858)" stroke-width="0.206967"/>
<mask id="mask1_1251_9858" style="mask-type:alpha" maskUnits="userSpaceOnUse" x="-1" y="-2" width="37" height="49">
<path fill-rule="evenodd" clip-rule="evenodd" d="M0 2.31467L17.1858 -0.639648L34.3716 2.31467V23.7335C34.3716 26.7374 33.637 29.6497 32.283 32.2412C30.706 28.152 26.1648 26.0116 22.2166 24.4777C20.5175 23.8174 18.8184 23.1565 17.1228 22.4855C16.8194 22.3654 16.508 22.2509 16.194 22.1355L16.1937 22.1353L16.1935 22.1352C14.9776 21.6881 13.7242 21.2272 12.7563 20.3799C10.3429 18.2673 10.7006 13.7916 13.9547 12.7202C14.1766 12.6471 14.4033 12.5918 14.6328 12.5524C14.2295 12.7448 12.8357 13.7796 12.4403 14.8475L12.7104 15.0711C12.8509 14.9431 13.1857 14.6539 13.4006 14.5202C13.7085 14.309 14.1167 14.1061 14.6328 13.9388C15.9475 13.5134 17.5879 13.6445 18.6018 14.0699C19.4648 14.4322 20.2532 15.0208 21.0256 15.5975L21.0257 15.5975C21.3626 15.8491 21.6965 16.0983 22.0321 16.3255C23.5147 17.3293 25.1225 18.3444 26.8133 18.9549C28.1061 19.4206 29.1235 19.5001 29.9594 19.4847C30.0584 19.4831 30.2617 19.0554 30.3303 18.9112L30.3404 18.8899L30.3463 18.8778C31.2374 17.0624 30.8357 14.7059 30.135 12.8887C30.0633 12.7018 29.1591 10.5411 29.0654 10.5743L28.5297 10.7677C28.7883 11.3159 29.009 12.2391 29.0458 12.8887C29.0826 13.5472 29.0428 14.2728 28.3635 14.592C27.988 14.7682 27.5442 14.7581 27.1479 14.6359C26.3345 14.3855 25.7484 13.797 25.2382 13.1456C25.0044 12.8478 24.9024 12.4722 24.8021 12.1032L24.7986 12.0913C24.7819 12.0302 24.7653 11.9697 24.7481 11.9098C24.7048 11.7585 24.6419 11.5977 24.5518 11.4417C24.2195 10.8668 23.4643 10.4723 22.7304 10.1745C21.9965 9.87664 21.408 9.55152 20.9648 9.2537C20.5217 8.95588 19.5659 8.17335 19.1506 7.675C18.8184 7.27632 18.5733 6.77501 18.4986 6.57389H18.0353L18.0367 6.58727C18.045 6.66911 18.0625 6.84109 18.1127 7.18945C18.1558 7.48787 18.2087 7.81299 18.2918 8.12956C18.3749 8.44613 18.4986 8.74275 18.4986 8.74275C18.4986 8.74275 17.8868 8.42386 17.5469 8.28444C15.2569 7.34469 13.1542 6.83435 10.6655 6.63501C9.16147 6.51443 6.05151 6.46176 4.08146 6.5727V7.26861C4.68243 7.26861 5.63692 7.31854 6.58808 7.45474C7.56951 7.59527 8.97302 7.85897 9.65345 8.46451C9.65345 8.46451 7.79334 8.48334 6.4601 8.86954C5.62917 9.11022 4.35692 9.82953 4.08146 10.0777V10.7832C4.71131 10.4633 5.12928 10.3281 5.72765 10.215C6.24737 10.1169 7.09167 10.0731 7.44374 10.1479C7.33927 10.249 6.88281 10.7668 6.51773 11.1809L6.51767 11.181L6.5176 11.1811C6.36294 11.3565 6.22469 11.5133 6.13656 11.612C5.99773 11.7834 5.86899 11.9507 5.75686 12.1032C2.26367 16.8387 4.25114 23.7996 8.70306 27.0762C9.10411 27.3711 9.52178 27.6434 9.95249 27.892C11.3627 28.7071 12.6198 29.212 14.561 29.9702L14.6571 30.0076C15.1659 30.2064 15.6761 30.4028 16.1867 30.5993C17.753 31.2022 19.3217 31.8061 20.8551 32.4821L20.938 32.5187C21.0112 32.5508 21.0844 32.583 21.1576 32.6151L21.1599 32.6161C22.5737 33.2612 23.7201 34.0533 24.3394 35.3693C24.9587 36.6853 25.2615 38.6063 23.7897 40.5216C23.3752 41.061 22.9273 41.458 22.6984 41.6458L17.1858 45.7433L7.41213 38.4785C2.74874 35.0121 0 29.5441 0 23.7335V2.31467ZM22.2043 12.3871C21.7564 12.1966 21.5575 11.7921 21.514 11.6132C21.6227 11.6157 21.7831 11.6224 21.9737 11.6333C22.369 11.6567 22.8921 11.7027 23.3359 11.7795C23.4755 11.9447 23.6237 12.4733 23.7325 12.9552C23.5803 12.8833 23.2766 12.7791 22.9714 12.6744L22.9714 12.6744C22.7989 12.6153 22.6259 12.5559 22.4794 12.5021C22.4362 12.4838 22.3937 12.466 22.3522 12.4487L22.3489 12.4473C22.3145 12.4327 22.2804 12.4185 22.2474 12.4047L22.2052 12.3871H22.2043Z" fill="url(#paint4_radial_1251_9858)"/>
<path d="M22.3522 12.4487L22.3489 12.4473M22.2474 12.4047L22.2052 12.3871M22.4794 12.5021C23.0069 12.7256 23.6379 13.0254 23.8599 13.5897C23.8357 13.4493 23.7997 13.2646 23.7571 13.0666C23.7492 13.0299 23.7409 12.9927 23.7325 12.9552M17.1858 -0.639648L0 2.31467V23.7335C0 29.5441 2.74874 35.0121 7.41213 38.4785L17.1858 45.7433L22.6984 41.6458C22.9273 41.458 23.3752 41.061 23.7897 40.5216C25.2615 38.6063 24.9587 36.6853 24.3394 35.3693C23.7201 34.0533 22.5737 33.2612 21.1599 32.6161L21.1576 32.6151C21.0844 32.583 21.0112 32.5508 20.938 32.5187L20.8551 32.4821C19.3217 31.8061 17.753 31.2022 16.1867 30.5993C15.6761 30.4028 15.1659 30.2064 14.6571 30.0076L14.561 29.9702C12.6198 29.212 11.3627 28.7071 9.95249 27.892C9.52178 27.6434 9.10411 27.3711 8.70306 27.0762C4.25114 23.7996 2.26367 16.8387 5.75686 12.1032C5.86899 11.9507 5.99773 11.7834 6.13656 11.612C6.22469 11.5133 6.36294 11.3565 6.5176 11.1811L6.51767 11.181L6.51773 11.1809C6.88281 10.7668 7.33927 10.249 7.44374 10.1479C7.09167 10.0731 6.24737 10.1169 5.72765 10.215C5.12928 10.3281 4.71131 10.4633 4.08146 10.7832V10.0777C4.35692 9.82953 5.62917 9.11022 6.4601 8.86954C7.79334 8.48334 9.65345 8.46451 9.65345 8.46451C8.97302 7.85897 7.56951 7.59527 6.58808 7.45474C5.63692 7.31854 4.68243 7.26861 4.08146 7.26861V6.5727C6.05151 6.46176 9.16147 6.51443 10.6655 6.63501C13.1542 6.83435 15.2569 7.34469 17.5469 8.28444C17.8868 8.42386 18.4986 8.74275 18.4986 8.74275C18.4986 8.74275 18.3749 8.44613 18.2918 8.12956C18.2087 7.81299 18.1558 7.48787 18.1127 7.18945C18.0625 6.84109 18.045 6.66911 18.0367 6.58727L18.0353 6.57389H18.4986C18.5733 6.77501 18.8184 7.27632 19.1506 7.675C19.5659 8.17335 20.5217 8.95588 20.9648 9.2537C21.408 9.55152 21.9965 9.87664 22.7304 10.1745C23.4643 10.4723 24.2195 10.8668 24.5518 11.4417C24.6419 11.5977 24.7048 11.7585 24.7481 11.9098C24.7653 11.9697 24.7819 12.0302 24.7986 12.0913L24.8021 12.1032C24.9024 12.4722 25.0044 12.8478 25.2382 13.1456C25.7484 13.797 26.3345 14.3855 27.1479 14.6359C27.5442 14.7581 27.988 14.7682 28.3635 14.592C29.0428 14.2728 29.0826 13.5472 29.0458 12.8887C29.009 12.2391 28.7883 11.3159 28.5297 10.7677L29.0654 10.5743C29.1591 10.5411 30.0633 12.7018 30.135 12.8887C30.8357 14.7059 31.2374 17.0624 30.3463 18.8778L30.3404 18.8899L30.3303 18.9112C30.2617 19.0554 30.0584 19.4831 29.9594 19.4847C29.1235 19.5001 28.1061 19.4206 26.8133 18.9549C25.1225 18.3444 23.5147 17.3293 22.0321 16.3255C21.6965 16.0983 21.3626 15.8491 21.0257 15.5975L21.0256 15.5975C20.2532 15.0208 19.4648 14.4322 18.6018 14.0699C17.5879 13.6445 15.9475 13.5134 14.6328 13.9388C14.1167 14.1061 13.7085 14.309 13.4006 14.5202C13.1857 14.6539 12.8509 14.9431 12.7104 15.0711L12.4403 14.8475C12.8357 13.7796 14.2295 12.7448 14.6328 12.5524C14.4033 12.5918 14.1766 12.6471 13.9547 12.7202C10.7006 13.7916 10.3429 18.2673 12.7563 20.3799C13.7242 21.2272 14.9776 21.6881 16.1935 22.1352L16.1937 22.1353L16.194 22.1355C16.508 22.2509 16.8194 22.3654 17.1228 22.4855C18.8184 23.1565 20.5175 23.8174 22.2166 24.4777C26.1648 26.0116 30.706 28.152 32.283 32.2412C33.637 29.6497 34.3716 26.7374 34.3716 23.7335V2.31467L17.1858 -0.639648ZM21.514 11.6132C21.5575 11.7921 21.7564 12.1966 22.2043 12.3871H22.2052L22.2474 12.4047C22.2804 12.4185 22.3145 12.4327 22.3489 12.4473L22.3522 12.4487C22.3937 12.466 22.4362 12.4838 22.4794 12.5021C22.6259 12.5559 22.7989 12.6153 22.9714 12.6744L22.9714 12.6744C23.2766 12.7791 23.5803 12.8833 23.7325 12.9552C23.6237 12.4733 23.4755 11.9447 23.3359 11.7795C22.8921 11.7027 22.369 11.6567 21.9737 11.6333C21.7831 11.6224 21.6227 11.6157 21.514 11.6132Z" stroke="url(#paint5_radial_1251_9858)" stroke-width="2"/>
</mask>
<g mask="url(#mask1_1251_9858)">
<g opacity="0.5" filter="url(#filter0_f_1251_9858)">
<path d="M28.078 1.49504C28.078 16.1068 16.2328 27.952 1.62102 27.952C-12.9908 27.952 -24.8359 16.1068 -24.8359 1.49504C-24.8359 -13.1167 -12.9908 -24.9619 1.62102 -24.9619C16.2328 -24.9619 28.078 -13.1167 28.078 1.49504Z" fill="url(#paint6_radial_1251_9858)"/>
<path d="M28.0373 1.49504C28.0373 16.0844 16.2103 27.9113 1.62102 27.9113C-12.9683 27.9113 -24.7953 16.0844 -24.7953 1.49504C-24.7953 -13.0943 -12.9683 -24.9212 1.62102 -24.9212C16.2103 -24.9212 28.0373 -13.0943 28.0373 1.49504Z" stroke="url(#paint7_radial_1251_9858)" stroke-width="0.0813346"/>
</g>
</g>
</g>
<defs>
<filter id="filter0_f_1251_9858" x="-74.1507" y="-74.2767" width="151.543" height="151.544" filterUnits="userSpaceOnUse" color-interpolation-filters="sRGB">
<feFlood flood-opacity="0" result="BackgroundImageFix"/>
<feBlend mode="normal" in="SourceGraphic" in2="BackgroundImageFix" result="shape"/>
<feGaussianBlur stdDeviation="24.6574" result="effect1_foregroundBlur_1251_9858"/>
</filter>
<radialGradient id="paint0_radial_1251_9858" cx="0" cy="0" r="1" gradientUnits="userSpaceOnUse" gradientTransform="translate(17.1858) rotate(90) scale(45.7436 43.997)">
<stop offset="0.0260417" stop-color="#FFC342"/>
<stop offset="0.572917" stop-color="#9F6E03"/>
<stop offset="0.609375" stop-color="#9F6E03"/>
<stop offset="1" stop-color="#FF8717"/>
</radialGradient>
<radialGradient id="paint1_radial_1251_9858" cx="0" cy="0" r="1" gradientUnits="userSpaceOnUse" gradientTransform="translate(17.1858 14.0498) rotate(-90) scale(20.9114 36.709)">
<stop offset="0.313257" stop-color="#FFE8BD"/>
<stop offset="1" stop-color="#543600" stop-opacity="0.6"/>
</radialGradient>
<radialGradient id="paint2_radial_1251_9858" cx="0" cy="0" r="1" gradientUnits="userSpaceOnUse" gradientTransform="translate(17.1858 -0.639648) rotate(90) scale(46.383 43.997)">
<stop offset="0.0260417" stop-color="#FFC342"/>
<stop offset="0.572917" stop-color="#9F6E03"/>
<stop offset="0.609375" stop-color="#9F6E03"/>
<stop offset="1" stop-color="#FF8717"/>
</radialGradient>
<radialGradient id="paint3_radial_1251_9858" cx="0" cy="0" r="1" gradientUnits="userSpaceOnUse" gradientTransform="translate(17.1858 13.6065) rotate(-90) scale(21.2036 36.709)">
<stop offset="0.313257" stop-color="#FFE8BD"/>
<stop offset="1" stop-color="#543600" stop-opacity="0.6"/>
</radialGradient>
<radialGradient id="paint4_radial_1251_9858" cx="0" cy="0" r="1" gradientUnits="userSpaceOnUse" gradientTransform="translate(17.1858 -0.639648) rotate(90) scale(46.383 43.997)">
<stop offset="0.0260417" stop-color="#FFC342"/>
<stop offset="0.572917" stop-color="#9F6E03"/>
<stop offset="0.609375" stop-color="#9F6E03"/>
<stop offset="1" stop-color="#FF8717"/>
</radialGradient>
<radialGradient id="paint5_radial_1251_9858" cx="0" cy="0" r="1" gradientUnits="userSpaceOnUse" gradientTransform="translate(17.1858 13.6065) rotate(-90) scale(21.2036 36.709)">
<stop offset="0.313257" stop-color="#FFE8BD"/>
<stop offset="1" stop-color="#543600" stop-opacity="0.6"/>
</radialGradient>
<radialGradient id="paint6_radial_1251_9858" cx="0" cy="0" r="1" gradientUnits="userSpaceOnUse" gradientTransform="translate(1.62102 -24.9619) rotate(90) scale(52.9139 67.7319)">
<stop offset="0.0260417" stop-color="#FFC342"/>
<stop offset="0.572917" stop-color="#9F6E03"/>
<stop offset="0.609375" stop-color="#9F6E03"/>
<stop offset="1" stop-color="#FF8717"/>
</radialGradient>
<radialGradient id="paint7_radial_1251_9858" cx="0" cy="0" r="1" gradientUnits="userSpaceOnUse" gradientTransform="translate(1.62102 -8.70978) rotate(-90) scale(24.1892 56.5123)">
<stop offset="0.313257" stop-color="#FFE8BD"/>
<stop offset="1" stop-color="#543600" stop-opacity="0.6"/>
</radialGradient>
</defs>
</svg>
