<svg width="48" height="48" viewBox="0 0 48 48" fill="none" xmlns="http://www.w3.org/2000/svg">
<path d="M38.9994 27C39.0032 27.6116 38.8174 28.2093 38.4676 28.711C38.1177 29.2126 37.6209 29.5935 37.0457 29.8013L27.3613 33.3638L23.7988 43.0406C23.5879 43.6138 23.2062 44.1084 22.7052 44.4578C22.2043 44.8072 21.6083 44.9945 20.9976 44.9945C20.3868 44.9945 19.7908 44.8072 19.2899 44.4578C18.789 44.1084 18.4073 43.6138 18.1963 43.0406L14.6244 33.375L4.94569 29.8125C4.37256 29.6015 3.87793 29.2198 3.52854 28.7189C3.17915 28.218 2.99182 27.622 2.99182 27.0112C2.99182 26.4005 3.17915 25.8045 3.52854 25.3036C3.87793 24.8027 4.37256 24.421 4.94569 24.21L14.6301 20.6475L18.1926 10.9706C18.4035 10.3975 18.7852 9.90286 19.2861 9.55347C19.7871 9.20408 20.3831 9.01675 20.9938 9.01675C21.6045 9.01675 22.2006 9.20408 22.7015 9.55347C23.2024 9.90286 23.5841 10.3975 23.7951 10.9706L27.3576 20.655L37.0344 24.2175C37.6088 24.4223 38.1058 24.7995 38.4575 25.2976C38.8093 25.7957 38.9985 26.3903 38.9994 27ZM28.4994 9H31.4994V12C31.4994 12.3978 31.6575 12.7794 31.9388 13.0607C32.2201 13.342 32.6016 13.5 32.9994 13.5C33.3973 13.5 33.7788 13.342 34.0601 13.0607C34.3414 12.7794 34.4994 12.3978 34.4994 12V9H37.4994C37.8973 9 38.2788 8.84196 38.5601 8.56066C38.8414 8.27936 38.9994 7.89782 38.9994 7.5C38.9994 7.10218 38.8414 6.72064 38.5601 6.43934C38.2788 6.15804 37.8973 6 37.4994 6H34.4994V3C34.4994 2.60218 34.3414 2.22064 34.0601 1.93934C33.7788 1.65804 33.3973 1.5 32.9994 1.5C32.6016 1.5 32.2201 1.65804 31.9388 1.93934C31.6575 2.22064 31.4994 2.60218 31.4994 3V6H28.4994C28.1016 6 27.7201 6.15804 27.4388 6.43934C27.1575 6.72064 26.9994 7.10218 26.9994 7.5C26.9994 7.89782 27.1575 8.27936 27.4388 8.56066C27.7201 8.84196 28.1016 9 28.4994 9ZM44.9994 15H43.4994V13.5C43.4994 13.1022 43.3414 12.7206 43.0601 12.4393C42.7788 12.158 42.3973 12 41.9994 12C41.6016 12 41.2201 12.158 40.9388 12.4393C40.6575 12.7206 40.4994 13.1022 40.4994 13.5V15H38.9994C38.6016 15 38.2201 15.158 37.9388 15.4393C37.6575 15.7206 37.4994 16.1022 37.4994 16.5C37.4994 16.8978 37.6575 17.2794 37.9388 17.5607C38.2201 17.842 38.6016 18 38.9994 18H40.4994V19.5C40.4994 19.8978 40.6575 20.2794 40.9388 20.5607C41.2201 20.842 41.6016 21 41.9994 21C42.3973 21 42.7788 20.842 43.0601 20.5607C43.3414 20.2794 43.4994 19.8978 43.4994 19.5V18H44.9994C45.3973 18 45.7788 17.842 46.0601 17.5607C46.3414 17.2794 46.4994 16.8978 46.4994 16.5C46.4994 16.1022 46.3414 15.7206 46.0601 15.4393C45.7788 15.158 45.3973 15 44.9994 15Z" fill="url(#paint0_radial_1251_9870)"/>
<defs>
<radialGradient id="paint0_radial_1251_9870" cx="0" cy="0" r="1" gradientUnits="userSpaceOnUse" gradientTransform="translate(24.7456 1.5) rotate(90) scale(43.4945 55.6915)">
<stop offset="0.0260417" stop-color="#FFC342"/>
<stop offset="0.572917" stop-color="#9F6E03"/>
<stop offset="0.609375" stop-color="#9F6E03"/>
<stop offset="1" stop-color="#FF8717"/>
</radialGradient>
</defs>
</svg>
