<svg width="48" height="48" viewBox="0 0 48 48" fill="none" xmlns="http://www.w3.org/2000/svg">
<path d="M40.4994 6H28.4994C28.2697 5.99998 28.043 6.05271 27.8369 6.15414C27.6308 6.25557 27.4508 6.40298 27.3106 6.585L15.3106 22.1869L13.4994 20.3794C13.2208 20.1004 12.8899 19.8792 12.5257 19.7282C12.1615 19.5772 11.7711 19.4995 11.3769 19.4995C10.9826 19.4995 10.5923 19.5772 10.2281 19.7282C9.86388 19.8792 9.53301 20.1004 9.25439 20.3794L6.87502 22.7606C6.59637 23.0392 6.37533 23.37 6.22452 23.734C6.07371 24.098 5.99609 24.4882 5.99609 24.8822C5.99609 25.2762 6.07371 25.6664 6.22452 26.0304C6.37533 26.3944 6.59637 26.7252 6.87502 27.0037L10.625 30.7537L5.37502 36.0037C5.09637 36.2823 4.87533 36.6131 4.72452 36.9771C4.57371 37.3411 4.49609 37.7313 4.49609 38.1253C4.49609 38.5193 4.57371 38.9095 4.72452 39.2735C4.87533 39.6375 5.09637 39.9683 5.37502 40.2469L7.75439 42.6244C8.31694 43.1866 9.07971 43.5024 9.87502 43.5024C10.6703 43.5024 11.4331 43.1866 11.9956 42.6244L17.2456 37.3744L20.9956 41.1244C21.2743 41.4033 21.6051 41.6246 21.9693 41.7756C22.3335 41.9265 22.7239 42.0042 23.1181 42.0042C23.5124 42.0042 23.9028 41.9265 24.267 41.7756C24.6312 41.6246 24.962 41.4033 25.2406 41.1244L27.62 38.7431C27.8987 38.4645 28.1197 38.1338 28.2705 37.7698C28.4213 37.4058 28.4989 37.0156 28.4989 36.6216C28.4989 36.2275 28.4213 35.8374 28.2705 35.4734C28.1197 35.1093 27.8987 34.7786 27.62 34.5L25.8125 32.6925L41.4144 20.6925C41.5969 20.552 41.7446 20.3713 41.8461 20.1645C41.9475 19.9577 42 19.7303 41.9994 19.5V7.5C41.9994 7.10218 41.8414 6.72064 41.5601 6.43934C41.2787 6.15804 40.8972 6 40.4994 6ZM38.9994 18.7612L23.6731 30.5513L21.6219 28.5L31.0606 19.0613C31.3419 18.7798 31.4997 18.3981 31.4996 18.0003C31.4994 17.6024 31.3412 17.2209 31.0597 16.9397C30.7782 16.6585 30.3966 16.5006 29.9987 16.5008C29.6009 16.5009 29.2194 16.6592 28.9381 16.9406L19.4994 26.3775L17.45 24.3263L29.2381 9H38.9994V18.7612Z" fill="url(#paint0_radial_1251_9867)"/>
<defs>
<radialGradient id="paint0_radial_1251_9867" cx="0" cy="0" r="1" gradientUnits="userSpaceOnUse" gradientTransform="translate(23.2477 6) rotate(90) scale(37.5024 48.0057)">
<stop offset="0.0260417" stop-color="#FFC342"/>
<stop offset="0.572917" stop-color="#9F6E03"/>
<stop offset="0.609375" stop-color="#9F6E03"/>
<stop offset="1" stop-color="#FF8717"/>
</radialGradient>
</defs>
</svg>
