<svg width="16" height="16" viewBox="0 0 16 16" fill="none" xmlns="http://www.w3.org/2000/svg">
<path fill-rule="evenodd" clip-rule="evenodd" d="M16 8C16 12.4183 12.4183 16 8 16C3.58172 16 0 12.4183 0 8C0 3.58172 3.58172 0 8 0C12.4183 0 16 3.58172 16 8ZM7.09771 9.99776V9.9114C7.10377 9.34776 7.15983 8.89928 7.26589 8.56594C7.37498 8.23261 7.52952 7.96292 7.72952 7.75685C7.92952 7.55079 8.17043 7.36291 8.45225 7.19322C8.63407 7.07807 8.79771 6.94928 8.94316 6.80685C9.08861 6.66443 9.20377 6.50079 9.28861 6.31594C9.37346 6.1311 9.41589 5.92655 9.41589 5.70231C9.41589 5.43261 9.35225 5.19928 9.22498 5.00231C9.09771 4.80534 8.92801 4.65382 8.71589 4.54776C8.5068 4.43867 8.27346 4.38413 8.01589 4.38413C7.78255 4.38413 7.55983 4.43261 7.34771 4.52958C7.13558 4.62655 6.95983 4.77807 6.82043 4.98413C6.68104 5.18716 6.60074 5.44928 6.57952 5.77049H5.19771C5.21892 5.22504 5.3568 4.76443 5.61134 4.38867C5.86589 4.00988 6.20225 3.72352 6.62043 3.52958C7.04164 3.33564 7.5068 3.23867 8.01589 3.23867C8.57346 3.23867 9.06134 3.34322 9.47952 3.55231C9.89771 3.75837 10.2219 4.04776 10.4523 4.42049C10.6856 4.79019 10.8023 5.22201 10.8023 5.71594C10.8023 6.05534 10.7492 6.3614 10.6432 6.63413C10.5371 6.90382 10.3856 7.14473 10.1886 7.35685C9.99467 7.56898 9.76134 7.75685 9.48861 7.92049C9.23104 8.0811 9.02195 8.24776 8.86134 8.42049C8.70377 8.59322 8.58861 8.79776 8.51589 9.03413C8.44316 9.27049 8.40377 9.56292 8.39771 9.9114V9.99776H7.09771ZM7.14316 12.4978C7.32195 12.6735 7.53558 12.7614 7.78407 12.7614C7.95074 12.7614 8.10225 12.7205 8.23861 12.6387C8.37498 12.5569 8.48407 12.4478 8.56589 12.3114C8.65074 12.172 8.69316 12.019 8.69316 11.8523C8.69316 11.6038 8.60225 11.3917 8.42043 11.2159C8.24164 11.0372 8.02952 10.9478 7.78407 10.9478C7.53558 10.9478 7.32195 11.0372 7.14316 11.2159C6.96437 11.3917 6.87498 11.6038 6.87498 11.8523C6.87498 12.1038 6.96437 12.319 7.14316 12.4978Z" fill="url(#paint0_radial_1251_9996)"/>
<defs>
<radialGradient id="paint0_radial_1251_9996" cx="0" cy="0" r="1" gradientUnits="userSpaceOnUse" gradientTransform="translate(8) rotate(90) scale(16 20.4806)">
<stop offset="0.0260417" stop-color="#FFC342"/>
<stop offset="0.572917" stop-color="#9F6E03"/>
<stop offset="0.609375" stop-color="#9F6E03"/>
<stop offset="1" stop-color="#FF8717"/>
</radialGradient>
</defs>
</svg>
