<svg width="42" height="42" viewBox="0 0 42 42" fill="none" xmlns="http://www.w3.org/2000/svg">
<path fill-rule="evenodd" clip-rule="evenodd" d="M4.08133 34.91V11.9804H2.61133V36.38H39.3883V11.9804H37.9183V34.91H4.08133Z" fill="white"/>
<path fill-rule="evenodd" clip-rule="evenodd" d="M1.28125 9.51967C1.28125 7.04267 3.28925 5.03467 5.76625 5.03467H36.2336C38.7106 5.03467 40.7186 7.04267 40.7186 9.51967V12.7154H24.6168V15.9336L23.8818 16.6686H18.118L17.383 15.9336V12.7154H1.28125V9.51967ZM17.383 11.2454V9.76159L18.118 9.02659H23.8818L24.6168 9.76159V11.2454H39.2486V9.51967C39.2486 7.85453 37.8988 6.50467 36.2336 6.50467H5.76625C4.10111 6.50467 2.75125 7.85453 2.75125 9.51967V11.2454H17.383ZM18.853 10.4966V15.1986H23.1468V10.4966H18.853Z" fill="white"/>
<path fill-rule="evenodd" clip-rule="evenodd" d="M7.35497 20.1837C8.12906 20.6005 8.78115 21.0626 9.35461 21.6352C9.95116 22.2309 10.4417 22.9252 10.8982 23.7678C11.3547 22.9252 11.8452 22.2309 12.4417 21.6352C13.0152 21.0626 13.6673 20.6005 14.4414 20.1837C13.6673 19.767 13.0152 19.3048 12.4417 18.7323C11.8452 18.1366 11.3547 17.4423 10.8982 16.5997C10.4417 17.4423 9.95116 18.1366 9.35461 18.7322C8.78115 19.3048 8.12906 19.767 7.35497 20.1837ZM8.31595 17.692C9.02678 16.9823 9.59538 16.0528 10.2251 14.6169L11.5713 14.6169C12.201 16.0528 12.7696 16.9823 13.4804 17.692C14.1889 18.3995 15.086 18.9358 16.4526 19.5053V20.8622C15.086 21.4317 14.1889 21.968 13.4804 22.6754C12.7696 23.3852 12.201 24.3146 11.5713 25.7505H10.2251C9.59538 24.3146 9.02678 23.3852 8.31595 22.6754C7.60743 21.968 6.71032 21.4317 5.34375 20.8622L5.34375 19.5053C6.71032 18.9358 7.60743 18.3995 8.31595 17.692Z" fill="white"/>
<path fill-rule="evenodd" clip-rule="evenodd" d="M27.0503 27.5109C27.8244 27.9276 28.4765 28.3898 29.0499 28.9624C29.6465 29.558 30.137 30.2523 30.5935 31.0949C31.05 30.2523 31.5405 29.558 32.137 28.9624C32.7105 28.3898 33.3626 27.9276 34.1367 27.5109C33.3626 27.0941 32.7105 26.632 32.137 26.0594C31.5405 25.4637 31.05 24.7694 30.5935 23.9268C30.137 24.7694 29.6465 25.4637 29.0499 26.0594C28.4765 26.632 27.8244 27.0941 27.0503 27.5109ZM28.0113 25.0192C28.7221 24.3094 29.2907 23.38 29.9204 21.9441L31.2666 21.9441C31.8963 23.38 32.4649 24.3094 33.1757 25.0192C33.8842 25.7266 34.7813 26.2629 36.1479 26.8324V28.1893C34.7813 28.7588 33.8842 29.2951 33.1757 30.0026C32.4649 30.7123 31.8963 31.6418 31.2666 33.0777H29.9204C29.2907 31.6418 28.7221 30.7123 28.0113 30.0026C27.3027 29.2951 26.4056 28.7588 25.0391 28.1893L25.0391 26.8324C26.4056 26.2629 27.3027 25.7266 28.0113 25.0192Z" fill="white"/>
</svg>
