<svg width="20" height="20" viewBox="0 0 20 20" fill="none" xmlns="http://www.w3.org/2000/svg">
<path fill-rule="evenodd" clip-rule="evenodd" d="M20 10C20 15.5228 15.5228 20 10 20C4.47715 20 0 15.5228 0 10C0 4.47715 4.47715 0 10 0C15.5228 0 20 4.47715 20 10ZM8.87213 12.4972V12.3892C8.87971 11.6847 8.94978 11.1241 9.08236 10.7074C9.21872 10.2908 9.4119 9.95364 9.6619 9.69607C9.9119 9.43849 10.213 9.20364 10.5653 8.99152C10.7926 8.84758 10.9971 8.6866 11.1789 8.50857C11.3608 8.33054 11.5047 8.12599 11.6108 7.89493C11.7168 7.66387 11.7699 7.40819 11.7699 7.12789C11.7699 6.79076 11.6903 6.4991 11.5312 6.25289C11.3721 6.00667 11.16 5.81728 10.8949 5.6847C10.6335 5.54834 10.3418 5.48016 10.0199 5.48016C9.72819 5.48016 9.44978 5.54076 9.18463 5.66198C8.91948 5.78319 8.69978 5.97258 8.52554 6.23016C8.3513 6.48395 8.25092 6.8116 8.2244 7.21311H6.49713C6.52365 6.53129 6.69599 5.95554 7.01418 5.48584C7.33236 5.01236 7.75281 4.6544 8.27554 4.41198C8.80206 4.16955 9.3835 4.04834 10.0199 4.04834C10.7168 4.04834 11.3267 4.17902 11.8494 4.44039C12.3721 4.69796 12.7774 5.0597 13.0653 5.52561C13.357 5.98773 13.5028 6.52751 13.5028 7.14493C13.5028 7.56917 13.4365 7.95175 13.3039 8.29266C13.1714 8.62978 12.982 8.93092 12.7358 9.19607C12.4933 9.46122 12.2017 9.69607 11.8608 9.90061C11.5388 10.1014 11.2774 10.3097 11.0767 10.5256C10.8797 10.7415 10.7358 10.9972 10.6449 11.2927C10.554 11.5881 10.5047 11.9536 10.4971 12.3892V12.4972H8.87213ZM8.92895 15.6222C9.15243 15.8419 9.41948 15.9517 9.73009 15.9517C9.93842 15.9517 10.1278 15.9006 10.2983 15.7983C10.4687 15.6961 10.6051 15.5597 10.7074 15.3892C10.8134 15.215 10.8664 15.0237 10.8664 14.8154C10.8664 14.5048 10.7528 14.2396 10.5255 14.0199C10.3021 13.7964 10.0369 13.6847 9.73009 13.6847C9.41948 13.6847 9.15243 13.7964 8.92895 14.0199C8.70546 14.2396 8.59372 14.5048 8.59372 14.8154C8.59372 15.1298 8.70546 15.3987 8.92895 15.6222Z" fill="url(#paint0_radial_2706_5239)"/>
<defs>
<radialGradient id="paint0_radial_2706_5239" cx="0" cy="0" r="1" gradientUnits="userSpaceOnUse" gradientTransform="translate(10) rotate(90) scale(20 25.6008)">
<stop offset="0.0260417" stop-color="#FFC342"/>
<stop offset="0.572917" stop-color="#9F6E03"/>
<stop offset="0.609375" stop-color="#9F6E03"/>
<stop offset="1" stop-color="#FF8717"/>
</radialGradient>
</defs>
</svg>
