<svg width="24" height="24" viewBox="0 0 24 24" fill="none" xmlns="http://www.w3.org/2000/svg">
<g opacity="0.8">
<path fill-rule="evenodd" clip-rule="evenodd" d="M22.6002 10.784C21.0732 12.6208 19.2492 14.0634 17.3497 15.1005C16.1627 15.7485 14.9491 16.2366 13.7641 16.5637C12.5482 16.8993 11.3681 17.0637 10.282 17.0606C9.22038 17.0576 8.25964 16.8946 7.4447 16.5843C6.41378 16.1916 5.62265 15.5672 5.12671 14.7254C4.63176 13.8854 4.3943 12.7669 4.58013 11.3207L3.19154 11.1422C3.01217 12.5383 3.16066 13.766 3.60157 14.8033L1.11549 16.2317L1.81298 17.4456L4.31125 16.0101C4.81639 16.6569 5.45819 17.1699 6.19453 17.5552L4.19876 20.926L5.40343 21.6392L7.50943 18.0823C8.12732 18.2648 8.78692 18.3796 9.47436 18.4304L9.0108 21.5918L10.396 21.7949L10.8869 18.4472C11.6996 18.4095 12.5417 18.2927 13.3959 18.0993L13.9994 21.4082L15.3767 21.157L14.7517 17.7308C15.6394 17.4495 16.533 17.0875 17.4146 16.6463L19.1078 19.5787L20.3202 18.8787L18.6432 15.9742C20.4633 14.8914 22.1983 13.4574 23.6768 11.6789L22.6002 10.784Z" fill="white"/>
</g>
</svg>
