<svg width="24" height="24" viewBox="0 0 24 24" fill="none" xmlns="http://www.w3.org/2000/svg">
<g opacity="0.8">
<path fill-rule="evenodd" clip-rule="evenodd" d="M21.29 12.289C20.3564 13.4753 18.9 14.6615 17.208 15.5971C15.2374 16.6867 13.0337 17.3885 11.1002 17.3885C7.32411 17.3885 4.05165 15.2262 2.456 12.0694C3.2281 10.4432 4.01159 9.11461 5.02313 8.17312C6.06632 7.20217 7.38772 6.61089 9.30537 6.61089C11.2365 6.61089 12.6888 7.11536 14.5103 8.12669C15.427 8.63561 16.4246 9.26579 17.6258 10.0246L17.6509 10.0404C18.698 10.7019 19.8897 11.4541 21.29 12.289ZM15.1899 6.90268C13.2355 5.8176 11.5475 5.21089 9.30537 5.21089C7.04983 5.21089 5.38309 5.92551 4.0693 7.14832C2.78527 8.34343 1.8758 9.99093 1.0456 11.7794L0.908789 12.0742L1.0456 12.3689C2.80461 16.1583 6.64454 18.7885 11.1002 18.7885C13.34 18.7885 15.7781 17.9876 17.8854 16.8223C19.9898 15.6586 21.8509 14.0837 22.8919 12.4504L23.2822 11.838L22.6559 11.4705C20.9878 10.4916 19.6055 9.61919 18.3985 8.85677L18.3486 8.82521C17.1677 8.07926 16.1415 7.43099 15.1899 6.90268Z" fill="white"/>
<path d="M6.23354 11.9999C6.23354 13.5899 7.52244 14.8788 9.11237 14.8788C10.7023 14.8788 11.9912 13.5899 11.9912 11.9999C11.9912 10.41 10.7023 9.12109 9.11237 9.12109C7.52244 9.12109 6.23354 10.41 6.23354 11.9999Z" fill="white"/>
</g>
</svg>
