<svg width="64" height="64" viewBox="0 0 64 64" fill="none" xmlns="http://www.w3.org/2000/svg">
<path d="M45.2056 42.4195C45.5754 42.7893 45.7832 43.291 45.7832 43.814C45.7832 44.3371 45.5754 44.8387 45.2056 45.2085C44.8357 45.5784 44.3341 45.7862 43.811 45.7862C43.288 45.7862 42.7864 45.5784 42.4165 45.2085L32.0002 34.7889L21.5806 45.2053C21.2107 45.5751 20.7091 45.7829 20.186 45.7829C19.663 45.7829 19.1614 45.5751 18.7915 45.2053C18.4216 44.8354 18.2139 44.3338 18.2139 43.8107C18.2139 43.2877 18.4216 42.786 18.7915 42.4162L29.2111 31.9999L18.7948 21.5803C18.4249 21.2104 18.2171 20.7088 18.2171 20.1857C18.2171 19.6627 18.4249 19.161 18.7948 18.7912C19.1646 18.4213 19.6663 18.2136 20.1893 18.2136C20.7124 18.2136 21.214 18.4213 21.5838 18.7912L32.0002 29.2108L42.4198 18.7895C42.7896 18.4197 43.2913 18.2119 43.8143 18.2119C44.3374 18.2119 44.839 18.4197 45.2088 18.7895C45.5787 19.1594 45.7865 19.661 45.7865 20.1841C45.7865 20.7071 45.5787 21.2088 45.2088 21.5786L34.7892 31.9999L45.2056 42.4195Z" fill="#6B758E"/>
</svg>
