<svg width="32" height="32" viewBox="0 0 32 32" fill="none" xmlns="http://www.w3.org/2000/svg">
<g clip-path="url(#clip0_2639_5392)">
<path fill-rule="evenodd" clip-rule="evenodd" d="M7.0919 7.09112C2.17166 12.0114 2.17166 19.9886 7.0919 24.9089C12.0121 29.8291 19.9894 29.8291 24.9097 24.9089C29.8299 19.9886 29.8299 12.0114 24.9097 7.09112C19.9894 2.17089 12.0121 2.17089 7.0919 7.09112ZM6.10195 25.8988C0.63498 20.4319 0.63498 11.5681 6.10195 6.10117C11.5689 0.634203 20.4326 0.634202 25.8996 6.10117C31.2006 11.4022 31.3615 19.8968 26.3824 25.3917L32.9432 31.9525L31.9533 32.9424L25.3925 26.3816C19.8976 31.3608 11.4029 31.1998 6.10195 25.8988Z" fill="white"/>
<path fill-rule="evenodd" clip-rule="evenodd" d="M24.3524 15.9997C24.3524 11.3875 20.6134 7.64854 16.0012 7.64854V6.24854C21.3866 6.24854 25.7524 10.6143 25.7524 15.9997C25.7524 21.3851 21.3866 25.7509 16.0012 25.7509C10.6158 25.7509 6.25 21.3851 6.25 15.9997H7.65C7.65 20.6119 11.3889 24.3509 16.0012 24.3509C20.6134 24.3509 24.3524 20.6119 24.3524 15.9997Z" fill="white"/>
</g>
<defs>
<clipPath id="clip0_2639_5392">
<rect width="32" height="32" fill="white"/>
</clipPath>
</defs>
</svg>
