<svg width="31" height="30" viewBox="0 0 31 30" fill="none" xmlns="http://www.w3.org/2000/svg">
<g id="Group 1000003964">
<path id="Ellipse 47 (Stroke)" fill-rule="evenodd" clip-rule="evenodd" d="M16.4351 2.45176C9.97591 2.45176 4.65196 7.31246 3.92153 13.5756L6.49385 11.6227L7.3404 12.7378L2.96977 16.056L-0.416016 11.037L0.744589 10.2541L2.58735 12.9857C3.5857 6.2334 9.4053 1.05176 16.4351 1.05176C19.1034 1.05176 21.5992 1.79892 23.7225 3.0958L22.9927 4.29056C21.0829 3.12408 18.8386 2.45176 16.4351 2.45176ZM29.0342 15.0508C29.0342 12.4129 28.2243 9.96629 26.8396 7.9434L27.9949 7.15261C29.5339 9.40099 30.4342 12.1218 30.4342 15.0508C30.4342 22.7823 24.1666 29.0499 16.4351 29.0499C12.6841 29.0499 9.27633 27.5736 6.76361 25.1719L7.73097 24.1598C9.99363 26.3226 13.0586 27.6499 16.4351 27.6499C23.3934 27.6499 29.0342 22.0091 29.0342 15.0508Z" fill="white"/>
<path id="Vector 396 (Stroke)" fill-rule="evenodd" clip-rule="evenodd" d="M22.1303 5.45404C22.8675 5.85095 23.4886 6.29107 24.0347 6.8364C24.6029 7.40369 25.07 8.06496 25.5048 8.86741C25.9395 8.06496 26.4067 7.40369 26.9748 6.8364C27.521 6.29107 28.142 5.85095 28.8792 5.45404C28.142 5.05714 27.521 4.61701 26.9748 4.07168C26.4067 3.5044 25.9395 2.84313 25.5048 2.04068C25.07 2.84313 24.6029 3.5044 24.0347 4.07168C23.4886 4.61701 22.8675 5.05714 22.1303 5.45404ZM23.0455 3.08099C23.7225 2.40503 24.264 1.51987 24.8637 0.152344L26.1458 0.152344C26.7455 1.51987 27.2871 2.40503 27.964 3.08099C28.6388 3.75475 29.4932 4.26554 30.7947 4.8079V6.10018C29.4932 6.64255 28.6388 7.15334 27.964 7.8271C27.2871 8.50306 26.7455 9.38822 26.1458 10.7557H24.8637C24.264 9.38822 23.7225 8.50306 23.0455 7.8271C22.3707 7.15334 21.5163 6.64255 20.2148 6.10018L20.2148 4.8079C21.5163 4.26554 22.3707 3.75475 23.0455 3.08099Z" fill="white"/>
<path id="Vector 397 (Stroke)" fill-rule="evenodd" clip-rule="evenodd" d="M12.6264 15.0507C13.3636 15.4476 13.9847 15.8878 14.5308 16.4331C15.0989 17.0004 15.5661 17.6616 16.0009 18.4641C16.4356 17.6616 16.9028 17.0004 17.4709 16.4331C18.0171 15.8878 18.6381 15.4476 19.3753 15.0507C18.6381 14.6538 18.0171 14.2137 17.4709 13.6684C16.9028 13.1011 16.4356 12.4398 16.0009 11.6374C15.5661 12.4398 15.0989 13.1011 14.5308 13.6684C13.9847 14.2137 13.3636 14.6538 12.6264 15.0507ZM13.5416 12.6777C14.2186 12.0017 14.7601 11.1165 15.3598 9.74902L16.6419 9.74902C17.2416 11.1165 17.7831 12.0017 18.4601 12.6777C19.1349 13.3514 19.9893 13.8622 21.2908 14.4046V15.6969C19.9893 16.2392 19.1349 16.75 18.4601 17.4238C17.7831 18.0997 17.2416 18.9849 16.6419 20.3524H15.3598C14.7601 18.9849 14.2186 18.0997 13.5416 17.4238C12.8668 16.75 12.0124 16.2392 10.7109 15.6969L10.7109 14.4046C12.0124 13.8622 12.8668 13.3514 13.5416 12.6777Z" fill="white"/>
</g>
</svg>
