<svg width="24" height="24" viewBox="0 0 24 24" fill="none" xmlns="http://www.w3.org/2000/svg">
<path fill-rule="evenodd" clip-rule="evenodd" d="M22 12C22 17.5228 17.5228 22 12 22C6.47715 22 2 17.5228 2 12C2 6.47715 6.47715 2 12 2C17.5228 2 22 6.47715 22 12ZM10.8721 14.4972V14.3892C10.8797 13.6847 10.9498 13.1241 11.0824 12.7074C11.2187 12.2908 11.4119 11.9536 11.6619 11.6961C11.9119 11.4385 12.213 11.2036 12.5653 10.9915C12.7926 10.8476 12.9971 10.6866 13.1789 10.5086C13.3608 10.3305 13.5047 10.126 13.6108 9.89493C13.7168 9.66387 13.7699 9.40819 13.7699 9.12789C13.7699 8.79076 13.6903 8.4991 13.5312 8.25289C13.3721 8.00667 13.16 7.81728 12.8949 7.6847C12.6335 7.54834 12.3418 7.48016 12.0199 7.48016C11.7282 7.48016 11.4498 7.54076 11.1846 7.66198C10.9195 7.78319 10.6998 7.97258 10.5255 8.23016C10.3513 8.48395 10.2509 8.8116 10.2244 9.21311H8.49713C8.52365 8.53129 8.69599 7.95554 9.01418 7.48584C9.33236 7.01236 9.75281 6.6544 10.2755 6.41198C10.8021 6.16955 11.3835 6.04834 12.0199 6.04834C12.7168 6.04834 13.3267 6.17902 13.8494 6.44039C14.3721 6.69796 14.7774 7.0597 15.0653 7.52561C15.357 7.98773 15.5028 8.52751 15.5028 9.14493C15.5028 9.56917 15.4365 9.95175 15.3039 10.2927C15.1714 10.6298 14.982 10.9309 14.7358 11.1961C14.4933 11.4612 14.2017 11.6961 13.8608 11.9006C13.5388 12.1014 13.2774 12.3097 13.0767 12.5256C12.8797 12.7415 12.7358 12.9972 12.6449 13.2927C12.554 13.5881 12.5047 13.9536 12.4971 14.3892V14.4972H10.8721ZM10.9289 17.6222C11.1524 17.8419 11.4195 17.9517 11.7301 17.9517C11.9384 17.9517 12.1278 17.9006 12.2983 17.7983C12.4687 17.6961 12.6051 17.5597 12.7074 17.3892C12.8134 17.215 12.8664 17.0237 12.8664 16.8154C12.8664 16.5048 12.7528 16.2396 12.5255 16.0199C12.3021 15.7964 12.0369 15.6847 11.7301 15.6847C11.4195 15.6847 11.1524 15.7964 10.9289 16.0199C10.7055 16.2396 10.5937 16.5048 10.5937 16.8154C10.5937 17.1298 10.7055 17.3987 10.9289 17.6222Z" fill="url(#paint0_radial_2662_5020)"/>
<defs>
<radialGradient id="paint0_radial_2662_5020" cx="0" cy="0" r="1" gradientUnits="userSpaceOnUse" gradientTransform="translate(12 2) rotate(90) scale(20 25.6008)">
<stop offset="0.0260417" stop-color="#FFC342"/>
<stop offset="0.572917" stop-color="#9F6E03"/>
<stop offset="0.609375" stop-color="#9F6E03"/>
<stop offset="1" stop-color="#FF8717"/>
</radialGradient>
</defs>
</svg>
