<svg width="553" height="64" viewBox="0 0 553 64" fill="none" xmlns="http://www.w3.org/2000/svg">
<rect x="0.5" y="0.5" width="552" height="63" rx="15.5" fill="#0D142D"/>
<rect x="0.5" y="0.5" width="552" height="63" rx="15.5" stroke="url(#paint0_radial_2395_19760)"/>
<path d="M21.312 36.856L19.74 35.716L21.6 33.376L18.72 32.536L19.32 30.688L22.128 31.732L22.02 28.72H23.964L23.856 31.732L26.664 30.688L27.264 32.536L24.384 33.376L26.232 35.716L24.66 36.856L22.992 34.384L21.312 36.856ZM34.9029 36.856L33.3309 35.716L35.1909 33.376L32.3109 32.536L32.9109 30.688L35.7189 31.732L35.6109 28.72H37.5549L37.4469 31.732L40.2549 30.688L40.8549 32.536L37.9749 33.376L39.8229 35.716L38.2509 36.856L36.5829 34.384L34.9029 36.856ZM48.4939 36.856L46.9219 35.716L48.7819 33.376L45.9019 32.536L46.5019 30.688L49.3099 31.732L49.2019 28.72H51.1459L51.0379 31.732L53.8459 30.688L54.4459 32.536L51.5659 33.376L53.4139 35.716L51.8419 36.856L50.1739 34.384L48.4939 36.856ZM62.0848 36.856L60.5128 35.716L62.3728 33.376L59.4928 32.536L60.0928 30.688L62.9008 31.732L62.7928 28.72H64.7368L64.6288 31.732L67.4368 30.688L68.0368 32.536L65.1568 33.376L67.0048 35.716L65.4328 36.856L63.7648 34.384L62.0848 36.856ZM75.6758 36.856L74.1038 35.716L75.9638 33.376L73.0838 32.536L73.6838 30.688L76.4918 31.732L76.3838 28.72H78.3278L78.2198 31.732L81.0278 30.688L81.6278 32.536L78.7478 33.376L80.5958 35.716L79.0238 36.856L77.3558 34.384L75.6758 36.856ZM89.2667 36.856L87.6947 35.716L89.5547 33.376L86.6747 32.536L87.2747 30.688L90.0827 31.732L89.9747 28.72H91.9187L91.8107 31.732L94.6187 30.688L95.2187 32.536L92.3387 33.376L94.1867 35.716L92.6147 36.856L90.9467 34.384L89.2667 36.856ZM102.858 36.856L101.286 35.716L103.146 33.376L100.266 32.536L100.866 30.688L103.674 31.732L103.566 28.72H105.51L105.402 31.732L108.21 30.688L108.81 32.536L105.93 33.376L107.778 35.716L106.206 36.856L104.538 34.384L102.858 36.856ZM116.449 36.856L114.877 35.716L116.737 33.376L113.857 32.536L114.457 30.688L117.265 31.732L117.157 28.72H119.101L118.993 31.732L121.801 30.688L122.401 32.536L119.521 33.376L121.369 35.716L119.797 36.856L118.129 34.384L116.449 36.856ZM130.04 36.856L128.468 35.716L130.328 33.376L127.448 32.536L128.048 30.688L130.856 31.732L130.748 28.72H132.692L132.584 31.732L135.392 30.688L135.992 32.536L133.112 33.376L134.96 35.716L133.388 36.856L131.72 34.384L130.04 36.856ZM143.63 36.856L142.058 35.716L143.918 33.376L141.038 32.536L141.638 30.688L144.446 31.732L144.338 28.72H146.282L146.174 31.732L148.982 30.688L149.582 32.536L146.702 33.376L148.55 35.716L146.978 36.856L145.31 34.384L143.63 36.856Z" fill="white"/>
<g opacity="0.8">
<path fill-rule="evenodd" clip-rule="evenodd" d="M532.291 32.289C531.357 33.4753 529.901 34.6615 528.209 35.5971C526.238 36.6867 524.035 37.3885 522.101 37.3885C518.325 37.3885 515.053 35.2262 513.457 32.0694C514.229 30.4432 515.013 29.1146 516.024 28.1731C517.067 27.2022 518.389 26.6109 520.306 26.6109C522.237 26.6109 523.69 27.1154 525.511 28.1267C526.428 28.6356 527.426 29.2658 528.627 30.0246L528.652 30.0404C529.699 30.7019 530.891 31.4541 532.291 32.289ZM526.191 26.9027C524.236 25.8176 522.548 25.2109 520.306 25.2109C518.051 25.2109 516.384 25.9255 515.07 27.1483C513.786 28.3434 512.877 29.9909 512.047 31.7794L511.91 32.0742L512.047 32.3689C513.806 36.1583 517.646 38.7885 522.101 38.7885C524.341 38.7885 526.779 37.9876 528.886 36.8223C530.991 35.6586 532.852 34.0837 533.893 32.4504L534.283 31.838L533.657 31.4705C531.989 30.4916 530.606 29.6192 529.4 28.8568L529.35 28.8252C528.169 28.0793 527.142 27.431 526.191 26.9027Z" fill="white"/>
<path d="M517.235 31.9999C517.235 33.5899 518.523 34.8788 520.113 34.8788C521.703 34.8788 522.992 33.5899 522.992 31.9999C522.992 30.41 521.703 29.1211 520.113 29.1211C518.523 29.1211 517.235 30.41 517.235 31.9999Z" fill="white"/>
</g>
<defs>
<radialGradient id="paint0_radial_2395_19760" cx="0" cy="0" r="1" gradientUnits="userSpaceOnUse" gradientTransform="translate(276.5 19.6571) rotate(-90) scale(29.2571 590.606)">
<stop offset="0.313257" stop-color="#D0DBEB"/>
<stop offset="1" stop-color="#0D1E35" stop-opacity="0.6"/>
</radialGradient>
</defs>
</svg>
