<svg width="56" height="56" viewBox="0 0 56 56" fill="none" xmlns="http://www.w3.org/2000/svg">
<g clip-path="url(#clip0_1413_319)">
<g filter="url(#filter0_f_1413_319)">
<path d="M43.6728 27.9996C43.6728 34.7385 37.1941 40.2014 29.2022 40.2014C21.2104 40.2014 14.7317 34.7385 14.7317 27.9996C14.7317 21.2608 21.2104 15.7979 29.2022 15.7979C37.1941 15.7979 43.6728 21.2608 43.6728 27.9996Z" fill="#F9BE3E" fill-opacity="0.24"/>
</g>
<path d="M28.0001 13.7846C24.4167 7.8928 26.507 3.2337 28.0001 1.64062C29.4931 3.2337 31.5834 7.8928 28.0001 13.7846Z" fill="url(#paint0_radial_1413_319)"/>
<path fill-rule="evenodd" clip-rule="evenodd" d="M21.4739 46.8374C20.0554 40.9165 18.0248 38.2515 16.1208 35.7525C13.2277 31.9555 10.6266 28.5417 10.9077 14.6727L20.7621 21.1901C18.9754 14.8439 20.0177 9.56057 20.7621 7.71216C23.9202 10.8024 25.6749 12.5944 28.0001 18.8108C30.3325 12.781 32.009 10.6666 35.238 7.71222C35.9825 9.56063 37.0248 14.844 35.238 21.1902L45.0924 14.6727C45.3735 28.5418 42.7724 31.9556 39.8793 35.7526C37.9753 38.2516 35.9447 40.9166 34.5262 46.8374C33.2831 51.5611 29.6575 54.503 28.0001 55.3835C26.3426 54.503 22.717 51.5611 21.4739 46.8374ZM15.738 24.9956C17.0887 26.5541 18.2795 27.4884 19.2882 28.2798C19.7303 28.6267 20.1375 28.9461 20.5077 29.2786C21.8591 30.4922 22.7195 31.8799 22.9977 35.4118C21.2572 35.3467 17.2561 32.1153 15.738 24.9956ZM36.8461 28.2799C37.8548 27.4884 39.0457 26.5541 40.3964 24.9956C40.2634 25.4444 40.14 25.8791 40.0203 26.301C38.9296 30.1453 38.1431 32.9175 33.1366 35.4118C33.4148 31.8799 34.2752 30.4922 35.6266 29.2786C35.9969 28.9462 36.404 28.6267 36.8461 28.2799Z" fill="url(#paint1_radial_1413_319)"/>
<g filter="url(#filter1_d_1413_319)">
<path fill-rule="evenodd" clip-rule="evenodd" d="M28 0.836426L28.4013 1.2646C30.0502 3.02394 32.1913 7.95178 28.4699 14.0705L28 14.8431L27.5301 14.0705C23.8087 7.95178 25.9498 3.02394 27.5987 1.2646L28 0.836426ZM28 2.51132C29.2089 4.2054 30.4944 7.94299 28 12.6713C25.5056 7.94299 26.7911 4.2054 28 2.51132ZM20.5591 6.7441L21.1468 7.31914C22.7233 8.86178 23.987 10.1154 25.1445 11.7746C26.1337 13.1926 27.0354 14.8917 28.007 17.3067C28.9701 14.9621 29.8526 13.2447 30.8268 11.8007C31.976 10.0974 33.2381 8.79656 34.8667 7.30653L35.4518 6.77116L35.7481 7.50682C36.4803 9.32464 37.4361 14.1072 36.1199 19.9475L45.622 13.6631L45.6423 14.6617C45.7834 21.6256 45.2028 26.014 44.2001 29.1569C43.1945 32.3092 41.7731 34.1746 40.3249 36.0753L40.3105 36.0943C38.4295 38.563 36.4525 41.1576 35.061 46.9656L35.0582 46.9775C33.7658 51.8887 30.0106 54.9382 28.2581 55.8693L28 56.0064L27.742 55.8693C25.9894 54.9382 22.2344 51.8886 20.942 46.9774L20.9389 46.9656C19.5474 41.1576 17.5706 38.563 15.6895 36.0942L15.6751 36.0753C14.2269 34.1746 12.8056 32.3091 11.7999 29.1569C10.7972 26.0139 10.2166 21.6255 10.3578 14.6616L10.378 13.663L19.8801 19.9475C18.5639 14.1072 19.5198 9.32458 20.2519 7.50676L20.5591 6.7441ZM31.7387 12.4159C30.6567 14.0196 29.6719 16.0134 28.513 19.0093L27.9914 20.3578L27.4849 19.0036C26.3319 15.9211 25.3311 13.9647 24.2423 12.4039C23.3 11.0532 22.2816 9.98301 21.0021 8.71885C20.3588 10.9525 19.7558 15.5867 21.2915 21.0411L21.6924 22.4648L11.4421 15.6856C11.3756 22.0051 11.9439 25.9889 12.8479 28.8225C13.7938 31.7878 15.1162 33.5267 16.5582 35.4193C18.4828 37.9452 20.5633 40.6803 22.0073 46.7032C23.1405 51.0009 26.3401 53.7698 28 54.7526C29.6599 53.7698 32.8596 51.001 33.9928 46.7033C35.4367 40.6803 37.5172 37.9453 39.4418 35.4193C40.8839 33.5267 42.2062 31.7878 43.1522 28.8226C44.0562 25.989 44.6244 22.0052 44.558 15.6857L34.3077 22.4649L34.7085 21.0412C36.2503 15.5653 35.6365 10.9162 34.9904 8.69272C33.6933 9.91779 32.6742 11.0292 31.7387 12.4159ZM15.2 25.1104L16.1536 24.6355C17.4678 26.1519 18.6235 27.0594 19.6277 27.8472L19.636 27.8538C20.072 28.1958 20.4913 28.5247 20.8751 28.8695C21.5912 29.5125 22.1991 30.223 22.6575 31.2521C23.1111 32.2702 23.4042 33.568 23.546 35.3686L23.5945 35.9845L22.9771 35.9614C22.4001 35.9399 21.7245 35.6676 21.0403 35.2176C20.3441 34.7596 19.5934 34.088 18.8602 33.1993C17.392 31.4199 15.9761 28.7498 15.2 25.1104ZM16.8046 26.9046C17.5705 29.3544 18.6385 31.2023 19.7086 32.4992C20.3829 33.3164 21.0538 33.9098 21.6448 34.2985C21.916 34.4769 22.1617 34.6067 22.3767 34.6964C22.2256 33.3738 21.9778 32.4294 21.6527 31.6997C21.2736 30.8486 20.7756 30.2585 20.1402 29.6879C19.786 29.3699 19.3939 29.0619 18.9487 28.7126L18.9446 28.7094C18.3103 28.2117 17.5927 27.6488 16.8046 26.9046ZM37.1896 28.7094L37.1856 28.7126C36.7403 29.062 36.3482 29.3699 35.9941 29.6879C35.3587 30.2585 34.8607 30.8486 34.4815 31.6997C34.1775 32.3821 33.9411 33.2523 33.7881 34.4439C35.6736 33.3772 36.807 32.2693 37.5847 31.0644C38.3593 29.8644 38.8007 28.5423 39.2558 26.974C38.4966 27.684 37.8041 28.2273 37.1896 28.7094ZM36.5066 27.8472C37.5107 27.0594 38.6664 26.1519 39.9807 24.6355L40.9236 25.152C40.7917 25.5972 40.6692 26.0289 40.5494 26.4512L40.5371 26.4943C40.001 28.384 39.5124 30.1064 38.5089 31.661C37.4853 33.2468 35.9527 34.6233 33.3819 35.9041L32.512 36.3375L32.5883 35.3686C32.7301 33.568 33.0232 32.2702 33.4767 31.2521C33.9352 30.223 34.5431 29.5125 35.2591 28.8695C35.643 28.5248 36.0622 28.1959 36.4982 27.8538L36.5066 27.8472ZM26.3378 46.0091C26.8634 47.0191 27.0869 48.28 27.1397 49.1272L26.0419 49.1957C25.9944 48.4345 25.791 47.3413 25.362 46.5168C25.1488 46.107 24.8995 45.8017 24.6233 45.6217C24.3635 45.4524 24.0511 45.3736 23.6402 45.4609L23.4118 44.3849C24.1064 44.2374 24.7174 44.37 25.2239 44.7001C25.7139 45.0195 26.0738 45.5016 26.3378 46.0091ZM30.6887 46.5168C30.2597 47.3413 30.0564 48.4345 30.0089 49.1957L28.911 49.1272C28.9639 48.28 29.1874 47.0191 29.7129 46.0091C29.9769 45.5016 30.3368 45.0195 30.8269 44.7001C31.3334 44.37 31.9443 44.2374 32.639 44.3849L32.4105 45.4609C31.9996 45.3736 31.6873 45.4524 31.4275 45.6217C31.1513 45.8017 30.9019 46.107 30.6887 46.5168Z" fill="url(#paint2_radial_1413_319)"/>
</g>
</g>
<defs>
<filter id="filter0_f_1413_319" x="-2.26831" y="-1.20215" width="62.941" height="58.4038" filterUnits="userSpaceOnUse" color-interpolation-filters="sRGB">
<feFlood flood-opacity="0" result="BackgroundImageFix"/>
<feBlend mode="normal" in="SourceGraphic" in2="BackgroundImageFix" result="shape"/>
<feGaussianBlur stdDeviation="8.5" result="effect1_foregroundBlur_1413_319"/>
</filter>
<filter id="filter1_d_1413_319" x="-5.66321" y="-15.1636" width="67.3264" height="87.1699" filterUnits="userSpaceOnUse" color-interpolation-filters="sRGB">
<feFlood flood-opacity="0" result="BackgroundImageFix"/>
<feColorMatrix in="SourceAlpha" type="matrix" values="0 0 0 0 0 0 0 0 0 0 0 0 0 0 0 0 0 0 127 0" result="hardAlpha"/>
<feOffset/>
<feGaussianBlur stdDeviation="8"/>
<feComposite in2="hardAlpha" operator="out"/>
<feColorMatrix type="matrix" values="0 0 0 0 1 0 0 0 0 0.752941 0 0 0 0 0.223529 0 0 0 0.24 0"/>
<feBlend mode="normal" in2="BackgroundImageFix" result="effect1_dropShadow_1413_319"/>
<feBlend mode="normal" in="SourceGraphic" in2="effect1_dropShadow_1413_319" result="shape"/>
</filter>
<radialGradient id="paint0_radial_1413_319" cx="0" cy="0" r="1" gradientUnits="userSpaceOnUse" gradientTransform="translate(21.9657 -0.37503) rotate(75.7077) scale(57.5395 52.1398)">
<stop offset="0.0260417" stop-color="#FFC342"/>
<stop offset="0.572917" stop-color="#9F6E03"/>
<stop offset="0.609375" stop-color="#9F6E03"/>
<stop offset="1" stop-color="#FF8717"/>
</radialGradient>
<radialGradient id="paint1_radial_1413_319" cx="0" cy="0" r="1" gradientUnits="userSpaceOnUse" gradientTransform="translate(21.9657 -0.37503) rotate(75.7077) scale(57.5395 52.1398)">
<stop offset="0.0260417" stop-color="#FFC342"/>
<stop offset="0.572917" stop-color="#9F6E03"/>
<stop offset="0.609375" stop-color="#9F6E03"/>
<stop offset="1" stop-color="#FF8717"/>
</radialGradient>
<radialGradient id="paint2_radial_1413_319" cx="0" cy="0" r="1" gradientUnits="userSpaceOnUse" gradientTransform="translate(31.5933 18.2576) rotate(-97.5817) scale(27.2345 40.766)">
<stop offset="0.313257" stop-color="#FFE8BD"/>
<stop offset="1" stop-color="#543600"/>
</radialGradient>
<clipPath id="clip0_1413_319">
<rect width="56" height="56" fill="white"/>
</clipPath>
</defs>
</svg>
