<svg width="56" height="56" viewBox="0 0 56 56" fill="none" xmlns="http://www.w3.org/2000/svg">
<g clip-path="url(#clip0_1413_342)">
<g filter="url(#filter0_f_1413_342)">
<path d="M42.335 23.7934C42.335 30.471 36.1023 35.8842 28.4139 35.8842C20.7256 35.8842 14.4929 30.471 14.4929 23.7934C14.4929 17.1159 20.7256 11.7026 28.4139 11.7026C36.1023 11.7026 42.335 17.1159 42.335 23.7934Z" fill="#F9BE3E" fill-opacity="0.24"/>
</g>
<path d="M12.5145 11.6039H2.94702C3.30144 24.9394 11.0423 29.7232 17.451 29.2535C17.0308 28.7365 16.642 28.1895 16.2828 27.6107C12.658 28.0759 5.03176 23.3262 4.9205 13.4117H12.6188C12.578 12.8233 12.5434 12.2209 12.5145 11.6039Z" fill="url(#paint0_radial_1413_342)"/>
<path d="M43.4855 11.6039H53.0529C52.6985 24.9394 44.9576 29.7231 38.549 29.2535C38.9691 28.7365 39.3579 28.1895 39.7171 27.6106C43.3419 28.0759 50.9682 23.3262 51.0794 13.4116H43.3812C43.4219 12.8233 43.4566 12.2209 43.4855 11.6039Z" fill="url(#paint1_radial_1413_342)"/>
<path fill-rule="evenodd" clip-rule="evenodd" d="M12.3999 6.2305H28L43.6 6.23047C43.6 8.13413 43.5641 9.92286 43.4855 11.6039C43.4566 12.2209 43.4219 12.8233 43.3812 13.4116C43.2089 15.8991 42.9273 18.1335 42.5105 20.1417C33.8439 28.216 29.0941 30.4546 20.7263 32.2703C19.4671 31.3979 18.382 30.3992 17.451 29.2535C17.0308 28.7365 16.642 28.1895 16.2828 27.6107C14.1352 24.1501 13.0441 19.5519 12.6188 13.4117C12.578 12.8233 12.5434 12.2209 12.5145 11.6039C12.4358 9.92288 12.3999 8.13415 12.3999 6.2305Z" fill="url(#paint2_radial_1413_342)"/>
<path d="M38.549 29.2535C38.9691 28.7365 39.3579 28.1895 39.7171 27.6106C40.9947 25.552 41.8984 23.0907 42.5105 20.1417C33.8439 28.216 29.0941 30.4546 20.7263 32.2703C22.293 33.3556 24.1292 34.2453 26.273 34.979V43.4348H18.5054V47.622H15.5146V49.77H28H40.4854V47.622H37.4945V43.4348H29.7269V34.979C33.5938 33.6557 36.4595 31.8248 38.549 29.2535Z" fill="url(#paint3_radial_1413_342)"/>
<path fill-rule="evenodd" clip-rule="evenodd" d="M15.5145 49.7699V47.6219H18.5054V43.4347H26.273V34.9789C24.4141 34.3428 22.7865 33.5893 21.3654 32.6927C21.1475 32.5552 20.9345 32.4144 20.7263 32.2702C20.5226 32.1291 20.3236 31.9847 20.129 31.837C19.1202 31.071 18.2314 30.2139 17.451 29.2534C17.2265 29.2699 17.0005 29.2799 16.7731 29.2833C10.6909 29.3748 3.70715 24.7527 2.99395 12.7038C2.97264 12.3438 2.95693 11.9771 2.94701 11.6038H12.5145C12.4975 11.2421 12.4826 10.8755 12.4696 10.5038C12.4338 9.48452 12.4125 8.42722 12.4041 7.33041C12.4013 6.96807 12.3999 6.60142 12.3999 6.23041L43.6 6.23037C43.6 6.60139 43.5986 6.96804 43.5958 7.33037C43.5874 8.42719 43.5661 9.4845 43.5303 10.5038C43.5173 10.8755 43.5024 11.2421 43.4854 11.6038H53.0529C53.043 11.9771 53.0273 12.3438 53.006 12.7038C52.2928 24.7527 45.309 29.3748 39.2268 29.2833C38.9994 29.2799 38.7734 29.2699 38.5489 29.2534C36.4595 31.8247 33.5938 33.6556 29.7269 34.9789V43.4347H37.4945V47.6219H40.4854V49.7699H15.5145ZM38.5945 46.5219H41.5854V50.8699H14.4145V46.5219H17.4054V42.3347H25.173V35.7546C23.2633 35.0462 21.5774 34.198 20.0998 33.1744C18.9186 32.356 17.8757 31.4292 16.9611 30.3794C13.6108 30.4745 10.0039 29.2607 7.14756 26.3801C4.12517 23.332 2.03017 18.5102 1.84739 11.633L1.81738 10.5038H11.3689C11.3217 9.14445 11.2999 7.72094 11.2999 6.23041V5.13041L44.7 5.13037V6.23037C44.7 7.72091 44.6782 9.14443 44.631 10.5038H54.1825L54.1525 11.633C53.9697 18.5102 51.8747 23.332 48.8523 26.38C45.996 29.2606 42.3891 30.4745 39.0388 30.3794C36.972 32.7516 34.2667 34.4785 30.8269 35.7546V42.3347H38.5945V46.5219ZM43.3812 13.4116C43.2089 15.899 42.9273 18.1334 42.5105 20.1416C42.444 20.4619 42.3741 20.7765 42.3006 21.0854C41.8112 23.1434 41.1643 24.9509 40.3289 26.54C40.1353 26.9085 39.9315 27.2652 39.7171 27.6105C39.9145 27.6359 40.1237 27.6457 40.3429 27.6402C40.5578 27.6347 40.7822 27.6144 41.0146 27.5792C44.7347 27.0165 50.4698 22.6502 51.0354 14.5116C51.0603 14.1522 51.0752 13.7856 51.0794 13.4116H43.3812ZM49.9325 14.5116H44.4003C44.2225 16.6329 43.9581 18.5797 43.5875 20.3651C43.1291 22.5739 42.506 24.5461 41.6764 26.3021C42.9554 25.9187 44.5002 25.0604 45.9388 23.6248C47.9393 21.6286 49.63 18.6021 49.9325 14.5116ZM14.9853 27.5793C15.4547 27.6503 15.892 27.6607 16.2828 27.6106C16.0685 27.2652 15.8646 26.9085 15.671 26.5401C13.924 23.2169 13.0016 18.939 12.6187 13.4116H4.92048C4.92468 13.7856 4.93957 14.1523 4.96454 14.5116C5.53008 22.6502 11.2652 27.0165 14.9853 27.5793ZM6.06737 14.5116C6.36986 18.6021 8.06061 21.6286 10.0611 23.6249C11.4997 25.0605 13.0445 25.9187 14.3236 26.3022C12.825 23.1303 11.9962 19.244 11.5996 14.5116H6.06737Z" fill="url(#paint4_radial_1413_342)"/>
</g>
<defs>
<filter id="filter0_f_1413_342" x="-4.50708" y="-7.29736" width="65.842" height="62.1816" filterUnits="userSpaceOnUse" color-interpolation-filters="sRGB">
<feFlood flood-opacity="0" result="BackgroundImageFix"/>
<feBlend mode="normal" in="SourceGraphic" in2="BackgroundImageFix" result="shape"/>
<feGaussianBlur stdDeviation="9.5" result="effect1_foregroundBlur_1413_342"/>
</filter>
<radialGradient id="paint0_radial_1413_342" cx="0" cy="0" r="1" gradientUnits="userSpaceOnUse" gradientTransform="translate(19.166 6.23047) rotate(64.4702) scale(48.2507 71.0774)">
<stop offset="0.0260417" stop-color="#FFC342"/>
<stop offset="0.572917" stop-color="#9F6E03"/>
<stop offset="0.609375" stop-color="#9F6E03"/>
<stop offset="1" stop-color="#FF8717"/>
</radialGradient>
<radialGradient id="paint1_radial_1413_342" cx="0" cy="0" r="1" gradientUnits="userSpaceOnUse" gradientTransform="translate(19.166 6.23047) rotate(64.4702) scale(48.2507 71.0774)">
<stop offset="0.0260417" stop-color="#FFC342"/>
<stop offset="0.572917" stop-color="#9F6E03"/>
<stop offset="0.609375" stop-color="#9F6E03"/>
<stop offset="1" stop-color="#FF8717"/>
</radialGradient>
<radialGradient id="paint2_radial_1413_342" cx="0" cy="0" r="1" gradientUnits="userSpaceOnUse" gradientTransform="translate(19.166 6.23047) rotate(64.4702) scale(48.2507 71.0774)">
<stop offset="0.0260417" stop-color="#FFC342"/>
<stop offset="0.572917" stop-color="#9F6E03"/>
<stop offset="0.609375" stop-color="#9F6E03"/>
<stop offset="1" stop-color="#FF8717"/>
</radialGradient>
<radialGradient id="paint3_radial_1413_342" cx="0" cy="0" r="1" gradientUnits="userSpaceOnUse" gradientTransform="translate(20.9416 12.6278) rotate(62.8843) scale(41.7287 61.47)">
<stop offset="0.0260417" stop-color="#FFC342"/>
<stop offset="0.572917" stop-color="#9F6E03"/>
<stop offset="0.609375" stop-color="#9F6E03"/>
<stop offset="1" stop-color="#FF8717"/>
</radialGradient>
<radialGradient id="paint4_radial_1413_342" cx="0" cy="0" r="1" gradientUnits="userSpaceOnUse" gradientTransform="translate(33.2604 20.7798) rotate(-104.012) scale(21.7268 58.4146)">
<stop offset="0.313257" stop-color="#FFE8BD"/>
<stop offset="1" stop-color="#543600" stop-opacity="0.6"/>
</radialGradient>
<clipPath id="clip0_1413_342">
<rect width="56" height="56" fill="white"/>
</clipPath>
</defs>
</svg>
