<svg width="56" height="56" viewBox="0 0 56 56" fill="none" xmlns="http://www.w3.org/2000/svg">
<g clip-path="url(#clip0_1413_297)">
<g filter="url(#filter0_f_1413_297)">
<path fill-rule="evenodd" clip-rule="evenodd" d="M26.1212 44.3388C35.5245 44.3388 43.1474 37.0615 43.1474 28.0844C43.1474 19.1074 35.5245 11.8301 26.1212 11.8301C16.7179 11.8301 9.09497 19.1074 9.09497 28.0844C9.09497 37.0615 16.7179 44.3388 26.1212 44.3388ZM26.1212 33.7856C29.3478 33.7856 31.9635 31.2331 31.9635 28.0844C31.9635 24.9358 29.3478 22.3833 26.1212 22.3833C22.8946 22.3833 20.2789 24.9358 20.2789 28.0844C20.2789 31.2331 22.8946 33.7856 26.1212 33.7856Z" fill="#F9BE3E" fill-opacity="0.24"/>
</g>
<path fill-rule="evenodd" clip-rule="evenodd" d="M31.9185 11.8482L34.5545 7.24023L42.4334 11.7472L39.7974 16.3552C42.3621 18.812 44.1236 21.9109 44.9715 25.2452L50.2731 25.224L50.3094 34.3009L45.0103 34.3221C44.178 37.6958 42.3933 40.8303 39.8904 43.2431L42.6592 47.9947L34.8165 52.5646L32.0477 47.813C28.7392 48.7793 25.1844 48.8237 21.7774 47.8573L18.8849 52.1156L11.3845 47.7451L13.5074 43.262C10.9473 40.815 9.6473 38.8588 8.80316 35.5171L3.23102 34.4969L3.1947 25.42L8.69416 25.398C9.50519 22.0174 11.3024 18.8901 13.7887 16.4625L11.1207 11.8839L18.9633 7.31398L21.6325 11.8947C24.9364 10.9353 28.5006 10.8829 31.9185 11.8482ZM21.8745 38.5471C26.7185 41.318 32.8916 39.6375 35.6625 34.7935C38.4333 29.9495 36.7528 23.7764 31.9088 21.0056C27.0648 18.2347 20.8917 19.9152 18.1209 24.7592C15.35 29.6032 17.0306 35.7762 21.8745 38.5471Z" fill="url(#paint0_radial_1413_297)"/>
<path d="M52.8417 6.83012C52.8417 8.22866 51.7079 9.36239 50.3094 9.36239C48.9109 9.36239 47.7771 8.22866 47.7771 6.83012C47.7771 5.43159 48.9109 4.29785 50.3094 4.29785C51.7079 4.29785 52.8417 5.43159 52.8417 6.83012Z" fill="url(#paint1_radial_1413_297)"/>
<path fill-rule="evenodd" clip-rule="evenodd" d="M34.1459 5.73914L43.9345 11.3385L41.1693 16.1723C43.3518 18.4553 44.9207 21.1984 45.8066 24.1418L51.3687 24.1195L51.4138 35.3964L45.8532 35.4186C44.9787 38.3939 43.4014 41.1616 41.2654 43.4178L44.1634 48.3912L34.4199 54.0688L31.5206 49.0931C28.5107 49.831 25.3351 49.8587 22.2508 49.118L19.2181 53.5828L9.9582 48.187L12.1777 43.4998C10.0259 41.3409 8.76235 39.3988 7.92196 36.4739L2.1347 35.4144L2.09033 24.3243L7.8465 24.3013C8.70856 21.3164 10.2947 18.5538 12.4161 16.2917L9.61654 11.4872L19.3599 5.80965L22.1603 10.6154C25.1465 9.88706 28.3064 9.84893 31.3807 10.5729L34.1459 5.73914ZM31.9185 11.8481C28.5006 10.8828 24.9364 10.9352 21.6325 11.8946L18.9633 7.31388L11.1208 11.8838L13.7887 16.4624C11.3024 18.89 9.50521 22.0173 8.69418 25.3979L3.19472 25.4199L3.23104 34.4968L8.80319 35.517C9.64733 38.8587 10.9473 40.815 13.5074 43.2619L11.3846 47.7451L18.8849 52.1155L21.7774 47.8572C25.1844 48.8236 28.7393 48.7792 32.0477 47.8129L34.8165 52.5645L42.6592 47.9946L39.8904 43.243C42.3933 40.8302 44.178 37.6958 45.0103 34.322L50.3094 34.3008L50.2731 25.2239L44.9715 25.2451C44.1237 21.9108 42.3621 18.812 39.7975 16.3551L42.4334 11.7471L34.5545 7.24013L31.9185 11.8481ZM22.4207 37.5922C26.7374 40.0615 32.2384 38.5638 34.7077 34.2472C37.1769 29.9306 35.6793 24.4295 31.3626 21.9603C27.046 19.491 21.5449 20.9887 19.0757 25.3053C16.6065 29.622 18.1041 35.123 22.4207 37.5922ZM53.9417 6.83003C53.9417 8.83607 52.3155 10.4623 50.3094 10.4623C48.3034 10.4623 46.6772 8.83607 46.6772 6.83003C46.6772 4.82398 48.3034 3.19775 50.3094 3.19775C52.3155 3.19775 53.9417 4.82398 53.9417 6.83003ZM50.3094 9.3623C51.708 9.3623 52.8417 8.22856 52.8417 6.83003C52.8417 5.43149 51.708 4.29775 50.3094 4.29775C48.9109 4.29775 47.7772 5.43149 47.7772 6.83003C47.7772 8.22856 48.9109 9.3623 50.3094 9.3623ZM35.6625 34.7934C32.8916 39.6374 26.7185 41.3179 21.8746 38.547C17.0306 35.7762 15.35 29.6031 18.1209 24.7591C20.8918 19.9152 27.0648 18.2346 31.9088 21.0055C36.7528 23.7763 38.4334 29.9494 35.6625 34.7934Z" fill="url(#paint2_radial_1413_297)"/>
</g>
<defs>
<filter id="filter0_f_1413_297" x="-9.90503" y="-7.16992" width="72.0525" height="70.5088" filterUnits="userSpaceOnUse" color-interpolation-filters="sRGB">
<feFlood flood-opacity="0" result="BackgroundImageFix"/>
<feBlend mode="normal" in="SourceGraphic" in2="BackgroundImageFix" result="shape"/>
<feGaussianBlur stdDeviation="9.5" result="effect1_foregroundBlur_1413_297"/>
</filter>
<radialGradient id="paint0_radial_1413_297" cx="0" cy="0" r="1" gradientUnits="userSpaceOnUse" gradientTransform="translate(28.4504 -7.7395) rotate(75.3462) scale(64.5595 84.8959)">
<stop offset="0.0260417" stop-color="#FFC342"/>
<stop offset="0.572917" stop-color="#9F6E03"/>
<stop offset="0.609375" stop-color="#9F6E03"/>
<stop offset="1" stop-color="#FF8717"/>
</radialGradient>
<radialGradient id="paint1_radial_1413_297" cx="0" cy="0" r="1" gradientUnits="userSpaceOnUse" gradientTransform="translate(28.4504 -7.7395) rotate(75.3462) scale(64.5595 84.8959)">
<stop offset="0.0260417" stop-color="#FFC342"/>
<stop offset="0.572917" stop-color="#9F6E03"/>
<stop offset="0.609375" stop-color="#9F6E03"/>
<stop offset="1" stop-color="#FF8717"/>
</radialGradient>
<radialGradient id="paint2_radial_1413_297" cx="0" cy="0" r="1" gradientUnits="userSpaceOnUse" gradientTransform="translate(46.9029 12.0736) rotate(147.064) scale(44.6092 103.115)">
<stop offset="0.313257" stop-color="#FFE8BD"/>
<stop offset="1" stop-color="#54401B"/>
</radialGradient>
<clipPath id="clip0_1413_297">
<rect width="56" height="56" fill="white"/>
</clipPath>
</defs>
</svg>
