<svg width="57" height="56" viewBox="0 0 57 56" fill="none" xmlns="http://www.w3.org/2000/svg">
<g clip-path="url(#clip0_1413_2111)">
<g filter="url(#filter0_f_1413_2111)">
<path d="M42.5732 29.7807C42.5732 39.765 36.0661 47.8588 28.0392 47.8588C20.0122 47.8588 13.5051 39.765 13.5051 29.7807C13.5051 19.7965 20.0122 11.7026 28.0392 11.7026C36.0661 11.7026 42.5732 19.7965 42.5732 29.7807Z" fill="#F9BE3E" fill-opacity="0.24"/>
</g>
<path d="M40.1919 32.6272C44.1102 28.564 46.3748 26.0642 48.7265 19.0089C43.8768 21.5853 41.5362 23.5904 39.0028 25.7607L39.0016 25.7617L38.9984 25.7644C38.7905 25.9425 38.5813 26.1218 38.3693 26.3025C38.3693 26.3025 25.4281 26.1953 19.2376 17.9064C18.7219 21.0376 19.4997 23.6335 19.8779 24.8955C19.8958 24.9551 19.9127 25.0117 19.9286 25.0653C20.2046 25.9953 20.4322 26.7619 20.1067 28.1128L17.5305 33.7203C17.2566 34.3165 17.6214 35.0105 18.2679 35.123L20.1067 35.4428C20.3299 36.0104 20.5335 36.7273 20.7286 37.4143C20.923 38.0985 21.1089 38.7532 21.2973 39.2013C21.4945 39.6704 21.676 40.1197 21.8466 40.5419C22.5991 42.4045 23.0779 44.3637 23.8068 44.5333C24.329 44.6548 25.9184 43.6771 27.2113 43.3787C27.6475 43.278 28.0568 43.1835 28.3915 43.1156C33.4857 41.0818 36.6919 37.9675 40.1919 32.6272Z" fill="url(#paint0_radial_1413_2111)"/>
<path fill-rule="evenodd" clip-rule="evenodd" d="M26.5193 54.5209L3.41907 54.5209C4.92767 51.343 8.71887 50.8832 13.1757 50.3426C13.8821 50.2569 14.6052 50.1692 15.3385 50.0684C16.3357 49.9312 17.3728 49.8409 18.4072 49.7508C23.4315 49.3132 28.3915 48.8813 28.3915 43.1156C33.4857 41.0818 36.6919 37.9675 40.1919 32.6272C39.4141 39.294 40.4518 43.3836 42.3758 46.532C40.6287 49.5879 31.0768 53.1312 26.5193 54.5209Z" fill="url(#paint1_radial_1413_2111)"/>
<path d="M49.6196 54.5209C48.9024 53.7801 48.1842 53.0825 47.4813 52.3997C45.5544 50.5279 43.7418 48.7671 42.3758 46.532C40.6287 49.5879 31.0768 53.1312 26.5193 54.5209L49.6196 54.5209Z" fill="url(#paint2_radial_1413_2111)"/>
<path fill-rule="evenodd" clip-rule="evenodd" d="M40.1919 32.6272C44.1102 28.564 46.3748 26.0642 48.7265 19.0089C43.8768 21.5853 41.5362 23.5904 39.0028 25.7607L39.0016 25.7617L38.9984 25.7644C38.7905 25.9425 38.5813 26.1218 38.3693 26.3025C38.3693 26.3025 25.4281 26.1953 19.2376 17.9064C18.7219 21.0376 19.4997 23.6335 19.8779 24.8955C19.8958 24.9551 19.9127 25.0117 19.9286 25.0653C20.2046 25.9953 20.4322 26.7619 20.1067 28.1128L17.5305 33.7203C17.2566 34.3165 17.6214 35.0105 18.2679 35.123L20.1067 35.4428C20.3299 36.0104 20.5335 36.7273 20.7286 37.4143C19.2998 38.3712 19.0636 39.9016 18.4072 43.7891C16.159 43.3787 11.4911 39.6147 9.54306 34.9004C6.24552 24.2468 8.6386 17.9064 16.159 14.0848L19.2376 10.9639L32.866 16.5061C30.2096 12.9156 26.4992 10.2987 22.7632 8.09326C30.2905 4.72194 41.4561 3.41164 48.7265 9.95063C56.9752 18.1355 54.1982 29.0576 51.6569 39.0524C50.2128 44.7322 48.8448 50.1125 49.6196 54.5209C48.9024 53.7801 48.1842 53.0825 47.4813 52.3997C45.5544 50.5279 43.7418 48.7671 42.3758 46.532C40.4518 43.3836 39.4141 39.294 40.1919 32.6272Z" fill="url(#paint3_radial_1413_2111)"/>
<path fill-rule="evenodd" clip-rule="evenodd" d="M23.988 7.9969C27.4365 10.1336 30.8182 12.8131 33.3082 16.1788L32.6577 17.0149L19.3725 11.577L16.4838 14.5394L16.3944 14.5817C9.97836 17.6195 7.85337 23.7347 8.68767 29.7205C9.47395 35.3618 12.8789 40.7764 17.6812 43.2472C17.2401 40.2551 18.4679 38.1828 19.8074 37.1147C19.6636 36.6352 19.5193 36.1616 19.371 35.7422H18.3085C17.1796 35.7422 16.4294 34.574 16.899 33.5474L19.8598 27.0751C19.6562 26.3819 19.2652 24.9986 18.9662 23.3965C18.6377 21.6356 18.409 19.5532 18.695 17.8168L18.905 16.5416L19.6783 17.577C22.6663 21.5779 27.3093 23.6319 31.2659 24.6809C33.2372 25.2036 35.0197 25.4718 36.3088 25.6091C36.953 25.6777 37.4727 25.7136 37.8299 25.7322C38.0009 25.7412 38.1345 25.7462 38.2266 25.7489C40.3944 24.483 41.5654 23.6315 43.3426 22.3393C44.5155 21.4864 45.9526 20.4414 48.1147 18.9586L49.4655 18.032L48.9475 19.586C47.7622 23.1421 46.6646 25.4787 45.3541 27.4465C44.0766 29.3646 42.6088 30.9122 40.7172 32.8747C40.0016 39.2404 40.986 43.1307 42.759 46.1023C43.6609 47.6138 44.7792 48.9086 46.0246 50.1856C46.6158 50.7919 47.2316 51.3901 47.8661 52.0064L47.9695 52.1068C48.3315 52.4586 48.6991 52.8163 49.0693 53.1831C49.1462 50.191 49.7144 46.8583 50.4102 43.4045C50.646 42.2341 50.8963 41.0502 51.1483 39.8583C51.7591 36.9694 52.3799 34.0336 52.8274 31.1308C54.095 22.9079 53.9116 15.2771 48.3588 10.2829C41.5838 4.18955 32.7627 4.5652 23.988 7.9969ZM48.3013 53.9707C47.934 53.6067 47.5674 53.2499 47.2029 52.8958L47.0965 52.7923C46.4648 52.1787 45.8391 51.5709 45.2371 50.9537C43.9643 49.6486 42.7794 48.2832 41.8144 46.666C40.0768 43.7537 39.0923 40.0924 39.4579 34.5955C36.0695 38.9459 31.6406 41.8134 28.9367 43.4308C28.8943 44.8026 28.5724 45.9148 28.0069 46.8106C27.3982 47.7749 26.5345 48.4454 25.5325 48.9217C23.5735 49.8528 20.9912 50.0776 18.5276 50.2922L18.4616 50.2979C17.4224 50.3884 16.3969 50.4778 15.4135 50.613C14.6552 50.7173 13.9172 50.8069 13.2029 50.8935C11.3438 51.119 9.64522 51.3251 8.16644 51.7216C6.49998 52.1684 5.21606 52.8336 4.38286 53.9707L48.3013 53.9707ZM27.7917 44.0422C27.6896 44.9437 27.4358 45.6547 27.0767 46.2235C26.603 46.9739 25.9192 47.52 25.0603 47.9282C23.3077 48.7612 20.9317 48.9786 18.3943 49.1996L18.3532 49.2032C17.3234 49.2929 16.2745 49.3842 15.2636 49.5233C14.5546 49.6208 13.8464 49.7067 13.1483 49.7914C11.2579 50.0206 9.44119 50.2409 7.88155 50.6591C5.71726 51.2395 3.89506 52.2356 2.92226 54.2848L2.54919 55.0707L50.1856 55.0707L50.1694 54.5049C50.0782 51.3178 50.6863 47.6043 51.4886 43.6217C51.7199 42.4736 51.9674 41.3028 52.2179 40.1181C52.8312 37.2169 53.4621 34.2329 53.9145 31.2984C55.1853 23.0548 55.1087 14.8743 49.0944 9.46508C41.6567 2.77564 31.989 3.50926 22.801 7.288C21.9997 6.85006 21.1312 6.53655 20.4521 6.32926C20.0754 6.21425 19.7509 6.13014 19.5196 6.07458C19.4039 6.04678 19.3113 6.02606 19.2468 6.01214C19.2145 6.00518 19.1893 5.99991 19.1717 5.99631L19.1512 5.99214L19.1454 5.99098L19.1436 5.99063C19.1435 5.99061 19.1426 5.99043 19.0372 6.53024L19.1426 5.99043L18.8849 5.94013L18.6838 6.10884L19.0372 6.53024C18.6838 6.10884 18.684 6.10864 18.6838 6.10884L18.6815 6.11074L18.6782 6.11354L18.6685 6.12187C18.6607 6.12863 18.6503 6.13782 18.6373 6.14944C18.6115 6.17268 18.5757 6.20566 18.5313 6.24849C18.4427 6.33411 18.32 6.45919 18.1746 6.6244C17.8839 6.95469 17.502 7.44635 17.1218 8.10472C16.3931 9.36662 15.6746 11.235 15.6133 13.7383C8.90786 17.0774 6.72711 23.6226 7.5982 29.8723C8.47856 36.1886 12.4871 42.3286 18.231 44.7143L19.2616 45.1424L18.9733 44.0643C18.2112 41.2144 19.1153 39.2993 20.1605 38.2701C20.261 38.5821 20.3624 38.8725 20.4643 39.1149C20.9922 40.3706 21.6655 41.8075 22.2132 42.9432C22.9045 44.3767 24.5129 45.1904 26.0837 44.6882C26.6305 44.5134 27.2273 44.2979 27.7917 44.0422ZM16.7903 12.6494L19.1028 10.278L31.0795 15.1803C28.6428 12.4408 25.5848 10.2033 22.4837 8.37262C21.7253 7.92493 20.8401 7.59781 20.131 7.38134C19.7791 7.27393 19.4764 7.19551 19.2626 7.14415C19.2425 7.1393 19.2231 7.13469 19.2045 7.13033C19.147 7.18931 19.078 7.26285 19.0004 7.35108C18.7514 7.63403 18.4138 8.06713 18.0744 8.6548C17.5366 9.58624 16.9917 10.9101 16.7903 12.6494ZM38.3694 26.3023C38.3648 26.8523 38.3646 26.8523 38.3643 26.8523L38.3611 26.8522L38.3526 26.8521L38.3219 26.8516C38.2953 26.8511 38.2566 26.8503 38.2065 26.8488C38.1062 26.8459 37.9599 26.8405 37.7725 26.8307C37.3978 26.8112 36.8581 26.7739 36.1923 26.7029C34.8615 26.5611 33.0218 26.2845 30.984 25.7442C27.2747 24.7608 22.847 22.8872 19.6674 19.3033C19.6414 20.5544 19.8114 21.9286 20.0476 23.1947C20.3676 24.9098 20.7979 26.3703 20.9729 26.9601L21.0316 27.1579L17.8993 34.005C17.763 34.303 17.9808 34.6422 18.3085 34.6422H20.1281L20.2651 34.991C20.4955 35.577 20.7112 36.2978 20.9102 36.9624C20.9311 37.0324 20.9519 37.1017 20.9724 37.1702C21.1091 37.6256 21.2364 38.0399 21.3576 38.3762C21.9716 38.3908 22.6624 38.2775 23.2793 38.1325C23.6373 38.0483 23.9585 37.9564 24.2095 37.8805C24.3 37.8531 24.3898 37.8251 24.4705 37.7998C24.5919 37.7619 24.6927 37.7304 24.7442 37.7174L25.0145 38.7836C24.9867 38.7907 24.9379 38.8061 24.8607 38.8304C24.782 38.8552 24.6738 38.8893 24.5281 38.9334C24.2639 39.0133 23.919 39.1121 23.531 39.2033C23.0231 39.3227 22.4194 39.4346 21.8139 39.4676C22.2635 40.4894 22.7712 41.5679 23.204 42.4654C23.6826 43.4579 24.7541 43.9584 25.7487 43.6404C26.5639 43.3798 27.4365 43.0425 28.1109 42.6423C31.081 40.88 36.3057 37.5532 39.7319 32.3255L39.7602 32.2824L39.796 32.2452C41.76 30.2086 43.1956 28.7029 44.4385 26.8367C45.4791 25.2743 46.3936 23.4445 47.3509 20.8252C45.9807 21.783 44.9408 22.5386 44.0437 23.1904C42.1862 24.5399 40.9412 25.4444 38.6456 26.7779L38.5154 26.8535L38.3643 26.8523L38.3694 26.3023ZM24.4886 26.6472C24.148 26.4998 23.702 26.3537 23.2522 26.2496L23.5005 25.1779C24.1516 25.3288 24.8388 25.5669 25.3019 25.8194C25.3539 25.8477 25.4048 25.8755 25.4547 25.9027C26.4558 26.4477 27.0978 26.7972 28.7349 28.0607L28.0629 28.9315C26.8712 28.0118 26.2428 27.6045 25.5886 27.2328V29.2217H24.4886V26.6472Z" fill="url(#paint4_radial_1413_2111)"/>
</g>
<defs>
<filter id="filter0_f_1413_2111" x="-5.49487" y="-7.29736" width="67.0681" height="74.1562" filterUnits="userSpaceOnUse" color-interpolation-filters="sRGB">
<feFlood flood-opacity="0" result="BackgroundImageFix"/>
<feBlend mode="normal" in="SourceGraphic" in2="BackgroundImageFix" result="shape"/>
<feGaussianBlur stdDeviation="9.5" result="effect1_foregroundBlur_1413_2111"/>
</filter>
<radialGradient id="paint0_radial_1413_2111" cx="0" cy="0" r="1" gradientUnits="userSpaceOnUse" gradientTransform="translate(19.2804 26.173) rotate(72.5508) scale(52.5583 72.0467)">
<stop offset="0.0260417" stop-color="#FFCC5F"/>
<stop offset="0.572917" stop-color="#9F6E03"/>
<stop offset="0.609375" stop-color="#9F6E03"/>
<stop offset="1" stop-color="#FF8717"/>
</radialGradient>
<radialGradient id="paint1_radial_1413_2111" cx="0" cy="0" r="1" gradientUnits="userSpaceOnUse" gradientTransform="translate(18.8751 23.7894) rotate(52.2877) scale(67.6351 90.4728)">
<stop offset="0.0260417" stop-color="#FFC342"/>
<stop offset="0.572917" stop-color="#9F6E03"/>
<stop offset="0.609375" stop-color="#9F6E03"/>
<stop offset="1" stop-color="#FF8717"/>
</radialGradient>
<radialGradient id="paint2_radial_1413_2111" cx="0" cy="0" r="1" gradientUnits="userSpaceOnUse" gradientTransform="translate(36.9406 29.9118) rotate(83.5182) scale(50.0705 67.9872)">
<stop offset="0.0260417" stop-color="#FFC342"/>
<stop offset="0.473957" stop-color="#B68212"/>
<stop offset="0.572917" stop-color="#9F6103"/>
<stop offset="1" stop-color="#FF8717"/>
</radialGradient>
<radialGradient id="paint3_radial_1413_2111" cx="0" cy="0" r="1" gradientUnits="userSpaceOnUse" gradientTransform="translate(31.7365 3.37152) rotate(81.0221) scale(61.2001 80.8888)">
<stop offset="0.0260417" stop-color="#FFC342"/>
<stop offset="0.473957" stop-color="#A46506"/>
<stop offset="0.572917" stop-color="#9F6103"/>
<stop offset="1" stop-color="#FF8717"/>
</radialGradient>
<radialGradient id="paint4_radial_1413_2111" cx="0" cy="0" r="1" gradientUnits="userSpaceOnUse" gradientTransform="translate(38.1445 17.3324) rotate(133.929) scale(25.0384 58.2533)">
<stop offset="0.359369" stop-color="#FFE8BD"/>
<stop offset="0.744802" stop-color="#543600"/>
</radialGradient>
<clipPath id="clip0_1413_2111">
<rect width="56" height="56" fill="white" transform="translate(0.238281)"/>
</clipPath>
</defs>
</svg>
